  0
SECTION
  2
HEADER
  9
$ANGBASE
  50
0.0
  9
$ANGDIR
  70
1
  9
$MEASUREMENT
  70
1
  0
ENDSEC
  0
SECTION
  2
TABLES
  0
TABLE
  2
LTYPE
  70
4
  0
LTYPE
  5
40F
  2
CONTINUOUS
  70
0
  3
Solid line
  72
65
  73
0
  40
0.0
  0
LTYPE
  5
410
  2
DASHDOT
 70
0
  3
Dash Dot ____ _ ____ _
 72
65
 73
4
 40
2.0
 49
1.25
 49
-0.25
 49
0.25
 49
-0.25
  0
LTYPE
  5
411
  2
DASHED
 70
0
  3
Dashed __ __ __ __ __
 72
65
 73
2
 40
0.75
 49
0.5
 49
-0.25
  0
LTYPE
  5
43B
  2
DOTTED
 70
0
  3
Dotted .  .  .  .
 72
65
 73
2
 40
0.2
 49
0.0
 49
-0.2
  0
ENDTAB
  0
TABLE
  2
STYLE
  70
4
  0
STYLE
  2
KICAD
  70
0
  40
0
  41
1
  42
1
  50
0
  71
0
  3
isocp.shx
  0
STYLE
  2
KICADB
  70
0
  40
0
  41
1
  42
1
  50
0
  71
0
  3
isocp.shx
  0
STYLE
  2
KICADI
  70
0
  40
0
  41
1
  42
1
  50
15
  71
0
  3
isocp.shx
  0
STYLE
  2
KICADBI
  70
0
  40
0
  41
1
  42
1
  50
15
  71
0
  3
isocp.shx
  0
ENDTAB
  0
TABLE
  2
LAYER
  70
1
  0
LAYER
  2
BLACK
  70
0
  62
7
  6
CONTINUOUS
  0
ENDTAB
  0
ENDSEC
  0
SECTION
  2
ENTITIES
0
LINE
8
BLACK
6
CONTINUOUS
10
50.0033959999999951
20
-128.99580899999998
11
50.2098859999999974
21
-129.0758040000000051
0
LINE
8
BLACK
6
CONTINUOUS
10
50.2098859999999974
20
-129.0758040000000051
11
50.3981619999999992
21
-129.1923789999999883
0
LINE
8
BLACK
6
CONTINUOUS
10
50.3981619999999992
20
-129.1923789999999883
11
50.5618109999999987
21
-129.3415650000000028
0
LINE
8
BLACK
6
CONTINUOUS
10
50.5618109999999987
20
-129.3415650000000028
11
50.695260999999995
21
-129.5182810000000018
0
LINE
8
BLACK
6
CONTINUOUS
10
50.695260999999995
20
-129.5182810000000018
11
50.793966999999995
21
-129.7165099999999995
0
LINE
8
BLACK
6
CONTINUOUS
10
50.793966999999995
20
-129.7165099999999995
11
50.8545680000000004
21
-129.9295009999999877
0
LINE
8
BLACK
6
CONTINUOUS
10
50.8545680000000004
20
-129.9295009999999877
11
50.875
21
-130.1500000000000057
0
LINE
8
BLACK
6
CONTINUOUS
10
50.875
20
-130.1500000000000057
11
50.8545680000000004
21
-130.3704989999999952
0
LINE
8
BLACK
6
CONTINUOUS
10
50.8545680000000004
20
-130.3704989999999952
11
50.793966999999995
21
-130.5834899999999834
0
LINE
8
BLACK
6
CONTINUOUS
10
50.793966999999995
20
-130.5834899999999834
11
50.695260999999995
21
-130.7817189999999812
0
LINE
8
BLACK
6
CONTINUOUS
10
50.695260999999995
20
-130.7817189999999812
11
50.5618109999999987
21
-130.9584349999999802
0
LINE
8
BLACK
6
CONTINUOUS
10
50.5618109999999987
20
-130.9584349999999802
11
50.3981619999999992
21
-131.1076209999999946
0
LINE
8
BLACK
6
CONTINUOUS
10
50.3981619999999992
20
-131.1076209999999946
11
50.2098859999999974
21
-131.2241960000000063
0
LINE
8
BLACK
6
CONTINUOUS
10
50.2098859999999974
20
-131.2241960000000063
11
50.0033959999999951
21
-131.304191000000003
0
LINE
8
BLACK
6
CONTINUOUS
10
50.0033959999999951
20
-131.304191000000003
11
49.7857219999999998
21
-131.3448809999999867
0
LINE
8
BLACK
6
CONTINUOUS
10
49.7857219999999998
20
-131.3448809999999867
11
49.5642779999999945
21
-131.3448809999999867
0
LINE
8
BLACK
6
CONTINUOUS
10
49.5642779999999945
20
-131.3448809999999867
11
49.3466039999999992
21
-131.304191000000003
0
LINE
8
BLACK
6
CONTINUOUS
10
49.3466039999999992
20
-131.304191000000003
11
49.140113999999997
21
-131.2241960000000063
0
LINE
8
BLACK
6
CONTINUOUS
10
49.140113999999997
20
-131.2241960000000063
11
48.9518379999999951
21
-131.1076209999999946
0
LINE
8
BLACK
6
CONTINUOUS
10
48.9518379999999951
20
-131.1076209999999946
11
48.7881889999999956
21
-130.9584349999999802
0
LINE
8
BLACK
6
CONTINUOUS
10
48.7881889999999956
20
-130.9584349999999802
11
48.6547389999999993
21
-130.7817189999999812
0
LINE
8
BLACK
6
CONTINUOUS
10
48.6547389999999993
20
-130.7817189999999812
11
48.5560329999999993
21
-130.5834899999999834
0
LINE
8
BLACK
6
CONTINUOUS
10
48.5560329999999993
20
-130.5834899999999834
11
48.495432000000001
21
-130.3704989999999952
0
LINE
8
BLACK
6
CONTINUOUS
10
48.495432000000001
20
-130.3704989999999952
11
48.4749999999999943
21
-130.1500000000000057
0
LINE
8
BLACK
6
CONTINUOUS
10
48.4749999999999943
20
-130.1500000000000057
11
48.495432000000001
21
-129.9295009999999877
0
LINE
8
BLACK
6
CONTINUOUS
10
48.495432000000001
20
-129.9295009999999877
11
48.5560329999999993
21
-129.7165099999999995
0
LINE
8
BLACK
6
CONTINUOUS
10
48.5560329999999993
20
-129.7165099999999995
11
48.6547389999999993
21
-129.5182810000000018
0
LINE
8
BLACK
6
CONTINUOUS
10
48.6547389999999993
20
-129.5182810000000018
11
48.7881889999999956
21
-129.3415650000000028
0
LINE
8
BLACK
6
CONTINUOUS
10
48.7881889999999956
20
-129.3415650000000028
11
48.9518379999999951
21
-129.1923789999999883
0
LINE
8
BLACK
6
CONTINUOUS
10
48.9518379999999951
20
-129.1923789999999883
11
49.140113999999997
21
-129.0758040000000051
0
LINE
8
BLACK
6
CONTINUOUS
10
49.140113999999997
20
-129.0758040000000051
11
49.3466039999999992
21
-128.99580899999998
0
LINE
8
BLACK
6
CONTINUOUS
10
49.3466039999999992
20
-128.99580899999998
11
49.5642779999999945
21
-128.9551189999999963
0
LINE
8
BLACK
6
CONTINUOUS
10
49.5642779999999945
20
-128.9551189999999963
11
49.7857219999999998
21
-128.9551189999999963
0
LINE
8
BLACK
6
CONTINUOUS
10
49.7857219999999998
20
-128.9551189999999963
11
50.0033959999999951
21
-128.99580899999998
0
LINE
8
BLACK
6
CONTINUOUS
10
48.5890969999999953
20
-130.3529900000000055
11
48.6448859999999996
21
-130.5490680000000054
0
LINE
8
BLACK
6
CONTINUOUS
10
48.6448859999999996
20
-130.5490680000000054
11
48.735754
21
-130.7315559999999834
0
LINE
8
BLACK
6
CONTINUOUS
10
48.735754
20
-130.7315559999999834
11
48.8586069999999992
21
-130.8942399999999964
0
LINE
8
BLACK
6
CONTINUOUS
10
48.8586069999999992
20
-130.8942399999999964
11
49.0092619999999997
21
-131.0315799999999911
0
LINE
8
BLACK
6
CONTINUOUS
10
49.0092619999999997
20
-131.0315799999999911
11
49.1825869999999981
21
-131.1388989999999808
0
LINE
8
BLACK
6
CONTINUOUS
10
49.1825869999999981
20
-131.1388989999999808
11
49.372681
21
-131.2125409999999874
0
LINE
8
BLACK
6
CONTINUOUS
10
49.372681
20
-131.2125409999999874
11
49.5730700000000013
21
-131.25
0
LINE
8
BLACK
6
CONTINUOUS
10
49.5730700000000013
20
-131.25
11
49.7769300000000001
21
-131.25
0
LINE
8
BLACK
6
CONTINUOUS
10
49.7769300000000001
20
-131.25
11
49.9773189999999943
21
-131.2125409999999874
0
LINE
8
BLACK
6
CONTINUOUS
10
49.9773189999999943
20
-131.2125409999999874
11
50.1674129999999963
21
-131.1388989999999808
0
LINE
8
BLACK
6
CONTINUOUS
10
50.1674129999999963
20
-131.1388989999999808
11
50.3407379999999947
21
-131.0315799999999911
0
LINE
8
BLACK
6
CONTINUOUS
10
50.3407379999999947
20
-131.0315799999999911
11
50.4913929999999951
21
-130.8942399999999964
0
LINE
8
BLACK
6
CONTINUOUS
10
50.4913929999999951
20
-130.8942399999999964
11
50.6142459999999943
21
-130.7315559999999834
0
LINE
8
BLACK
6
CONTINUOUS
10
50.6142459999999943
20
-130.7315559999999834
11
50.7051139999999947
21
-130.5490680000000054
0
LINE
8
BLACK
6
CONTINUOUS
10
50.7051139999999947
20
-130.5490680000000054
11
50.760902999999999
21
-130.3529900000000055
0
LINE
8
BLACK
6
CONTINUOUS
10
50.760902999999999
20
-130.3529900000000055
11
50.779713000000001
21
-130.1500000000000057
0
LINE
8
BLACK
6
CONTINUOUS
10
50.779713000000001
20
-130.1500000000000057
11
50.760902999999999
21
-129.9470100000000059
0
LINE
8
BLACK
6
CONTINUOUS
10
50.760902999999999
20
-129.9470100000000059
11
50.7051139999999947
21
-129.7509320000000059
0
LINE
8
BLACK
6
CONTINUOUS
10
50.7051139999999947
20
-129.7509320000000059
11
50.6142459999999943
21
-129.5684439999999995
0
LINE
8
BLACK
6
CONTINUOUS
10
50.6142459999999943
20
-129.5684439999999995
11
50.4913929999999951
21
-129.4057599999999866
0
LINE
8
BLACK
6
CONTINUOUS
10
50.4913929999999951
20
-129.4057599999999866
11
50.3407379999999947
21
-129.2684199999999919
0
LINE
8
BLACK
6
CONTINUOUS
10
50.3407379999999947
20
-129.2684199999999919
11
50.1674129999999963
21
-129.1611010000000022
0
LINE
8
BLACK
6
CONTINUOUS
10
50.1674129999999963
20
-129.1611010000000022
11
49.9773189999999943
21
-129.0874589999999955
0
LINE
8
BLACK
6
CONTINUOUS
10
49.9773189999999943
20
-129.0874589999999955
11
49.7769300000000001
21
-129.0499999999999829
0
LINE
8
BLACK
6
CONTINUOUS
10
49.7769300000000001
20
-129.0499999999999829
11
49.5730700000000013
21
-129.0499999999999829
0
LINE
8
BLACK
6
CONTINUOUS
10
49.5730700000000013
20
-129.0499999999999829
11
49.372681
21
-129.0874589999999955
0
LINE
8
BLACK
6
CONTINUOUS
10
49.372681
20
-129.0874589999999955
11
49.1825869999999981
21
-129.1611010000000022
0
LINE
8
BLACK
6
CONTINUOUS
10
49.1825869999999981
20
-129.1611010000000022
11
49.0092619999999997
21
-129.2684199999999919
0
LINE
8
BLACK
6
CONTINUOUS
10
49.0092619999999997
20
-129.2684199999999919
11
48.8586069999999992
21
-129.4057599999999866
0
LINE
8
BLACK
6
CONTINUOUS
10
48.8586069999999992
20
-129.4057599999999866
11
48.735754
21
-129.5684439999999995
0
LINE
8
BLACK
6
CONTINUOUS
10
48.735754
20
-129.5684439999999995
11
48.6448859999999996
21
-129.7509320000000059
0
LINE
8
BLACK
6
CONTINUOUS
10
48.6448859999999996
20
-129.7509320000000059
11
48.5890969999999953
21
-129.9470100000000059
0
LINE
8
BLACK
6
CONTINUOUS
10
48.5890969999999953
20
-129.9470100000000059
11
48.5702870000000004
21
-130.1500000000000057
0
LINE
8
BLACK
6
CONTINUOUS
10
48.5702870000000004
20
-130.1500000000000057
11
48.5890969999999953
21
-130.3529900000000055
0
LINE
8
BLACK
6
CONTINUOUS
10
237.1533959999999865
20
-128.070808999999997
11
237.3598859999999888
21
-128.1508039999999937
0
LINE
8
BLACK
6
CONTINUOUS
10
237.3598859999999888
20
-128.1508039999999937
11
237.5481619999999907
21
-128.2673790000000054
0
LINE
8
BLACK
6
CONTINUOUS
10
237.5481619999999907
20
-128.2673790000000054
11
237.7118109999999831
21
-128.4165649999999914
0
LINE
8
BLACK
6
CONTINUOUS
10
237.7118109999999831
20
-128.4165649999999914
11
237.8452609999999936
21
-128.5932809999999904
0
LINE
8
BLACK
6
CONTINUOUS
10
237.8452609999999936
20
-128.5932809999999904
11
237.9439669999999865
21
-128.7915099999999882
0
LINE
8
BLACK
6
CONTINUOUS
10
237.9439669999999865
20
-128.7915099999999882
11
238.0045679999999777
21
-129.0045010000000048
0
LINE
8
BLACK
6
CONTINUOUS
10
238.0045679999999777
20
-129.0045010000000048
11
238.0249999999999773
21
-129.2249999999999943
0
LINE
8
BLACK
6
CONTINUOUS
10
238.0249999999999773
20
-129.2249999999999943
11
238.0045679999999777
21
-129.4454989999999839
0
LINE
8
BLACK
6
CONTINUOUS
10
238.0045679999999777
20
-129.4454989999999839
11
237.9439669999999865
21
-129.6584900000000005
0
LINE
8
BLACK
6
CONTINUOUS
10
237.9439669999999865
20
-129.6584900000000005
11
237.8452609999999936
21
-129.8567189999999982
0
LINE
8
BLACK
6
CONTINUOUS
10
237.8452609999999936
20
-129.8567189999999982
11
237.7118109999999831
21
-130.0334349999999972
0
LINE
8
BLACK
6
CONTINUOUS
10
237.7118109999999831
20
-130.0334349999999972
11
237.5481619999999907
21
-130.1826209999999833
0
LINE
8
BLACK
6
CONTINUOUS
10
237.5481619999999907
20
-130.1826209999999833
11
237.3598859999999888
21
-130.2991959999999949
0
LINE
8
BLACK
6
CONTINUOUS
10
237.3598859999999888
20
-130.2991959999999949
11
237.1533959999999865
21
-130.3791909999999916
0
LINE
8
BLACK
6
CONTINUOUS
10
237.1533959999999865
20
-130.3791909999999916
11
236.9357219999999984
21
-130.4198810000000037
0
LINE
8
BLACK
6
CONTINUOUS
10
236.9357219999999984
20
-130.4198810000000037
11
236.7142779999999789
21
-130.4198810000000037
0
LINE
8
BLACK
6
CONTINUOUS
10
236.7142779999999789
20
-130.4198810000000037
11
236.4966039999999907
21
-130.3791909999999916
0
LINE
8
BLACK
6
CONTINUOUS
10
236.4966039999999907
20
-130.3791909999999916
11
236.2901139999999884
21
-130.2991959999999949
0
LINE
8
BLACK
6
CONTINUOUS
10
236.2901139999999884
20
-130.2991959999999949
11
236.1018379999999866
21
-130.1826209999999833
0
LINE
8
BLACK
6
CONTINUOUS
10
236.1018379999999866
20
-130.1826209999999833
11
235.9381889999999942
21
-130.0334349999999972
0
LINE
8
BLACK
6
CONTINUOUS
10
235.9381889999999942
20
-130.0334349999999972
11
235.8047389999999837
21
-129.8567189999999982
0
LINE
8
BLACK
6
CONTINUOUS
10
235.8047389999999837
20
-129.8567189999999982
11
235.7060329999999908
21
-129.6584900000000005
0
LINE
8
BLACK
6
CONTINUOUS
10
235.7060329999999908
20
-129.6584900000000005
11
235.6454319999999996
21
-129.4454989999999839
0
LINE
8
BLACK
6
CONTINUOUS
10
235.6454319999999996
20
-129.4454989999999839
11
235.625
21
-129.2249999999999943
0
LINE
8
BLACK
6
CONTINUOUS
10
235.625
20
-129.2249999999999943
11
235.6454319999999996
21
-129.0045010000000048
0
LINE
8
BLACK
6
CONTINUOUS
10
235.6454319999999996
20
-129.0045010000000048
11
235.7060329999999908
21
-128.7915099999999882
0
LINE
8
BLACK
6
CONTINUOUS
10
235.7060329999999908
20
-128.7915099999999882
11
235.8047389999999837
21
-128.5932809999999904
0
LINE
8
BLACK
6
CONTINUOUS
10
235.8047389999999837
20
-128.5932809999999904
11
235.9381889999999942
21
-128.4165649999999914
0
LINE
8
BLACK
6
CONTINUOUS
10
235.9381889999999942
20
-128.4165649999999914
11
236.1018379999999866
21
-128.2673790000000054
0
LINE
8
BLACK
6
CONTINUOUS
10
236.1018379999999866
20
-128.2673790000000054
11
236.2901139999999884
21
-128.1508039999999937
0
LINE
8
BLACK
6
CONTINUOUS
10
236.2901139999999884
20
-128.1508039999999937
11
236.4966039999999907
21
-128.070808999999997
0
LINE
8
BLACK
6
CONTINUOUS
10
236.4966039999999907
20
-128.070808999999997
11
236.7142779999999789
21
-128.0301189999999849
0
LINE
8
BLACK
6
CONTINUOUS
10
236.7142779999999789
20
-128.0301189999999849
11
236.9357219999999984
21
-128.0301189999999849
0
LINE
8
BLACK
6
CONTINUOUS
10
236.9357219999999984
20
-128.0301189999999849
11
237.1533959999999865
21
-128.070808999999997
0
LINE
8
BLACK
6
CONTINUOUS
10
235.7390969999999868
20
-129.4279899999999941
11
235.7948859999999911
21
-129.6240679999999941
0
LINE
8
BLACK
6
CONTINUOUS
10
235.7948859999999911
20
-129.6240679999999941
11
235.8857539999999915
21
-129.8065560000000005
0
LINE
8
BLACK
6
CONTINUOUS
10
235.8857539999999915
20
-129.8065560000000005
11
236.0086069999999836
21
-129.969239999999985
0
LINE
8
BLACK
6
CONTINUOUS
10
236.0086069999999836
20
-129.969239999999985
11
236.159261999999984
21
-130.1065800000000081
0
LINE
8
BLACK
6
CONTINUOUS
10
236.159261999999984
20
-130.1065800000000081
11
236.3325869999999895
21
-130.2138989999999978
0
LINE
8
BLACK
6
CONTINUOUS
10
236.3325869999999895
20
-130.2138989999999978
11
236.5226809999999773
21
-130.2875410000000045
0
LINE
8
BLACK
6
CONTINUOUS
10
236.5226809999999773
20
-130.2875410000000045
11
236.7230699999999786
21
-130.3249999999999886
0
LINE
8
BLACK
6
CONTINUOUS
10
236.7230699999999786
20
-130.3249999999999886
11
236.9269299999999987
21
-130.3249999999999886
0
LINE
8
BLACK
6
CONTINUOUS
10
236.9269299999999987
20
-130.3249999999999886
11
237.127319
21
-130.2875410000000045
0
LINE
8
BLACK
6
CONTINUOUS
10
237.127319
20
-130.2875410000000045
11
237.3174129999999877
21
-130.2138989999999978
0
LINE
8
BLACK
6
CONTINUOUS
10
237.3174129999999877
20
-130.2138989999999978
11
237.4907379999999932
21
-130.1065800000000081
0
LINE
8
BLACK
6
CONTINUOUS
10
237.4907379999999932
20
-130.1065800000000081
11
237.6413929999999937
21
-129.969239999999985
0
LINE
8
BLACK
6
CONTINUOUS
10
237.6413929999999937
20
-129.969239999999985
11
237.7642459999999858
21
-129.8065560000000005
0
LINE
8
BLACK
6
CONTINUOUS
10
237.7642459999999858
20
-129.8065560000000005
11
237.8551139999999862
21
-129.6240679999999941
0
LINE
8
BLACK
6
CONTINUOUS
10
237.8551139999999862
20
-129.6240679999999941
11
237.9109029999999905
21
-129.4279899999999941
0
LINE
8
BLACK
6
CONTINUOUS
10
237.9109029999999905
20
-129.4279899999999941
11
237.9297129999999925
21
-129.2249999999999943
0
LINE
8
BLACK
6
CONTINUOUS
10
237.9297129999999925
20
-129.2249999999999943
11
237.9109029999999905
21
-129.0220099999999945
0
LINE
8
BLACK
6
CONTINUOUS
10
237.9109029999999905
20
-129.0220099999999945
11
237.8551139999999862
21
-128.8259319999999946
0
LINE
8
BLACK
6
CONTINUOUS
10
237.8551139999999862
20
-128.8259319999999946
11
237.7642459999999858
21
-128.6434439999999881
0
LINE
8
BLACK
6
CONTINUOUS
10
237.7642459999999858
20
-128.6434439999999881
11
237.6413929999999937
21
-128.4807600000000036
0
LINE
8
BLACK
6
CONTINUOUS
10
237.6413929999999937
20
-128.4807600000000036
11
237.4907379999999932
21
-128.3434199999999805
0
LINE
8
BLACK
6
CONTINUOUS
10
237.4907379999999932
20
-128.3434199999999805
11
237.3174129999999877
21
-128.2361009999999908
0
LINE
8
BLACK
6
CONTINUOUS
10
237.3174129999999877
20
-128.2361009999999908
11
237.127319
21
-128.1624589999999841
0
LINE
8
BLACK
6
CONTINUOUS
10
237.127319
20
-128.1624589999999841
11
236.9269299999999987
21
-128.125
0
LINE
8
BLACK
6
CONTINUOUS
10
236.9269299999999987
20
-128.125
11
236.7230699999999786
21
-128.125
0
LINE
8
BLACK
6
CONTINUOUS
10
236.7230699999999786
20
-128.125
11
236.5226809999999773
21
-128.1624589999999841
0
LINE
8
BLACK
6
CONTINUOUS
10
236.5226809999999773
20
-128.1624589999999841
11
236.3325869999999895
21
-128.2361009999999908
0
LINE
8
BLACK
6
CONTINUOUS
10
236.3325869999999895
20
-128.2361009999999908
11
236.159261999999984
21
-128.3434199999999805
0
LINE
8
BLACK
6
CONTINUOUS
10
236.159261999999984
20
-128.3434199999999805
11
236.0086069999999836
21
-128.4807600000000036
0
LINE
8
BLACK
6
CONTINUOUS
10
236.0086069999999836
20
-128.4807600000000036
11
235.8857539999999915
21
-128.6434439999999881
0
LINE
8
BLACK
6
CONTINUOUS
10
235.8857539999999915
20
-128.6434439999999881
11
235.7948859999999911
21
-128.8259319999999946
0
LINE
8
BLACK
6
CONTINUOUS
10
235.7948859999999911
20
-128.8259319999999946
11
235.7390969999999868
21
-129.0220099999999945
0
LINE
8
BLACK
6
CONTINUOUS
10
235.7390969999999868
20
-129.0220099999999945
11
235.7202869999999848
21
-129.2249999999999943
0
LINE
8
BLACK
6
CONTINUOUS
10
235.7202869999999848
20
-129.2249999999999943
11
235.7390969999999868
21
-129.4279899999999941
0
LINE
8
BLACK
6
CONTINUOUS
10
229.1533959999999865
20
-107.820808999999997
11
229.3598859999999888
21
-107.9008039999999937
0
LINE
8
BLACK
6
CONTINUOUS
10
229.3598859999999888
20
-107.9008039999999937
11
229.5481619999999907
21
-108.0173789999999912
0
LINE
8
BLACK
6
CONTINUOUS
10
229.5481619999999907
20
-108.0173789999999912
11
229.7118109999999831
21
-108.1665649999999914
0
LINE
8
BLACK
6
CONTINUOUS
10
229.7118109999999831
20
-108.1665649999999914
11
229.8452609999999936
21
-108.3432809999999904
0
LINE
8
BLACK
6
CONTINUOUS
10
229.8452609999999936
20
-108.3432809999999904
11
229.9439669999999865
21
-108.5415099999999882
0
LINE
8
BLACK
6
CONTINUOUS
10
229.9439669999999865
20
-108.5415099999999882
11
230.0045679999999777
21
-108.7545009999999905
0
LINE
8
BLACK
6
CONTINUOUS
10
230.0045679999999777
20
-108.7545009999999905
11
230.0249999999999773
21
-108.9749999999999943
0
LINE
8
BLACK
6
CONTINUOUS
10
230.0249999999999773
20
-108.9749999999999943
11
230.0045679999999777
21
-109.1954989999999981
0
LINE
8
BLACK
6
CONTINUOUS
10
230.0045679999999777
20
-109.1954989999999981
11
229.9439669999999865
21
-109.4084900000000005
0
LINE
8
BLACK
6
CONTINUOUS
10
229.9439669999999865
20
-109.4084900000000005
11
229.8452609999999936
21
-109.6067189999999982
0
LINE
8
BLACK
6
CONTINUOUS
10
229.8452609999999936
20
-109.6067189999999982
11
229.7118109999999831
21
-109.7834349999999972
0
LINE
8
BLACK
6
CONTINUOUS
10
229.7118109999999831
20
-109.7834349999999972
11
229.5481619999999907
21
-109.9326209999999975
0
LINE
8
BLACK
6
CONTINUOUS
10
229.5481619999999907
20
-109.9326209999999975
11
229.3598859999999888
21
-110.0491959999999949
0
LINE
8
BLACK
6
CONTINUOUS
10
229.3598859999999888
20
-110.0491959999999949
11
229.1533959999999865
21
-110.1291909999999916
0
LINE
8
BLACK
6
CONTINUOUS
10
229.1533959999999865
20
-110.1291909999999916
11
228.9357219999999984
21
-110.1698809999999895
0
LINE
8
BLACK
6
CONTINUOUS
10
228.9357219999999984
20
-110.1698809999999895
11
228.7142779999999789
21
-110.1698809999999895
0
LINE
8
BLACK
6
CONTINUOUS
10
228.7142779999999789
20
-110.1698809999999895
11
228.4966039999999907
21
-110.1291909999999916
0
LINE
8
BLACK
6
CONTINUOUS
10
228.4966039999999907
20
-110.1291909999999916
11
228.2901139999999884
21
-110.0491959999999949
0
LINE
8
BLACK
6
CONTINUOUS
10
228.2901139999999884
20
-110.0491959999999949
11
228.1018379999999866
21
-109.9326209999999975
0
LINE
8
BLACK
6
CONTINUOUS
10
228.1018379999999866
20
-109.9326209999999975
11
227.9381889999999942
21
-109.7834349999999972
0
LINE
8
BLACK
6
CONTINUOUS
10
227.9381889999999942
20
-109.7834349999999972
11
227.8047389999999837
21
-109.6067189999999982
0
LINE
8
BLACK
6
CONTINUOUS
10
227.8047389999999837
20
-109.6067189999999982
11
227.7060329999999908
21
-109.4084900000000005
0
LINE
8
BLACK
6
CONTINUOUS
10
227.7060329999999908
20
-109.4084900000000005
11
227.6454319999999996
21
-109.1954989999999981
0
LINE
8
BLACK
6
CONTINUOUS
10
227.6454319999999996
20
-109.1954989999999981
11
227.625
21
-108.9749999999999943
0
LINE
8
BLACK
6
CONTINUOUS
10
227.625
20
-108.9749999999999943
11
227.6454319999999996
21
-108.7545009999999905
0
LINE
8
BLACK
6
CONTINUOUS
10
227.6454319999999996
20
-108.7545009999999905
11
227.7060329999999908
21
-108.5415099999999882
0
LINE
8
BLACK
6
CONTINUOUS
10
227.7060329999999908
20
-108.5415099999999882
11
227.8047389999999837
21
-108.3432809999999904
0
LINE
8
BLACK
6
CONTINUOUS
10
227.8047389999999837
20
-108.3432809999999904
11
227.9381889999999942
21
-108.1665649999999914
0
LINE
8
BLACK
6
CONTINUOUS
10
227.9381889999999942
20
-108.1665649999999914
11
228.1018379999999866
21
-108.0173789999999912
0
LINE
8
BLACK
6
CONTINUOUS
10
228.1018379999999866
20
-108.0173789999999912
11
228.2901139999999884
21
-107.9008039999999937
0
LINE
8
BLACK
6
CONTINUOUS
10
228.2901139999999884
20
-107.9008039999999937
11
228.4966039999999907
21
-107.820808999999997
0
LINE
8
BLACK
6
CONTINUOUS
10
228.4966039999999907
20
-107.820808999999997
11
228.7142779999999789
21
-107.7801189999999991
0
LINE
8
BLACK
6
CONTINUOUS
10
228.7142779999999789
20
-107.7801189999999991
11
228.9357219999999984
21
-107.7801189999999991
0
LINE
8
BLACK
6
CONTINUOUS
10
228.9357219999999984
20
-107.7801189999999991
11
229.1533959999999865
21
-107.820808999999997
0
LINE
8
BLACK
6
CONTINUOUS
10
227.7390969999999868
20
-109.1779899999999941
11
227.7948859999999911
21
-109.3740679999999941
0
LINE
8
BLACK
6
CONTINUOUS
10
227.7948859999999911
20
-109.3740679999999941
11
227.8857539999999915
21
-109.5565560000000005
0
LINE
8
BLACK
6
CONTINUOUS
10
227.8857539999999915
20
-109.5565560000000005
11
228.0086069999999836
21
-109.7192399999999992
0
LINE
8
BLACK
6
CONTINUOUS
10
228.0086069999999836
20
-109.7192399999999992
11
228.159261999999984
21
-109.8565799999999939
0
LINE
8
BLACK
6
CONTINUOUS
10
228.159261999999984
20
-109.8565799999999939
11
228.3325869999999895
21
-109.9638989999999978
0
LINE
8
BLACK
6
CONTINUOUS
10
228.3325869999999895
20
-109.9638989999999978
11
228.5226809999999773
21
-110.0375409999999903
0
LINE
8
BLACK
6
CONTINUOUS
10
228.5226809999999773
20
-110.0375409999999903
11
228.7230699999999786
21
-110.0749999999999886
0
LINE
8
BLACK
6
CONTINUOUS
10
228.7230699999999786
20
-110.0749999999999886
11
228.9269299999999987
21
-110.0749999999999886
0
LINE
8
BLACK
6
CONTINUOUS
10
228.9269299999999987
20
-110.0749999999999886
11
229.127319
21
-110.0375409999999903
0
LINE
8
BLACK
6
CONTINUOUS
10
229.127319
20
-110.0375409999999903
11
229.3174129999999877
21
-109.9638989999999978
0
LINE
8
BLACK
6
CONTINUOUS
10
229.3174129999999877
20
-109.9638989999999978
11
229.4907379999999932
21
-109.8565799999999939
0
LINE
8
BLACK
6
CONTINUOUS
10
229.4907379999999932
20
-109.8565799999999939
11
229.6413929999999937
21
-109.7192399999999992
0
LINE
8
BLACK
6
CONTINUOUS
10
229.6413929999999937
20
-109.7192399999999992
11
229.7642459999999858
21
-109.5565560000000005
0
LINE
8
BLACK
6
CONTINUOUS
10
229.7642459999999858
20
-109.5565560000000005
11
229.8551139999999862
21
-109.3740679999999941
0
LINE
8
BLACK
6
CONTINUOUS
10
229.8551139999999862
20
-109.3740679999999941
11
229.9109029999999905
21
-109.1779899999999941
0
LINE
8
BLACK
6
CONTINUOUS
10
229.9109029999999905
20
-109.1779899999999941
11
229.9297129999999925
21
-108.9749999999999943
0
LINE
8
BLACK
6
CONTINUOUS
10
229.9297129999999925
20
-108.9749999999999943
11
229.9109029999999905
21
-108.7720099999999945
0
LINE
8
BLACK
6
CONTINUOUS
10
229.9109029999999905
20
-108.7720099999999945
11
229.8551139999999862
21
-108.5759319999999946
0
LINE
8
BLACK
6
CONTINUOUS
10
229.8551139999999862
20
-108.5759319999999946
11
229.7642459999999858
21
-108.3934439999999881
0
LINE
8
BLACK
6
CONTINUOUS
10
229.7642459999999858
20
-108.3934439999999881
11
229.6413929999999937
21
-108.2307599999999894
0
LINE
8
BLACK
6
CONTINUOUS
10
229.6413929999999937
20
-108.2307599999999894
11
229.4907379999999932
21
-108.0934199999999947
0
LINE
8
BLACK
6
CONTINUOUS
10
229.4907379999999932
20
-108.0934199999999947
11
229.3174129999999877
21
-107.9861009999999908
0
LINE
8
BLACK
6
CONTINUOUS
10
229.3174129999999877
20
-107.9861009999999908
11
229.127319
21
-107.9124589999999984
0
LINE
8
BLACK
6
CONTINUOUS
10
229.127319
20
-107.9124589999999984
11
228.9269299999999987
21
-107.875
0
LINE
8
BLACK
6
CONTINUOUS
10
228.9269299999999987
20
-107.875
11
228.7230699999999786
21
-107.875
0
LINE
8
BLACK
6
CONTINUOUS
10
228.7230699999999786
20
-107.875
11
228.5226809999999773
21
-107.9124589999999984
0
LINE
8
BLACK
6
CONTINUOUS
10
228.5226809999999773
20
-107.9124589999999984
11
228.3325869999999895
21
-107.9861009999999908
0
LINE
8
BLACK
6
CONTINUOUS
10
228.3325869999999895
20
-107.9861009999999908
11
228.159261999999984
21
-108.0934199999999947
0
LINE
8
BLACK
6
CONTINUOUS
10
228.159261999999984
20
-108.0934199999999947
11
228.0086069999999836
21
-108.2307599999999894
0
LINE
8
BLACK
6
CONTINUOUS
10
228.0086069999999836
20
-108.2307599999999894
11
227.8857539999999915
21
-108.3934439999999881
0
LINE
8
BLACK
6
CONTINUOUS
10
227.8857539999999915
20
-108.3934439999999881
11
227.7948859999999911
21
-108.5759319999999946
0
LINE
8
BLACK
6
CONTINUOUS
10
227.7948859999999911
20
-108.5759319999999946
11
227.7390969999999868
21
-108.7720099999999945
0
LINE
8
BLACK
6
CONTINUOUS
10
227.7390969999999868
20
-108.7720099999999945
11
227.7202869999999848
21
-108.9749999999999943
0
LINE
8
BLACK
6
CONTINUOUS
10
227.7202869999999848
20
-108.9749999999999943
11
227.7390969999999868
21
-109.1779899999999941
0
LINE
8
BLACK
6
CONTINUOUS
10
60.5033959999999951
20
-89.2208090000000027
11
60.7098859999999974
21
-89.3008039999999994
0
LINE
8
BLACK
6
CONTINUOUS
10
60.7098859999999974
20
-89.3008039999999994
11
60.8981619999999992
21
-89.4173789999999968
0
LINE
8
BLACK
6
CONTINUOUS
10
60.8981619999999992
20
-89.4173789999999968
11
61.0618109999999987
21
-89.5665649999999971
0
LINE
8
BLACK
6
CONTINUOUS
10
61.0618109999999987
20
-89.5665649999999971
11
61.195260999999995
21
-89.7432809999999961
0
LINE
8
BLACK
6
CONTINUOUS
10
61.195260999999995
20
-89.7432809999999961
11
61.293966999999995
21
-89.9415099999999939
0
LINE
8
BLACK
6
CONTINUOUS
10
61.293966999999995
20
-89.9415099999999939
11
61.3545680000000004
21
-90.1545009999999962
0
LINE
8
BLACK
6
CONTINUOUS
10
61.3545680000000004
20
-90.1545009999999962
11
61.375
21
-90.375
0
LINE
8
BLACK
6
CONTINUOUS
10
61.375
20
-90.375
11
61.3545680000000004
21
-90.5954989999999896
0
LINE
8
BLACK
6
CONTINUOUS
10
61.3545680000000004
20
-90.5954989999999896
11
61.293966999999995
21
-90.8084899999999919
0
LINE
8
BLACK
6
CONTINUOUS
10
61.293966999999995
20
-90.8084899999999919
11
61.195260999999995
21
-91.0067189999999897
0
LINE
8
BLACK
6
CONTINUOUS
10
61.195260999999995
20
-91.0067189999999897
11
61.0618109999999987
21
-91.1834350000000029
0
LINE
8
BLACK
6
CONTINUOUS
10
61.0618109999999987
20
-91.1834350000000029
11
60.8981619999999992
21
-91.332620999999989
0
LINE
8
BLACK
6
CONTINUOUS
10
60.8981619999999992
20
-91.332620999999989
11
60.7098859999999974
21
-91.4491960000000006
0
LINE
8
BLACK
6
CONTINUOUS
10
60.7098859999999974
20
-91.4491960000000006
11
60.5033959999999951
21
-91.5291909999999973
0
LINE
8
BLACK
6
CONTINUOUS
10
60.5033959999999951
20
-91.5291909999999973
11
60.2857219999999998
21
-91.5698809999999952
0
LINE
8
BLACK
6
CONTINUOUS
10
60.2857219999999998
20
-91.5698809999999952
11
60.0642779999999945
21
-91.5698809999999952
0
LINE
8
BLACK
6
CONTINUOUS
10
60.0642779999999945
20
-91.5698809999999952
11
59.8466039999999992
21
-91.5291909999999973
0
LINE
8
BLACK
6
CONTINUOUS
10
59.8466039999999992
20
-91.5291909999999973
11
59.640113999999997
21
-91.4491960000000006
0
LINE
8
BLACK
6
CONTINUOUS
10
59.640113999999997
20
-91.4491960000000006
11
59.4518379999999951
21
-91.332620999999989
0
LINE
8
BLACK
6
CONTINUOUS
10
59.4518379999999951
20
-91.332620999999989
11
59.2881889999999956
21
-91.1834350000000029
0
LINE
8
BLACK
6
CONTINUOUS
10
59.2881889999999956
20
-91.1834350000000029
11
59.1547389999999993
21
-91.0067189999999897
0
LINE
8
BLACK
6
CONTINUOUS
10
59.1547389999999993
20
-91.0067189999999897
11
59.0560329999999993
21
-90.8084899999999919
0
LINE
8
BLACK
6
CONTINUOUS
10
59.0560329999999993
20
-90.8084899999999919
11
58.9954319999999939
21
-90.5954989999999896
0
LINE
8
BLACK
6
CONTINUOUS
10
58.9954319999999939
20
-90.5954989999999896
11
58.9749999999999943
21
-90.375
0
LINE
8
BLACK
6
CONTINUOUS
10
58.9749999999999943
20
-90.375
11
58.9954319999999939
21
-90.1545009999999962
0
LINE
8
BLACK
6
CONTINUOUS
10
58.9954319999999939
20
-90.1545009999999962
11
59.0560329999999993
21
-89.9415099999999939
0
LINE
8
BLACK
6
CONTINUOUS
10
59.0560329999999993
20
-89.9415099999999939
11
59.1547389999999993
21
-89.7432809999999961
0
LINE
8
BLACK
6
CONTINUOUS
10
59.1547389999999993
20
-89.7432809999999961
11
59.2881889999999956
21
-89.5665649999999971
0
LINE
8
BLACK
6
CONTINUOUS
10
59.2881889999999956
20
-89.5665649999999971
11
59.4518379999999951
21
-89.4173789999999968
0
LINE
8
BLACK
6
CONTINUOUS
10
59.4518379999999951
20
-89.4173789999999968
11
59.640113999999997
21
-89.3008039999999994
0
LINE
8
BLACK
6
CONTINUOUS
10
59.640113999999997
20
-89.3008039999999994
11
59.8466039999999992
21
-89.2208090000000027
0
LINE
8
BLACK
6
CONTINUOUS
10
59.8466039999999992
20
-89.2208090000000027
11
60.0642779999999945
21
-89.1801189999999906
0
LINE
8
BLACK
6
CONTINUOUS
10
60.0642779999999945
20
-89.1801189999999906
11
60.2857219999999998
21
-89.1801189999999906
0
LINE
8
BLACK
6
CONTINUOUS
10
60.2857219999999998
20
-89.1801189999999906
11
60.5033959999999951
21
-89.2208090000000027
0
LINE
8
BLACK
6
CONTINUOUS
10
59.0890969999999953
20
-90.5779899999999998
11
59.1448859999999996
21
-90.7740679999999998
0
LINE
8
BLACK
6
CONTINUOUS
10
59.1448859999999996
20
-90.7740679999999998
11
59.235754
21
-90.956555999999992
0
LINE
8
BLACK
6
CONTINUOUS
10
59.235754
20
-90.956555999999992
11
59.3586069999999992
21
-91.1192399999999907
0
LINE
8
BLACK
6
CONTINUOUS
10
59.3586069999999992
20
-91.1192399999999907
11
59.5092619999999997
21
-91.2565799999999996
0
LINE
8
BLACK
6
CONTINUOUS
10
59.5092619999999997
20
-91.2565799999999996
11
59.6825869999999981
21
-91.3638989999999893
0
LINE
8
BLACK
6
CONTINUOUS
10
59.6825869999999981
20
-91.3638989999999893
11
59.872681
21
-91.437540999999996
0
LINE
8
BLACK
6
CONTINUOUS
10
59.872681
20
-91.437540999999996
11
60.0730699999999942
21
-91.4749999999999943
0
LINE
8
BLACK
6
CONTINUOUS
10
60.0730699999999942
20
-91.4749999999999943
11
60.2769300000000001
21
-91.4749999999999943
0
LINE
8
BLACK
6
CONTINUOUS
10
60.2769300000000001
20
-91.4749999999999943
11
60.4773189999999943
21
-91.437540999999996
0
LINE
8
BLACK
6
CONTINUOUS
10
60.4773189999999943
20
-91.437540999999996
11
60.6674129999999963
21
-91.3638989999999893
0
LINE
8
BLACK
6
CONTINUOUS
10
60.6674129999999963
20
-91.3638989999999893
11
60.8407379999999947
21
-91.2565799999999996
0
LINE
8
BLACK
6
CONTINUOUS
10
60.8407379999999947
20
-91.2565799999999996
11
60.9913929999999951
21
-91.1192399999999907
0
LINE
8
BLACK
6
CONTINUOUS
10
60.9913929999999951
20
-91.1192399999999907
11
61.1142459999999943
21
-90.956555999999992
0
LINE
8
BLACK
6
CONTINUOUS
10
61.1142459999999943
20
-90.956555999999992
11
61.2051139999999947
21
-90.7740679999999998
0
LINE
8
BLACK
6
CONTINUOUS
10
61.2051139999999947
20
-90.7740679999999998
11
61.260902999999999
21
-90.5779899999999998
0
LINE
8
BLACK
6
CONTINUOUS
10
61.260902999999999
20
-90.5779899999999998
11
61.2797129999999939
21
-90.375
0
LINE
8
BLACK
6
CONTINUOUS
10
61.2797129999999939
20
-90.375
11
61.260902999999999
21
-90.1720100000000002
0
LINE
8
BLACK
6
CONTINUOUS
10
61.260902999999999
20
-90.1720100000000002
11
61.2051139999999947
21
-89.9759320000000002
0
LINE
8
BLACK
6
CONTINUOUS
10
61.2051139999999947
20
-89.9759320000000002
11
61.1142459999999943
21
-89.7934439999999938
0
LINE
8
BLACK
6
CONTINUOUS
10
61.1142459999999943
20
-89.7934439999999938
11
60.9913929999999951
21
-89.6307599999999951
0
LINE
8
BLACK
6
CONTINUOUS
10
60.9913929999999951
20
-89.6307599999999951
11
60.8407379999999947
21
-89.4934200000000004
0
LINE
8
BLACK
6
CONTINUOUS
10
60.8407379999999947
20
-89.4934200000000004
11
60.6674129999999963
21
-89.3861009999999965
0
LINE
8
BLACK
6
CONTINUOUS
10
60.6674129999999963
20
-89.3861009999999965
11
60.4773189999999943
21
-89.3124589999999898
0
LINE
8
BLACK
6
CONTINUOUS
10
60.4773189999999943
20
-89.3124589999999898
11
60.2769300000000001
21
-89.2749999999999915
0
LINE
8
BLACK
6
CONTINUOUS
10
60.2769300000000001
20
-89.2749999999999915
11
60.0730699999999942
21
-89.2749999999999915
0
LINE
8
BLACK
6
CONTINUOUS
10
60.0730699999999942
20
-89.2749999999999915
11
59.872681
21
-89.3124589999999898
0
LINE
8
BLACK
6
CONTINUOUS
10
59.872681
20
-89.3124589999999898
11
59.6825869999999981
21
-89.3861009999999965
0
LINE
8
BLACK
6
CONTINUOUS
10
59.6825869999999981
20
-89.3861009999999965
11
59.5092619999999997
21
-89.4934200000000004
0
LINE
8
BLACK
6
CONTINUOUS
10
59.5092619999999997
20
-89.4934200000000004
11
59.3586069999999992
21
-89.6307599999999951
0
LINE
8
BLACK
6
CONTINUOUS
10
59.3586069999999992
20
-89.6307599999999951
11
59.235754
21
-89.7934439999999938
0
LINE
8
BLACK
6
CONTINUOUS
10
59.235754
20
-89.7934439999999938
11
59.1448859999999996
21
-89.9759320000000002
0
LINE
8
BLACK
6
CONTINUOUS
10
59.1448859999999996
20
-89.9759320000000002
11
59.0890969999999953
21
-90.1720100000000002
0
LINE
8
BLACK
6
CONTINUOUS
10
59.0890969999999953
20
-90.1720100000000002
11
59.0702870000000004
21
-90.375
0
LINE
8
BLACK
6
CONTINUOUS
10
59.0702870000000004
20
-90.375
11
59.0890969999999953
21
-90.5779899999999998
0
LINE
8
BLACK
6
CONTINUOUS
10
33.1533960000000008
20
-88.6208089999999942
11
33.3598859999999959
21
-88.7008039999999909
0
LINE
8
BLACK
6
CONTINUOUS
10
33.3598859999999959
20
-88.7008039999999909
11
33.5481619999999978
21
-88.8173790000000025
0
LINE
8
BLACK
6
CONTINUOUS
10
33.5481619999999978
20
-88.8173790000000025
11
33.7118109999999973
21
-88.9665650000000028
0
LINE
8
BLACK
6
CONTINUOUS
10
33.7118109999999973
20
-88.9665650000000028
11
33.8452610000000007
21
-89.1432810000000018
0
LINE
8
BLACK
6
CONTINUOUS
10
33.8452610000000007
20
-89.1432810000000018
11
33.9439670000000007
21
-89.3415099999999995
0
LINE
8
BLACK
6
CONTINUOUS
10
33.9439670000000007
20
-89.3415099999999995
11
34.004567999999999
21
-89.5545010000000019
0
LINE
8
BLACK
6
CONTINUOUS
10
34.004567999999999
20
-89.5545010000000019
11
34.0249999999999986
21
-89.7749999999999915
0
LINE
8
BLACK
6
CONTINUOUS
10
34.0249999999999986
20
-89.7749999999999915
11
34.004567999999999
21
-89.9954989999999952
0
LINE
8
BLACK
6
CONTINUOUS
10
34.004567999999999
20
-89.9954989999999952
11
33.9439670000000007
21
-90.2084899999999976
0
LINE
8
BLACK
6
CONTINUOUS
10
33.9439670000000007
20
-90.2084899999999976
11
33.8452610000000007
21
-90.4067189999999954
0
LINE
8
BLACK
6
CONTINUOUS
10
33.8452610000000007
20
-90.4067189999999954
11
33.7118109999999973
21
-90.5834349999999944
0
LINE
8
BLACK
6
CONTINUOUS
10
33.7118109999999973
20
-90.5834349999999944
11
33.5481619999999978
21
-90.7326209999999946
0
LINE
8
BLACK
6
CONTINUOUS
10
33.5481619999999978
20
-90.7326209999999946
11
33.3598859999999959
21
-90.8491959999999921
0
LINE
8
BLACK
6
CONTINUOUS
10
33.3598859999999959
20
-90.8491959999999921
11
33.1533960000000008
21
-90.929191000000003
0
LINE
8
BLACK
6
CONTINUOUS
10
33.1533960000000008
20
-90.929191000000003
11
32.9357219999999984
21
-90.9698810000000009
0
LINE
8
BLACK
6
CONTINUOUS
10
32.9357219999999984
20
-90.9698810000000009
11
32.7142780000000002
21
-90.9698810000000009
0
LINE
8
BLACK
6
CONTINUOUS
10
32.7142780000000002
20
-90.9698810000000009
11
32.4966039999999978
21
-90.929191000000003
0
LINE
8
BLACK
6
CONTINUOUS
10
32.4966039999999978
20
-90.929191000000003
11
32.2901139999999955
21
-90.8491959999999921
0
LINE
8
BLACK
6
CONTINUOUS
10
32.2901139999999955
20
-90.8491959999999921
11
32.1018380000000008
21
-90.7326209999999946
0
LINE
8
BLACK
6
CONTINUOUS
10
32.1018380000000008
20
-90.7326209999999946
11
31.9381889999999977
21
-90.5834349999999944
0
LINE
8
BLACK
6
CONTINUOUS
10
31.9381889999999977
20
-90.5834349999999944
11
31.8047389999999979
21
-90.4067189999999954
0
LINE
8
BLACK
6
CONTINUOUS
10
31.8047389999999979
20
-90.4067189999999954
11
31.7060329999999979
21
-90.2084899999999976
0
LINE
8
BLACK
6
CONTINUOUS
10
31.7060329999999979
20
-90.2084899999999976
11
31.6454319999999996
21
-89.9954989999999952
0
LINE
8
BLACK
6
CONTINUOUS
10
31.6454319999999996
20
-89.9954989999999952
11
31.625
21
-89.7749999999999915
0
LINE
8
BLACK
6
CONTINUOUS
10
31.625
20
-89.7749999999999915
11
31.6454319999999996
21
-89.5545010000000019
0
LINE
8
BLACK
6
CONTINUOUS
10
31.6454319999999996
20
-89.5545010000000019
11
31.7060329999999979
21
-89.3415099999999995
0
LINE
8
BLACK
6
CONTINUOUS
10
31.7060329999999979
20
-89.3415099999999995
11
31.8047389999999979
21
-89.1432810000000018
0
LINE
8
BLACK
6
CONTINUOUS
10
31.8047389999999979
20
-89.1432810000000018
11
31.9381889999999977
21
-88.9665650000000028
0
LINE
8
BLACK
6
CONTINUOUS
10
31.9381889999999977
20
-88.9665650000000028
11
32.1018380000000008
21
-88.8173790000000025
0
LINE
8
BLACK
6
CONTINUOUS
10
32.1018380000000008
20
-88.8173790000000025
11
32.2901139999999955
21
-88.7008039999999909
0
LINE
8
BLACK
6
CONTINUOUS
10
32.2901139999999955
20
-88.7008039999999909
11
32.4966039999999978
21
-88.6208089999999942
0
LINE
8
BLACK
6
CONTINUOUS
10
32.4966039999999978
20
-88.6208089999999942
11
32.7142780000000002
21
-88.5801189999999963
0
LINE
8
BLACK
6
CONTINUOUS
10
32.7142780000000002
20
-88.5801189999999963
11
32.9357219999999984
21
-88.5801189999999963
0
LINE
8
BLACK
6
CONTINUOUS
10
32.9357219999999984
20
-88.5801189999999963
11
33.1533960000000008
21
-88.6208089999999942
0
LINE
8
BLACK
6
CONTINUOUS
10
31.7390969999999975
20
-89.9779899999999913
11
31.7948859999999982
21
-90.1740679999999912
0
LINE
8
BLACK
6
CONTINUOUS
10
31.7948859999999982
20
-90.1740679999999912
11
31.8857539999999986
21
-90.3565559999999977
0
LINE
8
BLACK
6
CONTINUOUS
10
31.8857539999999986
20
-90.3565559999999977
11
32.0086069999999978
21
-90.5192399999999964
0
LINE
8
BLACK
6
CONTINUOUS
10
32.0086069999999978
20
-90.5192399999999964
11
32.1592619999999982
21
-90.6565799999999911
0
LINE
8
BLACK
6
CONTINUOUS
10
32.1592619999999982
20
-90.6565799999999911
11
32.3325869999999966
21
-90.763898999999995
0
LINE
8
BLACK
6
CONTINUOUS
10
32.3325869999999966
20
-90.763898999999995
11
32.5226809999999986
21
-90.8375410000000016
0
LINE
8
BLACK
6
CONTINUOUS
10
32.5226809999999986
20
-90.8375410000000016
11
32.7230699999999999
21
-90.875
0
LINE
8
BLACK
6
CONTINUOUS
10
32.7230699999999999
20
-90.875
11
32.9269299999999987
21
-90.875
0
LINE
8
BLACK
6
CONTINUOUS
10
32.9269299999999987
20
-90.875
11
33.127319
21
-90.8375410000000016
0
LINE
8
BLACK
6
CONTINUOUS
10
33.127319
20
-90.8375410000000016
11
33.3174130000000019
21
-90.763898999999995
0
LINE
8
BLACK
6
CONTINUOUS
10
33.3174130000000019
20
-90.763898999999995
11
33.4907380000000003
21
-90.6565799999999911
0
LINE
8
BLACK
6
CONTINUOUS
10
33.4907380000000003
20
-90.6565799999999911
11
33.6413930000000008
21
-90.5192399999999964
0
LINE
8
BLACK
6
CONTINUOUS
10
33.6413930000000008
20
-90.5192399999999964
11
33.764246
21
-90.3565559999999977
0
LINE
8
BLACK
6
CONTINUOUS
10
33.764246
20
-90.3565559999999977
11
33.8551140000000004
21
-90.1740679999999912
0
LINE
8
BLACK
6
CONTINUOUS
10
33.8551140000000004
20
-90.1740679999999912
11
33.9109029999999976
21
-89.9779899999999913
0
LINE
8
BLACK
6
CONTINUOUS
10
33.9109029999999976
20
-89.9779899999999913
11
33.9297129999999996
21
-89.7749999999999915
0
LINE
8
BLACK
6
CONTINUOUS
10
33.9297129999999996
20
-89.7749999999999915
11
33.9109029999999976
21
-89.5720099999999917
0
LINE
8
BLACK
6
CONTINUOUS
10
33.9109029999999976
20
-89.5720099999999917
11
33.8551140000000004
21
-89.3759319999999917
0
LINE
8
BLACK
6
CONTINUOUS
10
33.8551140000000004
20
-89.3759319999999917
11
33.764246
21
-89.1934439999999995
0
LINE
8
BLACK
6
CONTINUOUS
10
33.764246
20
-89.1934439999999995
11
33.6413930000000008
21
-89.0307600000000008
0
LINE
8
BLACK
6
CONTINUOUS
10
33.6413930000000008
20
-89.0307600000000008
11
33.4907380000000003
21
-88.8934199999999919
0
LINE
8
BLACK
6
CONTINUOUS
10
33.4907380000000003
20
-88.8934199999999919
11
33.3174130000000019
21
-88.7861010000000022
0
LINE
8
BLACK
6
CONTINUOUS
10
33.3174130000000019
20
-88.7861010000000022
11
33.127319
21
-88.7124589999999955
0
LINE
8
BLACK
6
CONTINUOUS
10
33.127319
20
-88.7124589999999955
11
32.9269299999999987
21
-88.6749999999999972
0
LINE
8
BLACK
6
CONTINUOUS
10
32.9269299999999987
20
-88.6749999999999972
11
32.7230699999999999
21
-88.6749999999999972
0
LINE
8
BLACK
6
CONTINUOUS
10
32.7230699999999999
20
-88.6749999999999972
11
32.5226809999999986
21
-88.7124589999999955
0
LINE
8
BLACK
6
CONTINUOUS
10
32.5226809999999986
20
-88.7124589999999955
11
32.3325869999999966
21
-88.7861010000000022
0
LINE
8
BLACK
6
CONTINUOUS
10
32.3325869999999966
20
-88.7861010000000022
11
32.1592619999999982
21
-88.8934199999999919
0
LINE
8
BLACK
6
CONTINUOUS
10
32.1592619999999982
20
-88.8934199999999919
11
32.0086069999999978
21
-89.0307600000000008
0
LINE
8
BLACK
6
CONTINUOUS
10
32.0086069999999978
20
-89.0307600000000008
11
31.8857539999999986
21
-89.1934439999999995
0
LINE
8
BLACK
6
CONTINUOUS
10
31.8857539999999986
20
-89.1934439999999995
11
31.7948859999999982
21
-89.3759319999999917
0
LINE
8
BLACK
6
CONTINUOUS
10
31.7948859999999982
20
-89.3759319999999917
11
31.7390969999999975
21
-89.5720099999999917
0
LINE
8
BLACK
6
CONTINUOUS
10
31.7390969999999975
20
-89.5720099999999917
11
31.720286999999999
21
-89.7749999999999915
0
LINE
8
BLACK
6
CONTINUOUS
10
31.720286999999999
20
-89.7749999999999915
11
31.7390969999999975
21
-89.9779899999999913
0
LINE
8
BLACK
6
CONTINUOUS
10
236.9533959999999979
20
-84.7208090000000027
11
237.1598860000000002
21
-84.8008039999999994
0
LINE
8
BLACK
6
CONTINUOUS
10
237.1598860000000002
20
-84.8008039999999994
11
237.3481620000000021
21
-84.9173789999999968
0
LINE
8
BLACK
6
CONTINUOUS
10
237.3481620000000021
20
-84.9173789999999968
11
237.5118109999999945
21
-85.0665649999999971
0
LINE
8
BLACK
6
CONTINUOUS
10
237.5118109999999945
20
-85.0665649999999971
11
237.6452609999999765
21
-85.2432809999999961
0
LINE
8
BLACK
6
CONTINUOUS
10
237.6452609999999765
20
-85.2432809999999961
11
237.7439669999999978
21
-85.4415099999999939
0
LINE
8
BLACK
6
CONTINUOUS
10
237.7439669999999978
20
-85.4415099999999939
11
237.8045679999999891
21
-85.6545009999999962
0
LINE
8
BLACK
6
CONTINUOUS
10
237.8045679999999891
20
-85.6545009999999962
11
237.8249999999999886
21
-85.875
0
LINE
8
BLACK
6
CONTINUOUS
10
237.8249999999999886
20
-85.875
11
237.8045679999999891
21
-86.0954989999999896
0
LINE
8
BLACK
6
CONTINUOUS
10
237.8045679999999891
20
-86.0954989999999896
11
237.7439669999999978
21
-86.3084899999999919
0
LINE
8
BLACK
6
CONTINUOUS
10
237.7439669999999978
20
-86.3084899999999919
11
237.6452609999999765
21
-86.5067189999999897
0
LINE
8
BLACK
6
CONTINUOUS
10
237.6452609999999765
20
-86.5067189999999897
11
237.5118109999999945
21
-86.6834350000000029
0
LINE
8
BLACK
6
CONTINUOUS
10
237.5118109999999945
20
-86.6834350000000029
11
237.3481620000000021
21
-86.8326210000000032
0
LINE
8
BLACK
6
CONTINUOUS
10
237.3481620000000021
20
-86.8326210000000032
11
237.1598860000000002
21
-86.9491960000000006
0
LINE
8
BLACK
6
CONTINUOUS
10
237.1598860000000002
20
-86.9491960000000006
11
236.9533959999999979
21
-87.0291909999999973
0
LINE
8
BLACK
6
CONTINUOUS
10
236.9533959999999979
20
-87.0291909999999973
11
236.7357219999999813
21
-87.0698809999999952
0
LINE
8
BLACK
6
CONTINUOUS
10
236.7357219999999813
20
-87.0698809999999952
11
236.5142779999999902
21
-87.0698809999999952
0
LINE
8
BLACK
6
CONTINUOUS
10
236.5142779999999902
20
-87.0698809999999952
11
236.2966040000000021
21
-87.0291909999999973
0
LINE
8
BLACK
6
CONTINUOUS
10
236.2966040000000021
20
-87.0291909999999973
11
236.0901139999999998
21
-86.9491960000000006
0
LINE
8
BLACK
6
CONTINUOUS
10
236.0901139999999998
20
-86.9491960000000006
11
235.9018379999999979
21
-86.8326210000000032
0
LINE
8
BLACK
6
CONTINUOUS
10
235.9018379999999979
20
-86.8326210000000032
11
235.7381889999999771
21
-86.6834350000000029
0
LINE
8
BLACK
6
CONTINUOUS
10
235.7381889999999771
20
-86.6834350000000029
11
235.604738999999995
21
-86.5067189999999897
0
LINE
8
BLACK
6
CONTINUOUS
10
235.604738999999995
20
-86.5067189999999897
11
235.5060330000000022
21
-86.3084899999999919
0
LINE
8
BLACK
6
CONTINUOUS
10
235.5060330000000022
20
-86.3084899999999919
11
235.4454319999999825
21
-86.0954989999999896
0
LINE
8
BLACK
6
CONTINUOUS
10
235.4454319999999825
20
-86.0954989999999896
11
235.4249999999999829
21
-85.875
0
LINE
8
BLACK
6
CONTINUOUS
10
235.4249999999999829
20
-85.875
11
235.4454319999999825
21
-85.6545009999999962
0
LINE
8
BLACK
6
CONTINUOUS
10
235.4454319999999825
20
-85.6545009999999962
11
235.5060330000000022
21
-85.4415099999999939
0
LINE
8
BLACK
6
CONTINUOUS
10
235.5060330000000022
20
-85.4415099999999939
11
235.604738999999995
21
-85.2432809999999961
0
LINE
8
BLACK
6
CONTINUOUS
10
235.604738999999995
20
-85.2432809999999961
11
235.7381889999999771
21
-85.0665649999999971
0
LINE
8
BLACK
6
CONTINUOUS
10
235.7381889999999771
20
-85.0665649999999971
11
235.9018379999999979
21
-84.9173789999999968
0
LINE
8
BLACK
6
CONTINUOUS
10
235.9018379999999979
20
-84.9173789999999968
11
236.0901139999999998
21
-84.8008039999999994
0
LINE
8
BLACK
6
CONTINUOUS
10
236.0901139999999998
20
-84.8008039999999994
11
236.2966040000000021
21
-84.7208090000000027
0
LINE
8
BLACK
6
CONTINUOUS
10
236.2966040000000021
20
-84.7208090000000027
11
236.5142779999999902
21
-84.6801189999999906
0
LINE
8
BLACK
6
CONTINUOUS
10
236.5142779999999902
20
-84.6801189999999906
11
236.7357219999999813
21
-84.6801189999999906
0
LINE
8
BLACK
6
CONTINUOUS
10
236.7357219999999813
20
-84.6801189999999906
11
236.9533959999999979
21
-84.7208090000000027
0
LINE
8
BLACK
6
CONTINUOUS
10
235.5390969999999982
20
-86.0779899999999998
11
235.5948860000000025
21
-86.2740679999999998
0
LINE
8
BLACK
6
CONTINUOUS
10
235.5948860000000025
20
-86.2740679999999998
11
235.6857540000000029
21
-86.456555999999992
0
LINE
8
BLACK
6
CONTINUOUS
10
235.6857540000000029
20
-86.456555999999992
11
235.808606999999995
21
-86.6192399999999907
0
LINE
8
BLACK
6
CONTINUOUS
10
235.808606999999995
20
-86.6192399999999907
11
235.9592619999999954
21
-86.7565799999999996
0
LINE
8
BLACK
6
CONTINUOUS
10
235.9592619999999954
20
-86.7565799999999996
11
236.1325870000000009
21
-86.8638989999999893
0
LINE
8
BLACK
6
CONTINUOUS
10
236.1325870000000009
20
-86.8638989999999893
11
236.3226809999999887
21
-86.937540999999996
0
LINE
8
BLACK
6
CONTINUOUS
10
236.3226809999999887
20
-86.937540999999996
11
236.5230699999999899
21
-86.9749999999999943
0
LINE
8
BLACK
6
CONTINUOUS
10
236.5230699999999899
20
-86.9749999999999943
11
236.7269299999999816
21
-86.9749999999999943
0
LINE
8
BLACK
6
CONTINUOUS
10
236.7269299999999816
20
-86.9749999999999943
11
236.9273189999999829
21
-86.937540999999996
0
LINE
8
BLACK
6
CONTINUOUS
10
236.9273189999999829
20
-86.937540999999996
11
237.1174129999999991
21
-86.8638989999999893
0
LINE
8
BLACK
6
CONTINUOUS
10
237.1174129999999991
20
-86.8638989999999893
11
237.2907379999999762
21
-86.7565799999999996
0
LINE
8
BLACK
6
CONTINUOUS
10
237.2907379999999762
20
-86.7565799999999996
11
237.4413929999999766
21
-86.6192399999999907
0
LINE
8
BLACK
6
CONTINUOUS
10
237.4413929999999766
20
-86.6192399999999907
11
237.5642459999999971
21
-86.456555999999992
0
LINE
8
BLACK
6
CONTINUOUS
10
237.5642459999999971
20
-86.456555999999992
11
237.6551139999999975
21
-86.2740679999999998
0
LINE
8
BLACK
6
CONTINUOUS
10
237.6551139999999975
20
-86.2740679999999998
11
237.7109030000000018
21
-86.0779899999999998
0
LINE
8
BLACK
6
CONTINUOUS
10
237.7109030000000018
20
-86.0779899999999998
11
237.7297129999999754
21
-85.875
0
LINE
8
BLACK
6
CONTINUOUS
10
237.7297129999999754
20
-85.875
11
237.7109030000000018
21
-85.6720100000000002
0
LINE
8
BLACK
6
CONTINUOUS
10
237.7109030000000018
20
-85.6720100000000002
11
237.6551139999999975
21
-85.4759320000000002
0
LINE
8
BLACK
6
CONTINUOUS
10
237.6551139999999975
20
-85.4759320000000002
11
237.5642459999999971
21
-85.2934439999999938
0
LINE
8
BLACK
6
CONTINUOUS
10
237.5642459999999971
20
-85.2934439999999938
11
237.4413929999999766
21
-85.1307599999999951
0
LINE
8
BLACK
6
CONTINUOUS
10
237.4413929999999766
20
-85.1307599999999951
11
237.2907379999999762
21
-84.9934200000000004
0
LINE
8
BLACK
6
CONTINUOUS
10
237.2907379999999762
20
-84.9934200000000004
11
237.1174129999999991
21
-84.8861009999999965
0
LINE
8
BLACK
6
CONTINUOUS
10
237.1174129999999991
20
-84.8861009999999965
11
236.9273189999999829
21
-84.8124589999999898
0
LINE
8
BLACK
6
CONTINUOUS
10
236.9273189999999829
20
-84.8124589999999898
11
236.7269299999999816
21
-84.7749999999999915
0
LINE
8
BLACK
6
CONTINUOUS
10
236.7269299999999816
20
-84.7749999999999915
11
236.5230699999999899
21
-84.7749999999999915
0
LINE
8
BLACK
6
CONTINUOUS
10
236.5230699999999899
20
-84.7749999999999915
11
236.3226809999999887
21
-84.8124589999999898
0
LINE
8
BLACK
6
CONTINUOUS
10
236.3226809999999887
20
-84.8124589999999898
11
236.1325870000000009
21
-84.8861009999999965
0
LINE
8
BLACK
6
CONTINUOUS
10
236.1325870000000009
20
-84.8861009999999965
11
235.9592619999999954
21
-84.9934200000000004
0
LINE
8
BLACK
6
CONTINUOUS
10
235.9592619999999954
20
-84.9934200000000004
11
235.808606999999995
21
-85.1307599999999951
0
LINE
8
BLACK
6
CONTINUOUS
10
235.808606999999995
20
-85.1307599999999951
11
235.6857540000000029
21
-85.2934439999999938
0
LINE
8
BLACK
6
CONTINUOUS
10
235.6857540000000029
20
-85.2934439999999938
11
235.5948860000000025
21
-85.4759320000000002
0
LINE
8
BLACK
6
CONTINUOUS
10
235.5948860000000025
20
-85.4759320000000002
11
235.5390969999999982
21
-85.6720100000000002
0
LINE
8
BLACK
6
CONTINUOUS
10
235.5390969999999982
20
-85.6720100000000002
11
235.5202869999999962
21
-85.875
0
LINE
8
BLACK
6
CONTINUOUS
10
235.5202869999999962
20
-85.875
11
235.5390969999999982
21
-86.0779899999999998
0
LINE
8
BLACK
6
CONTINUOUS
10
257.3000000000000114
20
-62.2749999999999986
11
257.517029999999977
21
-62.2905219999999957
0
LINE
8
BLACK
6
CONTINUOUS
10
257.517029999999977
20
-62.2905219999999957
11
257.7296420000000126
21
-62.3367729999999938
0
LINE
8
BLACK
6
CONTINUOUS
10
257.7296420000000126
20
-62.3367729999999938
11
257.9335079999999607
21
-62.4128109999999978
0
LINE
8
BLACK
6
CONTINUOUS
10
257.9335079999999607
20
-62.4128109999999978
11
258.124477000000013
21
-62.517087999999994
0
LINE
8
BLACK
6
CONTINUOUS
10
258.124477000000013
20
-62.517087999999994
11
258.2986629999999764
21
-62.6474819999999966
0
LINE
8
BLACK
6
CONTINUOUS
10
258.2986629999999764
20
-62.6474819999999966
11
258.4525179999999978
21
-62.8013369999999966
0
LINE
8
BLACK
6
CONTINUOUS
10
258.4525179999999978
20
-62.8013369999999966
11
258.5829119999999648
21
-62.9755229999999955
0
LINE
8
BLACK
6
CONTINUOUS
10
258.5829119999999648
20
-62.9755229999999955
11
258.6871889999999894
21
-63.1664919999999981
0
LINE
8
BLACK
6
CONTINUOUS
10
258.6871889999999894
20
-63.1664919999999981
11
258.7632269999999721
21
-63.370357999999996
0
LINE
8
BLACK
6
CONTINUOUS
10
258.7632269999999721
20
-63.370357999999996
11
258.8094780000000128
21
-63.582969999999996
0
LINE
8
BLACK
6
CONTINUOUS
10
258.8094780000000128
20
-63.582969999999996
11
258.8249999999999886
21
-63.7999999999999972
0
LINE
8
BLACK
6
CONTINUOUS
10
258.8249999999999886
20
-63.7999999999999972
11
258.8249999999999886
21
-99.25
0
LINE
8
BLACK
6
CONTINUOUS
10
258.8249999999999886
20
-99.25
11
258.811540999999977
21
-99.3349800000000016
0
LINE
8
BLACK
6
CONTINUOUS
10
258.811540999999977
20
-99.3349800000000016
11
258.7724799999999732
21
-99.4116409999999888
0
LINE
8
BLACK
6
CONTINUOUS
10
258.7724799999999732
20
-99.4116409999999888
11
258.711640999999986
21
-99.4724799999999902
0
LINE
8
BLACK
6
CONTINUOUS
10
258.711640999999986
20
-99.4724799999999902
11
258.6349799999999846
21
-99.511540999999994
0
LINE
8
BLACK
6
CONTINUOUS
10
258.6349799999999846
20
-99.511540999999994
11
258.5500000000000114
21
-99.5249999999999915
0
LINE
8
BLACK
6
CONTINUOUS
10
258.5500000000000114
20
-99.5249999999999915
11
256.1999999999999886
21
-99.5249999999999915
0
LINE
8
BLACK
6
CONTINUOUS
10
256.1999999999999886
20
-99.5249999999999915
11
256.1075260000000071
21
-99.5249999999999915
0
LINE
8
BLACK
6
CONTINUOUS
10
256.1075260000000071
20
-99.5249999999999915
11
255.9248539999999821
21
-99.5539330000000007
0
LINE
8
BLACK
6
CONTINUOUS
10
255.9248539999999821
20
-99.5539330000000007
11
255.7489569999999901
21
-99.6110849999999886
0
LINE
8
BLACK
6
CONTINUOUS
10
255.7489569999999901
20
-99.6110849999999886
11
255.584165999999982
21
-99.6950499999999948
0
LINE
8
BLACK
6
CONTINUOUS
10
255.584165999999982
20
-99.6950499999999948
11
255.4345390000000009
21
-99.8037599999999969
0
LINE
8
BLACK
6
CONTINUOUS
10
255.4345390000000009
20
-99.8037599999999969
11
255.3037599999999827
21
-99.9345390000000009
0
LINE
8
BLACK
6
CONTINUOUS
10
255.3037599999999827
20
-99.9345390000000009
11
255.1950499999999806
21
-100.0841659999999962
0
LINE
8
BLACK
6
CONTINUOUS
10
255.1950499999999806
20
-100.0841659999999962
11
255.1110849999999743
21
-100.2489569999999901
0
LINE
8
BLACK
6
CONTINUOUS
10
255.1110849999999743
20
-100.2489569999999901
11
255.0539330000000007
21
-100.4248539999999963
0
LINE
8
BLACK
6
CONTINUOUS
10
255.0539330000000007
20
-100.4248539999999963
11
255.0249999999999773
21
-100.6075259999999929
0
LINE
8
BLACK
6
CONTINUOUS
10
255.0249999999999773
20
-100.6075259999999929
11
255.0249999999999773
21
-100.6999999999999886
0
LINE
8
BLACK
6
CONTINUOUS
10
255.0249999999999773
20
-100.6999999999999886
11
255.0249999999999773
21
-100.7924739999999986
0
LINE
8
BLACK
6
CONTINUOUS
10
255.0249999999999773
20
-100.7924739999999986
11
255.0539330000000007
21
-100.9751459999999952
0
LINE
8
BLACK
6
CONTINUOUS
10
255.0539330000000007
20
-100.9751459999999952
11
255.1110849999999743
21
-101.1510430000000014
0
LINE
8
BLACK
6
CONTINUOUS
10
255.1110849999999743
20
-101.1510430000000014
11
255.1950499999999806
21
-101.3158339999999953
0
LINE
8
BLACK
6
CONTINUOUS
10
255.1950499999999806
20
-101.3158339999999953
11
255.3037599999999827
21
-101.4654609999999906
0
LINE
8
BLACK
6
CONTINUOUS
10
255.3037599999999827
20
-101.4654609999999906
11
255.4345390000000009
21
-101.5962399999999946
0
LINE
8
BLACK
6
CONTINUOUS
10
255.4345390000000009
20
-101.5962399999999946
11
255.584165999999982
21
-101.7049499999999966
0
LINE
8
BLACK
6
CONTINUOUS
10
255.584165999999982
20
-101.7049499999999966
11
255.7489569999999901
21
-101.7889149999999887
0
LINE
8
BLACK
6
CONTINUOUS
10
255.7489569999999901
20
-101.7889149999999887
11
255.9248539999999821
21
-101.8460669999999908
0
LINE
8
BLACK
6
CONTINUOUS
10
255.9248539999999821
20
-101.8460669999999908
11
256.1075260000000071
21
-101.875
0
LINE
8
BLACK
6
CONTINUOUS
10
256.1075260000000071
20
-101.875
11
256.1999999999999886
21
-101.875
0
LINE
8
BLACK
6
CONTINUOUS
10
256.1999999999999886
20
-101.875
11
258.5500000000000114
21
-101.875
0
LINE
8
BLACK
6
CONTINUOUS
10
258.5500000000000114
20
-101.875
11
258.6349799999999846
21
-101.8884589999999974
0
LINE
8
BLACK
6
CONTINUOUS
10
258.6349799999999846
20
-101.8884589999999974
11
258.711640999999986
21
-101.9275200000000012
0
LINE
8
BLACK
6
CONTINUOUS
10
258.711640999999986
20
-101.9275200000000012
11
258.7724799999999732
21
-101.9883589999999884
0
LINE
8
BLACK
6
CONTINUOUS
10
258.7724799999999732
20
-101.9883589999999884
11
258.811540999999977
21
-102.0650199999999899
0
LINE
8
BLACK
6
CONTINUOUS
10
258.811540999999977
20
-102.0650199999999899
11
258.8249999999999886
21
-102.1499999999999915
0
LINE
8
BLACK
6
CONTINUOUS
10
258.8249999999999886
20
-102.1499999999999915
11
258.8249999999999886
21
-137.5999999999999943
0
LINE
8
BLACK
6
CONTINUOUS
10
258.8249999999999886
20
-137.5999999999999943
11
258.8094780000000128
21
-137.8170299999999884
0
LINE
8
BLACK
6
CONTINUOUS
10
258.8094780000000128
20
-137.8170299999999884
11
258.7632269999999721
21
-138.0296419999999955
0
LINE
8
BLACK
6
CONTINUOUS
10
258.7632269999999721
20
-138.0296419999999955
11
258.6871889999999894
21
-138.2335080000000005
0
LINE
8
BLACK
6
CONTINUOUS
10
258.6871889999999894
20
-138.2335080000000005
11
258.5829119999999648
21
-138.424476999999996
0
LINE
8
BLACK
6
CONTINUOUS
10
258.5829119999999648
20
-138.424476999999996
11
258.4525179999999978
21
-138.5986629999999877
0
LINE
8
BLACK
6
CONTINUOUS
10
258.4525179999999978
20
-138.5986629999999877
11
258.2986629999999764
21
-138.7525179999999807
0
LINE
8
BLACK
6
CONTINUOUS
10
258.2986629999999764
20
-138.7525179999999807
11
258.124477000000013
21
-138.8829120000000046
0
LINE
8
BLACK
6
CONTINUOUS
10
258.124477000000013
20
-138.8829120000000046
11
257.9335079999999607
21
-138.9871890000000008
0
LINE
8
BLACK
6
CONTINUOUS
10
257.9335079999999607
20
-138.9871890000000008
11
257.7296420000000126
21
-139.0632269999999835
0
LINE
8
BLACK
6
CONTINUOUS
10
257.7296420000000126
20
-139.0632269999999835
11
257.517029999999977
21
-139.1094779999999957
0
LINE
8
BLACK
6
CONTINUOUS
10
257.517029999999977
20
-139.1094779999999957
11
257.3000000000000114
21
-139.125
0
LINE
8
BLACK
6
CONTINUOUS
10
257.3000000000000114
20
-139.125
11
31.5
21
-139.125
0
LINE
8
BLACK
6
CONTINUOUS
10
31.5
20
-139.125
11
31.2829699999999988
21
-139.1094779999999957
0
LINE
8
BLACK
6
CONTINUOUS
10
31.2829699999999988
20
-139.1094779999999957
11
31.0703579999999988
21
-139.0632269999999835
0
LINE
8
BLACK
6
CONTINUOUS
10
31.0703579999999988
20
-139.0632269999999835
11
30.8664919999999974
21
-138.9871890000000008
0
LINE
8
BLACK
6
CONTINUOUS
10
30.8664919999999974
20
-138.9871890000000008
11
30.6755229999999983
21
-138.8829120000000046
0
LINE
8
BLACK
6
CONTINUOUS
10
30.6755229999999983
20
-138.8829120000000046
11
30.5013369999999995
21
-138.7525179999999807
0
LINE
8
BLACK
6
CONTINUOUS
10
30.5013369999999995
20
-138.7525179999999807
11
30.3474819999999994
21
-138.5986629999999877
0
LINE
8
BLACK
6
CONTINUOUS
10
30.3474819999999994
20
-138.5986629999999877
11
30.2170880000000004
21
-138.424476999999996
0
LINE
8
BLACK
6
CONTINUOUS
10
30.2170880000000004
20
-138.424476999999996
11
30.1128109999999971
21
-138.2335080000000005
0
LINE
8
BLACK
6
CONTINUOUS
10
30.1128109999999971
20
-138.2335080000000005
11
30.0367730000000002
21
-138.0296419999999955
0
LINE
8
BLACK
6
CONTINUOUS
10
30.0367730000000002
20
-138.0296419999999955
11
29.9905219999999986
21
-137.8170299999999884
0
LINE
8
BLACK
6
CONTINUOUS
10
29.9905219999999986
20
-137.8170299999999884
11
29.9749999999999979
21
-137.5999999999999943
0
LINE
8
BLACK
6
CONTINUOUS
10
29.9749999999999979
20
-137.5999999999999943
11
29.9749999999999979
21
-102.1499999999999915
0
LINE
8
BLACK
6
CONTINUOUS
10
29.9749999999999979
20
-102.1499999999999915
11
29.9884589999999989
21
-102.0650199999999899
0
LINE
8
BLACK
6
CONTINUOUS
10
29.9884589999999989
20
-102.0650199999999899
11
30.0275199999999991
21
-101.9883589999999884
0
LINE
8
BLACK
6
CONTINUOUS
10
30.0275199999999991
20
-101.9883589999999884
11
30.088358999999997
21
-101.9275200000000012
0
LINE
8
BLACK
6
CONTINUOUS
10
30.088358999999997
20
-101.9275200000000012
11
30.1650199999999984
21
-101.8884589999999974
0
LINE
8
BLACK
6
CONTINUOUS
10
30.1650199999999984
20
-101.8884589999999974
11
30.25
21
-101.875
0
LINE
8
BLACK
6
CONTINUOUS
10
30.25
20
-101.875
11
32.6000000000000014
21
-101.875
0
LINE
8
BLACK
6
CONTINUOUS
10
32.6000000000000014
20
-101.875
11
32.6924739999999971
21
-101.875
0
LINE
8
BLACK
6
CONTINUOUS
10
32.6924739999999971
20
-101.875
11
32.8751460000000009
21
-101.8460669999999908
0
LINE
8
BLACK
6
CONTINUOUS
10
32.8751460000000009
20
-101.8460669999999908
11
33.0510429999999999
21
-101.7889149999999887
0
LINE
8
BLACK
6
CONTINUOUS
10
33.0510429999999999
20
-101.7889149999999887
11
33.215834000000001
21
-101.7049499999999966
0
LINE
8
BLACK
6
CONTINUOUS
10
33.215834000000001
20
-101.7049499999999966
11
33.3654609999999963
21
-101.5962399999999946
0
LINE
8
BLACK
6
CONTINUOUS
10
33.3654609999999963
20
-101.5962399999999946
11
33.4962400000000002
21
-101.4654609999999906
0
LINE
8
BLACK
6
CONTINUOUS
10
33.4962400000000002
20
-101.4654609999999906
11
33.6049499999999952
21
-101.3158339999999953
0
LINE
8
BLACK
6
CONTINUOUS
10
33.6049499999999952
20
-101.3158339999999953
11
33.6889150000000015
21
-101.1510430000000014
0
LINE
8
BLACK
6
CONTINUOUS
10
33.6889150000000015
20
-101.1510430000000014
11
33.7460669999999965
21
-100.9751459999999952
0
LINE
8
BLACK
6
CONTINUOUS
10
33.7460669999999965
20
-100.9751459999999952
11
33.7749999999999986
21
-100.7924739999999986
0
LINE
8
BLACK
6
CONTINUOUS
10
33.7749999999999986
20
-100.7924739999999986
11
33.7749999999999986
21
-100.6999999999999886
0
LINE
8
BLACK
6
CONTINUOUS
10
33.7749999999999986
20
-100.6999999999999886
11
33.7749999999999986
21
-100.6075259999999929
0
LINE
8
BLACK
6
CONTINUOUS
10
33.7749999999999986
20
-100.6075259999999929
11
33.7460669999999965
21
-100.4248539999999963
0
LINE
8
BLACK
6
CONTINUOUS
10
33.7460669999999965
20
-100.4248539999999963
11
33.6889150000000015
21
-100.2489569999999901
0
LINE
8
BLACK
6
CONTINUOUS
10
33.6889150000000015
20
-100.2489569999999901
11
33.6049499999999952
21
-100.0841659999999962
0
LINE
8
BLACK
6
CONTINUOUS
10
33.6049499999999952
20
-100.0841659999999962
11
33.4962400000000002
21
-99.9345390000000009
0
LINE
8
BLACK
6
CONTINUOUS
10
33.4962400000000002
20
-99.9345390000000009
11
33.3654609999999963
21
-99.8037599999999969
0
LINE
8
BLACK
6
CONTINUOUS
10
33.3654609999999963
20
-99.8037599999999969
11
33.215834000000001
21
-99.6950499999999948
0
LINE
8
BLACK
6
CONTINUOUS
10
33.215834000000001
20
-99.6950499999999948
11
33.0510429999999999
21
-99.6110849999999886
0
LINE
8
BLACK
6
CONTINUOUS
10
33.0510429999999999
20
-99.6110849999999886
11
32.8751460000000009
21
-99.5539330000000007
0
LINE
8
BLACK
6
CONTINUOUS
10
32.8751460000000009
20
-99.5539330000000007
11
32.6924739999999971
21
-99.5249999999999915
0
LINE
8
BLACK
6
CONTINUOUS
10
32.6924739999999971
20
-99.5249999999999915
11
32.6000000000000014
21
-99.5249999999999915
0
LINE
8
BLACK
6
CONTINUOUS
10
32.6000000000000014
20
-99.5249999999999915
11
30.25
21
-99.5249999999999915
0
LINE
8
BLACK
6
CONTINUOUS
10
30.25
20
-99.5249999999999915
11
30.1650199999999984
21
-99.511540999999994
0
LINE
8
BLACK
6
CONTINUOUS
10
30.1650199999999984
20
-99.511540999999994
11
30.088358999999997
21
-99.4724799999999902
0
LINE
8
BLACK
6
CONTINUOUS
10
30.088358999999997
20
-99.4724799999999902
11
30.0275199999999991
21
-99.4116409999999888
0
LINE
8
BLACK
6
CONTINUOUS
10
30.0275199999999991
20
-99.4116409999999888
11
29.9884589999999989
21
-99.3349800000000016
0
LINE
8
BLACK
6
CONTINUOUS
10
29.9884589999999989
20
-99.3349800000000016
11
29.9749999999999979
21
-99.25
0
LINE
8
BLACK
6
CONTINUOUS
10
29.9749999999999979
20
-99.25
11
29.9749999999999979
21
-63.7999999999999972
0
LINE
8
BLACK
6
CONTINUOUS
10
29.9749999999999979
20
-63.7999999999999972
11
29.9905219999999986
21
-63.582969999999996
0
LINE
8
BLACK
6
CONTINUOUS
10
29.9905219999999986
20
-63.582969999999996
11
30.0367730000000002
21
-63.370357999999996
0
LINE
8
BLACK
6
CONTINUOUS
10
30.0367730000000002
20
-63.370357999999996
11
30.1128109999999971
21
-63.1664919999999981
0
LINE
8
BLACK
6
CONTINUOUS
10
30.1128109999999971
20
-63.1664919999999981
11
30.2170880000000004
21
-62.9755229999999955
0
LINE
8
BLACK
6
CONTINUOUS
10
30.2170880000000004
20
-62.9755229999999955
11
30.3474819999999994
21
-62.8013369999999966
0
LINE
8
BLACK
6
CONTINUOUS
10
30.3474819999999994
20
-62.8013369999999966
11
30.5013369999999995
21
-62.6474819999999966
0
LINE
8
BLACK
6
CONTINUOUS
10
30.5013369999999995
20
-62.6474819999999966
11
30.6755229999999983
21
-62.517087999999994
0
LINE
8
BLACK
6
CONTINUOUS
10
30.6755229999999983
20
-62.517087999999994
11
30.8664919999999974
21
-62.4128109999999978
0
LINE
8
BLACK
6
CONTINUOUS
10
30.8664919999999974
20
-62.4128109999999978
11
31.0703579999999988
21
-62.3367729999999938
0
LINE
8
BLACK
6
CONTINUOUS
10
31.0703579999999988
20
-62.3367729999999938
11
31.2829699999999988
21
-62.2905219999999957
0
LINE
8
BLACK
6
CONTINUOUS
10
31.2829699999999988
20
-62.2905219999999957
11
31.5
21
-62.2749999999999986
0
LINE
8
BLACK
6
CONTINUOUS
10
31.5
20
-62.2749999999999986
11
257.3000000000000114
21
-62.2749999999999986
0
LINE
8
BLACK
6
CONTINUOUS
10
31.5
20
-62.3249999999999957
11
31.3945059999999998
21
-62.3249999999999957
0
LINE
8
BLACK
6
CONTINUOUS
10
31.3945059999999998
20
-62.3249999999999957
11
31.1856650000000002
21
-62.3550259999999952
0
LINE
8
BLACK
6
CONTINUOUS
10
31.1856650000000002
20
-62.3550259999999952
11
30.9832239999999999
21
-62.4144689999999969
0
LINE
8
BLACK
6
CONTINUOUS
10
30.9832239999999999
20
-62.4144689999999969
11
30.7913019999999982
21
-62.5021159999999938
0
LINE
8
BLACK
6
CONTINUOUS
10
30.7913019999999982
20
-62.5021159999999938
11
30.6138069999999978
21
-62.6161849999999944
0
LINE
8
BLACK
6
CONTINUOUS
10
30.6138069999999978
20
-62.6161849999999944
11
30.4543529999999976
21
-62.7543529999999947
0
LINE
8
BLACK
6
CONTINUOUS
10
30.4543529999999976
20
-62.7543529999999947
11
30.3161849999999973
21
-62.9138069999999985
0
LINE
8
BLACK
6
CONTINUOUS
10
30.3161849999999973
20
-62.9138069999999985
11
30.2021160000000002
21
-63.0913019999999989
0
LINE
8
BLACK
6
CONTINUOUS
10
30.2021160000000002
20
-63.0913019999999989
11
30.1144689999999997
21
-63.283223999999997
0
LINE
8
BLACK
6
CONTINUOUS
10
30.1144689999999997
20
-63.283223999999997
11
30.055025999999998
21
-63.4856649999999973
0
LINE
8
BLACK
6
CONTINUOUS
10
30.055025999999998
20
-63.4856649999999973
11
30.0249999999999986
21
-63.694505999999997
0
LINE
8
BLACK
6
CONTINUOUS
10
30.0249999999999986
20
-63.694505999999997
11
30.0249999999999986
21
-63.7999999999999972
0
LINE
8
BLACK
6
CONTINUOUS
10
30.0249999999999986
20
-63.7999999999999972
11
30.0249999999999986
21
-99.25
0
LINE
8
BLACK
6
CONTINUOUS
10
30.0249999999999986
20
-99.25
11
30.0249999999999986
21
-99.2856369999999941
0
LINE
8
BLACK
6
CONTINUOUS
10
30.0249999999999986
20
-99.2856369999999941
11
30.0470240000000004
21
-99.3534209999999973
0
LINE
8
BLACK
6
CONTINUOUS
10
30.0470240000000004
20
-99.3534209999999973
11
30.0889179999999996
21
-99.4110819999999933
0
LINE
8
BLACK
6
CONTINUOUS
10
30.0889179999999996
20
-99.4110819999999933
11
30.1465789999999991
21
-99.4529759999999925
0
LINE
8
BLACK
6
CONTINUOUS
10
30.1465789999999991
20
-99.4529759999999925
11
30.2143629999999987
21
-99.4749999999999943
0
LINE
8
BLACK
6
CONTINUOUS
10
30.2143629999999987
20
-99.4749999999999943
11
30.25
21
-99.4749999999999943
0
LINE
8
BLACK
6
CONTINUOUS
10
30.25
20
-99.4749999999999943
11
32.6000000000000014
21
-99.4749999999999943
0
LINE
8
BLACK
6
CONTINUOUS
10
32.6000000000000014
20
-99.4749999999999943
11
32.7916319999999999
21
-99.490082000000001
0
LINE
8
BLACK
6
CONTINUOUS
10
32.7916319999999999
20
-99.490082000000001
11
32.9785460000000015
21
-99.534955999999994
0
LINE
8
BLACK
6
CONTINUOUS
10
32.9785460000000015
20
-99.534955999999994
11
33.1561379999999986
21
-99.608516999999992
0
LINE
8
BLACK
6
CONTINUOUS
10
33.1561379999999986
20
-99.608516999999992
11
33.3200369999999992
21
-99.7089539999999914
0
LINE
8
BLACK
6
CONTINUOUS
10
33.3200369999999992
20
-99.7089539999999914
11
33.4662059999999997
21
-99.8337939999999975
0
LINE
8
BLACK
6
CONTINUOUS
10
33.4662059999999997
20
-99.8337939999999975
11
33.5910459999999986
21
-99.9799629999999979
0
LINE
8
BLACK
6
CONTINUOUS
10
33.5910459999999986
20
-99.9799629999999979
11
33.6914829999999981
21
-100.1438619999999986
0
LINE
8
BLACK
6
CONTINUOUS
10
33.6914829999999981
20
-100.1438619999999986
11
33.7650439999999961
21
-100.3214539999999886
0
LINE
8
BLACK
6
CONTINUOUS
10
33.7650439999999961
20
-100.3214539999999886
11
33.8099179999999961
21
-100.5083679999999902
0
LINE
8
BLACK
6
CONTINUOUS
10
33.8099179999999961
20
-100.5083679999999902
11
33.8249999999999957
21
-100.6999999999999886
0
LINE
8
BLACK
6
CONTINUOUS
10
33.8249999999999957
20
-100.6999999999999886
11
33.8099179999999961
21
-100.8916320000000013
0
LINE
8
BLACK
6
CONTINUOUS
10
33.8099179999999961
20
-100.8916320000000013
11
33.7650439999999961
21
-101.0785459999999887
0
LINE
8
BLACK
6
CONTINUOUS
10
33.7650439999999961
20
-101.0785459999999887
11
33.6914829999999981
21
-101.2561379999999929
0
LINE
8
BLACK
6
CONTINUOUS
10
33.6914829999999981
20
-101.2561379999999929
11
33.5910459999999986
21
-101.4200369999999936
0
LINE
8
BLACK
6
CONTINUOUS
10
33.5910459999999986
20
-101.4200369999999936
11
33.4662059999999997
21
-101.566205999999994
0
LINE
8
BLACK
6
CONTINUOUS
10
33.4662059999999997
20
-101.566205999999994
11
33.3200369999999992
21
-101.691046
0
LINE
8
BLACK
6
CONTINUOUS
10
33.3200369999999992
20
-101.691046
11
33.1561379999999986
21
-101.7914829999999995
0
LINE
8
BLACK
6
CONTINUOUS
10
33.1561379999999986
20
-101.7914829999999995
11
32.9785460000000015
21
-101.8650439999999975
0
LINE
8
BLACK
6
CONTINUOUS
10
32.9785460000000015
20
-101.8650439999999975
11
32.7916319999999999
21
-101.9099179999999905
0
LINE
8
BLACK
6
CONTINUOUS
10
32.7916319999999999
20
-101.9099179999999905
11
32.6000000000000014
21
-101.9249999999999972
0
LINE
8
BLACK
6
CONTINUOUS
10
32.6000000000000014
20
-101.9249999999999972
11
30.25
21
-101.9249999999999972
0
LINE
8
BLACK
6
CONTINUOUS
10
30.25
20
-101.9249999999999972
11
30.2143629999999987
21
-101.9249999999999972
0
LINE
8
BLACK
6
CONTINUOUS
10
30.2143629999999987
20
-101.9249999999999972
11
30.1465789999999991
21
-101.947023999999999
0
LINE
8
BLACK
6
CONTINUOUS
10
30.1465789999999991
20
-101.947023999999999
11
30.0889179999999996
21
-101.9889179999999982
0
LINE
8
BLACK
6
CONTINUOUS
10
30.0889179999999996
20
-101.9889179999999982
11
30.0470240000000004
21
-102.0465789999999942
0
LINE
8
BLACK
6
CONTINUOUS
10
30.0470240000000004
20
-102.0465789999999942
11
30.0249999999999986
21
-102.1143629999999973
0
LINE
8
BLACK
6
CONTINUOUS
10
30.0249999999999986
20
-102.1143629999999973
11
30.0249999999999986
21
-102.1499999999999915
0
LINE
8
BLACK
6
CONTINUOUS
10
30.0249999999999986
20
-102.1499999999999915
11
30.0249999999999986
21
-137.5999999999999943
0
LINE
8
BLACK
6
CONTINUOUS
10
30.0249999999999986
20
-137.5999999999999943
11
30.0249999999999986
21
-137.7054939999999874
0
LINE
8
BLACK
6
CONTINUOUS
10
30.0249999999999986
20
-137.7054939999999874
11
30.055025999999998
21
-137.9143349999999941
0
LINE
8
BLACK
6
CONTINUOUS
10
30.055025999999998
20
-137.9143349999999941
11
30.1144689999999997
21
-138.1167759999999873
0
LINE
8
BLACK
6
CONTINUOUS
10
30.1144689999999997
20
-138.1167759999999873
11
30.2021160000000002
21
-138.3086979999999926
0
LINE
8
BLACK
6
CONTINUOUS
10
30.2021160000000002
20
-138.3086979999999926
11
30.3161849999999973
21
-138.4861929999999859
0
LINE
8
BLACK
6
CONTINUOUS
10
30.3161849999999973
20
-138.4861929999999859
11
30.4543529999999976
21
-138.6456469999999968
0
LINE
8
BLACK
6
CONTINUOUS
10
30.4543529999999976
20
-138.6456469999999968
11
30.6138069999999978
21
-138.7838150000000041
0
LINE
8
BLACK
6
CONTINUOUS
10
30.6138069999999978
20
-138.7838150000000041
11
30.7913019999999982
21
-138.8978840000000048
0
LINE
8
BLACK
6
CONTINUOUS
10
30.7913019999999982
20
-138.8978840000000048
11
30.9832239999999999
21
-138.9855309999999804
0
LINE
8
BLACK
6
CONTINUOUS
10
30.9832239999999999
20
-138.9855309999999804
11
31.1856650000000002
21
-139.0449739999999963
0
LINE
8
BLACK
6
CONTINUOUS
10
31.1856650000000002
20
-139.0449739999999963
11
31.3945059999999998
21
-139.0749999999999886
0
LINE
8
BLACK
6
CONTINUOUS
10
31.3945059999999998
20
-139.0749999999999886
11
31.5
21
-139.0749999999999886
0
LINE
8
BLACK
6
CONTINUOUS
10
31.5
20
-139.0749999999999886
11
257.3000000000000114
21
-139.0749999999999886
0
LINE
8
BLACK
6
CONTINUOUS
10
257.3000000000000114
20
-139.0749999999999886
11
257.405493999999976
21
-139.0749999999999886
0
LINE
8
BLACK
6
CONTINUOUS
10
257.405493999999976
20
-139.0749999999999886
11
257.6143349999999828
21
-139.0449739999999963
0
LINE
8
BLACK
6
CONTINUOUS
10
257.6143349999999828
20
-139.0449739999999963
11
257.8167760000000044
21
-138.9855309999999804
0
LINE
8
BLACK
6
CONTINUOUS
10
257.8167760000000044
20
-138.9855309999999804
11
258.0086979999999812
21
-138.8978840000000048
0
LINE
8
BLACK
6
CONTINUOUS
10
258.0086979999999812
20
-138.8978840000000048
11
258.1861930000000029
21
-138.7838150000000041
0
LINE
8
BLACK
6
CONTINUOUS
10
258.1861930000000029
20
-138.7838150000000041
11
258.3456469999999854
21
-138.6456469999999968
0
LINE
8
BLACK
6
CONTINUOUS
10
258.3456469999999854
20
-138.6456469999999968
11
258.4838149999999928
21
-138.4861929999999859
0
LINE
8
BLACK
6
CONTINUOUS
10
258.4838149999999928
20
-138.4861929999999859
11
258.597883999999965
21
-138.3086979999999926
0
LINE
8
BLACK
6
CONTINUOUS
10
258.597883999999965
20
-138.3086979999999926
11
258.685530999999969
21
-138.1167759999999873
0
LINE
8
BLACK
6
CONTINUOUS
10
258.685530999999969
20
-138.1167759999999873
11
258.7449740000000133
21
-137.9143349999999941
0
LINE
8
BLACK
6
CONTINUOUS
10
258.7449740000000133
20
-137.9143349999999941
11
258.7749999999999773
21
-137.7054939999999874
0
LINE
8
BLACK
6
CONTINUOUS
10
258.7749999999999773
20
-137.7054939999999874
11
258.7749999999999773
21
-137.5999999999999943
0
LINE
8
BLACK
6
CONTINUOUS
10
258.7749999999999773
20
-137.5999999999999943
11
258.7749999999999773
21
-102.1499999999999915
0
LINE
8
BLACK
6
CONTINUOUS
10
258.7749999999999773
20
-102.1499999999999915
11
258.7749999999999773
21
-102.1143629999999973
0
LINE
8
BLACK
6
CONTINUOUS
10
258.7749999999999773
20
-102.1143629999999973
11
258.7529759999999897
21
-102.0465789999999942
0
LINE
8
BLACK
6
CONTINUOUS
10
258.7529759999999897
20
-102.0465789999999942
11
258.7110819999999762
21
-101.9889179999999982
0
LINE
8
BLACK
6
CONTINUOUS
10
258.7110819999999762
20
-101.9889179999999982
11
258.6534209999999803
21
-101.947023999999999
0
LINE
8
BLACK
6
CONTINUOUS
10
258.6534209999999803
20
-101.947023999999999
11
258.5856369999999629
21
-101.9249999999999972
0
LINE
8
BLACK
6
CONTINUOUS
10
258.5856369999999629
20
-101.9249999999999972
11
258.5500000000000114
21
-101.9249999999999972
0
LINE
8
BLACK
6
CONTINUOUS
10
258.5500000000000114
20
-101.9249999999999972
11
256.1999999999999886
21
-101.9249999999999972
0
LINE
8
BLACK
6
CONTINUOUS
10
256.1999999999999886
20
-101.9249999999999972
11
256.0083679999999617
21
-101.9099179999999905
0
LINE
8
BLACK
6
CONTINUOUS
10
256.0083679999999617
20
-101.9099179999999905
11
255.8214539999999886
21
-101.8650439999999975
0
LINE
8
BLACK
6
CONTINUOUS
10
255.8214539999999886
20
-101.8650439999999975
11
255.6438619999999844
21
-101.7914829999999995
0
LINE
8
BLACK
6
CONTINUOUS
10
255.6438619999999844
20
-101.7914829999999995
11
255.4799629999999979
21
-101.691046
0
LINE
8
BLACK
6
CONTINUOUS
10
255.4799629999999979
20
-101.691046
11
255.3337939999999833
21
-101.566205999999994
0
LINE
8
BLACK
6
CONTINUOUS
10
255.3337939999999833
20
-101.566205999999994
11
255.2089539999999772
21
-101.4200369999999936
0
LINE
8
BLACK
6
CONTINUOUS
10
255.2089539999999772
20
-101.4200369999999936
11
255.1085169999999778
21
-101.2561379999999929
0
LINE
8
BLACK
6
CONTINUOUS
10
255.1085169999999778
20
-101.2561379999999929
11
255.034955999999994
21
-101.0785459999999887
0
LINE
8
BLACK
6
CONTINUOUS
10
255.034955999999994
20
-101.0785459999999887
11
254.990082000000001
21
-100.8916320000000013
0
LINE
8
BLACK
6
CONTINUOUS
10
254.990082000000001
20
-100.8916320000000013
11
254.9749999999999943
21
-100.6999999999999886
0
LINE
8
BLACK
6
CONTINUOUS
10
254.9749999999999943
20
-100.6999999999999886
11
254.990082000000001
21
-100.5083679999999902
0
LINE
8
BLACK
6
CONTINUOUS
10
254.990082000000001
20
-100.5083679999999902
11
255.034955999999994
21
-100.3214539999999886
0
LINE
8
BLACK
6
CONTINUOUS
10
255.034955999999994
20
-100.3214539999999886
11
255.1085169999999778
21
-100.1438619999999986
0
LINE
8
BLACK
6
CONTINUOUS
10
255.1085169999999778
20
-100.1438619999999986
11
255.2089539999999772
21
-99.9799629999999979
0
LINE
8
BLACK
6
CONTINUOUS
10
255.2089539999999772
20
-99.9799629999999979
11
255.3337939999999833
21
-99.8337939999999975
0
LINE
8
BLACK
6
CONTINUOUS
10
255.3337939999999833
20
-99.8337939999999975
11
255.4799629999999979
21
-99.7089539999999914
0
LINE
8
BLACK
6
CONTINUOUS
10
255.4799629999999979
20
-99.7089539999999914
11
255.6438619999999844
21
-99.608516999999992
0
LINE
8
BLACK
6
CONTINUOUS
10
255.6438619999999844
20
-99.608516999999992
11
255.8214539999999886
21
-99.534955999999994
0
LINE
8
BLACK
6
CONTINUOUS
10
255.8214539999999886
20
-99.534955999999994
11
256.0083679999999617
21
-99.490082000000001
0
LINE
8
BLACK
6
CONTINUOUS
10
256.0083679999999617
20
-99.490082000000001
11
256.1999999999999886
21
-99.4749999999999943
0
LINE
8
BLACK
6
CONTINUOUS
10
256.1999999999999886
20
-99.4749999999999943
11
258.5500000000000114
21
-99.4749999999999943
0
LINE
8
BLACK
6
CONTINUOUS
10
258.5500000000000114
20
-99.4749999999999943
11
258.5856369999999629
21
-99.4749999999999943
0
LINE
8
BLACK
6
CONTINUOUS
10
258.5856369999999629
20
-99.4749999999999943
11
258.6534209999999803
21
-99.4529759999999925
0
LINE
8
BLACK
6
CONTINUOUS
10
258.6534209999999803
20
-99.4529759999999925
11
258.7110819999999762
21
-99.4110819999999933
0
LINE
8
BLACK
6
CONTINUOUS
10
258.7110819999999762
20
-99.4110819999999933
11
258.7529759999999897
21
-99.3534209999999973
0
LINE
8
BLACK
6
CONTINUOUS
10
258.7529759999999897
20
-99.3534209999999973
11
258.7749999999999773
21
-99.2856369999999941
0
LINE
8
BLACK
6
CONTINUOUS
10
258.7749999999999773
20
-99.2856369999999941
11
258.7749999999999773
21
-99.25
0
LINE
8
BLACK
6
CONTINUOUS
10
258.7749999999999773
20
-99.25
11
258.7749999999999773
21
-63.7999999999999972
0
LINE
8
BLACK
6
CONTINUOUS
10
258.7749999999999773
20
-63.7999999999999972
11
258.7749999999999773
21
-63.694505999999997
0
LINE
8
BLACK
6
CONTINUOUS
10
258.7749999999999773
20
-63.694505999999997
11
258.7449740000000133
21
-63.4856649999999973
0
LINE
8
BLACK
6
CONTINUOUS
10
258.7449740000000133
20
-63.4856649999999973
11
258.685530999999969
21
-63.283223999999997
0
LINE
8
BLACK
6
CONTINUOUS
10
258.685530999999969
20
-63.283223999999997
11
258.597883999999965
21
-63.0913019999999989
0
LINE
8
BLACK
6
CONTINUOUS
10
258.597883999999965
20
-63.0913019999999989
11
258.4838149999999928
21
-62.9138069999999985
0
LINE
8
BLACK
6
CONTINUOUS
10
258.4838149999999928
20
-62.9138069999999985
11
258.3456469999999854
21
-62.7543529999999947
0
LINE
8
BLACK
6
CONTINUOUS
10
258.3456469999999854
20
-62.7543529999999947
11
258.1861930000000029
21
-62.6161849999999944
0
LINE
8
BLACK
6
CONTINUOUS
10
258.1861930000000029
20
-62.6161849999999944
11
258.0086979999999812
21
-62.5021159999999938
0
LINE
8
BLACK
6
CONTINUOUS
10
258.0086979999999812
20
-62.5021159999999938
11
257.8167760000000044
21
-62.4144689999999969
0
LINE
8
BLACK
6
CONTINUOUS
10
257.8167760000000044
20
-62.4144689999999969
11
257.6143349999999828
21
-62.3550259999999952
0
LINE
8
BLACK
6
CONTINUOUS
10
257.6143349999999828
20
-62.3550259999999952
11
257.405493999999976
21
-62.3249999999999957
0
LINE
8
BLACK
6
CONTINUOUS
10
257.405493999999976
20
-62.3249999999999957
11
257.3000000000000114
21
-62.3249999999999957
0
LINE
8
BLACK
6
CONTINUOUS
10
257.3000000000000114
20
-62.3249999999999957
11
31.5
21
-62.3249999999999957
  0
ENDSEC
  0
EOF
