%TF.GenerationSoftware,KiCad,Pcbnew,8.0.4*%
%TF.CreationDate,2024-09-01T23:08:26+02:00*%
%TF.ProjectId,feb42-rounded,66656234-322d-4726-9f75-6e6465642e6b,rev?*%
%TF.SameCoordinates,Original*%
%TF.FileFunction,Soldermask,Top*%
%TF.FilePolarity,Negative*%
%FSLAX46Y46*%
G04 Gerber Fmt 4.6, Leading zero omitted, Abs format (unit mm)*
G04 Created by KiCad (PCBNEW 8.0.4) date 2024-09-01 23:08:26*
%MOMM*%
%LPD*%
G01*
G04 APERTURE LIST*
G04 Aperture macros list*
%AMRoundRect*
0 Rectangle with rounded corners*
0 $1 Rounding radius*
0 $2 $3 $4 $5 $6 $7 $8 $9 X,Y pos of 4 corners*
0 Add a 4 corners polygon primitive as box body*
4,1,4,$2,$3,$4,$5,$6,$7,$8,$9,$2,$3,0*
0 Add four circle primitives for the rounded corners*
1,1,$1+$1,$2,$3*
1,1,$1+$1,$4,$5*
1,1,$1+$1,$6,$7*
1,1,$1+$1,$8,$9*
0 Add four rect primitives between the rounded corners*
20,1,$1+$1,$2,$3,$4,$5,0*
20,1,$1+$1,$4,$5,$6,$7,0*
20,1,$1+$1,$6,$7,$8,$9,0*
20,1,$1+$1,$8,$9,$2,$3,0*%
G04 Aperture macros list end*
%ADD10O,1.000000X1.600000*%
%ADD11O,1.000000X2.100000*%
%ADD12RoundRect,0.150000X0.150000X0.575000X-0.150000X0.575000X-0.150000X-0.575000X0.150000X-0.575000X0*%
%ADD13RoundRect,0.075000X0.075000X0.650000X-0.075000X0.650000X-0.075000X-0.650000X0.075000X-0.650000X0*%
%ADD14C,0.650000*%
%ADD15RoundRect,0.200000X-0.525000X-0.200000X0.525000X-0.200000X0.525000X0.200000X-0.525000X0.200000X0*%
%ADD16RoundRect,0.135000X0.185000X-0.135000X0.185000X0.135000X-0.185000X0.135000X-0.185000X-0.135000X0*%
%ADD17RoundRect,0.150000X-0.200000X-0.150000X0.200000X-0.150000X0.200000X0.150000X-0.200000X0.150000X0*%
%ADD18RoundRect,0.175000X-0.175000X-0.325000X0.175000X-0.325000X0.175000X0.325000X-0.175000X0.325000X0*%
%ADD19RoundRect,0.150000X-0.512500X-0.150000X0.512500X-0.150000X0.512500X0.150000X-0.512500X0.150000X0*%
%ADD20RoundRect,0.250000X1.075000X-0.375000X1.075000X0.375000X-1.075000X0.375000X-1.075000X-0.375000X0*%
%ADD21RoundRect,0.250000X-0.375000X-0.625000X0.375000X-0.625000X0.375000X0.625000X-0.375000X0.625000X0*%
%ADD22RoundRect,0.250000X-0.475000X0.250000X-0.475000X-0.250000X0.475000X-0.250000X0.475000X0.250000X0*%
%ADD23RoundRect,0.140000X-0.170000X0.140000X-0.170000X-0.140000X0.170000X-0.140000X0.170000X0.140000X0*%
%ADD24RoundRect,0.112500X0.112500X-0.737500X0.112500X0.737500X-0.112500X0.737500X-0.112500X-0.737500X0*%
%ADD25RoundRect,0.075000X0.662500X-0.075000X0.662500X0.075000X-0.662500X0.075000X-0.662500X-0.075000X0*%
%ADD26RoundRect,0.075000X0.075000X-0.662500X0.075000X0.662500X-0.075000X0.662500X-0.075000X-0.662500X0*%
%ADD27C,0.800000*%
%ADD28RoundRect,0.140000X0.170000X-0.140000X0.170000X0.140000X-0.170000X0.140000X-0.170000X-0.140000X0*%
%ADD29RoundRect,0.200000X0.525000X0.200000X-0.525000X0.200000X-0.525000X-0.200000X0.525000X-0.200000X0*%
%ADD30RoundRect,0.150000X-0.150000X0.587500X-0.150000X-0.587500X0.150000X-0.587500X0.150000X0.587500X0*%
%ADD31RoundRect,0.135000X-0.185000X0.135000X-0.185000X-0.135000X0.185000X-0.135000X0.185000X0.135000X0*%
%ADD32RoundRect,0.250000X-0.450000X-0.350000X0.450000X-0.350000X0.450000X0.350000X-0.450000X0.350000X0*%
%ADD33RoundRect,0.050000X0.050000X0.287500X-0.050000X0.287500X-0.050000X-0.287500X0.050000X-0.287500X0*%
%ADD34RoundRect,0.100000X0.100000X0.287500X-0.100000X0.287500X-0.100000X-0.287500X0.100000X-0.287500X0*%
%ADD35RoundRect,0.218750X0.218750X0.381250X-0.218750X0.381250X-0.218750X-0.381250X0.218750X-0.381250X0*%
%ADD36RoundRect,0.200000X0.275000X-0.200000X0.275000X0.200000X-0.275000X0.200000X-0.275000X-0.200000X0*%
%ADD37O,1.700000X1.700000*%
%ADD38RoundRect,0.250000X0.600000X-0.600000X0.600000X0.600000X-0.600000X0.600000X-0.600000X-0.600000X0*%
%ADD39RoundRect,0.140000X0.140000X0.170000X-0.140000X0.170000X-0.140000X-0.170000X0.140000X-0.170000X0*%
%ADD40RoundRect,0.112500X-0.112500X0.187500X-0.112500X-0.187500X0.112500X-0.187500X0.112500X0.187500X0*%
%ADD41RoundRect,0.135000X-0.135000X-0.185000X0.135000X-0.185000X0.135000X0.185000X-0.135000X0.185000X0*%
%ADD42RoundRect,0.135000X0.135000X0.185000X-0.135000X0.185000X-0.135000X-0.185000X0.135000X-0.185000X0*%
%ADD43RoundRect,0.140000X-0.140000X-0.170000X0.140000X-0.170000X0.140000X0.170000X-0.140000X0.170000X0*%
%ADD44RoundRect,0.250000X0.247487X0.601041X-0.601041X-0.247487X-0.247487X-0.601041X0.601041X0.247487X0*%
%ADD45RoundRect,0.150000X0.587500X0.150000X-0.587500X0.150000X-0.587500X-0.150000X0.587500X-0.150000X0*%
%ADD46C,1.500000*%
%ADD47RoundRect,0.150000X-0.587500X-0.150000X0.587500X-0.150000X0.587500X0.150000X-0.587500X0.150000X0*%
%ADD48RoundRect,0.150000X0.150000X-0.587500X0.150000X0.587500X-0.150000X0.587500X-0.150000X-0.587500X0*%
%ADD49RoundRect,0.250000X0.325000X0.650000X-0.325000X0.650000X-0.325000X-0.650000X0.325000X-0.650000X0*%
G04 APERTURE END LIST*
D10*
%TO.C,USB1*%
X48930000Y-67850000D03*
D11*
X48930000Y-72030000D03*
D10*
X57570000Y-67850000D03*
D11*
X57570000Y-72030000D03*
D12*
X56500000Y-72945000D03*
X55700000Y-72945000D03*
D13*
X55000000Y-72945000D03*
X54000000Y-72945000D03*
X52500000Y-72945000D03*
X51500000Y-72945000D03*
D12*
X50800000Y-72945000D03*
X50000000Y-72945000D03*
X50000000Y-72945000D03*
X50800000Y-72945000D03*
D13*
X52000000Y-72945000D03*
X53000000Y-72945000D03*
X53500000Y-72945000D03*
X54500000Y-72945000D03*
D12*
X55700000Y-72945000D03*
X56500000Y-72945000D03*
D14*
X50360000Y-71500000D03*
X56140000Y-71500000D03*
%TD*%
D15*
%TO.C,LED8*%
X179675000Y-82255000D03*
X179675000Y-80755000D03*
X174475000Y-80755000D03*
X174475000Y-82255000D03*
%TD*%
D16*
%TO.C,USBR2*%
X55350000Y-78390000D03*
X55350000Y-79410000D03*
%TD*%
%TO.C,USBR1*%
X50750000Y-78390000D03*
X50750000Y-79410000D03*
%TD*%
D17*
%TO.C,USBD1*%
X54050000Y-77950000D03*
X54050000Y-79850000D03*
X52050000Y-79850000D03*
D18*
X52050000Y-78150000D03*
%TD*%
D19*
%TO.C,SD1*%
X71387500Y-69550000D03*
X71387500Y-71450000D03*
X69112500Y-71450000D03*
X69112500Y-70500000D03*
X69112500Y-69550000D03*
%TD*%
D20*
%TO.C,PWRL1*%
X74250000Y-69100000D03*
X74250000Y-71900000D03*
%TD*%
D21*
%TO.C,PWRF1*%
X63650000Y-69900000D03*
X60850000Y-69900000D03*
%TD*%
D22*
%TO.C,PWRC2*%
X77250000Y-71450000D03*
X77250000Y-69550000D03*
%TD*%
%TO.C,PWRC1*%
X67150000Y-71450000D03*
X67150000Y-69550000D03*
%TD*%
D23*
%TO.C,MPC3*%
X213650000Y-103880000D03*
X213650000Y-102920000D03*
%TD*%
%TO.C,MPC2*%
X137650000Y-103880000D03*
X137650000Y-102920000D03*
%TD*%
%TO.C,MPC1*%
X67900000Y-106880000D03*
X67900000Y-105920000D03*
%TD*%
D24*
%TO.C,MP3*%
X215625000Y-102750000D03*
X216275000Y-102750000D03*
X216925000Y-102750000D03*
X217575000Y-102750000D03*
X218225000Y-102750000D03*
X218875000Y-102750000D03*
X219525000Y-102750000D03*
X220175000Y-102750000D03*
X220825000Y-102750000D03*
X221475000Y-102750000D03*
X222125000Y-102750000D03*
X222775000Y-102750000D03*
X222775000Y-110050000D03*
X222125000Y-110050000D03*
X221475000Y-110050000D03*
X220825000Y-110050000D03*
X220175000Y-110050000D03*
X219525000Y-110050000D03*
X218875000Y-110050000D03*
X218225000Y-110050000D03*
X217575000Y-110050000D03*
X216925000Y-110050000D03*
X216275000Y-110050000D03*
X215625000Y-110050000D03*
%TD*%
%TO.C,MP2*%
X139625000Y-102750000D03*
X140275000Y-102750000D03*
X140925000Y-102750000D03*
X141575000Y-102750000D03*
X142225000Y-102750000D03*
X142875000Y-102750000D03*
X143525000Y-102750000D03*
X144175000Y-102750000D03*
X144825000Y-102750000D03*
X145475000Y-102750000D03*
X146125000Y-102750000D03*
X146775000Y-102750000D03*
X146775000Y-110050000D03*
X146125000Y-110050000D03*
X145475000Y-110050000D03*
X144825000Y-110050000D03*
X144175000Y-110050000D03*
X143525000Y-110050000D03*
X142875000Y-110050000D03*
X142225000Y-110050000D03*
X141575000Y-110050000D03*
X140925000Y-110050000D03*
X140275000Y-110050000D03*
X139625000Y-110050000D03*
%TD*%
%TO.C,MP1*%
X69875000Y-105750000D03*
X70525000Y-105750000D03*
X71175000Y-105750000D03*
X71825000Y-105750000D03*
X72475000Y-105750000D03*
X73125000Y-105750000D03*
X73775000Y-105750000D03*
X74425000Y-105750000D03*
X75075000Y-105750000D03*
X75725000Y-105750000D03*
X76375000Y-105750000D03*
X77025000Y-105750000D03*
X77025000Y-113050000D03*
X76375000Y-113050000D03*
X75725000Y-113050000D03*
X75075000Y-113050000D03*
X74425000Y-113050000D03*
X73775000Y-113050000D03*
X73125000Y-113050000D03*
X72475000Y-113050000D03*
X71825000Y-113050000D03*
X71175000Y-113050000D03*
X70525000Y-113050000D03*
X69875000Y-113050000D03*
%TD*%
D25*
%TO.C,MCU1*%
X93037500Y-132650000D03*
X93037500Y-132150000D03*
X93037500Y-131650000D03*
X93037500Y-131150000D03*
X93037500Y-130650000D03*
X93037500Y-130150000D03*
X93037500Y-129650000D03*
X93037500Y-129150000D03*
X93037500Y-128650000D03*
X93037500Y-128150000D03*
X93037500Y-127650000D03*
X93037500Y-127150000D03*
D26*
X94450000Y-125737500D03*
X94950000Y-125737500D03*
X95450000Y-125737500D03*
X95950000Y-125737500D03*
X96450000Y-125737500D03*
X96950000Y-125737500D03*
X97450000Y-125737500D03*
X97950000Y-125737500D03*
X98450000Y-125737500D03*
X98950000Y-125737500D03*
X99450000Y-125737500D03*
X99950000Y-125737500D03*
D25*
X101362500Y-127150000D03*
X101362500Y-127650000D03*
D27*
X99200000Y-127900000D03*
X95200000Y-127900000D03*
X97200000Y-129900000D03*
X99200000Y-131900000D03*
X95200000Y-131900000D03*
D25*
X101362500Y-128150000D03*
X101362500Y-128650000D03*
X101362500Y-129150000D03*
X101362500Y-129650000D03*
X101362500Y-130150000D03*
X101362500Y-130650000D03*
X101362500Y-131150000D03*
X101362500Y-131650000D03*
X101362500Y-132150000D03*
X101362500Y-132650000D03*
D26*
X99950000Y-134062500D03*
X99450000Y-134062500D03*
X98950000Y-134062500D03*
X98450000Y-134062500D03*
X97950000Y-134062500D03*
X97450000Y-134062500D03*
X96950000Y-134062500D03*
X96450000Y-134062500D03*
X95950000Y-134062500D03*
X95450000Y-134062500D03*
X94950000Y-134062500D03*
X94450000Y-134062500D03*
%TD*%
D28*
%TO.C,LEDC42*%
X246793750Y-139425000D03*
X246793750Y-140385000D03*
%TD*%
%TO.C,LEDC41*%
X225362500Y-139425000D03*
X225362500Y-140385000D03*
%TD*%
%TO.C,LEDC40*%
X203931250Y-139425000D03*
X203931250Y-140385000D03*
%TD*%
%TO.C,LEDC39*%
X170593750Y-139425000D03*
X170593750Y-140385000D03*
%TD*%
%TO.C,LEDC38*%
X122968750Y-139425000D03*
X122968750Y-140385000D03*
%TD*%
%TO.C,LEDC37*%
X77725000Y-139425000D03*
X77725000Y-140385000D03*
%TD*%
%TO.C,LEDC36*%
X58675000Y-139425000D03*
X58675000Y-140385000D03*
%TD*%
%TO.C,LEDC35*%
X39625000Y-139425000D03*
X39625000Y-140385000D03*
%TD*%
D23*
%TO.C,LEDC34*%
X250231250Y-118835000D03*
X250231250Y-117875000D03*
%TD*%
%TO.C,LEDC33*%
X224037500Y-118835000D03*
X224037500Y-117875000D03*
%TD*%
%TO.C,LEDC32*%
X204987500Y-118835000D03*
X204987500Y-117875000D03*
%TD*%
%TO.C,LEDC31*%
X185937500Y-118835000D03*
X185937500Y-117875000D03*
%TD*%
%TO.C,LEDC30*%
X166887500Y-118835000D03*
X166887500Y-117875000D03*
%TD*%
%TO.C,LEDC29*%
X147837500Y-118835000D03*
X147837500Y-117875000D03*
%TD*%
%TO.C,LEDC28*%
X128787500Y-118835000D03*
X128787500Y-117875000D03*
%TD*%
%TO.C,LEDC27*%
X109737500Y-118835000D03*
X109737500Y-117875000D03*
%TD*%
%TO.C,LEDC26*%
X88306250Y-118835000D03*
X88306250Y-117875000D03*
%TD*%
%TO.C,LEDC25*%
X66875000Y-118835000D03*
X66875000Y-117875000D03*
%TD*%
%TO.C,LEDC24*%
X47825000Y-118835000D03*
X47825000Y-117875000D03*
%TD*%
D28*
%TO.C,LEDC23*%
X246793750Y-101325000D03*
X246793750Y-102285000D03*
%TD*%
%TO.C,LEDC22*%
X225362500Y-101325000D03*
X225362500Y-102285000D03*
%TD*%
%TO.C,LEDC21*%
X206312500Y-101325000D03*
X206312500Y-102285000D03*
%TD*%
%TO.C,LEDC20*%
X187262500Y-101325000D03*
X187262500Y-102285000D03*
%TD*%
%TO.C,LEDC19*%
X168212499Y-101325000D03*
X168212499Y-102285000D03*
%TD*%
%TO.C,LEDC18*%
X149162500Y-101325000D03*
X149162500Y-102285000D03*
%TD*%
%TO.C,LEDC17*%
X130112500Y-101325000D03*
X130112500Y-102285000D03*
%TD*%
%TO.C,LEDC16*%
X111062500Y-101325000D03*
X111062500Y-102285000D03*
%TD*%
%TO.C,LEDC15*%
X92012500Y-101325000D03*
X92012500Y-102285000D03*
%TD*%
%TO.C,LEDC14*%
X72962500Y-101325000D03*
X72962500Y-102285000D03*
%TD*%
%TO.C,LEDC13*%
X46768750Y-101325000D03*
X46768750Y-102285000D03*
%TD*%
D23*
%TO.C,LEDC12*%
X257375000Y-80735000D03*
X257375000Y-79775000D03*
%TD*%
%TO.C,LEDC11*%
X238325000Y-80735000D03*
X238325000Y-79775000D03*
%TD*%
%TO.C,LEDC10*%
X219275000Y-80735000D03*
X219275000Y-79775000D03*
%TD*%
%TO.C,LEDC9*%
X200225000Y-80735000D03*
X200225000Y-79775000D03*
%TD*%
%TO.C,LEDC8*%
X181175000Y-80735000D03*
X181175000Y-79775000D03*
%TD*%
%TO.C,LEDC7*%
X162125000Y-80735000D03*
X162125000Y-79775000D03*
%TD*%
%TO.C,LEDC6*%
X143075000Y-80735000D03*
X143075000Y-79775000D03*
%TD*%
%TO.C,LEDC5*%
X124025000Y-80735000D03*
X124025000Y-79775000D03*
%TD*%
%TO.C,LEDC4*%
X104975000Y-80735000D03*
X104975000Y-79775000D03*
%TD*%
%TO.C,LEDC3*%
X85925000Y-80735000D03*
X85925000Y-79775000D03*
%TD*%
%TO.C,LEDC2*%
X66875000Y-80735000D03*
X66875000Y-79775000D03*
%TD*%
%TO.C,LEDC1*%
X47825000Y-80735000D03*
X47825000Y-79775000D03*
%TD*%
D29*
%TO.C,LED42*%
X248293750Y-137905000D03*
X248293750Y-139405000D03*
X253493750Y-139405000D03*
X253493750Y-137905000D03*
%TD*%
%TO.C,LED41*%
X226862500Y-137905000D03*
X226862500Y-139405000D03*
X232062500Y-139405000D03*
X232062500Y-137905000D03*
%TD*%
%TO.C,LED40*%
X205431250Y-137905000D03*
X205431250Y-139405000D03*
X210631250Y-139405000D03*
X210631250Y-137905000D03*
%TD*%
%TO.C,LED39*%
X172093750Y-137905000D03*
X172093750Y-139405000D03*
X177293750Y-139405000D03*
X177293750Y-137905000D03*
%TD*%
%TO.C,LED38*%
X124468750Y-137905000D03*
X124468750Y-139405000D03*
X129668750Y-139405000D03*
X129668750Y-137905000D03*
%TD*%
%TO.C,LED37*%
X79225000Y-137905000D03*
X79225000Y-139405000D03*
X84425000Y-139405000D03*
X84425000Y-137905000D03*
%TD*%
%TO.C,LED36*%
X60175000Y-137905000D03*
X60175000Y-139405000D03*
X65375000Y-139405000D03*
X65375000Y-137905000D03*
%TD*%
%TO.C,LED35*%
X41125000Y-137905000D03*
X41125000Y-139405000D03*
X46325000Y-139405000D03*
X46325000Y-137905000D03*
%TD*%
D15*
%TO.C,LED34*%
X248731250Y-120355000D03*
X248731250Y-118855000D03*
X243531250Y-118855000D03*
X243531250Y-120355000D03*
%TD*%
%TO.C,LED33*%
X222537500Y-120355000D03*
X222537500Y-118855000D03*
X217337500Y-118855000D03*
X217337500Y-120355000D03*
%TD*%
%TO.C,LED32*%
X203487500Y-120355000D03*
X203487500Y-118855000D03*
X198287500Y-118855000D03*
X198287500Y-120355000D03*
%TD*%
%TO.C,LED31*%
X184437500Y-120355000D03*
X184437500Y-118855000D03*
X179237500Y-118855000D03*
X179237500Y-120355000D03*
%TD*%
%TO.C,LED30*%
X165387500Y-120355000D03*
X165387500Y-118855000D03*
X160187500Y-118855000D03*
X160187500Y-120355000D03*
%TD*%
%TO.C,LED29*%
X146337500Y-120355000D03*
X146337500Y-118855000D03*
X141137500Y-118855000D03*
X141137500Y-120355000D03*
%TD*%
%TO.C,LED28*%
X127287500Y-120355000D03*
X127287500Y-118855000D03*
X122087500Y-118855000D03*
X122087500Y-120355000D03*
%TD*%
%TO.C,LED27*%
X108237500Y-120355000D03*
X108237500Y-118855000D03*
X103037500Y-118855000D03*
X103037500Y-120355000D03*
%TD*%
%TO.C,LED26*%
X86806250Y-120355000D03*
X86806250Y-118855000D03*
X81606250Y-118855000D03*
X81606250Y-120355000D03*
%TD*%
%TO.C,LED25*%
X65375000Y-120355000D03*
X65375000Y-118855000D03*
X60175000Y-118855000D03*
X60175000Y-120355000D03*
%TD*%
%TO.C,LED24*%
X46325000Y-120355000D03*
X46325000Y-118855000D03*
X41125000Y-118855000D03*
X41125000Y-120355000D03*
%TD*%
D29*
%TO.C,LED23*%
X248293750Y-99805000D03*
X248293750Y-101305000D03*
X253493750Y-101305000D03*
X253493750Y-99805000D03*
%TD*%
%TO.C,LED22*%
X226862500Y-99805000D03*
X226862500Y-101305000D03*
X232062500Y-101305000D03*
X232062500Y-99805000D03*
%TD*%
%TO.C,LED21*%
X207812500Y-99805000D03*
X207812500Y-101305000D03*
X213012500Y-101305000D03*
X213012500Y-99805000D03*
%TD*%
%TO.C,LED20*%
X188762500Y-99805000D03*
X188762500Y-101305000D03*
X193962500Y-101305000D03*
X193962500Y-99805000D03*
%TD*%
%TO.C,LED19*%
X169712500Y-99805000D03*
X169712500Y-101305000D03*
X174912500Y-101305000D03*
X174912500Y-99805000D03*
%TD*%
%TO.C,LED18*%
X150662500Y-99805000D03*
X150662500Y-101305000D03*
X155862500Y-101305000D03*
X155862500Y-99805000D03*
%TD*%
%TO.C,LED17*%
X131612500Y-99805000D03*
X131612500Y-101305000D03*
X136812500Y-101305000D03*
X136812500Y-99805000D03*
%TD*%
%TO.C,LED16*%
X112562500Y-99805000D03*
X112562500Y-101305000D03*
X117762500Y-101305000D03*
X117762500Y-99805000D03*
%TD*%
%TO.C,LED15*%
X93512500Y-99805000D03*
X93512500Y-101305000D03*
X98712500Y-101305000D03*
X98712500Y-99805000D03*
%TD*%
%TO.C,LED14*%
X74462500Y-99805000D03*
X74462500Y-101305000D03*
X79662500Y-101305000D03*
X79662500Y-99805000D03*
%TD*%
%TO.C,LED13*%
X48268750Y-99805000D03*
X48268750Y-101305000D03*
X53468750Y-101305000D03*
X53468750Y-99805000D03*
%TD*%
D15*
%TO.C,LED12*%
X255875000Y-82255000D03*
X255875000Y-80755000D03*
X250675000Y-80755000D03*
X250675000Y-82255000D03*
%TD*%
%TO.C,LED11*%
X236825000Y-82255000D03*
X236825000Y-80755000D03*
X231625000Y-80755000D03*
X231625000Y-82255000D03*
%TD*%
%TO.C,LED10*%
X217775000Y-82255000D03*
X217775000Y-80755000D03*
X212575000Y-80755000D03*
X212575000Y-82255000D03*
%TD*%
%TO.C,LED9*%
X198725000Y-82255000D03*
X198725000Y-80755000D03*
X193525000Y-80755000D03*
X193525000Y-82255000D03*
%TD*%
%TO.C,LED7*%
X160625000Y-82255000D03*
X160625000Y-80755000D03*
X155425000Y-80755000D03*
X155425000Y-82255000D03*
%TD*%
%TO.C,LED6*%
X141575000Y-82255000D03*
X141575000Y-80755000D03*
X136375000Y-80755000D03*
X136375000Y-82255000D03*
%TD*%
%TO.C,LED5*%
X122525000Y-82255000D03*
X122525000Y-80755000D03*
X117325000Y-80755000D03*
X117325000Y-82255000D03*
%TD*%
%TO.C,LED4*%
X103475000Y-82255000D03*
X103475000Y-80755000D03*
X98275000Y-80755000D03*
X98275000Y-82255000D03*
%TD*%
%TO.C,LED3*%
X84425000Y-82255000D03*
X84425000Y-80755000D03*
X79225000Y-80755000D03*
X79225000Y-82255000D03*
%TD*%
%TO.C,LED2*%
X65375000Y-82255000D03*
X65375000Y-80755000D03*
X60175000Y-80755000D03*
X60175000Y-82255000D03*
%TD*%
%TO.C,LED1*%
X46325000Y-82255000D03*
X46325000Y-80755000D03*
X41125000Y-80755000D03*
X41125000Y-82255000D03*
%TD*%
D16*
%TO.C,HER42*%
X248443750Y-132127500D03*
X248443750Y-133147500D03*
%TD*%
%TO.C,HER41*%
X227012500Y-132127500D03*
X227012500Y-133147500D03*
%TD*%
%TO.C,HER40*%
X205581250Y-132127500D03*
X205581250Y-133147500D03*
%TD*%
%TO.C,HER39*%
X172243750Y-132127500D03*
X172243750Y-133147500D03*
%TD*%
%TO.C,HER38*%
X124618750Y-132127500D03*
X124618750Y-133147500D03*
%TD*%
%TO.C,HER37*%
X79375000Y-132127500D03*
X79375000Y-133147500D03*
%TD*%
%TO.C,HER36*%
X60325000Y-132127500D03*
X60325000Y-133147500D03*
%TD*%
%TO.C,HER35*%
X41274999Y-132127500D03*
X41274999Y-133147500D03*
%TD*%
%TO.C,HER34*%
X243681250Y-113077500D03*
X243681250Y-114097500D03*
%TD*%
%TO.C,HER33*%
X217487500Y-113077500D03*
X217487500Y-114097500D03*
%TD*%
%TO.C,HER32*%
X198437500Y-113077500D03*
X198437500Y-114097500D03*
%TD*%
%TO.C,HER31*%
X179387500Y-113077500D03*
X179387500Y-114097500D03*
%TD*%
%TO.C,HER30*%
X160337500Y-113077500D03*
X160337500Y-114097500D03*
%TD*%
%TO.C,HER29*%
X141287500Y-113077500D03*
X141287500Y-114097500D03*
%TD*%
%TO.C,HER28*%
X122237500Y-113077500D03*
X122237500Y-114097500D03*
%TD*%
%TO.C,HER27*%
X103187500Y-113077500D03*
X103187500Y-114097500D03*
%TD*%
%TO.C,HER26*%
X81756250Y-113077500D03*
X81756250Y-114097500D03*
%TD*%
%TO.C,HER25*%
X60325000Y-113077500D03*
X60325000Y-114097500D03*
%TD*%
%TO.C,HER24*%
X41274999Y-113077500D03*
X41274999Y-114097500D03*
%TD*%
%TO.C,HER23*%
X248443750Y-94027500D03*
X248443750Y-95047500D03*
%TD*%
%TO.C,HER22*%
X227012500Y-94027500D03*
X227012500Y-95047500D03*
%TD*%
%TO.C,HER21*%
X207962500Y-94027500D03*
X207962500Y-95047500D03*
%TD*%
%TO.C,HER20*%
X188912500Y-94027500D03*
X188912500Y-95047500D03*
%TD*%
%TO.C,HER19*%
X169862500Y-94027500D03*
X169862500Y-95047500D03*
%TD*%
%TO.C,HER18*%
X150812500Y-94027500D03*
X150812500Y-95047500D03*
%TD*%
%TO.C,HER17*%
X131762500Y-94027500D03*
X131762500Y-95047500D03*
%TD*%
%TO.C,HER16*%
X112712500Y-94027500D03*
X112712500Y-95047500D03*
%TD*%
%TO.C,HER15*%
X93662500Y-94027500D03*
X93662500Y-95047500D03*
%TD*%
%TO.C,HER14*%
X74612500Y-94027500D03*
X74612500Y-95047500D03*
%TD*%
%TO.C,HER13*%
X48418750Y-94027500D03*
X48418750Y-95047500D03*
%TD*%
%TO.C,HER12*%
X250825000Y-74977500D03*
X250825000Y-75997500D03*
%TD*%
%TO.C,HER11*%
X231775000Y-74977500D03*
X231775000Y-75997500D03*
%TD*%
%TO.C,HER10*%
X212725000Y-74977500D03*
X212725000Y-75997500D03*
%TD*%
%TO.C,HER9*%
X193675000Y-74977500D03*
X193675000Y-75997500D03*
%TD*%
%TO.C,HER8*%
X174625000Y-74977500D03*
X174625000Y-75997500D03*
%TD*%
%TO.C,HER7*%
X155575000Y-74977500D03*
X155575000Y-75997500D03*
%TD*%
%TO.C,HER6*%
X136525000Y-74977500D03*
X136525000Y-75997500D03*
%TD*%
%TO.C,HER5*%
X117475000Y-74977500D03*
X117475000Y-75997500D03*
%TD*%
%TO.C,HER4*%
X98424999Y-74977500D03*
X98424999Y-75997500D03*
%TD*%
%TO.C,HER3*%
X79375000Y-74977500D03*
X79375000Y-75997500D03*
%TD*%
%TO.C,HER2*%
X60325000Y-74977500D03*
X60325000Y-75997500D03*
%TD*%
%TO.C,HER1*%
X41274999Y-74977500D03*
X41274999Y-75997500D03*
%TD*%
D23*
%TO.C,HECC42*%
X247443750Y-133117500D03*
X247443750Y-132157500D03*
%TD*%
%TO.C,HECC41*%
X226012500Y-133117500D03*
X226012500Y-132157500D03*
%TD*%
%TO.C,HECC40*%
X204581250Y-133117500D03*
X204581250Y-132157500D03*
%TD*%
%TO.C,HECC39*%
X171243750Y-133117500D03*
X171243750Y-132157500D03*
%TD*%
%TO.C,HECC38*%
X123618750Y-133117500D03*
X123618750Y-132157500D03*
%TD*%
%TO.C,HECC37*%
X78375000Y-133117500D03*
X78375000Y-132157500D03*
%TD*%
%TO.C,HECC36*%
X59325000Y-133117500D03*
X59325000Y-132157500D03*
%TD*%
%TO.C,HECC35*%
X40274999Y-133117500D03*
X40274999Y-132157500D03*
%TD*%
%TO.C,HECC34*%
X242681250Y-114067500D03*
X242681250Y-113107500D03*
%TD*%
%TO.C,HECC33*%
X216487500Y-114067500D03*
X216487500Y-113107500D03*
%TD*%
%TO.C,HECC32*%
X197437500Y-114067500D03*
X197437500Y-113107500D03*
%TD*%
%TO.C,HECC31*%
X178387500Y-114067500D03*
X178387500Y-113107500D03*
%TD*%
%TO.C,HECC30*%
X159337500Y-114067500D03*
X159337500Y-113107500D03*
%TD*%
%TO.C,HECC29*%
X140287500Y-114067500D03*
X140287500Y-113107500D03*
%TD*%
%TO.C,HECC28*%
X121237500Y-114067500D03*
X121237500Y-113107500D03*
%TD*%
%TO.C,HECC27*%
X102187500Y-114067500D03*
X102187500Y-113107500D03*
%TD*%
%TO.C,HECC26*%
X80756250Y-114067500D03*
X80756250Y-113107500D03*
%TD*%
%TO.C,HECC25*%
X59325000Y-114067500D03*
X59325000Y-113107500D03*
%TD*%
%TO.C,HECC24*%
X40274999Y-114067500D03*
X40274999Y-113107500D03*
%TD*%
%TO.C,HECC23*%
X247443750Y-95017500D03*
X247443750Y-94057500D03*
%TD*%
%TO.C,HECC22*%
X226012500Y-95017500D03*
X226012500Y-94057500D03*
%TD*%
%TO.C,HECC21*%
X206962500Y-95017500D03*
X206962500Y-94057500D03*
%TD*%
%TO.C,HECC20*%
X187912500Y-95017500D03*
X187912500Y-94057500D03*
%TD*%
%TO.C,HECC19*%
X168862500Y-95017500D03*
X168862500Y-94057500D03*
%TD*%
%TO.C,HECC18*%
X149812500Y-95017500D03*
X149812500Y-94057500D03*
%TD*%
%TO.C,HECC17*%
X130762500Y-95017500D03*
X130762500Y-94057500D03*
%TD*%
%TO.C,HECC16*%
X111712500Y-95017500D03*
X111712500Y-94057500D03*
%TD*%
%TO.C,HECC15*%
X92662500Y-95017500D03*
X92662500Y-94057500D03*
%TD*%
%TO.C,HECC14*%
X73612500Y-95017500D03*
X73612500Y-94057500D03*
%TD*%
%TO.C,HECC13*%
X47418750Y-95017500D03*
X47418750Y-94057500D03*
%TD*%
%TO.C,HECC12*%
X249825000Y-75967500D03*
X249825000Y-75007500D03*
%TD*%
%TO.C,HECC11*%
X230775000Y-75967500D03*
X230775000Y-75007500D03*
%TD*%
%TO.C,HECC10*%
X211725000Y-75967500D03*
X211725000Y-75007500D03*
%TD*%
%TO.C,HECC9*%
X192675000Y-75967500D03*
X192675000Y-75007500D03*
%TD*%
%TO.C,HECC8*%
X173625000Y-75967500D03*
X173625000Y-75007500D03*
%TD*%
%TO.C,HECC7*%
X154575000Y-75967500D03*
X154575000Y-75007500D03*
%TD*%
%TO.C,HECC6*%
X135525000Y-75967500D03*
X135525000Y-75007500D03*
%TD*%
%TO.C,HECC5*%
X116475000Y-75967500D03*
X116475000Y-75007500D03*
%TD*%
%TO.C,HECC4*%
X97424999Y-75967500D03*
X97424999Y-75007500D03*
%TD*%
%TO.C,HECC3*%
X78375000Y-75967500D03*
X78375000Y-75007500D03*
%TD*%
%TO.C,HECC2*%
X59325000Y-75967500D03*
X59325000Y-75007500D03*
%TD*%
%TO.C,HECC1*%
X40274999Y-75967500D03*
X40274999Y-75007500D03*
%TD*%
%TO.C,HEC42*%
X253343750Y-133117500D03*
X253343750Y-132157500D03*
%TD*%
%TO.C,HEC41*%
X231912500Y-133117500D03*
X231912500Y-132157500D03*
%TD*%
%TO.C,HEC40*%
X210481250Y-133117500D03*
X210481250Y-132157500D03*
%TD*%
%TO.C,HEC39*%
X177143750Y-133117500D03*
X177143750Y-132157500D03*
%TD*%
%TO.C,HEC38*%
X129518750Y-133117500D03*
X129518750Y-132157500D03*
%TD*%
%TO.C,HEC37*%
X84275000Y-133117500D03*
X84275000Y-132157500D03*
%TD*%
%TO.C,HEC36*%
X65225000Y-133117500D03*
X65225000Y-132157500D03*
%TD*%
%TO.C,HEC35*%
X46175000Y-133117500D03*
X46175000Y-132157500D03*
%TD*%
%TO.C,HEC34*%
X248581250Y-114067500D03*
X248581250Y-113107500D03*
%TD*%
%TO.C,HEC33*%
X222387500Y-114067500D03*
X222387500Y-113107500D03*
%TD*%
%TO.C,HEC32*%
X203337500Y-114067500D03*
X203337500Y-113107500D03*
%TD*%
%TO.C,HEC31*%
X184287500Y-114067500D03*
X184287500Y-113107500D03*
%TD*%
%TO.C,HEC30*%
X165237500Y-114067500D03*
X165237500Y-113107500D03*
%TD*%
%TO.C,HEC29*%
X146187500Y-114067500D03*
X146187500Y-113107500D03*
%TD*%
%TO.C,HEC28*%
X127137500Y-114067500D03*
X127137500Y-113107500D03*
%TD*%
%TO.C,HEC27*%
X108087500Y-114067500D03*
X108087500Y-113107500D03*
%TD*%
%TO.C,HEC26*%
X86656250Y-114067500D03*
X86656250Y-113107500D03*
%TD*%
%TO.C,HEC25*%
X65225000Y-114067500D03*
X65225000Y-113107500D03*
%TD*%
%TO.C,HEC24*%
X46175000Y-114067500D03*
X46175000Y-113107500D03*
%TD*%
%TO.C,HEC23*%
X253343750Y-95017500D03*
X253343750Y-94057500D03*
%TD*%
%TO.C,HEC22*%
X231912500Y-95017500D03*
X231912500Y-94057500D03*
%TD*%
%TO.C,HEC21*%
X212862500Y-95017500D03*
X212862500Y-94057500D03*
%TD*%
%TO.C,HEC20*%
X193812500Y-95017500D03*
X193812500Y-94057500D03*
%TD*%
%TO.C,HEC19*%
X174762500Y-95017500D03*
X174762500Y-94057500D03*
%TD*%
%TO.C,HEC18*%
X155712500Y-95017500D03*
X155712500Y-94057500D03*
%TD*%
%TO.C,HEC17*%
X136662500Y-95017500D03*
X136662500Y-94057500D03*
%TD*%
%TO.C,HEC16*%
X117612500Y-95017500D03*
X117612500Y-94057500D03*
%TD*%
%TO.C,HEC15*%
X98562500Y-95017500D03*
X98562500Y-94057500D03*
%TD*%
%TO.C,HEC14*%
X79512500Y-95017500D03*
X79512500Y-94057500D03*
%TD*%
%TO.C,HEC13*%
X53318750Y-95017500D03*
X53318750Y-94057500D03*
%TD*%
%TO.C,HEC12*%
X255725000Y-75967500D03*
X255725000Y-75007500D03*
%TD*%
%TO.C,HEC11*%
X236675000Y-75967500D03*
X236675000Y-75007500D03*
%TD*%
%TO.C,HEC10*%
X217625000Y-75967500D03*
X217625000Y-75007500D03*
%TD*%
%TO.C,HEC9*%
X198575000Y-75967500D03*
X198575000Y-75007500D03*
%TD*%
%TO.C,HEC8*%
X179525000Y-75967500D03*
X179525000Y-75007500D03*
%TD*%
%TO.C,HEC7*%
X160475000Y-75967500D03*
X160475000Y-75007500D03*
%TD*%
%TO.C,HEC6*%
X141425000Y-75967500D03*
X141425000Y-75007500D03*
%TD*%
%TO.C,HEC5*%
X122375000Y-75967500D03*
X122375000Y-75007500D03*
%TD*%
%TO.C,HEC4*%
X103325000Y-75967500D03*
X103325000Y-75007500D03*
%TD*%
%TO.C,HEC3*%
X84275000Y-75967500D03*
X84275000Y-75007500D03*
%TD*%
%TO.C,HEC2*%
X65225000Y-75967500D03*
X65225000Y-75007500D03*
%TD*%
%TO.C,HEC1*%
X46175000Y-75967500D03*
X46175000Y-75007500D03*
%TD*%
D30*
%TO.C,HE42*%
X250893750Y-134512500D03*
X249943750Y-132637500D03*
X251843750Y-132637500D03*
%TD*%
%TO.C,HE41*%
X229462500Y-134512500D03*
X228512500Y-132637500D03*
X230412500Y-132637500D03*
%TD*%
%TO.C,HE40*%
X208031250Y-134512500D03*
X207081250Y-132637500D03*
X208981250Y-132637500D03*
%TD*%
%TO.C,HE39*%
X174693750Y-134512500D03*
X173743750Y-132637500D03*
X175643750Y-132637500D03*
%TD*%
%TO.C,HE38*%
X127068750Y-134512500D03*
X126118750Y-132637500D03*
X128018750Y-132637500D03*
%TD*%
%TO.C,HE37*%
X81825000Y-134512500D03*
X80875000Y-132637500D03*
X82775000Y-132637500D03*
%TD*%
%TO.C,HE36*%
X62775000Y-134512500D03*
X61825000Y-132637500D03*
X63725000Y-132637500D03*
%TD*%
%TO.C,HE35*%
X43725000Y-134512500D03*
X42775000Y-132637500D03*
X44675000Y-132637500D03*
%TD*%
%TO.C,HE34*%
X246131250Y-115462500D03*
X245181250Y-113587500D03*
X247081250Y-113587500D03*
%TD*%
%TO.C,HE33*%
X219937500Y-115462500D03*
X218987500Y-113587500D03*
X220887500Y-113587500D03*
%TD*%
%TO.C,HE32*%
X200887500Y-115462500D03*
X199937500Y-113587500D03*
X201837500Y-113587500D03*
%TD*%
%TO.C,HE31*%
X181837500Y-115462500D03*
X180887500Y-113587500D03*
X182787500Y-113587500D03*
%TD*%
%TO.C,HE30*%
X162787500Y-115462500D03*
X161837500Y-113587500D03*
X163737500Y-113587500D03*
%TD*%
%TO.C,HE29*%
X143737500Y-115462500D03*
X142787500Y-113587500D03*
X144687500Y-113587500D03*
%TD*%
%TO.C,HE28*%
X124687500Y-115462500D03*
X123737500Y-113587500D03*
X125637500Y-113587500D03*
%TD*%
%TO.C,HE27*%
X105637500Y-115462500D03*
X104687500Y-113587500D03*
X106587500Y-113587500D03*
%TD*%
%TO.C,HE26*%
X84206250Y-115462500D03*
X83256250Y-113587500D03*
X85156250Y-113587500D03*
%TD*%
%TO.C,HE25*%
X62775000Y-115462500D03*
X61825000Y-113587500D03*
X63725000Y-113587500D03*
%TD*%
%TO.C,HE24*%
X43725000Y-115462500D03*
X42775000Y-113587500D03*
X44675000Y-113587500D03*
%TD*%
%TO.C,HE23*%
X250893750Y-96412500D03*
X249943750Y-94537500D03*
X251843750Y-94537500D03*
%TD*%
%TO.C,HE22*%
X229462500Y-96412500D03*
X228512500Y-94537500D03*
X230412500Y-94537500D03*
%TD*%
%TO.C,HE21*%
X210412500Y-96412500D03*
X209462500Y-94537500D03*
X211362500Y-94537500D03*
%TD*%
%TO.C,HE20*%
X191362500Y-96412500D03*
X190412500Y-94537500D03*
X192312500Y-94537500D03*
%TD*%
%TO.C,HE19*%
X172312500Y-96412500D03*
X171362500Y-94537500D03*
X173262500Y-94537500D03*
%TD*%
%TO.C,HE18*%
X153262500Y-96412500D03*
X152312500Y-94537500D03*
X154212500Y-94537500D03*
%TD*%
%TO.C,HE17*%
X134212500Y-96412500D03*
X133262500Y-94537500D03*
X135162500Y-94537500D03*
%TD*%
%TO.C,HE16*%
X115162500Y-96412500D03*
X114212500Y-94537500D03*
X116112500Y-94537500D03*
%TD*%
%TO.C,HE15*%
X96112500Y-96412500D03*
X95162500Y-94537500D03*
X97062500Y-94537500D03*
%TD*%
%TO.C,HE14*%
X77062500Y-96412500D03*
X76112500Y-94537500D03*
X78012500Y-94537500D03*
%TD*%
%TO.C,HE13*%
X50868750Y-96412500D03*
X49918750Y-94537500D03*
X51818750Y-94537500D03*
%TD*%
%TO.C,HE12*%
X253275000Y-77362500D03*
X252325000Y-75487500D03*
X254225000Y-75487500D03*
%TD*%
%TO.C,HE11*%
X234225000Y-77362500D03*
X233275000Y-75487500D03*
X235175000Y-75487500D03*
%TD*%
%TO.C,HE10*%
X215175000Y-77362500D03*
X214225000Y-75487500D03*
X216125000Y-75487500D03*
%TD*%
%TO.C,HE9*%
X196125000Y-77362500D03*
X195175000Y-75487500D03*
X197075000Y-75487500D03*
%TD*%
%TO.C,HE8*%
X177075000Y-77362500D03*
X176125000Y-75487500D03*
X178025000Y-75487500D03*
%TD*%
%TO.C,HE7*%
X158025000Y-77362500D03*
X157075000Y-75487500D03*
X158975000Y-75487500D03*
%TD*%
%TO.C,HE6*%
X138975000Y-77362500D03*
X138025000Y-75487500D03*
X139925000Y-75487500D03*
%TD*%
%TO.C,HE5*%
X119925000Y-77362500D03*
X118975000Y-75487500D03*
X120875000Y-75487500D03*
%TD*%
%TO.C,HE4*%
X100875000Y-77362500D03*
X99925000Y-75487500D03*
X101825000Y-75487500D03*
%TD*%
%TO.C,HE3*%
X81825000Y-77362500D03*
X80875000Y-75487500D03*
X82775000Y-75487500D03*
%TD*%
%TO.C,HE2*%
X62775000Y-77362500D03*
X61825000Y-75487500D03*
X63725000Y-75487500D03*
%TD*%
%TO.C,HE1*%
X43725000Y-77362500D03*
X42775000Y-75487500D03*
X44675000Y-75487500D03*
%TD*%
D31*
%TO.C,CR_R1*%
X93900000Y-136910000D03*
X93900000Y-135890000D03*
%TD*%
D23*
%TO.C,CR_C2*%
X92900000Y-136880000D03*
X92900000Y-135920000D03*
%TD*%
%TO.C,CR_C1*%
X92900000Y-138880000D03*
X92900000Y-137920000D03*
%TD*%
D32*
%TO.C,CR1*%
X89100000Y-137050000D03*
X91300000Y-137050000D03*
X91300000Y-138750000D03*
X89100000Y-138750000D03*
%TD*%
D23*
%TO.C,MC6*%
X101117500Y-136930000D03*
X101117500Y-135970000D03*
%TD*%
D33*
%TO.C,DESD1*%
X65630000Y-126375000D03*
X65130000Y-126375000D03*
D34*
X64630000Y-126137500D03*
X64630000Y-126325000D03*
D33*
X64130000Y-126375000D03*
X63630000Y-126375000D03*
X63630000Y-125500000D03*
X64130000Y-125500000D03*
D34*
X64630000Y-125550000D03*
X64630000Y-125687500D03*
D33*
X65130000Y-125500000D03*
X65630000Y-125500000D03*
%TD*%
D35*
%TO.C,MFB1*%
X101117500Y-134550000D03*
X103242500Y-134550000D03*
%TD*%
D16*
%TO.C,BRR3*%
X109350000Y-128680000D03*
X109350000Y-129700000D03*
%TD*%
D36*
%TO.C,BRR1*%
X110650001Y-127855000D03*
X110650001Y-129505000D03*
%TD*%
D37*
%TO.C,SWD1*%
X72960000Y-126750000D03*
X72960000Y-129290000D03*
X70420000Y-126750000D03*
D38*
X70420000Y-129290000D03*
D37*
X67880000Y-126750000D03*
D38*
X67880000Y-129290000D03*
%TD*%
D31*
%TO.C,BRR5*%
X105750000Y-137600000D03*
X105750000Y-136580000D03*
%TD*%
D23*
%TO.C,MC5*%
X100017499Y-136929998D03*
X100017499Y-135969998D03*
%TD*%
D16*
%TO.C,LMR1*%
X40440000Y-86380000D03*
X40440000Y-87400000D03*
%TD*%
D39*
%TO.C,MC1*%
X91950000Y-134600000D03*
X92910000Y-134600000D03*
%TD*%
D40*
%TO.C,BRD1*%
X111350001Y-133640000D03*
X111350001Y-131540000D03*
%TD*%
D41*
%TO.C,USBR3*%
X52700000Y-75550000D03*
X51680002Y-75550000D03*
%TD*%
D39*
%TO.C,MC7*%
X102282500Y-136050000D03*
X103242500Y-136050000D03*
%TD*%
D42*
%TO.C,LMR2*%
X37190001Y-83447500D03*
X38210001Y-83447500D03*
%TD*%
%TO.C,BRR4*%
X104730001Y-131090000D03*
X105750001Y-131090000D03*
%TD*%
D31*
%TO.C,BRR2*%
X111950001Y-129700000D03*
X111950001Y-128680000D03*
%TD*%
%TO.C,BRR6*%
X111950001Y-136580001D03*
X111950001Y-135560001D03*
%TD*%
D16*
%TO.C,BRR7*%
X110850001Y-135560000D03*
X110850001Y-136580000D03*
%TD*%
D28*
%TO.C,MC3*%
X93460000Y-124620000D03*
X93460000Y-125580000D03*
%TD*%
D43*
%TO.C,MC4*%
X102430000Y-126210000D03*
X101470000Y-126210000D03*
%TD*%
D42*
%TO.C,R3*%
X38550000Y-137905000D03*
X39570000Y-137905000D03*
%TD*%
D16*
%TO.C,BRR8*%
X105750001Y-134610000D03*
X105750001Y-135630000D03*
%TD*%
D44*
%TO.C,BS1*%
X114119111Y-132493883D03*
X118573883Y-128039111D03*
X116806117Y-135180889D03*
X121260889Y-130726117D03*
%TD*%
D41*
%TO.C,LMR3*%
X38210000Y-82417499D03*
X37190000Y-82417499D03*
%TD*%
D45*
%TO.C,BRQ1*%
X107312500Y-135630000D03*
X109187500Y-134680000D03*
X109187500Y-136580000D03*
%TD*%
D46*
%TO.C,TP1*%
X36840000Y-137905000D03*
%TD*%
D47*
%TO.C,BRQ2*%
X109125001Y-132040000D03*
X107250001Y-132990000D03*
X107250001Y-131090000D03*
%TD*%
D39*
%TO.C,MC2*%
X91950000Y-133600000D03*
X92910000Y-133600000D03*
%TD*%
D48*
%TO.C,LM1*%
X38210000Y-84962500D03*
X39160000Y-86837500D03*
X37260000Y-86837500D03*
%TD*%
D49*
%TO.C,BRC1*%
X104975001Y-128780000D03*
X107925001Y-128780000D03*
%TD*%
D28*
%TO.C,BRC2*%
X104650001Y-136640000D03*
X104650001Y-137600000D03*
%TD*%
M02*
