%TF.GenerationSoftware,KiCad,Pcbnew,8.0.4*%
%TF.CreationDate,2024-09-01T23:08:26+02:00*%
%TF.ProjectId,feb42-rounded,66656234-322d-4726-9f75-6e6465642e6b,rev?*%
%TF.SameCoordinates,Original*%
%TF.FileFunction,Legend,Top*%
%TF.FilePolarity,Positive*%
%FSLAX46Y46*%
G04 Gerber Fmt 4.6, Leading zero omitted, Abs format (unit mm)*
G04 Created by KiCad (PCBNEW 8.0.4) date 2024-09-01 23:08:26*
%MOMM*%
%LPD*%
G01*
G04 APERTURE LIST*
G04 Aperture macros list*
%AMRoundRect*
0 Rectangle with rounded corners*
0 $1 Rounding radius*
0 $2 $3 $4 $5 $6 $7 $8 $9 X,Y pos of 4 corners*
0 Add a 4 corners polygon primitive as box body*
4,1,4,$2,$3,$4,$5,$6,$7,$8,$9,$2,$3,0*
0 Add four circle primitives for the rounded corners*
1,1,$1+$1,$2,$3*
1,1,$1+$1,$4,$5*
1,1,$1+$1,$6,$7*
1,1,$1+$1,$8,$9*
0 Add four rect primitives between the rounded corners*
20,1,$1+$1,$2,$3,$4,$5,0*
20,1,$1+$1,$4,$5,$6,$7,0*
20,1,$1+$1,$6,$7,$8,$9,0*
20,1,$1+$1,$8,$9,$2,$3,0*%
G04 Aperture macros list end*
%ADD10C,0.220000*%
%ADD11C,0.400000*%
%ADD12C,0.300000*%
%ADD13C,0.200000*%
%ADD14C,0.250000*%
%ADD15C,0.120000*%
%ADD16C,0.100000*%
%ADD17C,0.150000*%
%ADD18C,0.700000*%
%ADD19C,0.000000*%
%ADD20O,1.000000X1.600000*%
%ADD21O,1.000000X2.100000*%
%ADD22RoundRect,0.150000X0.150000X0.575000X-0.150000X0.575000X-0.150000X-0.575000X0.150000X-0.575000X0*%
%ADD23RoundRect,0.075000X0.075000X0.650000X-0.075000X0.650000X-0.075000X-0.650000X0.075000X-0.650000X0*%
%ADD24C,0.650000*%
%ADD25RoundRect,0.200000X-0.525000X-0.200000X0.525000X-0.200000X0.525000X0.200000X-0.525000X0.200000X0*%
%ADD26RoundRect,0.135000X0.185000X-0.135000X0.185000X0.135000X-0.185000X0.135000X-0.185000X-0.135000X0*%
%ADD27RoundRect,0.150000X-0.200000X-0.150000X0.200000X-0.150000X0.200000X0.150000X-0.200000X0.150000X0*%
%ADD28RoundRect,0.175000X-0.175000X-0.325000X0.175000X-0.325000X0.175000X0.325000X-0.175000X0.325000X0*%
%ADD29RoundRect,0.150000X-0.512500X-0.150000X0.512500X-0.150000X0.512500X0.150000X-0.512500X0.150000X0*%
%ADD30RoundRect,0.250000X1.075000X-0.375000X1.075000X0.375000X-1.075000X0.375000X-1.075000X-0.375000X0*%
%ADD31RoundRect,0.250000X-0.375000X-0.625000X0.375000X-0.625000X0.375000X0.625000X-0.375000X0.625000X0*%
%ADD32RoundRect,0.250000X-0.475000X0.250000X-0.475000X-0.250000X0.475000X-0.250000X0.475000X0.250000X0*%
%ADD33RoundRect,0.140000X-0.170000X0.140000X-0.170000X-0.140000X0.170000X-0.140000X0.170000X0.140000X0*%
%ADD34RoundRect,0.112500X0.112500X-0.737500X0.112500X0.737500X-0.112500X0.737500X-0.112500X-0.737500X0*%
%ADD35RoundRect,0.075000X0.662500X-0.075000X0.662500X0.075000X-0.662500X0.075000X-0.662500X-0.075000X0*%
%ADD36RoundRect,0.075000X0.075000X-0.662500X0.075000X0.662500X-0.075000X0.662500X-0.075000X-0.662500X0*%
%ADD37C,0.800000*%
%ADD38RoundRect,0.140000X0.170000X-0.140000X0.170000X0.140000X-0.170000X0.140000X-0.170000X-0.140000X0*%
%ADD39RoundRect,0.200000X0.525000X0.200000X-0.525000X0.200000X-0.525000X-0.200000X0.525000X-0.200000X0*%
%ADD40RoundRect,0.150000X-0.150000X0.587500X-0.150000X-0.587500X0.150000X-0.587500X0.150000X0.587500X0*%
%ADD41RoundRect,0.135000X-0.185000X0.135000X-0.185000X-0.135000X0.185000X-0.135000X0.185000X0.135000X0*%
%ADD42RoundRect,0.250000X-0.450000X-0.350000X0.450000X-0.350000X0.450000X0.350000X-0.450000X0.350000X0*%
%ADD43RoundRect,0.050000X0.050000X0.287500X-0.050000X0.287500X-0.050000X-0.287500X0.050000X-0.287500X0*%
%ADD44RoundRect,0.100000X0.100000X0.287500X-0.100000X0.287500X-0.100000X-0.287500X0.100000X-0.287500X0*%
%ADD45RoundRect,0.218750X0.218750X0.381250X-0.218750X0.381250X-0.218750X-0.381250X0.218750X-0.381250X0*%
%ADD46RoundRect,0.200000X0.275000X-0.200000X0.275000X0.200000X-0.275000X0.200000X-0.275000X-0.200000X0*%
%ADD47O,1.700000X1.700000*%
%ADD48RoundRect,0.250000X0.600000X-0.600000X0.600000X0.600000X-0.600000X0.600000X-0.600000X-0.600000X0*%
%ADD49RoundRect,0.140000X0.140000X0.170000X-0.140000X0.170000X-0.140000X-0.170000X0.140000X-0.170000X0*%
%ADD50RoundRect,0.112500X-0.112500X0.187500X-0.112500X-0.187500X0.112500X-0.187500X0.112500X0.187500X0*%
%ADD51RoundRect,0.135000X-0.135000X-0.185000X0.135000X-0.185000X0.135000X0.185000X-0.135000X0.185000X0*%
%ADD52RoundRect,0.135000X0.135000X0.185000X-0.135000X0.185000X-0.135000X-0.185000X0.135000X-0.185000X0*%
%ADD53RoundRect,0.140000X-0.140000X-0.170000X0.140000X-0.170000X0.140000X0.170000X-0.140000X0.170000X0*%
%ADD54RoundRect,0.250000X0.247487X0.601041X-0.601041X-0.247487X-0.247487X-0.601041X0.601041X0.247487X0*%
%ADD55RoundRect,0.150000X0.587500X0.150000X-0.587500X0.150000X-0.587500X-0.150000X0.587500X-0.150000X0*%
%ADD56C,1.500000*%
%ADD57RoundRect,0.150000X-0.587500X-0.150000X0.587500X-0.150000X0.587500X0.150000X-0.587500X0.150000X0*%
%ADD58RoundRect,0.150000X0.150000X-0.587500X0.150000X0.587500X-0.150000X0.587500X-0.150000X-0.587500X0*%
%ADD59RoundRect,0.250000X0.325000X0.650000X-0.325000X0.650000X-0.325000X-0.650000X0.325000X-0.650000X0*%
G04 APERTURE END LIST*
D10*
X39816164Y-128403940D02*
X39920926Y-128403940D01*
X39920926Y-128403940D02*
X40025688Y-128456321D01*
X40025688Y-128456321D02*
X40078069Y-128508702D01*
X40078069Y-128508702D02*
X40130450Y-128613464D01*
X40130450Y-128613464D02*
X40182831Y-128822988D01*
X40182831Y-128822988D02*
X40182831Y-129084893D01*
X40182831Y-129084893D02*
X40130450Y-129294417D01*
X40130450Y-129294417D02*
X40078069Y-129399179D01*
X40078069Y-129399179D02*
X40025688Y-129451560D01*
X40025688Y-129451560D02*
X39920926Y-129503940D01*
X39920926Y-129503940D02*
X39816164Y-129503940D01*
X39816164Y-129503940D02*
X39711402Y-129451560D01*
X39711402Y-129451560D02*
X39659021Y-129399179D01*
X39659021Y-129399179D02*
X39606640Y-129294417D01*
X39606640Y-129294417D02*
X39554259Y-129084893D01*
X39554259Y-129084893D02*
X39554259Y-128822988D01*
X39554259Y-128822988D02*
X39606640Y-128613464D01*
X39606640Y-128613464D02*
X39659021Y-128508702D01*
X39659021Y-128508702D02*
X39711402Y-128456321D01*
X39711402Y-128456321D02*
X39816164Y-128403940D01*
X41230450Y-129503940D02*
X40601878Y-129503940D01*
X40916164Y-129503940D02*
X40916164Y-128403940D01*
X40916164Y-128403940D02*
X40811402Y-128561083D01*
X40811402Y-128561083D02*
X40706640Y-128665845D01*
X40706640Y-128665845D02*
X40601878Y-128718226D01*
X41701878Y-129084893D02*
X42539974Y-129084893D01*
X43273307Y-128403940D02*
X43378069Y-128403940D01*
X43378069Y-128403940D02*
X43482831Y-128456321D01*
X43482831Y-128456321D02*
X43535212Y-128508702D01*
X43535212Y-128508702D02*
X43587593Y-128613464D01*
X43587593Y-128613464D02*
X43639974Y-128822988D01*
X43639974Y-128822988D02*
X43639974Y-129084893D01*
X43639974Y-129084893D02*
X43587593Y-129294417D01*
X43587593Y-129294417D02*
X43535212Y-129399179D01*
X43535212Y-129399179D02*
X43482831Y-129451560D01*
X43482831Y-129451560D02*
X43378069Y-129503940D01*
X43378069Y-129503940D02*
X43273307Y-129503940D01*
X43273307Y-129503940D02*
X43168545Y-129451560D01*
X43168545Y-129451560D02*
X43116164Y-129399179D01*
X43116164Y-129399179D02*
X43063783Y-129294417D01*
X43063783Y-129294417D02*
X43011402Y-129084893D01*
X43011402Y-129084893D02*
X43011402Y-128822988D01*
X43011402Y-128822988D02*
X43063783Y-128613464D01*
X43063783Y-128613464D02*
X43116164Y-128508702D01*
X43116164Y-128508702D02*
X43168545Y-128456321D01*
X43168545Y-128456321D02*
X43273307Y-128403940D01*
X44163783Y-129503940D02*
X44373307Y-129503940D01*
X44373307Y-129503940D02*
X44478069Y-129451560D01*
X44478069Y-129451560D02*
X44530450Y-129399179D01*
X44530450Y-129399179D02*
X44635212Y-129242036D01*
X44635212Y-129242036D02*
X44687593Y-129032512D01*
X44687593Y-129032512D02*
X44687593Y-128613464D01*
X44687593Y-128613464D02*
X44635212Y-128508702D01*
X44635212Y-128508702D02*
X44582831Y-128456321D01*
X44582831Y-128456321D02*
X44478069Y-128403940D01*
X44478069Y-128403940D02*
X44268545Y-128403940D01*
X44268545Y-128403940D02*
X44163783Y-128456321D01*
X44163783Y-128456321D02*
X44111402Y-128508702D01*
X44111402Y-128508702D02*
X44059021Y-128613464D01*
X44059021Y-128613464D02*
X44059021Y-128875369D01*
X44059021Y-128875369D02*
X44111402Y-128980131D01*
X44111402Y-128980131D02*
X44163783Y-129032512D01*
X44163783Y-129032512D02*
X44268545Y-129084893D01*
X44268545Y-129084893D02*
X44478069Y-129084893D01*
X44478069Y-129084893D02*
X44582831Y-129032512D01*
X44582831Y-129032512D02*
X44635212Y-128980131D01*
X44635212Y-128980131D02*
X44687593Y-128875369D01*
X45159021Y-129084893D02*
X45997117Y-129084893D01*
X46468545Y-128508702D02*
X46520926Y-128456321D01*
X46520926Y-128456321D02*
X46625688Y-128403940D01*
X46625688Y-128403940D02*
X46887593Y-128403940D01*
X46887593Y-128403940D02*
X46992355Y-128456321D01*
X46992355Y-128456321D02*
X47044736Y-128508702D01*
X47044736Y-128508702D02*
X47097117Y-128613464D01*
X47097117Y-128613464D02*
X47097117Y-128718226D01*
X47097117Y-128718226D02*
X47044736Y-128875369D01*
X47044736Y-128875369D02*
X46416164Y-129503940D01*
X46416164Y-129503940D02*
X47097117Y-129503940D01*
X47778069Y-128403940D02*
X47882831Y-128403940D01*
X47882831Y-128403940D02*
X47987593Y-128456321D01*
X47987593Y-128456321D02*
X48039974Y-128508702D01*
X48039974Y-128508702D02*
X48092355Y-128613464D01*
X48092355Y-128613464D02*
X48144736Y-128822988D01*
X48144736Y-128822988D02*
X48144736Y-129084893D01*
X48144736Y-129084893D02*
X48092355Y-129294417D01*
X48092355Y-129294417D02*
X48039974Y-129399179D01*
X48039974Y-129399179D02*
X47987593Y-129451560D01*
X47987593Y-129451560D02*
X47882831Y-129503940D01*
X47882831Y-129503940D02*
X47778069Y-129503940D01*
X47778069Y-129503940D02*
X47673307Y-129451560D01*
X47673307Y-129451560D02*
X47620926Y-129399179D01*
X47620926Y-129399179D02*
X47568545Y-129294417D01*
X47568545Y-129294417D02*
X47516164Y-129084893D01*
X47516164Y-129084893D02*
X47516164Y-128822988D01*
X47516164Y-128822988D02*
X47568545Y-128613464D01*
X47568545Y-128613464D02*
X47620926Y-128508702D01*
X47620926Y-128508702D02*
X47673307Y-128456321D01*
X47673307Y-128456321D02*
X47778069Y-128403940D01*
X48563783Y-128508702D02*
X48616164Y-128456321D01*
X48616164Y-128456321D02*
X48720926Y-128403940D01*
X48720926Y-128403940D02*
X48982831Y-128403940D01*
X48982831Y-128403940D02*
X49087593Y-128456321D01*
X49087593Y-128456321D02*
X49139974Y-128508702D01*
X49139974Y-128508702D02*
X49192355Y-128613464D01*
X49192355Y-128613464D02*
X49192355Y-128718226D01*
X49192355Y-128718226D02*
X49139974Y-128875369D01*
X49139974Y-128875369D02*
X48511402Y-129503940D01*
X48511402Y-129503940D02*
X49192355Y-129503940D01*
X50135212Y-128770607D02*
X50135212Y-129503940D01*
X49873307Y-128351560D02*
X49611402Y-129137274D01*
X49611402Y-129137274D02*
X50292355Y-129137274D01*
X51497116Y-128508702D02*
X51549497Y-128456321D01*
X51549497Y-128456321D02*
X51654259Y-128403940D01*
X51654259Y-128403940D02*
X51916164Y-128403940D01*
X51916164Y-128403940D02*
X52020926Y-128456321D01*
X52020926Y-128456321D02*
X52073307Y-128508702D01*
X52073307Y-128508702D02*
X52125688Y-128613464D01*
X52125688Y-128613464D02*
X52125688Y-128718226D01*
X52125688Y-128718226D02*
X52073307Y-128875369D01*
X52073307Y-128875369D02*
X51444735Y-129503940D01*
X51444735Y-129503940D02*
X52125688Y-129503940D01*
X52544735Y-128508702D02*
X52597116Y-128456321D01*
X52597116Y-128456321D02*
X52701878Y-128403940D01*
X52701878Y-128403940D02*
X52963783Y-128403940D01*
X52963783Y-128403940D02*
X53068545Y-128456321D01*
X53068545Y-128456321D02*
X53120926Y-128508702D01*
X53120926Y-128508702D02*
X53173307Y-128613464D01*
X53173307Y-128613464D02*
X53173307Y-128718226D01*
X53173307Y-128718226D02*
X53120926Y-128875369D01*
X53120926Y-128875369D02*
X52492354Y-129503940D01*
X52492354Y-129503940D02*
X53173307Y-129503940D01*
X53644735Y-129399179D02*
X53697116Y-129451560D01*
X53697116Y-129451560D02*
X53644735Y-129503940D01*
X53644735Y-129503940D02*
X53592354Y-129451560D01*
X53592354Y-129451560D02*
X53644735Y-129399179D01*
X53644735Y-129399179D02*
X53644735Y-129503940D01*
X53644735Y-128822988D02*
X53697116Y-128875369D01*
X53697116Y-128875369D02*
X53644735Y-128927750D01*
X53644735Y-128927750D02*
X53592354Y-128875369D01*
X53592354Y-128875369D02*
X53644735Y-128822988D01*
X53644735Y-128822988D02*
X53644735Y-128927750D01*
X54378069Y-128403940D02*
X54482831Y-128403940D01*
X54482831Y-128403940D02*
X54587593Y-128456321D01*
X54587593Y-128456321D02*
X54639974Y-128508702D01*
X54639974Y-128508702D02*
X54692355Y-128613464D01*
X54692355Y-128613464D02*
X54744736Y-128822988D01*
X54744736Y-128822988D02*
X54744736Y-129084893D01*
X54744736Y-129084893D02*
X54692355Y-129294417D01*
X54692355Y-129294417D02*
X54639974Y-129399179D01*
X54639974Y-129399179D02*
X54587593Y-129451560D01*
X54587593Y-129451560D02*
X54482831Y-129503940D01*
X54482831Y-129503940D02*
X54378069Y-129503940D01*
X54378069Y-129503940D02*
X54273307Y-129451560D01*
X54273307Y-129451560D02*
X54220926Y-129399179D01*
X54220926Y-129399179D02*
X54168545Y-129294417D01*
X54168545Y-129294417D02*
X54116164Y-129084893D01*
X54116164Y-129084893D02*
X54116164Y-128822988D01*
X54116164Y-128822988D02*
X54168545Y-128613464D01*
X54168545Y-128613464D02*
X54220926Y-128508702D01*
X54220926Y-128508702D02*
X54273307Y-128456321D01*
X54273307Y-128456321D02*
X54378069Y-128403940D01*
X55111402Y-128403940D02*
X55792355Y-128403940D01*
X55792355Y-128403940D02*
X55425688Y-128822988D01*
X55425688Y-128822988D02*
X55582831Y-128822988D01*
X55582831Y-128822988D02*
X55687593Y-128875369D01*
X55687593Y-128875369D02*
X55739974Y-128927750D01*
X55739974Y-128927750D02*
X55792355Y-129032512D01*
X55792355Y-129032512D02*
X55792355Y-129294417D01*
X55792355Y-129294417D02*
X55739974Y-129399179D01*
X55739974Y-129399179D02*
X55687593Y-129451560D01*
X55687593Y-129451560D02*
X55582831Y-129503940D01*
X55582831Y-129503940D02*
X55268545Y-129503940D01*
X55268545Y-129503940D02*
X55163783Y-129451560D01*
X55163783Y-129451560D02*
X55111402Y-129399179D01*
X56263783Y-129399179D02*
X56316164Y-129451560D01*
X56316164Y-129451560D02*
X56263783Y-129503940D01*
X56263783Y-129503940D02*
X56211402Y-129451560D01*
X56211402Y-129451560D02*
X56263783Y-129399179D01*
X56263783Y-129399179D02*
X56263783Y-129503940D01*
X56263783Y-128822988D02*
X56316164Y-128875369D01*
X56316164Y-128875369D02*
X56263783Y-128927750D01*
X56263783Y-128927750D02*
X56211402Y-128875369D01*
X56211402Y-128875369D02*
X56263783Y-128822988D01*
X56263783Y-128822988D02*
X56263783Y-128927750D01*
X56735212Y-128508702D02*
X56787593Y-128456321D01*
X56787593Y-128456321D02*
X56892355Y-128403940D01*
X56892355Y-128403940D02*
X57154260Y-128403940D01*
X57154260Y-128403940D02*
X57259022Y-128456321D01*
X57259022Y-128456321D02*
X57311403Y-128508702D01*
X57311403Y-128508702D02*
X57363784Y-128613464D01*
X57363784Y-128613464D02*
X57363784Y-128718226D01*
X57363784Y-128718226D02*
X57311403Y-128875369D01*
X57311403Y-128875369D02*
X56682831Y-129503940D01*
X56682831Y-129503940D02*
X57363784Y-129503940D01*
X58044736Y-128403940D02*
X58149498Y-128403940D01*
X58149498Y-128403940D02*
X58254260Y-128456321D01*
X58254260Y-128456321D02*
X58306641Y-128508702D01*
X58306641Y-128508702D02*
X58359022Y-128613464D01*
X58359022Y-128613464D02*
X58411403Y-128822988D01*
X58411403Y-128822988D02*
X58411403Y-129084893D01*
X58411403Y-129084893D02*
X58359022Y-129294417D01*
X58359022Y-129294417D02*
X58306641Y-129399179D01*
X58306641Y-129399179D02*
X58254260Y-129451560D01*
X58254260Y-129451560D02*
X58149498Y-129503940D01*
X58149498Y-129503940D02*
X58044736Y-129503940D01*
X58044736Y-129503940D02*
X57939974Y-129451560D01*
X57939974Y-129451560D02*
X57887593Y-129399179D01*
X57887593Y-129399179D02*
X57835212Y-129294417D01*
X57835212Y-129294417D02*
X57782831Y-129084893D01*
X57782831Y-129084893D02*
X57782831Y-128822988D01*
X57782831Y-128822988D02*
X57835212Y-128613464D01*
X57835212Y-128613464D02*
X57887593Y-128508702D01*
X57887593Y-128508702D02*
X57939974Y-128456321D01*
X57939974Y-128456321D02*
X58044736Y-128403940D01*
D11*
X51082204Y-127134438D02*
X50415537Y-126182057D01*
X49939347Y-127134438D02*
X49939347Y-125134438D01*
X49939347Y-125134438D02*
X50701252Y-125134438D01*
X50701252Y-125134438D02*
X50891728Y-125229676D01*
X50891728Y-125229676D02*
X50986966Y-125324914D01*
X50986966Y-125324914D02*
X51082204Y-125515390D01*
X51082204Y-125515390D02*
X51082204Y-125801104D01*
X51082204Y-125801104D02*
X50986966Y-125991580D01*
X50986966Y-125991580D02*
X50891728Y-126086819D01*
X50891728Y-126086819D02*
X50701252Y-126182057D01*
X50701252Y-126182057D02*
X49939347Y-126182057D01*
X51939347Y-126086819D02*
X52606014Y-126086819D01*
X52891728Y-127134438D02*
X51939347Y-127134438D01*
X51939347Y-127134438D02*
X51939347Y-125134438D01*
X51939347Y-125134438D02*
X52891728Y-125134438D01*
X53463157Y-125134438D02*
X54129823Y-127134438D01*
X54129823Y-127134438D02*
X54796490Y-125134438D01*
X56510776Y-127134438D02*
X55367919Y-127134438D01*
X55939347Y-127134438D02*
X55939347Y-125134438D01*
X55939347Y-125134438D02*
X55748871Y-125420152D01*
X55748871Y-125420152D02*
X55558395Y-125610628D01*
X55558395Y-125610628D02*
X55367919Y-125705866D01*
X57367919Y-126943961D02*
X57463157Y-127039200D01*
X57463157Y-127039200D02*
X57367919Y-127134438D01*
X57367919Y-127134438D02*
X57272681Y-127039200D01*
X57272681Y-127039200D02*
X57367919Y-126943961D01*
X57367919Y-126943961D02*
X57367919Y-127134438D01*
X58701252Y-125134438D02*
X58891729Y-125134438D01*
X58891729Y-125134438D02*
X59082205Y-125229676D01*
X59082205Y-125229676D02*
X59177443Y-125324914D01*
X59177443Y-125324914D02*
X59272681Y-125515390D01*
X59272681Y-125515390D02*
X59367919Y-125896342D01*
X59367919Y-125896342D02*
X59367919Y-126372533D01*
X59367919Y-126372533D02*
X59272681Y-126753485D01*
X59272681Y-126753485D02*
X59177443Y-126943961D01*
X59177443Y-126943961D02*
X59082205Y-127039200D01*
X59082205Y-127039200D02*
X58891729Y-127134438D01*
X58891729Y-127134438D02*
X58701252Y-127134438D01*
X58701252Y-127134438D02*
X58510776Y-127039200D01*
X58510776Y-127039200D02*
X58415538Y-126943961D01*
X58415538Y-126943961D02*
X58320300Y-126753485D01*
X58320300Y-126753485D02*
X58225062Y-126372533D01*
X58225062Y-126372533D02*
X58225062Y-125896342D01*
X58225062Y-125896342D02*
X58320300Y-125515390D01*
X58320300Y-125515390D02*
X58415538Y-125324914D01*
X58415538Y-125324914D02*
X58510776Y-125229676D01*
X58510776Y-125229676D02*
X58701252Y-125134438D01*
G36*
X44307503Y-126356864D02*
G01*
X44346405Y-126395766D01*
X44406014Y-126514984D01*
X44406014Y-126706272D01*
X44346405Y-126825488D01*
X44297065Y-126874829D01*
X44177849Y-126934438D01*
X43663157Y-126934438D01*
X43663157Y-126286819D01*
X44097367Y-126286819D01*
X44307503Y-126356864D01*
G37*
G36*
X44201829Y-125394047D02*
G01*
X44251167Y-125443385D01*
X44310776Y-125562603D01*
X44310776Y-125658653D01*
X44251167Y-125777871D01*
X44201829Y-125827208D01*
X44082610Y-125886819D01*
X43663157Y-125886819D01*
X43663157Y-125334438D01*
X44082611Y-125334438D01*
X44201829Y-125394047D01*
G37*
G36*
X48837760Y-127556660D02*
G01*
X39517125Y-127556660D01*
X39517125Y-125134438D01*
X39739347Y-125134438D01*
X39739347Y-127134438D01*
X39743190Y-127173456D01*
X39773053Y-127245552D01*
X39828233Y-127300732D01*
X39900329Y-127330595D01*
X39978365Y-127330595D01*
X40050461Y-127300732D01*
X40105641Y-127245552D01*
X40135504Y-127173456D01*
X40139347Y-127134438D01*
X40139347Y-126286819D01*
X40606014Y-126286819D01*
X40645032Y-126282976D01*
X40717128Y-126253113D01*
X40772308Y-126197933D01*
X40802171Y-126125837D01*
X40802171Y-126047801D01*
X40772308Y-125975705D01*
X40717128Y-125920525D01*
X40645032Y-125890662D01*
X40606014Y-125886819D01*
X40139347Y-125886819D01*
X40139347Y-125334438D01*
X40891728Y-125334438D01*
X40930746Y-125330595D01*
X41002842Y-125300732D01*
X41058022Y-125245552D01*
X41087885Y-125173456D01*
X41087885Y-125134438D01*
X41453633Y-125134438D01*
X41453633Y-127134438D01*
X41457476Y-127173456D01*
X41487339Y-127245552D01*
X41542519Y-127300732D01*
X41614615Y-127330595D01*
X41653633Y-127334438D01*
X42606014Y-127334438D01*
X42645032Y-127330595D01*
X42717128Y-127300732D01*
X42772308Y-127245552D01*
X42802171Y-127173456D01*
X42802171Y-127095420D01*
X42772308Y-127023324D01*
X42717128Y-126968144D01*
X42645032Y-126938281D01*
X42606014Y-126934438D01*
X41853633Y-126934438D01*
X41853633Y-126286819D01*
X42320300Y-126286819D01*
X42359318Y-126282976D01*
X42431414Y-126253113D01*
X42486594Y-126197933D01*
X42516457Y-126125837D01*
X42516457Y-126047801D01*
X42486594Y-125975705D01*
X42431414Y-125920525D01*
X42359318Y-125890662D01*
X42320300Y-125886819D01*
X41853633Y-125886819D01*
X41853633Y-125334438D01*
X42606014Y-125334438D01*
X42645032Y-125330595D01*
X42717128Y-125300732D01*
X42772308Y-125245552D01*
X42802171Y-125173456D01*
X42802171Y-125134438D01*
X43263157Y-125134438D01*
X43263157Y-127134438D01*
X43267000Y-127173456D01*
X43296863Y-127245552D01*
X43352043Y-127300732D01*
X43424139Y-127330595D01*
X43463157Y-127334438D01*
X44225062Y-127334438D01*
X44264080Y-127330595D01*
X44270717Y-127327845D01*
X44277887Y-127327336D01*
X44314505Y-127313323D01*
X44504981Y-127218085D01*
X44521774Y-127207513D01*
X44526653Y-127205493D01*
X44532144Y-127200986D01*
X44538161Y-127197199D01*
X44541622Y-127193208D01*
X44556960Y-127180621D01*
X44652198Y-127085381D01*
X44664784Y-127070045D01*
X44668775Y-127066584D01*
X44672561Y-127060568D01*
X44677071Y-127055074D01*
X44679092Y-127050192D01*
X44689661Y-127033404D01*
X44784900Y-126842927D01*
X44798912Y-126806310D01*
X44799421Y-126799140D01*
X44802171Y-126792503D01*
X44806014Y-126753485D01*
X44806014Y-126467771D01*
X44803550Y-126442756D01*
X45169490Y-126442756D01*
X45171762Y-126474730D01*
X45171762Y-126506789D01*
X45174511Y-126513427D01*
X45175021Y-126520596D01*
X45189358Y-126549271D01*
X45201625Y-126578885D01*
X45206706Y-126583966D01*
X45209920Y-126590394D01*
X45234137Y-126611397D01*
X45256805Y-126634065D01*
X45263444Y-126636815D01*
X45268873Y-126641523D01*
X45299280Y-126651658D01*
X45328901Y-126663928D01*
X45339102Y-126664932D01*
X45342904Y-126666200D01*
X45348169Y-126665825D01*
X45367919Y-126667771D01*
X46120300Y-126667771D01*
X46120300Y-127134438D01*
X46124143Y-127173456D01*
X46154006Y-127245552D01*
X46209186Y-127300732D01*
X46281282Y-127330595D01*
X46359318Y-127330595D01*
X46431414Y-127300732D01*
X46486594Y-127245552D01*
X46516457Y-127173456D01*
X46520300Y-127134438D01*
X46520300Y-127095420D01*
X46981286Y-127095420D01*
X46981286Y-127173456D01*
X47011149Y-127245552D01*
X47066329Y-127300732D01*
X47138425Y-127330595D01*
X47177443Y-127334438D01*
X48415538Y-127334438D01*
X48454556Y-127330595D01*
X48526652Y-127300732D01*
X48581832Y-127245552D01*
X48611695Y-127173456D01*
X48611695Y-127095420D01*
X48581832Y-127023324D01*
X48526652Y-126968144D01*
X48454556Y-126938281D01*
X48415538Y-126934438D01*
X47660285Y-126934438D01*
X48461722Y-126133001D01*
X48486594Y-126102694D01*
X48489344Y-126096054D01*
X48494052Y-126090626D01*
X48510037Y-126054826D01*
X48605275Y-125769112D01*
X48609674Y-125749762D01*
X48611695Y-125744884D01*
X48612391Y-125737809D01*
X48613967Y-125730881D01*
X48613592Y-125725615D01*
X48615538Y-125705866D01*
X48615538Y-125515390D01*
X48611695Y-125476372D01*
X48608945Y-125469734D01*
X48608436Y-125462565D01*
X48594424Y-125425948D01*
X48499185Y-125235471D01*
X48488615Y-125218679D01*
X48486594Y-125213800D01*
X48482086Y-125208307D01*
X48478299Y-125202291D01*
X48474307Y-125198829D01*
X48461721Y-125183493D01*
X48366483Y-125088255D01*
X48351147Y-125075668D01*
X48347685Y-125071677D01*
X48341668Y-125067889D01*
X48336176Y-125063382D01*
X48331296Y-125061360D01*
X48314505Y-125050791D01*
X48124029Y-124955553D01*
X48087411Y-124941540D01*
X48080241Y-124941030D01*
X48073604Y-124938281D01*
X48034586Y-124934438D01*
X47558395Y-124934438D01*
X47519377Y-124938281D01*
X47512739Y-124941030D01*
X47505570Y-124941540D01*
X47468953Y-124955552D01*
X47278476Y-125050791D01*
X47261684Y-125061360D01*
X47256805Y-125063382D01*
X47251312Y-125067889D01*
X47245296Y-125071677D01*
X47241834Y-125075668D01*
X47226498Y-125088255D01*
X47131260Y-125183493D01*
X47106387Y-125213800D01*
X47076524Y-125285896D01*
X47076524Y-125363932D01*
X47106387Y-125436028D01*
X47161567Y-125491208D01*
X47233663Y-125521071D01*
X47311699Y-125521071D01*
X47383795Y-125491208D01*
X47414102Y-125466335D01*
X47486390Y-125394047D01*
X47605608Y-125334438D01*
X47987373Y-125334438D01*
X48106591Y-125394047D01*
X48155929Y-125443385D01*
X48215538Y-125562603D01*
X48215538Y-125673409D01*
X48145492Y-125883544D01*
X47036022Y-126993017D01*
X47011149Y-127023324D01*
X46981286Y-127095420D01*
X46520300Y-127095420D01*
X46520300Y-126667771D01*
X46606014Y-126667771D01*
X46645032Y-126663928D01*
X46717128Y-126634065D01*
X46772308Y-126578885D01*
X46802171Y-126506789D01*
X46802171Y-126428753D01*
X46772308Y-126356657D01*
X46717128Y-126301477D01*
X46645032Y-126271614D01*
X46606014Y-126267771D01*
X46520300Y-126267771D01*
X46520300Y-125801104D01*
X46516457Y-125762086D01*
X46486594Y-125689990D01*
X46431414Y-125634810D01*
X46359318Y-125604947D01*
X46281282Y-125604947D01*
X46209186Y-125634810D01*
X46154006Y-125689990D01*
X46124143Y-125762086D01*
X46120300Y-125801104D01*
X46120300Y-126267771D01*
X45645405Y-126267771D01*
X46033846Y-125102445D01*
X46042538Y-125064214D01*
X46037007Y-124986375D01*
X46002108Y-124916577D01*
X45943155Y-124865448D01*
X45869124Y-124840771D01*
X45791284Y-124846302D01*
X45721486Y-124881201D01*
X45670357Y-124940154D01*
X45654372Y-124975954D01*
X45178182Y-126404525D01*
X45173782Y-126423874D01*
X45171762Y-126428753D01*
X45171762Y-126432762D01*
X45169490Y-126442756D01*
X44803550Y-126442756D01*
X44802171Y-126428753D01*
X44799421Y-126422115D01*
X44798912Y-126414946D01*
X44784900Y-126378329D01*
X44689661Y-126187852D01*
X44679091Y-126171060D01*
X44677070Y-126166181D01*
X44672562Y-126160688D01*
X44668775Y-126154672D01*
X44664783Y-126151210D01*
X44652197Y-126135874D01*
X44556959Y-126040636D01*
X44555381Y-126039340D01*
X44556959Y-126037763D01*
X44569545Y-126022426D01*
X44573537Y-126018965D01*
X44577324Y-126012948D01*
X44581832Y-126007456D01*
X44583853Y-126002576D01*
X44594423Y-125985785D01*
X44689662Y-125795308D01*
X44703674Y-125758691D01*
X44704183Y-125751521D01*
X44706933Y-125744884D01*
X44710776Y-125705866D01*
X44710776Y-125515390D01*
X44706933Y-125476372D01*
X44704183Y-125469734D01*
X44703674Y-125462565D01*
X44689662Y-125425948D01*
X44594423Y-125235471D01*
X44583853Y-125218679D01*
X44581832Y-125213800D01*
X44577324Y-125208307D01*
X44573537Y-125202291D01*
X44569545Y-125198829D01*
X44556959Y-125183493D01*
X44461721Y-125088255D01*
X44446385Y-125075668D01*
X44442923Y-125071677D01*
X44436906Y-125067889D01*
X44431414Y-125063382D01*
X44426534Y-125061360D01*
X44409743Y-125050791D01*
X44219267Y-124955553D01*
X44182649Y-124941540D01*
X44175479Y-124941030D01*
X44168842Y-124938281D01*
X44129824Y-124934438D01*
X43463157Y-124934438D01*
X43424139Y-124938281D01*
X43352043Y-124968144D01*
X43296863Y-125023324D01*
X43267000Y-125095420D01*
X43263157Y-125134438D01*
X42802171Y-125134438D01*
X42802171Y-125095420D01*
X42772308Y-125023324D01*
X42717128Y-124968144D01*
X42645032Y-124938281D01*
X42606014Y-124934438D01*
X41653633Y-124934438D01*
X41614615Y-124938281D01*
X41542519Y-124968144D01*
X41487339Y-125023324D01*
X41457476Y-125095420D01*
X41453633Y-125134438D01*
X41087885Y-125134438D01*
X41087885Y-125095420D01*
X41058022Y-125023324D01*
X41002842Y-124968144D01*
X40930746Y-124938281D01*
X40891728Y-124934438D01*
X39939347Y-124934438D01*
X39900329Y-124938281D01*
X39828233Y-124968144D01*
X39773053Y-125023324D01*
X39743190Y-125095420D01*
X39739347Y-125134438D01*
X39517125Y-125134438D01*
X39517125Y-124618549D01*
X48837760Y-124618549D01*
X48837760Y-127556660D01*
G37*
D12*
X124377185Y-126665457D02*
X122634544Y-126665457D01*
X119634544Y-129665457D02*
X122634544Y-126665457D01*
X36840000Y-136705000D02*
X36840000Y-135900000D01*
D13*
X36414042Y-133628571D02*
X36842614Y-133328571D01*
X36414042Y-133114285D02*
X37314042Y-133114285D01*
X37314042Y-133114285D02*
X37314042Y-133457142D01*
X37314042Y-133457142D02*
X37271185Y-133542857D01*
X37271185Y-133542857D02*
X37228328Y-133585714D01*
X37228328Y-133585714D02*
X37142614Y-133628571D01*
X37142614Y-133628571D02*
X37014042Y-133628571D01*
X37014042Y-133628571D02*
X36928328Y-133585714D01*
X36928328Y-133585714D02*
X36885471Y-133542857D01*
X36885471Y-133542857D02*
X36842614Y-133457142D01*
X36842614Y-133457142D02*
X36842614Y-133114285D01*
X37271185Y-134485714D02*
X37314042Y-134400000D01*
X37314042Y-134400000D02*
X37314042Y-134271428D01*
X37314042Y-134271428D02*
X37271185Y-134142857D01*
X37271185Y-134142857D02*
X37185471Y-134057142D01*
X37185471Y-134057142D02*
X37099757Y-134014285D01*
X37099757Y-134014285D02*
X36928328Y-133971428D01*
X36928328Y-133971428D02*
X36799757Y-133971428D01*
X36799757Y-133971428D02*
X36628328Y-134014285D01*
X36628328Y-134014285D02*
X36542614Y-134057142D01*
X36542614Y-134057142D02*
X36456900Y-134142857D01*
X36456900Y-134142857D02*
X36414042Y-134271428D01*
X36414042Y-134271428D02*
X36414042Y-134357142D01*
X36414042Y-134357142D02*
X36456900Y-134485714D01*
X36456900Y-134485714D02*
X36499757Y-134528571D01*
X36499757Y-134528571D02*
X36799757Y-134528571D01*
X36799757Y-134528571D02*
X36799757Y-134357142D01*
X36885471Y-135214285D02*
X36842614Y-135342857D01*
X36842614Y-135342857D02*
X36799757Y-135385714D01*
X36799757Y-135385714D02*
X36714042Y-135428571D01*
X36714042Y-135428571D02*
X36585471Y-135428571D01*
X36585471Y-135428571D02*
X36499757Y-135385714D01*
X36499757Y-135385714D02*
X36456900Y-135342857D01*
X36456900Y-135342857D02*
X36414042Y-135257142D01*
X36414042Y-135257142D02*
X36414042Y-134914285D01*
X36414042Y-134914285D02*
X37314042Y-134914285D01*
X37314042Y-134914285D02*
X37314042Y-135214285D01*
X37314042Y-135214285D02*
X37271185Y-135300000D01*
X37271185Y-135300000D02*
X37228328Y-135342857D01*
X37228328Y-135342857D02*
X37142614Y-135385714D01*
X37142614Y-135385714D02*
X37056900Y-135385714D01*
X37056900Y-135385714D02*
X36971185Y-135342857D01*
X36971185Y-135342857D02*
X36928328Y-135300000D01*
X36928328Y-135300000D02*
X36885471Y-135214285D01*
X36885471Y-135214285D02*
X36885471Y-134914285D01*
D14*
X125494285Y-126625214D02*
X125708571Y-126696642D01*
X125708571Y-126696642D02*
X125780000Y-126768071D01*
X125780000Y-126768071D02*
X125851428Y-126910928D01*
X125851428Y-126910928D02*
X125851428Y-127125214D01*
X125851428Y-127125214D02*
X125780000Y-127268071D01*
X125780000Y-127268071D02*
X125708571Y-127339500D01*
X125708571Y-127339500D02*
X125565714Y-127410928D01*
X125565714Y-127410928D02*
X124994285Y-127410928D01*
X124994285Y-127410928D02*
X124994285Y-125910928D01*
X124994285Y-125910928D02*
X125494285Y-125910928D01*
X125494285Y-125910928D02*
X125637143Y-125982357D01*
X125637143Y-125982357D02*
X125708571Y-126053785D01*
X125708571Y-126053785D02*
X125780000Y-126196642D01*
X125780000Y-126196642D02*
X125780000Y-126339500D01*
X125780000Y-126339500D02*
X125708571Y-126482357D01*
X125708571Y-126482357D02*
X125637143Y-126553785D01*
X125637143Y-126553785D02*
X125494285Y-126625214D01*
X125494285Y-126625214D02*
X124994285Y-126625214D01*
X126780000Y-125910928D02*
X127065714Y-125910928D01*
X127065714Y-125910928D02*
X127208571Y-125982357D01*
X127208571Y-125982357D02*
X127351428Y-126125214D01*
X127351428Y-126125214D02*
X127422857Y-126410928D01*
X127422857Y-126410928D02*
X127422857Y-126910928D01*
X127422857Y-126910928D02*
X127351428Y-127196642D01*
X127351428Y-127196642D02*
X127208571Y-127339500D01*
X127208571Y-127339500D02*
X127065714Y-127410928D01*
X127065714Y-127410928D02*
X126780000Y-127410928D01*
X126780000Y-127410928D02*
X126637143Y-127339500D01*
X126637143Y-127339500D02*
X126494285Y-127196642D01*
X126494285Y-127196642D02*
X126422857Y-126910928D01*
X126422857Y-126910928D02*
X126422857Y-126410928D01*
X126422857Y-126410928D02*
X126494285Y-126125214D01*
X126494285Y-126125214D02*
X126637143Y-125982357D01*
X126637143Y-125982357D02*
X126780000Y-125910928D01*
X128351429Y-125910928D02*
X128637143Y-125910928D01*
X128637143Y-125910928D02*
X128780000Y-125982357D01*
X128780000Y-125982357D02*
X128922857Y-126125214D01*
X128922857Y-126125214D02*
X128994286Y-126410928D01*
X128994286Y-126410928D02*
X128994286Y-126910928D01*
X128994286Y-126910928D02*
X128922857Y-127196642D01*
X128922857Y-127196642D02*
X128780000Y-127339500D01*
X128780000Y-127339500D02*
X128637143Y-127410928D01*
X128637143Y-127410928D02*
X128351429Y-127410928D01*
X128351429Y-127410928D02*
X128208572Y-127339500D01*
X128208572Y-127339500D02*
X128065714Y-127196642D01*
X128065714Y-127196642D02*
X127994286Y-126910928D01*
X127994286Y-126910928D02*
X127994286Y-126410928D01*
X127994286Y-126410928D02*
X128065714Y-126125214D01*
X128065714Y-126125214D02*
X128208572Y-125982357D01*
X128208572Y-125982357D02*
X128351429Y-125910928D01*
X129422858Y-125910928D02*
X130280001Y-125910928D01*
X129851429Y-127410928D02*
X129851429Y-125910928D01*
D13*
X70850457Y-123186993D02*
X70907600Y-123244136D01*
X70907600Y-123244136D02*
X70964742Y-123415564D01*
X70964742Y-123415564D02*
X70964742Y-123529850D01*
X70964742Y-123529850D02*
X70907600Y-123701279D01*
X70907600Y-123701279D02*
X70793314Y-123815564D01*
X70793314Y-123815564D02*
X70679028Y-123872707D01*
X70679028Y-123872707D02*
X70450457Y-123929850D01*
X70450457Y-123929850D02*
X70279028Y-123929850D01*
X70279028Y-123929850D02*
X70050457Y-123872707D01*
X70050457Y-123872707D02*
X69936171Y-123815564D01*
X69936171Y-123815564D02*
X69821885Y-123701279D01*
X69821885Y-123701279D02*
X69764742Y-123529850D01*
X69764742Y-123529850D02*
X69764742Y-123415564D01*
X69764742Y-123415564D02*
X69821885Y-123244136D01*
X69821885Y-123244136D02*
X69879028Y-123186993D01*
X70964742Y-122101279D02*
X70964742Y-122672707D01*
X70964742Y-122672707D02*
X69764742Y-122672707D01*
X70964742Y-121701278D02*
X69764742Y-121701278D01*
X70964742Y-121015564D02*
X70279028Y-121529850D01*
X69764742Y-121015564D02*
X70450457Y-121701278D01*
X68424742Y-123872707D02*
X67224742Y-123872707D01*
X67224742Y-123872707D02*
X67224742Y-123586993D01*
X67224742Y-123586993D02*
X67281885Y-123415564D01*
X67281885Y-123415564D02*
X67396171Y-123301279D01*
X67396171Y-123301279D02*
X67510457Y-123244136D01*
X67510457Y-123244136D02*
X67739028Y-123186993D01*
X67739028Y-123186993D02*
X67910457Y-123186993D01*
X67910457Y-123186993D02*
X68139028Y-123244136D01*
X68139028Y-123244136D02*
X68253314Y-123301279D01*
X68253314Y-123301279D02*
X68367600Y-123415564D01*
X68367600Y-123415564D02*
X68424742Y-123586993D01*
X68424742Y-123586993D02*
X68424742Y-123872707D01*
X67796171Y-122272707D02*
X67853314Y-122101279D01*
X67853314Y-122101279D02*
X67910457Y-122044136D01*
X67910457Y-122044136D02*
X68024742Y-121986993D01*
X68024742Y-121986993D02*
X68196171Y-121986993D01*
X68196171Y-121986993D02*
X68310457Y-122044136D01*
X68310457Y-122044136D02*
X68367600Y-122101279D01*
X68367600Y-122101279D02*
X68424742Y-122215564D01*
X68424742Y-122215564D02*
X68424742Y-122672707D01*
X68424742Y-122672707D02*
X67224742Y-122672707D01*
X67224742Y-122672707D02*
X67224742Y-122272707D01*
X67224742Y-122272707D02*
X67281885Y-122158422D01*
X67281885Y-122158422D02*
X67339028Y-122101279D01*
X67339028Y-122101279D02*
X67453314Y-122044136D01*
X67453314Y-122044136D02*
X67567600Y-122044136D01*
X67567600Y-122044136D02*
X67681885Y-122101279D01*
X67681885Y-122101279D02*
X67739028Y-122158422D01*
X67739028Y-122158422D02*
X67796171Y-122272707D01*
X67796171Y-122272707D02*
X67796171Y-122672707D01*
X67281885Y-120844136D02*
X67224742Y-120958422D01*
X67224742Y-120958422D02*
X67224742Y-121129850D01*
X67224742Y-121129850D02*
X67281885Y-121301279D01*
X67281885Y-121301279D02*
X67396171Y-121415564D01*
X67396171Y-121415564D02*
X67510457Y-121472707D01*
X67510457Y-121472707D02*
X67739028Y-121529850D01*
X67739028Y-121529850D02*
X67910457Y-121529850D01*
X67910457Y-121529850D02*
X68139028Y-121472707D01*
X68139028Y-121472707D02*
X68253314Y-121415564D01*
X68253314Y-121415564D02*
X68367600Y-121301279D01*
X68367600Y-121301279D02*
X68424742Y-121129850D01*
X68424742Y-121129850D02*
X68424742Y-121015564D01*
X68424742Y-121015564D02*
X68367600Y-120844136D01*
X68367600Y-120844136D02*
X68310457Y-120786993D01*
X68310457Y-120786993D02*
X67910457Y-120786993D01*
X67910457Y-120786993D02*
X67910457Y-121015564D01*
X73504742Y-123872707D02*
X72304742Y-123872707D01*
X72247600Y-122444135D02*
X73790457Y-123472707D01*
X72304742Y-121815564D02*
X72304742Y-121586992D01*
X72304742Y-121586992D02*
X72361885Y-121472707D01*
X72361885Y-121472707D02*
X72476171Y-121358421D01*
X72476171Y-121358421D02*
X72704742Y-121301278D01*
X72704742Y-121301278D02*
X73104742Y-121301278D01*
X73104742Y-121301278D02*
X73333314Y-121358421D01*
X73333314Y-121358421D02*
X73447600Y-121472707D01*
X73447600Y-121472707D02*
X73504742Y-121586992D01*
X73504742Y-121586992D02*
X73504742Y-121815564D01*
X73504742Y-121815564D02*
X73447600Y-121929850D01*
X73447600Y-121929850D02*
X73333314Y-122044135D01*
X73333314Y-122044135D02*
X73104742Y-122101278D01*
X73104742Y-122101278D02*
X72704742Y-122101278D01*
X72704742Y-122101278D02*
X72476171Y-122044135D01*
X72476171Y-122044135D02*
X72361885Y-121929850D01*
X72361885Y-121929850D02*
X72304742Y-121815564D01*
%TO.C,KEY38*%
X117368750Y-125575000D02*
G75*
G02*
X112768750Y-125575000I-2300000J0D01*
G01*
X112768750Y-125575000D02*
G75*
G02*
X117368750Y-125575000I2300000J0D01*
G01*
X116768750Y-140575000D02*
G75*
G02*
X113368750Y-140575000I-1700000J0D01*
G01*
X113368750Y-140575000D02*
G75*
G02*
X116768750Y-140575000I1700000J0D01*
G01*
X141368750Y-125575000D02*
G75*
G02*
X136768750Y-125575000I-2300000J0D01*
G01*
X136768750Y-125575000D02*
G75*
G02*
X141368750Y-125575000I2300000J0D01*
G01*
X140768750Y-140575000D02*
G75*
G02*
X137368750Y-140575000I-1700000J0D01*
G01*
X137368750Y-140575000D02*
G75*
G02*
X140768750Y-140575000I1700000J0D01*
G01*
%TO.C,KEY39*%
X164993750Y-125575000D02*
G75*
G02*
X160393750Y-125575000I-2300000J0D01*
G01*
X160393750Y-125575000D02*
G75*
G02*
X164993750Y-125575000I2300000J0D01*
G01*
X164393750Y-140575000D02*
G75*
G02*
X160993750Y-140575000I-1700000J0D01*
G01*
X160993750Y-140575000D02*
G75*
G02*
X164393750Y-140575000I1700000J0D01*
G01*
X188993750Y-125575000D02*
G75*
G02*
X184393750Y-125575000I-2300000J0D01*
G01*
X184393750Y-125575000D02*
G75*
G02*
X188993750Y-125575000I2300000J0D01*
G01*
X188393750Y-140575000D02*
G75*
G02*
X184993750Y-140575000I-1700000J0D01*
G01*
X184993750Y-140575000D02*
G75*
G02*
X188393750Y-140575000I1700000J0D01*
G01*
D15*
%TO.C,USB1*%
X48550000Y-70800000D02*
X48550000Y-68800000D01*
X57950000Y-70800000D02*
X57950000Y-68800000D01*
D16*
%TO.C,LED8*%
X175043000Y-83883000D02*
X174443000Y-83283000D01*
X175043000Y-83283000D01*
X175043000Y-83883000D01*
G36*
X175043000Y-83883000D02*
G01*
X174443000Y-83283000D01*
X175043000Y-83283000D01*
X175043000Y-83883000D01*
G37*
D15*
%TO.C,USBR2*%
X55730000Y-79053641D02*
X55730000Y-78746359D01*
X54970000Y-79053641D02*
X54970000Y-78746359D01*
%TO.C,USBR1*%
X51130000Y-79053641D02*
X51130000Y-78746359D01*
X50370000Y-79053641D02*
X50370000Y-78746359D01*
%TO.C,USBD1*%
X52050000Y-77390000D02*
X51810000Y-77060000D01*
X52290000Y-77060000D01*
X52050000Y-77390000D01*
G36*
X52050000Y-77390000D02*
G01*
X51810000Y-77060000D01*
X52290000Y-77060000D01*
X52050000Y-77390000D01*
G37*
X53700000Y-77340000D02*
X52430000Y-77340000D01*
X52400000Y-80460000D02*
X53700000Y-80460000D01*
%TO.C,SD1*%
X68950000Y-68990000D02*
X68710000Y-68660000D01*
X69190000Y-68660000D01*
X68950000Y-68990000D01*
G36*
X68950000Y-68990000D02*
G01*
X68710000Y-68660000D01*
X69190000Y-68660000D01*
X68950000Y-68990000D01*
G37*
X70250000Y-72060000D02*
X71050000Y-72060000D01*
X70250000Y-72060000D02*
X69450000Y-72060000D01*
X70250000Y-68940000D02*
X71050000Y-68940000D01*
X70250000Y-68940000D02*
X69450000Y-68940000D01*
%TO.C,PWRL1*%
X75610000Y-71102064D02*
X75610000Y-69897936D01*
X72890000Y-71102064D02*
X72890000Y-69897936D01*
%TO.C,PWRF1*%
X61647936Y-70810000D02*
X62852064Y-70810000D01*
X61647936Y-68990000D02*
X62852064Y-68990000D01*
%TO.C,PWRC2*%
X76515000Y-70238748D02*
X76515000Y-70761252D01*
X77985000Y-70238748D02*
X77985000Y-70761252D01*
%TO.C,PWRC1*%
X66415000Y-70238748D02*
X66415000Y-70761252D01*
X67885000Y-70238748D02*
X67885000Y-70761252D01*
%TO.C,MPC3*%
X213290000Y-103292164D02*
X213290000Y-103507836D01*
X214010000Y-103292164D02*
X214010000Y-103507836D01*
%TO.C,MPC2*%
X137290000Y-103292164D02*
X137290000Y-103507836D01*
X138010000Y-103292164D02*
X138010000Y-103507836D01*
%TO.C,MPC1*%
X67540000Y-106292164D02*
X67540000Y-106507836D01*
X68260000Y-106292164D02*
X68260000Y-106507836D01*
%TO.C,MP3*%
X215125000Y-109775000D02*
X214795000Y-110015000D01*
X214795000Y-109535000D01*
X215125000Y-109775000D01*
G36*
X215125000Y-109775000D02*
G01*
X214795000Y-110015000D01*
X214795000Y-109535000D01*
X215125000Y-109775000D01*
G37*
D17*
X223525000Y-103525000D02*
X223300000Y-103525000D01*
X214875000Y-103525000D02*
X215100000Y-103525000D01*
X223525000Y-109275000D02*
X223525000Y-103525000D01*
X223525000Y-109275000D02*
X223300000Y-109275000D01*
X214875000Y-109275000D02*
X214875000Y-103525000D01*
X214875000Y-109275000D02*
X215100000Y-109275000D01*
D15*
%TO.C,MP2*%
X139125000Y-109775000D02*
X138795000Y-110015000D01*
X138795000Y-109535000D01*
X139125000Y-109775000D01*
G36*
X139125000Y-109775000D02*
G01*
X138795000Y-110015000D01*
X138795000Y-109535000D01*
X139125000Y-109775000D01*
G37*
D17*
X147525000Y-103525000D02*
X147300000Y-103525000D01*
X138875000Y-103525000D02*
X139100000Y-103525000D01*
X147525000Y-109275000D02*
X147525000Y-103525000D01*
X147525000Y-109275000D02*
X147300000Y-109275000D01*
X138875000Y-109275000D02*
X138875000Y-103525000D01*
X138875000Y-109275000D02*
X139100000Y-109275000D01*
D15*
%TO.C,MP1*%
X69375000Y-112775000D02*
X69045000Y-113015000D01*
X69045000Y-112535000D01*
X69375000Y-112775000D01*
G36*
X69375000Y-112775000D02*
G01*
X69045000Y-113015000D01*
X69045000Y-112535000D01*
X69375000Y-112775000D01*
G37*
D17*
X77775000Y-106525000D02*
X77550000Y-106525000D01*
X69125000Y-106525000D02*
X69350000Y-106525000D01*
X77775000Y-112275000D02*
X77775000Y-106525000D01*
X77775000Y-112275000D02*
X77550000Y-112275000D01*
X69125000Y-112275000D02*
X69125000Y-106525000D01*
X69125000Y-112275000D02*
X69350000Y-112275000D01*
D15*
%TO.C,MCU1*%
X94040000Y-134100000D02*
X93570000Y-134440000D01*
X93570000Y-133760000D01*
X94040000Y-134100000D01*
G36*
X94040000Y-134100000D02*
G01*
X93570000Y-134440000D01*
X93570000Y-133760000D01*
X94040000Y-134100000D01*
G37*
X100810000Y-126290000D02*
X100360000Y-126290000D01*
X93590000Y-126290000D02*
X94040000Y-126290000D01*
X100810000Y-126740000D02*
X100810000Y-126290000D01*
X93590000Y-126740000D02*
X93590000Y-126290000D01*
X100810000Y-133060000D02*
X100810000Y-133510000D01*
X93590000Y-133060000D02*
X93590000Y-133510000D01*
X100810000Y-133510000D02*
X100360000Y-133510000D01*
X93590000Y-133510000D02*
X94040000Y-133510000D01*
%TO.C,LEDC42*%
X247153750Y-140012836D02*
X247153750Y-139797164D01*
X246433750Y-140012836D02*
X246433750Y-139797164D01*
%TO.C,LEDC41*%
X225722500Y-140012836D02*
X225722500Y-139797164D01*
X225002500Y-140012836D02*
X225002500Y-139797164D01*
%TO.C,LEDC40*%
X204291250Y-140012836D02*
X204291250Y-139797164D01*
X203571250Y-140012836D02*
X203571250Y-139797164D01*
%TO.C,LEDC39*%
X170953750Y-140012836D02*
X170953750Y-139797164D01*
X170233750Y-140012836D02*
X170233750Y-139797164D01*
%TO.C,LEDC38*%
X123328750Y-140012836D02*
X123328750Y-139797164D01*
X122608750Y-140012836D02*
X122608750Y-139797164D01*
%TO.C,LEDC37*%
X78085000Y-140012836D02*
X78085000Y-139797164D01*
X77365000Y-140012836D02*
X77365000Y-139797164D01*
%TO.C,LEDC36*%
X59035000Y-140012836D02*
X59035000Y-139797164D01*
X58315000Y-140012836D02*
X58315000Y-139797164D01*
%TO.C,LEDC35*%
X39985000Y-140012836D02*
X39985000Y-139797164D01*
X39265000Y-140012836D02*
X39265000Y-139797164D01*
%TO.C,LEDC34*%
X249871250Y-118247164D02*
X249871250Y-118462836D01*
X250591250Y-118247164D02*
X250591250Y-118462836D01*
%TO.C,LEDC33*%
X223677500Y-118247164D02*
X223677500Y-118462836D01*
X224397500Y-118247164D02*
X224397500Y-118462836D01*
%TO.C,LEDC32*%
X204627500Y-118247164D02*
X204627500Y-118462836D01*
X205347500Y-118247164D02*
X205347500Y-118462836D01*
%TO.C,LEDC31*%
X185577500Y-118247164D02*
X185577500Y-118462836D01*
X186297500Y-118247164D02*
X186297500Y-118462836D01*
%TO.C,LEDC30*%
X166527500Y-118247164D02*
X166527500Y-118462836D01*
X167247500Y-118247164D02*
X167247500Y-118462836D01*
%TO.C,LEDC29*%
X147477500Y-118247164D02*
X147477500Y-118462836D01*
X148197500Y-118247164D02*
X148197500Y-118462836D01*
%TO.C,LEDC28*%
X128427500Y-118247164D02*
X128427500Y-118462836D01*
X129147500Y-118247164D02*
X129147500Y-118462836D01*
%TO.C,LEDC27*%
X109377500Y-118247164D02*
X109377500Y-118462836D01*
X110097500Y-118247164D02*
X110097500Y-118462836D01*
%TO.C,LEDC26*%
X87946250Y-118247164D02*
X87946250Y-118462836D01*
X88666250Y-118247164D02*
X88666250Y-118462836D01*
%TO.C,LEDC25*%
X66515000Y-118247164D02*
X66515000Y-118462836D01*
X67235000Y-118247164D02*
X67235000Y-118462836D01*
%TO.C,LEDC24*%
X47465000Y-118247164D02*
X47465000Y-118462836D01*
X48185000Y-118247164D02*
X48185000Y-118462836D01*
%TO.C,LEDC23*%
X247153750Y-101912836D02*
X247153750Y-101697164D01*
X246433750Y-101912836D02*
X246433750Y-101697164D01*
%TO.C,LEDC22*%
X225722500Y-101912836D02*
X225722500Y-101697164D01*
X225002500Y-101912836D02*
X225002500Y-101697164D01*
%TO.C,LEDC21*%
X206672500Y-101912836D02*
X206672500Y-101697164D01*
X205952500Y-101912836D02*
X205952500Y-101697164D01*
%TO.C,LEDC20*%
X187622500Y-101912836D02*
X187622500Y-101697164D01*
X186902500Y-101912836D02*
X186902500Y-101697164D01*
%TO.C,LEDC19*%
X168572499Y-101912836D02*
X168572499Y-101697164D01*
X167852499Y-101912836D02*
X167852499Y-101697164D01*
%TO.C,LEDC18*%
X149522500Y-101912836D02*
X149522500Y-101697164D01*
X148802500Y-101912836D02*
X148802500Y-101697164D01*
%TO.C,LEDC17*%
X130472500Y-101912836D02*
X130472500Y-101697164D01*
X129752500Y-101912836D02*
X129752500Y-101697164D01*
%TO.C,LEDC16*%
X111422500Y-101912836D02*
X111422500Y-101697164D01*
X110702500Y-101912836D02*
X110702500Y-101697164D01*
%TO.C,LEDC15*%
X92372500Y-101912836D02*
X92372500Y-101697164D01*
X91652500Y-101912836D02*
X91652500Y-101697164D01*
%TO.C,LEDC14*%
X73322500Y-101912836D02*
X73322500Y-101697164D01*
X72602500Y-101912836D02*
X72602500Y-101697164D01*
%TO.C,LEDC13*%
X47128750Y-101912836D02*
X47128750Y-101697164D01*
X46408750Y-101912836D02*
X46408750Y-101697164D01*
%TO.C,LEDC12*%
X257015000Y-80147164D02*
X257015000Y-80362836D01*
X257735000Y-80147164D02*
X257735000Y-80362836D01*
%TO.C,LEDC11*%
X237965000Y-80147164D02*
X237965000Y-80362836D01*
X238685000Y-80147164D02*
X238685000Y-80362836D01*
%TO.C,LEDC10*%
X218915000Y-80147164D02*
X218915000Y-80362836D01*
X219635000Y-80147164D02*
X219635000Y-80362836D01*
%TO.C,LEDC9*%
X199865000Y-80147164D02*
X199865000Y-80362836D01*
X200585000Y-80147164D02*
X200585000Y-80362836D01*
%TO.C,LEDC8*%
X180815000Y-80147164D02*
X180815000Y-80362836D01*
X181535000Y-80147164D02*
X181535000Y-80362836D01*
%TO.C,LEDC7*%
X161765000Y-80147164D02*
X161765000Y-80362836D01*
X162485000Y-80147164D02*
X162485000Y-80362836D01*
%TO.C,LEDC6*%
X142715000Y-80147164D02*
X142715000Y-80362836D01*
X143435000Y-80147164D02*
X143435000Y-80362836D01*
%TO.C,LEDC5*%
X123665000Y-80147164D02*
X123665000Y-80362836D01*
X124385000Y-80147164D02*
X124385000Y-80362836D01*
%TO.C,LEDC4*%
X104615000Y-80147164D02*
X104615000Y-80362836D01*
X105335000Y-80147164D02*
X105335000Y-80362836D01*
%TO.C,LEDC3*%
X85565000Y-80147164D02*
X85565000Y-80362836D01*
X86285000Y-80147164D02*
X86285000Y-80362836D01*
%TO.C,LEDC2*%
X66515000Y-80147164D02*
X66515000Y-80362836D01*
X67235000Y-80147164D02*
X67235000Y-80362836D01*
%TO.C,LEDC1*%
X47465000Y-80147164D02*
X47465000Y-80362836D01*
X48185000Y-80147164D02*
X48185000Y-80362836D01*
D16*
%TO.C,LED42*%
X253525750Y-136877000D02*
X252925750Y-136877000D01*
X252925750Y-136277000D01*
X253525750Y-136877000D01*
G36*
X253525750Y-136877000D02*
G01*
X252925750Y-136877000D01*
X252925750Y-136277000D01*
X253525750Y-136877000D01*
G37*
%TO.C,LED41*%
X232094500Y-136877000D02*
X231494500Y-136877000D01*
X231494500Y-136277000D01*
X232094500Y-136877000D01*
G36*
X232094500Y-136877000D02*
G01*
X231494500Y-136877000D01*
X231494500Y-136277000D01*
X232094500Y-136877000D01*
G37*
%TO.C,LED40*%
X210663250Y-136877000D02*
X210063250Y-136877000D01*
X210063250Y-136277000D01*
X210663250Y-136877000D01*
G36*
X210663250Y-136877000D02*
G01*
X210063250Y-136877000D01*
X210063250Y-136277000D01*
X210663250Y-136877000D01*
G37*
%TO.C,LED39*%
X177325750Y-136877000D02*
X176725750Y-136877000D01*
X176725750Y-136277000D01*
X177325750Y-136877000D01*
G36*
X177325750Y-136877000D02*
G01*
X176725750Y-136877000D01*
X176725750Y-136277000D01*
X177325750Y-136877000D01*
G37*
%TO.C,LED38*%
X129700750Y-136877000D02*
X129100750Y-136877000D01*
X129100750Y-136277000D01*
X129700750Y-136877000D01*
G36*
X129700750Y-136877000D02*
G01*
X129100750Y-136877000D01*
X129100750Y-136277000D01*
X129700750Y-136877000D01*
G37*
%TO.C,LED37*%
X84457000Y-136877000D02*
X83857000Y-136877000D01*
X83857000Y-136277000D01*
X84457000Y-136877000D01*
G36*
X84457000Y-136877000D02*
G01*
X83857000Y-136877000D01*
X83857000Y-136277000D01*
X84457000Y-136877000D01*
G37*
%TO.C,LED36*%
X65407000Y-136877000D02*
X64807000Y-136877000D01*
X64807000Y-136277000D01*
X65407000Y-136877000D01*
G36*
X65407000Y-136877000D02*
G01*
X64807000Y-136877000D01*
X64807000Y-136277000D01*
X65407000Y-136877000D01*
G37*
%TO.C,LED35*%
X46357000Y-136877000D02*
X45757000Y-136877000D01*
X45757000Y-136277000D01*
X46357000Y-136877000D01*
G36*
X46357000Y-136877000D02*
G01*
X45757000Y-136877000D01*
X45757000Y-136277000D01*
X46357000Y-136877000D01*
G37*
%TO.C,LED34*%
X244099250Y-121983000D02*
X243499250Y-121383000D01*
X244099250Y-121383000D01*
X244099250Y-121983000D01*
G36*
X244099250Y-121983000D02*
G01*
X243499250Y-121383000D01*
X244099250Y-121383000D01*
X244099250Y-121983000D01*
G37*
%TO.C,LED33*%
X217905500Y-121983000D02*
X217305500Y-121383000D01*
X217905500Y-121383000D01*
X217905500Y-121983000D01*
G36*
X217905500Y-121983000D02*
G01*
X217305500Y-121383000D01*
X217905500Y-121383000D01*
X217905500Y-121983000D01*
G37*
%TO.C,LED32*%
X198855500Y-121983000D02*
X198255500Y-121383000D01*
X198855500Y-121383000D01*
X198855500Y-121983000D01*
G36*
X198855500Y-121983000D02*
G01*
X198255500Y-121383000D01*
X198855500Y-121383000D01*
X198855500Y-121983000D01*
G37*
%TO.C,LED31*%
X179805500Y-121983000D02*
X179205500Y-121383000D01*
X179805500Y-121383000D01*
X179805500Y-121983000D01*
G36*
X179805500Y-121983000D02*
G01*
X179205500Y-121383000D01*
X179805500Y-121383000D01*
X179805500Y-121983000D01*
G37*
%TO.C,LED30*%
X160755500Y-121983000D02*
X160155500Y-121383000D01*
X160755500Y-121383000D01*
X160755500Y-121983000D01*
G36*
X160755500Y-121983000D02*
G01*
X160155500Y-121383000D01*
X160755500Y-121383000D01*
X160755500Y-121983000D01*
G37*
%TO.C,LED29*%
X141705500Y-121983000D02*
X141105500Y-121383000D01*
X141705500Y-121383000D01*
X141705500Y-121983000D01*
G36*
X141705500Y-121983000D02*
G01*
X141105500Y-121383000D01*
X141705500Y-121383000D01*
X141705500Y-121983000D01*
G37*
%TO.C,LED28*%
X122655500Y-121983000D02*
X122055500Y-121383000D01*
X122655500Y-121383000D01*
X122655500Y-121983000D01*
G36*
X122655500Y-121983000D02*
G01*
X122055500Y-121383000D01*
X122655500Y-121383000D01*
X122655500Y-121983000D01*
G37*
%TO.C,LED27*%
X103605500Y-121983000D02*
X103005500Y-121383000D01*
X103605500Y-121383000D01*
X103605500Y-121983000D01*
G36*
X103605500Y-121983000D02*
G01*
X103005500Y-121383000D01*
X103605500Y-121383000D01*
X103605500Y-121983000D01*
G37*
%TO.C,LED26*%
X82174250Y-121983000D02*
X81574250Y-121383000D01*
X82174250Y-121383000D01*
X82174250Y-121983000D01*
G36*
X82174250Y-121983000D02*
G01*
X81574250Y-121383000D01*
X82174250Y-121383000D01*
X82174250Y-121983000D01*
G37*
%TO.C,LED25*%
X60743000Y-121983000D02*
X60143000Y-121383000D01*
X60743000Y-121383000D01*
X60743000Y-121983000D01*
G36*
X60743000Y-121983000D02*
G01*
X60143000Y-121383000D01*
X60743000Y-121383000D01*
X60743000Y-121983000D01*
G37*
%TO.C,LED24*%
X41693000Y-121983000D02*
X41093000Y-121383000D01*
X41693000Y-121383000D01*
X41693000Y-121983000D01*
G36*
X41693000Y-121983000D02*
G01*
X41093000Y-121383000D01*
X41693000Y-121383000D01*
X41693000Y-121983000D01*
G37*
%TO.C,LED23*%
X253525750Y-98777000D02*
X252925750Y-98777000D01*
X252925750Y-98177000D01*
X253525750Y-98777000D01*
G36*
X253525750Y-98777000D02*
G01*
X252925750Y-98777000D01*
X252925750Y-98177000D01*
X253525750Y-98777000D01*
G37*
%TO.C,LED22*%
X232094500Y-98777000D02*
X231494500Y-98777000D01*
X231494500Y-98177000D01*
X232094500Y-98777000D01*
G36*
X232094500Y-98777000D02*
G01*
X231494500Y-98777000D01*
X231494500Y-98177000D01*
X232094500Y-98777000D01*
G37*
%TO.C,LED21*%
X213044500Y-98777000D02*
X212444500Y-98777000D01*
X212444500Y-98177000D01*
X213044500Y-98777000D01*
G36*
X213044500Y-98777000D02*
G01*
X212444500Y-98777000D01*
X212444500Y-98177000D01*
X213044500Y-98777000D01*
G37*
%TO.C,LED20*%
X193994500Y-98777000D02*
X193394500Y-98777000D01*
X193394500Y-98177000D01*
X193994500Y-98777000D01*
G36*
X193994500Y-98777000D02*
G01*
X193394500Y-98777000D01*
X193394500Y-98177000D01*
X193994500Y-98777000D01*
G37*
%TO.C,LED19*%
X174944500Y-98777000D02*
X174344500Y-98777000D01*
X174344500Y-98177000D01*
X174944500Y-98777000D01*
G36*
X174944500Y-98777000D02*
G01*
X174344500Y-98777000D01*
X174344500Y-98177000D01*
X174944500Y-98777000D01*
G37*
%TO.C,LED18*%
X155894500Y-98777000D02*
X155294500Y-98777000D01*
X155294500Y-98177000D01*
X155894500Y-98777000D01*
G36*
X155894500Y-98777000D02*
G01*
X155294500Y-98777000D01*
X155294500Y-98177000D01*
X155894500Y-98777000D01*
G37*
%TO.C,LED17*%
X136844500Y-98777000D02*
X136244500Y-98777000D01*
X136244500Y-98177000D01*
X136844500Y-98777000D01*
G36*
X136844500Y-98777000D02*
G01*
X136244500Y-98777000D01*
X136244500Y-98177000D01*
X136844500Y-98777000D01*
G37*
%TO.C,LED16*%
X117794500Y-98777000D02*
X117194500Y-98777000D01*
X117194500Y-98177000D01*
X117794500Y-98777000D01*
G36*
X117794500Y-98777000D02*
G01*
X117194500Y-98777000D01*
X117194500Y-98177000D01*
X117794500Y-98777000D01*
G37*
%TO.C,LED15*%
X98744500Y-98777000D02*
X98144500Y-98777000D01*
X98144500Y-98177000D01*
X98744500Y-98777000D01*
G36*
X98744500Y-98777000D02*
G01*
X98144500Y-98777000D01*
X98144500Y-98177000D01*
X98744500Y-98777000D01*
G37*
%TO.C,LED14*%
X79694500Y-98777000D02*
X79094500Y-98777000D01*
X79094500Y-98177000D01*
X79694500Y-98777000D01*
G36*
X79694500Y-98777000D02*
G01*
X79094500Y-98777000D01*
X79094500Y-98177000D01*
X79694500Y-98777000D01*
G37*
%TO.C,LED13*%
X53500750Y-98777000D02*
X52900750Y-98777000D01*
X52900750Y-98177000D01*
X53500750Y-98777000D01*
G36*
X53500750Y-98777000D02*
G01*
X52900750Y-98777000D01*
X52900750Y-98177000D01*
X53500750Y-98777000D01*
G37*
%TO.C,LED12*%
X251243000Y-83883000D02*
X250643000Y-83283000D01*
X251243000Y-83283000D01*
X251243000Y-83883000D01*
G36*
X251243000Y-83883000D02*
G01*
X250643000Y-83283000D01*
X251243000Y-83283000D01*
X251243000Y-83883000D01*
G37*
%TO.C,LED11*%
X232193000Y-83883000D02*
X231593000Y-83283000D01*
X232193000Y-83283000D01*
X232193000Y-83883000D01*
G36*
X232193000Y-83883000D02*
G01*
X231593000Y-83283000D01*
X232193000Y-83283000D01*
X232193000Y-83883000D01*
G37*
%TO.C,LED10*%
X213143000Y-83883000D02*
X212543000Y-83283000D01*
X213143000Y-83283000D01*
X213143000Y-83883000D01*
G36*
X213143000Y-83883000D02*
G01*
X212543000Y-83283000D01*
X213143000Y-83283000D01*
X213143000Y-83883000D01*
G37*
%TO.C,LED9*%
X194093000Y-83883000D02*
X193493000Y-83283000D01*
X194093000Y-83283000D01*
X194093000Y-83883000D01*
G36*
X194093000Y-83883000D02*
G01*
X193493000Y-83283000D01*
X194093000Y-83283000D01*
X194093000Y-83883000D01*
G37*
%TO.C,LED7*%
X155993000Y-83883000D02*
X155393000Y-83283000D01*
X155993000Y-83283000D01*
X155993000Y-83883000D01*
G36*
X155993000Y-83883000D02*
G01*
X155393000Y-83283000D01*
X155993000Y-83283000D01*
X155993000Y-83883000D01*
G37*
%TO.C,LED6*%
X136943000Y-83883000D02*
X136343000Y-83283000D01*
X136943000Y-83283000D01*
X136943000Y-83883000D01*
G36*
X136943000Y-83883000D02*
G01*
X136343000Y-83283000D01*
X136943000Y-83283000D01*
X136943000Y-83883000D01*
G37*
%TO.C,LED5*%
X117893000Y-83883000D02*
X117293000Y-83283000D01*
X117893000Y-83283000D01*
X117893000Y-83883000D01*
G36*
X117893000Y-83883000D02*
G01*
X117293000Y-83283000D01*
X117893000Y-83283000D01*
X117893000Y-83883000D01*
G37*
%TO.C,LED4*%
X98843000Y-83883000D02*
X98243000Y-83283000D01*
X98843000Y-83283000D01*
X98843000Y-83883000D01*
G36*
X98843000Y-83883000D02*
G01*
X98243000Y-83283000D01*
X98843000Y-83283000D01*
X98843000Y-83883000D01*
G37*
%TO.C,LED3*%
X79793000Y-83883000D02*
X79193000Y-83283000D01*
X79793000Y-83283000D01*
X79793000Y-83883000D01*
G36*
X79793000Y-83883000D02*
G01*
X79193000Y-83283000D01*
X79793000Y-83283000D01*
X79793000Y-83883000D01*
G37*
%TO.C,LED2*%
X60743000Y-83883000D02*
X60143000Y-83283000D01*
X60743000Y-83283000D01*
X60743000Y-83883000D01*
G36*
X60743000Y-83883000D02*
G01*
X60143000Y-83283000D01*
X60743000Y-83283000D01*
X60743000Y-83883000D01*
G37*
%TO.C,LED1*%
X41693000Y-83883000D02*
X41093000Y-83283000D01*
X41693000Y-83283000D01*
X41693000Y-83883000D01*
G36*
X41693000Y-83883000D02*
G01*
X41093000Y-83283000D01*
X41693000Y-83283000D01*
X41693000Y-83883000D01*
G37*
D15*
%TO.C,HER42*%
X248823750Y-132791141D02*
X248823750Y-132483859D01*
X248063750Y-132791141D02*
X248063750Y-132483859D01*
%TO.C,HER41*%
X227392500Y-132791141D02*
X227392500Y-132483859D01*
X226632500Y-132791141D02*
X226632500Y-132483859D01*
%TO.C,HER40*%
X205961250Y-132791141D02*
X205961250Y-132483859D01*
X205201250Y-132791141D02*
X205201250Y-132483859D01*
%TO.C,HER39*%
X172623750Y-132791141D02*
X172623750Y-132483859D01*
X171863750Y-132791141D02*
X171863750Y-132483859D01*
%TO.C,HER38*%
X124998750Y-132791141D02*
X124998750Y-132483859D01*
X124238750Y-132791141D02*
X124238750Y-132483859D01*
%TO.C,HER37*%
X79755000Y-132791141D02*
X79755000Y-132483859D01*
X78995000Y-132791141D02*
X78995000Y-132483859D01*
%TO.C,HER36*%
X60705000Y-132791141D02*
X60705000Y-132483859D01*
X59945000Y-132791141D02*
X59945000Y-132483859D01*
%TO.C,HER35*%
X41654999Y-132791141D02*
X41654999Y-132483859D01*
X40894999Y-132791141D02*
X40894999Y-132483859D01*
%TO.C,HER34*%
X244061250Y-113741141D02*
X244061250Y-113433859D01*
X243301250Y-113741141D02*
X243301250Y-113433859D01*
%TO.C,HER33*%
X217867500Y-113741141D02*
X217867500Y-113433859D01*
X217107500Y-113741141D02*
X217107500Y-113433859D01*
%TO.C,HER32*%
X198817500Y-113741141D02*
X198817500Y-113433859D01*
X198057500Y-113741141D02*
X198057500Y-113433859D01*
%TO.C,HER31*%
X179767500Y-113741141D02*
X179767500Y-113433859D01*
X179007500Y-113741141D02*
X179007500Y-113433859D01*
%TO.C,HER30*%
X160717500Y-113741141D02*
X160717500Y-113433859D01*
X159957500Y-113741141D02*
X159957500Y-113433859D01*
%TO.C,HER29*%
X141667500Y-113741141D02*
X141667500Y-113433859D01*
X140907500Y-113741141D02*
X140907500Y-113433859D01*
%TO.C,HER28*%
X122617500Y-113741141D02*
X122617500Y-113433859D01*
X121857500Y-113741141D02*
X121857500Y-113433859D01*
%TO.C,HER27*%
X103567500Y-113741141D02*
X103567500Y-113433859D01*
X102807500Y-113741141D02*
X102807500Y-113433859D01*
%TO.C,HER26*%
X82136250Y-113741141D02*
X82136250Y-113433859D01*
X81376250Y-113741141D02*
X81376250Y-113433859D01*
%TO.C,HER25*%
X60705000Y-113741141D02*
X60705000Y-113433859D01*
X59945000Y-113741141D02*
X59945000Y-113433859D01*
%TO.C,HER24*%
X41654999Y-113741141D02*
X41654999Y-113433859D01*
X40894999Y-113741141D02*
X40894999Y-113433859D01*
%TO.C,HER23*%
X248823750Y-94691141D02*
X248823750Y-94383859D01*
X248063750Y-94691141D02*
X248063750Y-94383859D01*
%TO.C,HER22*%
X227392500Y-94691141D02*
X227392500Y-94383859D01*
X226632500Y-94691141D02*
X226632500Y-94383859D01*
%TO.C,HER21*%
X208342500Y-94691141D02*
X208342500Y-94383859D01*
X207582500Y-94691141D02*
X207582500Y-94383859D01*
%TO.C,HER20*%
X189292500Y-94691141D02*
X189292500Y-94383859D01*
X188532500Y-94691141D02*
X188532500Y-94383859D01*
%TO.C,HER19*%
X170242500Y-94691141D02*
X170242500Y-94383859D01*
X169482500Y-94691141D02*
X169482500Y-94383859D01*
%TO.C,HER18*%
X151192500Y-94691141D02*
X151192500Y-94383859D01*
X150432500Y-94691141D02*
X150432500Y-94383859D01*
%TO.C,HER17*%
X132142500Y-94691141D02*
X132142500Y-94383859D01*
X131382500Y-94691141D02*
X131382500Y-94383859D01*
%TO.C,HER16*%
X113092500Y-94691141D02*
X113092500Y-94383859D01*
X112332500Y-94691141D02*
X112332500Y-94383859D01*
%TO.C,HER15*%
X94042500Y-94691141D02*
X94042500Y-94383859D01*
X93282500Y-94691141D02*
X93282500Y-94383859D01*
%TO.C,HER14*%
X74992500Y-94691141D02*
X74992500Y-94383859D01*
X74232500Y-94691141D02*
X74232500Y-94383859D01*
%TO.C,HER13*%
X48798750Y-94691141D02*
X48798750Y-94383859D01*
X48038750Y-94691141D02*
X48038750Y-94383859D01*
%TO.C,HER12*%
X251205000Y-75641141D02*
X251205000Y-75333859D01*
X250445000Y-75641141D02*
X250445000Y-75333859D01*
%TO.C,HER11*%
X232155000Y-75641141D02*
X232155000Y-75333859D01*
X231395000Y-75641141D02*
X231395000Y-75333859D01*
%TO.C,HER10*%
X213105000Y-75641141D02*
X213105000Y-75333859D01*
X212345000Y-75641141D02*
X212345000Y-75333859D01*
%TO.C,HER9*%
X194055000Y-75641141D02*
X194055000Y-75333859D01*
X193295000Y-75641141D02*
X193295000Y-75333859D01*
%TO.C,HER8*%
X175005000Y-75641141D02*
X175005000Y-75333859D01*
X174245000Y-75641141D02*
X174245000Y-75333859D01*
%TO.C,HER7*%
X155955000Y-75641141D02*
X155955000Y-75333859D01*
X155195000Y-75641141D02*
X155195000Y-75333859D01*
%TO.C,HER6*%
X136905000Y-75641141D02*
X136905000Y-75333859D01*
X136145000Y-75641141D02*
X136145000Y-75333859D01*
%TO.C,HER5*%
X117855000Y-75641141D02*
X117855000Y-75333859D01*
X117095000Y-75641141D02*
X117095000Y-75333859D01*
%TO.C,HER4*%
X98804999Y-75641141D02*
X98804999Y-75333859D01*
X98044999Y-75641141D02*
X98044999Y-75333859D01*
%TO.C,HER3*%
X79755000Y-75641141D02*
X79755000Y-75333859D01*
X78995000Y-75641141D02*
X78995000Y-75333859D01*
%TO.C,HER2*%
X60705000Y-75641141D02*
X60705000Y-75333859D01*
X59945000Y-75641141D02*
X59945000Y-75333859D01*
%TO.C,HER1*%
X41654999Y-75641141D02*
X41654999Y-75333859D01*
X40894999Y-75641141D02*
X40894999Y-75333859D01*
%TO.C,HECC42*%
X247083750Y-132529664D02*
X247083750Y-132745336D01*
X247803750Y-132529664D02*
X247803750Y-132745336D01*
%TO.C,HECC41*%
X225652500Y-132529664D02*
X225652500Y-132745336D01*
X226372500Y-132529664D02*
X226372500Y-132745336D01*
%TO.C,HECC40*%
X204221250Y-132529664D02*
X204221250Y-132745336D01*
X204941250Y-132529664D02*
X204941250Y-132745336D01*
%TO.C,HECC39*%
X170883750Y-132529664D02*
X170883750Y-132745336D01*
X171603750Y-132529664D02*
X171603750Y-132745336D01*
%TO.C,HECC38*%
X123258750Y-132529664D02*
X123258750Y-132745336D01*
X123978750Y-132529664D02*
X123978750Y-132745336D01*
%TO.C,HECC37*%
X78015000Y-132529664D02*
X78015000Y-132745336D01*
X78735000Y-132529664D02*
X78735000Y-132745336D01*
%TO.C,HECC36*%
X58965000Y-132529664D02*
X58965000Y-132745336D01*
X59685000Y-132529664D02*
X59685000Y-132745336D01*
%TO.C,HECC35*%
X39914999Y-132529664D02*
X39914999Y-132745336D01*
X40634999Y-132529664D02*
X40634999Y-132745336D01*
%TO.C,HECC34*%
X242321250Y-113479664D02*
X242321250Y-113695336D01*
X243041250Y-113479664D02*
X243041250Y-113695336D01*
%TO.C,HECC33*%
X216127500Y-113479664D02*
X216127500Y-113695336D01*
X216847500Y-113479664D02*
X216847500Y-113695336D01*
%TO.C,HECC32*%
X197077500Y-113479664D02*
X197077500Y-113695336D01*
X197797500Y-113479664D02*
X197797500Y-113695336D01*
%TO.C,HECC31*%
X178027500Y-113479664D02*
X178027500Y-113695336D01*
X178747500Y-113479664D02*
X178747500Y-113695336D01*
%TO.C,HECC30*%
X158977500Y-113479664D02*
X158977500Y-113695336D01*
X159697500Y-113479664D02*
X159697500Y-113695336D01*
%TO.C,HECC29*%
X139927500Y-113479664D02*
X139927500Y-113695336D01*
X140647500Y-113479664D02*
X140647500Y-113695336D01*
%TO.C,HECC28*%
X120877500Y-113479664D02*
X120877500Y-113695336D01*
X121597500Y-113479664D02*
X121597500Y-113695336D01*
%TO.C,HECC27*%
X101827500Y-113479664D02*
X101827500Y-113695336D01*
X102547500Y-113479664D02*
X102547500Y-113695336D01*
%TO.C,HECC26*%
X80396250Y-113479664D02*
X80396250Y-113695336D01*
X81116250Y-113479664D02*
X81116250Y-113695336D01*
%TO.C,HECC25*%
X58965000Y-113479664D02*
X58965000Y-113695336D01*
X59685000Y-113479664D02*
X59685000Y-113695336D01*
%TO.C,HECC24*%
X39914999Y-113479664D02*
X39914999Y-113695336D01*
X40634999Y-113479664D02*
X40634999Y-113695336D01*
%TO.C,HECC23*%
X247083750Y-94429664D02*
X247083750Y-94645336D01*
X247803750Y-94429664D02*
X247803750Y-94645336D01*
%TO.C,HECC22*%
X225652500Y-94429664D02*
X225652500Y-94645336D01*
X226372500Y-94429664D02*
X226372500Y-94645336D01*
%TO.C,HECC21*%
X206602500Y-94429664D02*
X206602500Y-94645336D01*
X207322500Y-94429664D02*
X207322500Y-94645336D01*
%TO.C,HECC20*%
X187552500Y-94429664D02*
X187552500Y-94645336D01*
X188272500Y-94429664D02*
X188272500Y-94645336D01*
%TO.C,HECC19*%
X168502500Y-94429664D02*
X168502500Y-94645336D01*
X169222500Y-94429664D02*
X169222500Y-94645336D01*
%TO.C,HECC18*%
X149452500Y-94429664D02*
X149452500Y-94645336D01*
X150172500Y-94429664D02*
X150172500Y-94645336D01*
%TO.C,HECC17*%
X130402500Y-94429664D02*
X130402500Y-94645336D01*
X131122500Y-94429664D02*
X131122500Y-94645336D01*
%TO.C,HECC16*%
X111352500Y-94429664D02*
X111352500Y-94645336D01*
X112072500Y-94429664D02*
X112072500Y-94645336D01*
%TO.C,HECC15*%
X92302500Y-94429664D02*
X92302500Y-94645336D01*
X93022500Y-94429664D02*
X93022500Y-94645336D01*
%TO.C,HECC14*%
X73252500Y-94429664D02*
X73252500Y-94645336D01*
X73972500Y-94429664D02*
X73972500Y-94645336D01*
%TO.C,HECC13*%
X47058750Y-94429664D02*
X47058750Y-94645336D01*
X47778750Y-94429664D02*
X47778750Y-94645336D01*
%TO.C,HECC12*%
X249465000Y-75379664D02*
X249465000Y-75595336D01*
X250185000Y-75379664D02*
X250185000Y-75595336D01*
%TO.C,HECC11*%
X230415000Y-75379664D02*
X230415000Y-75595336D01*
X231135000Y-75379664D02*
X231135000Y-75595336D01*
%TO.C,HECC10*%
X211365000Y-75379664D02*
X211365000Y-75595336D01*
X212085000Y-75379664D02*
X212085000Y-75595336D01*
%TO.C,HECC9*%
X192315000Y-75379664D02*
X192315000Y-75595336D01*
X193035000Y-75379664D02*
X193035000Y-75595336D01*
%TO.C,HECC8*%
X173265000Y-75379664D02*
X173265000Y-75595336D01*
X173985000Y-75379664D02*
X173985000Y-75595336D01*
%TO.C,HECC7*%
X154215000Y-75379664D02*
X154215000Y-75595336D01*
X154935000Y-75379664D02*
X154935000Y-75595336D01*
%TO.C,HECC6*%
X135165000Y-75379664D02*
X135165000Y-75595336D01*
X135885000Y-75379664D02*
X135885000Y-75595336D01*
%TO.C,HECC5*%
X116115000Y-75379664D02*
X116115000Y-75595336D01*
X116835000Y-75379664D02*
X116835000Y-75595336D01*
%TO.C,HECC4*%
X97064999Y-75379664D02*
X97064999Y-75595336D01*
X97784999Y-75379664D02*
X97784999Y-75595336D01*
%TO.C,HECC3*%
X78015000Y-75379664D02*
X78015000Y-75595336D01*
X78735000Y-75379664D02*
X78735000Y-75595336D01*
%TO.C,HECC2*%
X58965000Y-75379664D02*
X58965000Y-75595336D01*
X59685000Y-75379664D02*
X59685000Y-75595336D01*
%TO.C,HECC1*%
X39914999Y-75379664D02*
X39914999Y-75595336D01*
X40634999Y-75379664D02*
X40634999Y-75595336D01*
%TO.C,HEC42*%
X252983750Y-132529664D02*
X252983750Y-132745336D01*
X253703750Y-132529664D02*
X253703750Y-132745336D01*
%TO.C,HEC41*%
X231552500Y-132529664D02*
X231552500Y-132745336D01*
X232272500Y-132529664D02*
X232272500Y-132745336D01*
%TO.C,HEC40*%
X210121250Y-132529664D02*
X210121250Y-132745336D01*
X210841250Y-132529664D02*
X210841250Y-132745336D01*
%TO.C,HEC39*%
X176783750Y-132529664D02*
X176783750Y-132745336D01*
X177503750Y-132529664D02*
X177503750Y-132745336D01*
%TO.C,HEC38*%
X129158750Y-132529664D02*
X129158750Y-132745336D01*
X129878750Y-132529664D02*
X129878750Y-132745336D01*
%TO.C,HEC37*%
X83915000Y-132529664D02*
X83915000Y-132745336D01*
X84635000Y-132529664D02*
X84635000Y-132745336D01*
%TO.C,HEC36*%
X64865000Y-132529664D02*
X64865000Y-132745336D01*
X65585000Y-132529664D02*
X65585000Y-132745336D01*
%TO.C,HEC35*%
X45815000Y-132529664D02*
X45815000Y-132745336D01*
X46535000Y-132529664D02*
X46535000Y-132745336D01*
%TO.C,HEC34*%
X248221250Y-113479664D02*
X248221250Y-113695336D01*
X248941250Y-113479664D02*
X248941250Y-113695336D01*
%TO.C,HEC33*%
X222027500Y-113479664D02*
X222027500Y-113695336D01*
X222747500Y-113479664D02*
X222747500Y-113695336D01*
%TO.C,HEC32*%
X202977500Y-113479664D02*
X202977500Y-113695336D01*
X203697500Y-113479664D02*
X203697500Y-113695336D01*
%TO.C,HEC31*%
X183927500Y-113479664D02*
X183927500Y-113695336D01*
X184647500Y-113479664D02*
X184647500Y-113695336D01*
%TO.C,HEC30*%
X164877500Y-113479664D02*
X164877500Y-113695336D01*
X165597500Y-113479664D02*
X165597500Y-113695336D01*
%TO.C,HEC29*%
X145827500Y-113479664D02*
X145827500Y-113695336D01*
X146547500Y-113479664D02*
X146547500Y-113695336D01*
%TO.C,HEC28*%
X126777500Y-113479664D02*
X126777500Y-113695336D01*
X127497500Y-113479664D02*
X127497500Y-113695336D01*
%TO.C,HEC27*%
X107727500Y-113479664D02*
X107727500Y-113695336D01*
X108447500Y-113479664D02*
X108447500Y-113695336D01*
%TO.C,HEC26*%
X86296250Y-113479664D02*
X86296250Y-113695336D01*
X87016250Y-113479664D02*
X87016250Y-113695336D01*
%TO.C,HEC25*%
X64865000Y-113479664D02*
X64865000Y-113695336D01*
X65585000Y-113479664D02*
X65585000Y-113695336D01*
%TO.C,HEC24*%
X45815000Y-113479664D02*
X45815000Y-113695336D01*
X46535000Y-113479664D02*
X46535000Y-113695336D01*
%TO.C,HEC23*%
X252983750Y-94429664D02*
X252983750Y-94645336D01*
X253703750Y-94429664D02*
X253703750Y-94645336D01*
%TO.C,HEC22*%
X231552500Y-94429664D02*
X231552500Y-94645336D01*
X232272500Y-94429664D02*
X232272500Y-94645336D01*
%TO.C,HEC21*%
X212502500Y-94429664D02*
X212502500Y-94645336D01*
X213222500Y-94429664D02*
X213222500Y-94645336D01*
%TO.C,HEC20*%
X193452500Y-94429664D02*
X193452500Y-94645336D01*
X194172500Y-94429664D02*
X194172500Y-94645336D01*
%TO.C,HEC19*%
X174402500Y-94429664D02*
X174402500Y-94645336D01*
X175122500Y-94429664D02*
X175122500Y-94645336D01*
%TO.C,HEC18*%
X155352500Y-94429664D02*
X155352500Y-94645336D01*
X156072500Y-94429664D02*
X156072500Y-94645336D01*
%TO.C,HEC17*%
X136302500Y-94429664D02*
X136302500Y-94645336D01*
X137022500Y-94429664D02*
X137022500Y-94645336D01*
%TO.C,HEC16*%
X117252500Y-94429664D02*
X117252500Y-94645336D01*
X117972500Y-94429664D02*
X117972500Y-94645336D01*
%TO.C,HEC15*%
X98202500Y-94429664D02*
X98202500Y-94645336D01*
X98922500Y-94429664D02*
X98922500Y-94645336D01*
%TO.C,HEC14*%
X79152500Y-94429664D02*
X79152500Y-94645336D01*
X79872500Y-94429664D02*
X79872500Y-94645336D01*
%TO.C,HEC13*%
X52958750Y-94429664D02*
X52958750Y-94645336D01*
X53678750Y-94429664D02*
X53678750Y-94645336D01*
%TO.C,HEC12*%
X255365000Y-75379664D02*
X255365000Y-75595336D01*
X256085000Y-75379664D02*
X256085000Y-75595336D01*
%TO.C,HEC11*%
X236315000Y-75379664D02*
X236315000Y-75595336D01*
X237035000Y-75379664D02*
X237035000Y-75595336D01*
%TO.C,HEC10*%
X217265000Y-75379664D02*
X217265000Y-75595336D01*
X217985000Y-75379664D02*
X217985000Y-75595336D01*
%TO.C,HEC9*%
X198215000Y-75379664D02*
X198215000Y-75595336D01*
X198935000Y-75379664D02*
X198935000Y-75595336D01*
%TO.C,HEC8*%
X179165000Y-75379664D02*
X179165000Y-75595336D01*
X179885000Y-75379664D02*
X179885000Y-75595336D01*
%TO.C,HEC7*%
X160115000Y-75379664D02*
X160115000Y-75595336D01*
X160835000Y-75379664D02*
X160835000Y-75595336D01*
%TO.C,HEC6*%
X141065000Y-75379664D02*
X141065000Y-75595336D01*
X141785000Y-75379664D02*
X141785000Y-75595336D01*
%TO.C,HEC5*%
X122015000Y-75379664D02*
X122015000Y-75595336D01*
X122735000Y-75379664D02*
X122735000Y-75595336D01*
%TO.C,HEC4*%
X102965000Y-75379664D02*
X102965000Y-75595336D01*
X103685000Y-75379664D02*
X103685000Y-75595336D01*
%TO.C,HEC3*%
X83915000Y-75379664D02*
X83915000Y-75595336D01*
X84635000Y-75379664D02*
X84635000Y-75595336D01*
%TO.C,HEC2*%
X64865000Y-75379664D02*
X64865000Y-75595336D01*
X65585000Y-75379664D02*
X65585000Y-75595336D01*
%TO.C,HEC1*%
X45815000Y-75379664D02*
X45815000Y-75595336D01*
X46535000Y-75379664D02*
X46535000Y-75595336D01*
%TO.C,HE42*%
X252733750Y-132652500D02*
X252403750Y-132412500D01*
X252733750Y-132172500D01*
X252733750Y-132652500D01*
G36*
X252733750Y-132652500D02*
G01*
X252403750Y-132412500D01*
X252733750Y-132172500D01*
X252733750Y-132652500D01*
G37*
X249333750Y-133575000D02*
X249333750Y-134225000D01*
X249333750Y-133575000D02*
X249333750Y-132925000D01*
X252453750Y-133575000D02*
X252453750Y-134225000D01*
X252453750Y-133575000D02*
X252453750Y-132925000D01*
%TO.C,HE41*%
X231302500Y-132652500D02*
X230972500Y-132412500D01*
X231302500Y-132172500D01*
X231302500Y-132652500D01*
G36*
X231302500Y-132652500D02*
G01*
X230972500Y-132412500D01*
X231302500Y-132172500D01*
X231302500Y-132652500D01*
G37*
X227902500Y-133575000D02*
X227902500Y-134225000D01*
X227902500Y-133575000D02*
X227902500Y-132925000D01*
X231022500Y-133575000D02*
X231022500Y-134225000D01*
X231022500Y-133575000D02*
X231022500Y-132925000D01*
%TO.C,HE40*%
X209871250Y-132652500D02*
X209541250Y-132412500D01*
X209871250Y-132172500D01*
X209871250Y-132652500D01*
G36*
X209871250Y-132652500D02*
G01*
X209541250Y-132412500D01*
X209871250Y-132172500D01*
X209871250Y-132652500D01*
G37*
X206471250Y-133575000D02*
X206471250Y-134225000D01*
X206471250Y-133575000D02*
X206471250Y-132925000D01*
X209591250Y-133575000D02*
X209591250Y-134225000D01*
X209591250Y-133575000D02*
X209591250Y-132925000D01*
%TO.C,HE39*%
X176533750Y-132652500D02*
X176203750Y-132412500D01*
X176533750Y-132172500D01*
X176533750Y-132652500D01*
G36*
X176533750Y-132652500D02*
G01*
X176203750Y-132412500D01*
X176533750Y-132172500D01*
X176533750Y-132652500D01*
G37*
X173133750Y-133575000D02*
X173133750Y-134225000D01*
X173133750Y-133575000D02*
X173133750Y-132925000D01*
X176253750Y-133575000D02*
X176253750Y-134225000D01*
X176253750Y-133575000D02*
X176253750Y-132925000D01*
%TO.C,HE38*%
X128908750Y-132652500D02*
X128578750Y-132412500D01*
X128908750Y-132172500D01*
X128908750Y-132652500D01*
G36*
X128908750Y-132652500D02*
G01*
X128578750Y-132412500D01*
X128908750Y-132172500D01*
X128908750Y-132652500D01*
G37*
X125508750Y-133575000D02*
X125508750Y-134225000D01*
X125508750Y-133575000D02*
X125508750Y-132925000D01*
X128628750Y-133575000D02*
X128628750Y-134225000D01*
X128628750Y-133575000D02*
X128628750Y-132925000D01*
%TO.C,HE37*%
X83665000Y-132652500D02*
X83335000Y-132412500D01*
X83665000Y-132172500D01*
X83665000Y-132652500D01*
G36*
X83665000Y-132652500D02*
G01*
X83335000Y-132412500D01*
X83665000Y-132172500D01*
X83665000Y-132652500D01*
G37*
X80265000Y-133575000D02*
X80265000Y-134225000D01*
X80265000Y-133575000D02*
X80265000Y-132925000D01*
X83385000Y-133575000D02*
X83385000Y-134225000D01*
X83385000Y-133575000D02*
X83385000Y-132925000D01*
%TO.C,HE36*%
X64615000Y-132652500D02*
X64285000Y-132412500D01*
X64615000Y-132172500D01*
X64615000Y-132652500D01*
G36*
X64615000Y-132652500D02*
G01*
X64285000Y-132412500D01*
X64615000Y-132172500D01*
X64615000Y-132652500D01*
G37*
X61215000Y-133575000D02*
X61215000Y-134225000D01*
X61215000Y-133575000D02*
X61215000Y-132925000D01*
X64335000Y-133575000D02*
X64335000Y-134225000D01*
X64335000Y-133575000D02*
X64335000Y-132925000D01*
%TO.C,HE35*%
X45565000Y-132652500D02*
X45235000Y-132412500D01*
X45565000Y-132172500D01*
X45565000Y-132652500D01*
G36*
X45565000Y-132652500D02*
G01*
X45235000Y-132412500D01*
X45565000Y-132172500D01*
X45565000Y-132652500D01*
G37*
X42165000Y-133575000D02*
X42165000Y-134225000D01*
X42165000Y-133575000D02*
X42165000Y-132925000D01*
X45285000Y-133575000D02*
X45285000Y-134225000D01*
X45285000Y-133575000D02*
X45285000Y-132925000D01*
%TO.C,HE34*%
X247971250Y-113602500D02*
X247641250Y-113362500D01*
X247971250Y-113122500D01*
X247971250Y-113602500D01*
G36*
X247971250Y-113602500D02*
G01*
X247641250Y-113362500D01*
X247971250Y-113122500D01*
X247971250Y-113602500D01*
G37*
X244571250Y-114525000D02*
X244571250Y-115175000D01*
X244571250Y-114525000D02*
X244571250Y-113875000D01*
X247691250Y-114525000D02*
X247691250Y-115175000D01*
X247691250Y-114525000D02*
X247691250Y-113875000D01*
%TO.C,HE33*%
X221777500Y-113602500D02*
X221447500Y-113362500D01*
X221777500Y-113122500D01*
X221777500Y-113602500D01*
G36*
X221777500Y-113602500D02*
G01*
X221447500Y-113362500D01*
X221777500Y-113122500D01*
X221777500Y-113602500D01*
G37*
X218377500Y-114525000D02*
X218377500Y-115175000D01*
X218377500Y-114525000D02*
X218377500Y-113875000D01*
X221497500Y-114525000D02*
X221497500Y-115175000D01*
X221497500Y-114525000D02*
X221497500Y-113875000D01*
%TO.C,HE32*%
X202727500Y-113602500D02*
X202397500Y-113362500D01*
X202727500Y-113122500D01*
X202727500Y-113602500D01*
G36*
X202727500Y-113602500D02*
G01*
X202397500Y-113362500D01*
X202727500Y-113122500D01*
X202727500Y-113602500D01*
G37*
X199327500Y-114525000D02*
X199327500Y-115175000D01*
X199327500Y-114525000D02*
X199327500Y-113875000D01*
X202447500Y-114525000D02*
X202447500Y-115175000D01*
X202447500Y-114525000D02*
X202447500Y-113875000D01*
%TO.C,HE31*%
X183677500Y-113602500D02*
X183347500Y-113362500D01*
X183677500Y-113122500D01*
X183677500Y-113602500D01*
G36*
X183677500Y-113602500D02*
G01*
X183347500Y-113362500D01*
X183677500Y-113122500D01*
X183677500Y-113602500D01*
G37*
X180277500Y-114525000D02*
X180277500Y-115175000D01*
X180277500Y-114525000D02*
X180277500Y-113875000D01*
X183397500Y-114525000D02*
X183397500Y-115175000D01*
X183397500Y-114525000D02*
X183397500Y-113875000D01*
%TO.C,HE30*%
X164627500Y-113602500D02*
X164297500Y-113362500D01*
X164627500Y-113122500D01*
X164627500Y-113602500D01*
G36*
X164627500Y-113602500D02*
G01*
X164297500Y-113362500D01*
X164627500Y-113122500D01*
X164627500Y-113602500D01*
G37*
X161227500Y-114525000D02*
X161227500Y-115175000D01*
X161227500Y-114525000D02*
X161227500Y-113875000D01*
X164347500Y-114525000D02*
X164347500Y-115175000D01*
X164347500Y-114525000D02*
X164347500Y-113875000D01*
%TO.C,HE29*%
X145577500Y-113602500D02*
X145247500Y-113362500D01*
X145577500Y-113122500D01*
X145577500Y-113602500D01*
G36*
X145577500Y-113602500D02*
G01*
X145247500Y-113362500D01*
X145577500Y-113122500D01*
X145577500Y-113602500D01*
G37*
X142177500Y-114525000D02*
X142177500Y-115175000D01*
X142177500Y-114525000D02*
X142177500Y-113875000D01*
X145297500Y-114525000D02*
X145297500Y-115175000D01*
X145297500Y-114525000D02*
X145297500Y-113875000D01*
%TO.C,HE28*%
X126527500Y-113602500D02*
X126197500Y-113362500D01*
X126527500Y-113122500D01*
X126527500Y-113602500D01*
G36*
X126527500Y-113602500D02*
G01*
X126197500Y-113362500D01*
X126527500Y-113122500D01*
X126527500Y-113602500D01*
G37*
X123127500Y-114525000D02*
X123127500Y-115175000D01*
X123127500Y-114525000D02*
X123127500Y-113875000D01*
X126247500Y-114525000D02*
X126247500Y-115175000D01*
X126247500Y-114525000D02*
X126247500Y-113875000D01*
%TO.C,HE27*%
X107477500Y-113602500D02*
X107147500Y-113362500D01*
X107477500Y-113122500D01*
X107477500Y-113602500D01*
G36*
X107477500Y-113602500D02*
G01*
X107147500Y-113362500D01*
X107477500Y-113122500D01*
X107477500Y-113602500D01*
G37*
X104077500Y-114525000D02*
X104077500Y-115175000D01*
X104077500Y-114525000D02*
X104077500Y-113875000D01*
X107197500Y-114525000D02*
X107197500Y-115175000D01*
X107197500Y-114525000D02*
X107197500Y-113875000D01*
%TO.C,HE26*%
X86046250Y-113602500D02*
X85716250Y-113362500D01*
X86046250Y-113122500D01*
X86046250Y-113602500D01*
G36*
X86046250Y-113602500D02*
G01*
X85716250Y-113362500D01*
X86046250Y-113122500D01*
X86046250Y-113602500D01*
G37*
X82646250Y-114525000D02*
X82646250Y-115175000D01*
X82646250Y-114525000D02*
X82646250Y-113875000D01*
X85766250Y-114525000D02*
X85766250Y-115175000D01*
X85766250Y-114525000D02*
X85766250Y-113875000D01*
%TO.C,HE25*%
X64615000Y-113602500D02*
X64285000Y-113362500D01*
X64615000Y-113122500D01*
X64615000Y-113602500D01*
G36*
X64615000Y-113602500D02*
G01*
X64285000Y-113362500D01*
X64615000Y-113122500D01*
X64615000Y-113602500D01*
G37*
X61215000Y-114525000D02*
X61215000Y-115175000D01*
X61215000Y-114525000D02*
X61215000Y-113875000D01*
X64335000Y-114525000D02*
X64335000Y-115175000D01*
X64335000Y-114525000D02*
X64335000Y-113875000D01*
%TO.C,HE24*%
X45565000Y-113602500D02*
X45235000Y-113362500D01*
X45565000Y-113122500D01*
X45565000Y-113602500D01*
G36*
X45565000Y-113602500D02*
G01*
X45235000Y-113362500D01*
X45565000Y-113122500D01*
X45565000Y-113602500D01*
G37*
X42165000Y-114525000D02*
X42165000Y-115175000D01*
X42165000Y-114525000D02*
X42165000Y-113875000D01*
X45285000Y-114525000D02*
X45285000Y-115175000D01*
X45285000Y-114525000D02*
X45285000Y-113875000D01*
%TO.C,HE23*%
X252733750Y-94552500D02*
X252403750Y-94312500D01*
X252733750Y-94072500D01*
X252733750Y-94552500D01*
G36*
X252733750Y-94552500D02*
G01*
X252403750Y-94312500D01*
X252733750Y-94072500D01*
X252733750Y-94552500D01*
G37*
X249333750Y-95475000D02*
X249333750Y-96125000D01*
X249333750Y-95475000D02*
X249333750Y-94825000D01*
X252453750Y-95475000D02*
X252453750Y-96125000D01*
X252453750Y-95475000D02*
X252453750Y-94825000D01*
%TO.C,HE22*%
X231302500Y-94552500D02*
X230972500Y-94312500D01*
X231302500Y-94072500D01*
X231302500Y-94552500D01*
G36*
X231302500Y-94552500D02*
G01*
X230972500Y-94312500D01*
X231302500Y-94072500D01*
X231302500Y-94552500D01*
G37*
X227902500Y-95475000D02*
X227902500Y-96125000D01*
X227902500Y-95475000D02*
X227902500Y-94825000D01*
X231022500Y-95475000D02*
X231022500Y-96125000D01*
X231022500Y-95475000D02*
X231022500Y-94825000D01*
%TO.C,HE21*%
X212252500Y-94552500D02*
X211922500Y-94312500D01*
X212252500Y-94072500D01*
X212252500Y-94552500D01*
G36*
X212252500Y-94552500D02*
G01*
X211922500Y-94312500D01*
X212252500Y-94072500D01*
X212252500Y-94552500D01*
G37*
X208852500Y-95475000D02*
X208852500Y-96125000D01*
X208852500Y-95475000D02*
X208852500Y-94825000D01*
X211972500Y-95475000D02*
X211972500Y-96125000D01*
X211972500Y-95475000D02*
X211972500Y-94825000D01*
%TO.C,HE20*%
X193202500Y-94552500D02*
X192872500Y-94312500D01*
X193202500Y-94072500D01*
X193202500Y-94552500D01*
G36*
X193202500Y-94552500D02*
G01*
X192872500Y-94312500D01*
X193202500Y-94072500D01*
X193202500Y-94552500D01*
G37*
X189802500Y-95475000D02*
X189802500Y-96125000D01*
X189802500Y-95475000D02*
X189802500Y-94825000D01*
X192922500Y-95475000D02*
X192922500Y-96125000D01*
X192922500Y-95475000D02*
X192922500Y-94825000D01*
%TO.C,HE19*%
X174152500Y-94552500D02*
X173822500Y-94312500D01*
X174152500Y-94072500D01*
X174152500Y-94552500D01*
G36*
X174152500Y-94552500D02*
G01*
X173822500Y-94312500D01*
X174152500Y-94072500D01*
X174152500Y-94552500D01*
G37*
X170752500Y-95475000D02*
X170752500Y-96125000D01*
X170752500Y-95475000D02*
X170752500Y-94825000D01*
X173872500Y-95475000D02*
X173872500Y-96125000D01*
X173872500Y-95475000D02*
X173872500Y-94825000D01*
%TO.C,HE18*%
X155102500Y-94552500D02*
X154772500Y-94312500D01*
X155102500Y-94072500D01*
X155102500Y-94552500D01*
G36*
X155102500Y-94552500D02*
G01*
X154772500Y-94312500D01*
X155102500Y-94072500D01*
X155102500Y-94552500D01*
G37*
X151702500Y-95475000D02*
X151702500Y-96125000D01*
X151702500Y-95475000D02*
X151702500Y-94825000D01*
X154822500Y-95475000D02*
X154822500Y-96125000D01*
X154822500Y-95475000D02*
X154822500Y-94825000D01*
%TO.C,HE17*%
X136052500Y-94552500D02*
X135722500Y-94312500D01*
X136052500Y-94072500D01*
X136052500Y-94552500D01*
G36*
X136052500Y-94552500D02*
G01*
X135722500Y-94312500D01*
X136052500Y-94072500D01*
X136052500Y-94552500D01*
G37*
X132652500Y-95475000D02*
X132652500Y-96125000D01*
X132652500Y-95475000D02*
X132652500Y-94825000D01*
X135772500Y-95475000D02*
X135772500Y-96125000D01*
X135772500Y-95475000D02*
X135772500Y-94825000D01*
%TO.C,HE16*%
X117002500Y-94552500D02*
X116672500Y-94312500D01*
X117002500Y-94072500D01*
X117002500Y-94552500D01*
G36*
X117002500Y-94552500D02*
G01*
X116672500Y-94312500D01*
X117002500Y-94072500D01*
X117002500Y-94552500D01*
G37*
X113602500Y-95475000D02*
X113602500Y-96125000D01*
X113602500Y-95475000D02*
X113602500Y-94825000D01*
X116722500Y-95475000D02*
X116722500Y-96125000D01*
X116722500Y-95475000D02*
X116722500Y-94825000D01*
%TO.C,HE15*%
X97952500Y-94552500D02*
X97622500Y-94312500D01*
X97952500Y-94072500D01*
X97952500Y-94552500D01*
G36*
X97952500Y-94552500D02*
G01*
X97622500Y-94312500D01*
X97952500Y-94072500D01*
X97952500Y-94552500D01*
G37*
X94552500Y-95475000D02*
X94552500Y-96125000D01*
X94552500Y-95475000D02*
X94552500Y-94825000D01*
X97672500Y-95475000D02*
X97672500Y-96125000D01*
X97672500Y-95475000D02*
X97672500Y-94825000D01*
%TO.C,HE14*%
X78902500Y-94552500D02*
X78572500Y-94312500D01*
X78902500Y-94072500D01*
X78902500Y-94552500D01*
G36*
X78902500Y-94552500D02*
G01*
X78572500Y-94312500D01*
X78902500Y-94072500D01*
X78902500Y-94552500D01*
G37*
X75502500Y-95475000D02*
X75502500Y-96125000D01*
X75502500Y-95475000D02*
X75502500Y-94825000D01*
X78622500Y-95475000D02*
X78622500Y-96125000D01*
X78622500Y-95475000D02*
X78622500Y-94825000D01*
%TO.C,HE13*%
X52708750Y-94552500D02*
X52378750Y-94312500D01*
X52708750Y-94072500D01*
X52708750Y-94552500D01*
G36*
X52708750Y-94552500D02*
G01*
X52378750Y-94312500D01*
X52708750Y-94072500D01*
X52708750Y-94552500D01*
G37*
X49308750Y-95475000D02*
X49308750Y-96125000D01*
X49308750Y-95475000D02*
X49308750Y-94825000D01*
X52428750Y-95475000D02*
X52428750Y-96125000D01*
X52428750Y-95475000D02*
X52428750Y-94825000D01*
%TO.C,HE12*%
X255115000Y-75502500D02*
X254785000Y-75262500D01*
X255115000Y-75022500D01*
X255115000Y-75502500D01*
G36*
X255115000Y-75502500D02*
G01*
X254785000Y-75262500D01*
X255115000Y-75022500D01*
X255115000Y-75502500D01*
G37*
X251715000Y-76425000D02*
X251715000Y-77075000D01*
X251715000Y-76425000D02*
X251715000Y-75775000D01*
X254835000Y-76425000D02*
X254835000Y-77075000D01*
X254835000Y-76425000D02*
X254835000Y-75775000D01*
%TO.C,HE11*%
X236065000Y-75502500D02*
X235735000Y-75262500D01*
X236065000Y-75022500D01*
X236065000Y-75502500D01*
G36*
X236065000Y-75502500D02*
G01*
X235735000Y-75262500D01*
X236065000Y-75022500D01*
X236065000Y-75502500D01*
G37*
X232665000Y-76425000D02*
X232665000Y-77075000D01*
X232665000Y-76425000D02*
X232665000Y-75775000D01*
X235785000Y-76425000D02*
X235785000Y-77075000D01*
X235785000Y-76425000D02*
X235785000Y-75775000D01*
%TO.C,HE10*%
X217015000Y-75502500D02*
X216685000Y-75262500D01*
X217015000Y-75022500D01*
X217015000Y-75502500D01*
G36*
X217015000Y-75502500D02*
G01*
X216685000Y-75262500D01*
X217015000Y-75022500D01*
X217015000Y-75502500D01*
G37*
X213615000Y-76425000D02*
X213615000Y-77075000D01*
X213615000Y-76425000D02*
X213615000Y-75775000D01*
X216735000Y-76425000D02*
X216735000Y-77075000D01*
X216735000Y-76425000D02*
X216735000Y-75775000D01*
%TO.C,HE9*%
X197965000Y-75502500D02*
X197635000Y-75262500D01*
X197965000Y-75022500D01*
X197965000Y-75502500D01*
G36*
X197965000Y-75502500D02*
G01*
X197635000Y-75262500D01*
X197965000Y-75022500D01*
X197965000Y-75502500D01*
G37*
X194565000Y-76425000D02*
X194565000Y-77075000D01*
X194565000Y-76425000D02*
X194565000Y-75775000D01*
X197685000Y-76425000D02*
X197685000Y-77075000D01*
X197685000Y-76425000D02*
X197685000Y-75775000D01*
%TO.C,HE8*%
X178915000Y-75502500D02*
X178585000Y-75262500D01*
X178915000Y-75022500D01*
X178915000Y-75502500D01*
G36*
X178915000Y-75502500D02*
G01*
X178585000Y-75262500D01*
X178915000Y-75022500D01*
X178915000Y-75502500D01*
G37*
X175515000Y-76425000D02*
X175515000Y-77075000D01*
X175515000Y-76425000D02*
X175515000Y-75775000D01*
X178635000Y-76425000D02*
X178635000Y-77075000D01*
X178635000Y-76425000D02*
X178635000Y-75775000D01*
%TO.C,HE7*%
X159865000Y-75502500D02*
X159535000Y-75262500D01*
X159865000Y-75022500D01*
X159865000Y-75502500D01*
G36*
X159865000Y-75502500D02*
G01*
X159535000Y-75262500D01*
X159865000Y-75022500D01*
X159865000Y-75502500D01*
G37*
X156465000Y-76425000D02*
X156465000Y-77075000D01*
X156465000Y-76425000D02*
X156465000Y-75775000D01*
X159585000Y-76425000D02*
X159585000Y-77075000D01*
X159585000Y-76425000D02*
X159585000Y-75775000D01*
%TO.C,HE6*%
X140815000Y-75502500D02*
X140485000Y-75262500D01*
X140815000Y-75022500D01*
X140815000Y-75502500D01*
G36*
X140815000Y-75502500D02*
G01*
X140485000Y-75262500D01*
X140815000Y-75022500D01*
X140815000Y-75502500D01*
G37*
X137415000Y-76425000D02*
X137415000Y-77075000D01*
X137415000Y-76425000D02*
X137415000Y-75775000D01*
X140535000Y-76425000D02*
X140535000Y-77075000D01*
X140535000Y-76425000D02*
X140535000Y-75775000D01*
%TO.C,HE5*%
X121765000Y-75502500D02*
X121435000Y-75262500D01*
X121765000Y-75022500D01*
X121765000Y-75502500D01*
G36*
X121765000Y-75502500D02*
G01*
X121435000Y-75262500D01*
X121765000Y-75022500D01*
X121765000Y-75502500D01*
G37*
X118365000Y-76425000D02*
X118365000Y-77075000D01*
X118365000Y-76425000D02*
X118365000Y-75775000D01*
X121485000Y-76425000D02*
X121485000Y-77075000D01*
X121485000Y-76425000D02*
X121485000Y-75775000D01*
%TO.C,HE4*%
X102715000Y-75502500D02*
X102385000Y-75262500D01*
X102715000Y-75022500D01*
X102715000Y-75502500D01*
G36*
X102715000Y-75502500D02*
G01*
X102385000Y-75262500D01*
X102715000Y-75022500D01*
X102715000Y-75502500D01*
G37*
X99315000Y-76425000D02*
X99315000Y-77075000D01*
X99315000Y-76425000D02*
X99315000Y-75775000D01*
X102435000Y-76425000D02*
X102435000Y-77075000D01*
X102435000Y-76425000D02*
X102435000Y-75775000D01*
%TO.C,HE3*%
X83665000Y-75502500D02*
X83335000Y-75262500D01*
X83665000Y-75022500D01*
X83665000Y-75502500D01*
G36*
X83665000Y-75502500D02*
G01*
X83335000Y-75262500D01*
X83665000Y-75022500D01*
X83665000Y-75502500D01*
G37*
X80265000Y-76425000D02*
X80265000Y-77075000D01*
X80265000Y-76425000D02*
X80265000Y-75775000D01*
X83385000Y-76425000D02*
X83385000Y-77075000D01*
X83385000Y-76425000D02*
X83385000Y-75775000D01*
%TO.C,HE2*%
X64615000Y-75502500D02*
X64285000Y-75262500D01*
X64615000Y-75022500D01*
X64615000Y-75502500D01*
G36*
X64615000Y-75502500D02*
G01*
X64285000Y-75262500D01*
X64615000Y-75022500D01*
X64615000Y-75502500D01*
G37*
X61215000Y-76425000D02*
X61215000Y-77075000D01*
X61215000Y-76425000D02*
X61215000Y-75775000D01*
X64335000Y-76425000D02*
X64335000Y-77075000D01*
X64335000Y-76425000D02*
X64335000Y-75775000D01*
%TO.C,HE1*%
X45565000Y-75502500D02*
X45235000Y-75262500D01*
X45565000Y-75022500D01*
X45565000Y-75502500D01*
G36*
X45565000Y-75502500D02*
G01*
X45235000Y-75262500D01*
X45565000Y-75022500D01*
X45565000Y-75502500D01*
G37*
X42165000Y-76425000D02*
X42165000Y-77075000D01*
X42165000Y-76425000D02*
X42165000Y-75775000D01*
X45285000Y-76425000D02*
X45285000Y-77075000D01*
X45285000Y-76425000D02*
X45285000Y-75775000D01*
%TO.C,CR_R1*%
X93520000Y-136246359D02*
X93520000Y-136553641D01*
X94280000Y-136246359D02*
X94280000Y-136553641D01*
%TO.C,CR_C2*%
X92540000Y-136292164D02*
X92540000Y-136507836D01*
X93260000Y-136292164D02*
X93260000Y-136507836D01*
%TO.C,CR_C1*%
X92540000Y-138292164D02*
X92540000Y-138507836D01*
X93260000Y-138292164D02*
X93260000Y-138507836D01*
D16*
%TO.C,CR1*%
X88325000Y-140028000D02*
X87725000Y-139428000D01*
X88325000Y-139428000D01*
X88325000Y-140028000D01*
G36*
X88325000Y-140028000D02*
G01*
X87725000Y-139428000D01*
X88325000Y-139428000D01*
X88325000Y-140028000D01*
G37*
D14*
%TO.C,Outline*%
X242925000Y-133525000D02*
G75*
G02*
X238925000Y-133525000I-2000000J0D01*
G01*
X238925000Y-133525000D02*
G75*
G02*
X242925000Y-133525000I2000000J0D01*
G01*
X242725000Y-90175000D02*
G75*
G02*
X238725000Y-90175000I-2000000J0D01*
G01*
X238725000Y-90175000D02*
G75*
G02*
X242725000Y-90175000I2000000J0D01*
G01*
X234925000Y-113275000D02*
G75*
G02*
X230925000Y-113275000I-2000000J0D01*
G01*
X230925000Y-113275000D02*
G75*
G02*
X234925000Y-113275000I2000000J0D01*
G01*
X66275000Y-94675000D02*
G75*
G02*
X62275000Y-94675000I-2000000J0D01*
G01*
X62275000Y-94675000D02*
G75*
G02*
X66275000Y-94675000I2000000J0D01*
G01*
X55775000Y-134450000D02*
G75*
G02*
X51775000Y-134450000I-2000000J0D01*
G01*
X51775000Y-134450000D02*
G75*
G02*
X55775000Y-134450000I2000000J0D01*
G01*
X38925000Y-94075000D02*
G75*
G02*
X34925000Y-94075000I-2000000J0D01*
G01*
X34925000Y-94075000D02*
G75*
G02*
X38925000Y-94075000I2000000J0D01*
G01*
D18*
X242175000Y-132275000D02*
X242925000Y-131525000D01*
X242165000Y-134765000D02*
X242915000Y-135515000D01*
X241975000Y-88925000D02*
X242725000Y-88175000D01*
X241965000Y-91415000D02*
X242715000Y-92165000D01*
X239675000Y-132275000D02*
X238925000Y-131525000D01*
X239665000Y-134765000D02*
X238915000Y-135515000D01*
X239475000Y-88925000D02*
X238725000Y-88175000D01*
X239465000Y-91415000D02*
X238715000Y-92165000D01*
X55025000Y-133200000D02*
X55775000Y-132450000D01*
X55015000Y-135690000D02*
X55765000Y-136440000D01*
X52525000Y-133200000D02*
X51775000Y-132450000D01*
X52515000Y-135690000D02*
X51765000Y-136440000D01*
X38175000Y-92825000D02*
X38925000Y-92075000D01*
X38165000Y-95315000D02*
X38915000Y-96065000D01*
X35675000Y-92825000D02*
X34925000Y-92075000D01*
X35665000Y-95315000D02*
X34915000Y-96065000D01*
D19*
%TO.C,esd_logo*%
G36*
X49214358Y-85958379D02*
G01*
X49290890Y-86028922D01*
X49307773Y-86069293D01*
X49272757Y-86123374D01*
X49175739Y-86240588D01*
X49028763Y-86407212D01*
X48843875Y-86609525D01*
X48680777Y-86783608D01*
X48053782Y-87445935D01*
X48053782Y-87753009D01*
X48056694Y-87917964D01*
X48064238Y-88029428D01*
X48072264Y-88060084D01*
X48126919Y-88038133D01*
X48239280Y-87983703D01*
X48272369Y-87966878D01*
X48447735Y-87907534D01*
X48660566Y-87876272D01*
X48720798Y-87874472D01*
X48960035Y-87901597D01*
X49178067Y-87973177D01*
X49356859Y-88076712D01*
X49478373Y-88199701D01*
X49524571Y-88329644D01*
X49503175Y-88416695D01*
X49452183Y-88479117D01*
X49335453Y-88605067D01*
X49163661Y-88783573D01*
X48947481Y-89003657D01*
X48697587Y-89254344D01*
X48445496Y-89504139D01*
X48094069Y-89847839D01*
X47804902Y-90122457D01*
X47566101Y-90335662D01*
X47365774Y-90495127D01*
X47192028Y-90608521D01*
X47032968Y-90683515D01*
X46876703Y-90727779D01*
X46711338Y-90748984D01*
X46524981Y-90754801D01*
X46506303Y-90754832D01*
X46260233Y-90746205D01*
X46070594Y-90713444D01*
X45887991Y-90646226D01*
X45809655Y-90609247D01*
X45625717Y-90506792D01*
X45463546Y-90395902D01*
X45385423Y-90327631D01*
X45257628Y-90191599D01*
X44854759Y-90590551D01*
X44667612Y-90771336D01*
X44537163Y-90883904D01*
X44448170Y-90938870D01*
X44385395Y-90946851D01*
X44358508Y-90936218D01*
X44281133Y-90863669D01*
X44265126Y-90818662D01*
X44301919Y-90770732D01*
X44408078Y-90654060D01*
X44577279Y-90475138D01*
X44803194Y-90240459D01*
X45079498Y-89956516D01*
X45084487Y-89951428D01*
X45494470Y-89951428D01*
X45662634Y-90124930D01*
X45908493Y-90306113D01*
X46207938Y-90413899D01*
X46533830Y-90444703D01*
X46859035Y-90394939D01*
X47070460Y-90310913D01*
X47166329Y-90242964D01*
X47323386Y-90110430D01*
X47528514Y-89925330D01*
X47768597Y-89699685D01*
X48030516Y-89445517D01*
X48213866Y-89263061D01*
X48511949Y-88962659D01*
X48739879Y-88728766D01*
X48902776Y-88552240D01*
X49005765Y-88423939D01*
X49053967Y-88334722D01*
X49052506Y-88275447D01*
X49006505Y-88236973D01*
X48921087Y-88210156D01*
X48815935Y-88188663D01*
X48612880Y-88197459D01*
X48381208Y-88284456D01*
X48147685Y-88436628D01*
X47977271Y-88596816D01*
X47866341Y-88714486D01*
X47785513Y-88790819D01*
X47760433Y-88807143D01*
X47749297Y-88757505D01*
X47740419Y-88623473D01*
X47734897Y-88427369D01*
X47733614Y-88260666D01*
X47733614Y-87714188D01*
X46614042Y-88832808D01*
X45494470Y-89951428D01*
X45084487Y-89951428D01*
X45399864Y-89629802D01*
X45757967Y-89266808D01*
X46147479Y-88874027D01*
X46562075Y-88457953D01*
X46693035Y-88326923D01*
X47187777Y-87832773D01*
X47612878Y-87409470D01*
X47973721Y-87051960D01*
X48275687Y-86755186D01*
X48524159Y-86514092D01*
X48724517Y-86323624D01*
X48882145Y-86178724D01*
X49002423Y-86074338D01*
X49090735Y-86005409D01*
X49152461Y-85966882D01*
X49192984Y-85953701D01*
X49214358Y-85958379D01*
G37*
G36*
X47641993Y-85592059D02*
G01*
X47733024Y-85631838D01*
X47895883Y-85742923D01*
X47995561Y-85887539D01*
X48043964Y-86090550D01*
X48053782Y-86301731D01*
X48048000Y-86504032D01*
X48024811Y-86633201D01*
X47975451Y-86722477D01*
X47930279Y-86770110D01*
X47833795Y-86850973D01*
X47771266Y-86886089D01*
X47770195Y-86886135D01*
X47753138Y-86837010D01*
X47740324Y-86706548D01*
X47733947Y-86520112D01*
X47733614Y-86463055D01*
X47722236Y-86195186D01*
X47683365Y-86017540D01*
X47609890Y-85915587D01*
X47494700Y-85874790D01*
X47444585Y-85872269D01*
X47335948Y-85885184D01*
X47256808Y-85933191D01*
X47202740Y-86030187D01*
X47169317Y-86190065D01*
X47152114Y-86426722D01*
X47146707Y-86754053D01*
X47146639Y-86807754D01*
X47146639Y-87548071D01*
X46979576Y-87720435D01*
X46812514Y-87892800D01*
X46639767Y-87709635D01*
X46515513Y-87597929D01*
X46391419Y-87542209D01*
X46245856Y-87543141D01*
X46057192Y-87601393D01*
X45803797Y-87717631D01*
X45765924Y-87736557D01*
X45553712Y-87849432D01*
X45404138Y-87953939D01*
X45307047Y-88071341D01*
X45252281Y-88222905D01*
X45229684Y-88429894D01*
X45229099Y-88713573D01*
X45232741Y-88852863D01*
X45238430Y-89117223D01*
X45235129Y-89297340D01*
X45220177Y-89415504D01*
X45190912Y-89494008D01*
X45149550Y-89549824D01*
X45053199Y-89640058D01*
X44993888Y-89640535D01*
X44955565Y-89544445D01*
X44939712Y-89460819D01*
X44925407Y-89320773D01*
X44914084Y-89108523D01*
X44907296Y-88858581D01*
X44906050Y-88712047D01*
X44915068Y-88360641D01*
X44952059Y-88093542D01*
X45030641Y-87889304D01*
X45164431Y-87726480D01*
X45367047Y-87583624D01*
X45652108Y-87439291D01*
X45739279Y-87399826D01*
X46019202Y-87284881D01*
X46232970Y-87225012D01*
X46404425Y-87217940D01*
X46557413Y-87261382D01*
X46653046Y-87312440D01*
X46826471Y-87418179D01*
X46826471Y-86696708D01*
X46830501Y-86358666D01*
X46846244Y-86109200D01*
X46879177Y-85930346D01*
X46934778Y-85804141D01*
X47018524Y-85712620D01*
X47135894Y-85637819D01*
X47151913Y-85629416D01*
X47395937Y-85557418D01*
X47641993Y-85592059D01*
G37*
D15*
%TO.C,MC6*%
X101477500Y-136342164D02*
X101477500Y-136557836D01*
X100757500Y-136342164D02*
X100757500Y-136557836D01*
%TO.C,DESD1*%
D17*
X65705000Y-124837500D02*
G75*
G02*
X65555000Y-124837500I-75000J0D01*
G01*
X65555000Y-124837500D02*
G75*
G02*
X65705000Y-124837500I75000J0D01*
G01*
D16*
X65930000Y-125337500D02*
X65930000Y-126537500D01*
X63330000Y-125337500D02*
X63330000Y-126537500D01*
D15*
%TO.C,MFB1*%
X102579622Y-135110000D02*
X101780378Y-135110000D01*
X102579622Y-133990000D02*
X101780378Y-133990000D01*
%TO.C,BRR3*%
X109730000Y-129343641D02*
X109730000Y-129036359D01*
X108970000Y-129343641D02*
X108970000Y-129036359D01*
%TO.C,BRR1*%
X111172501Y-128917258D02*
X111172501Y-128442742D01*
X110127501Y-128917258D02*
X110127501Y-128442742D01*
D13*
%TO.C,SWD1*%
X74290022Y-130314986D02*
G75*
G02*
X73985008Y-130620000I-305016J2D01*
G01*
X73990000Y-125424998D02*
G75*
G02*
X74290002Y-125724998I0J-300002D01*
G01*
X71990000Y-130615002D02*
G75*
G02*
X71690000Y-130315002I0J300000D01*
G01*
X71390000Y-128024998D02*
G75*
G02*
X71690002Y-128324998I0J-300002D01*
G01*
X67030000Y-130640000D02*
G75*
G02*
X66530000Y-130140000I1J500001D01*
G01*
X66849997Y-128020000D02*
G75*
G02*
X66550000Y-127720000I3J300000D01*
G01*
X66554998Y-125720000D02*
G75*
G02*
X66854998Y-125419998I300002J0D01*
G01*
X74295020Y-125719984D02*
X74290022Y-130314986D01*
X73990000Y-125424998D02*
X66854998Y-125420000D01*
D14*
X72987501Y-131290000D02*
X72987501Y-132090000D01*
D13*
X72960000Y-125420000D02*
X72960000Y-124420000D01*
D14*
X72587501Y-131690000D02*
X73387501Y-131690000D01*
D13*
X71990000Y-130620000D02*
X73985008Y-130620000D01*
X71690000Y-130315002D02*
X71690000Y-128324998D01*
X70420000Y-125420000D02*
X70420000Y-124420000D01*
X67880000Y-125420000D02*
X67880000Y-124420000D01*
X67680000Y-130640000D02*
X67030000Y-130640000D01*
X66849997Y-128020000D02*
X71390000Y-128024998D01*
X66549997Y-127720000D02*
X66554998Y-125720000D01*
X66530000Y-130140000D02*
X66530000Y-129490000D01*
D15*
%TO.C,BRR5*%
X106130000Y-136936359D02*
X106130000Y-137243641D01*
X105370000Y-136936359D02*
X105370000Y-137243641D01*
%TO.C,MC5*%
X100377499Y-136342162D02*
X100377499Y-136557834D01*
X99657499Y-136342162D02*
X99657499Y-136557834D01*
%TO.C,LMR1*%
X40820000Y-87043641D02*
X40820000Y-86736359D01*
X40060000Y-87043641D02*
X40060000Y-86736359D01*
%TO.C,MC1*%
X92537836Y-134960000D02*
X92322164Y-134960000D01*
X92537836Y-134240000D02*
X92322164Y-134240000D01*
%TO.C,BRD1*%
X112200001Y-130980000D02*
X112200001Y-133640000D01*
X112200001Y-130980000D02*
X110500001Y-130980000D01*
X110500001Y-130980000D02*
X110500001Y-133640000D01*
%TO.C,USBR3*%
X52036360Y-75930000D02*
X52343642Y-75930000D01*
X52036360Y-75170000D02*
X52343642Y-75170000D01*
%TO.C,MC7*%
X102870336Y-136410000D02*
X102654664Y-136410000D01*
X102870336Y-135690000D02*
X102654664Y-135690000D01*
%TO.C,LMR2*%
X37853642Y-83827500D02*
X37546360Y-83827500D01*
X37853642Y-83067500D02*
X37546360Y-83067500D01*
%TO.C,BRR4*%
X105393642Y-131470000D02*
X105086360Y-131470000D01*
X105393642Y-130710000D02*
X105086360Y-130710000D01*
%TO.C,BRR2*%
X112330001Y-129036359D02*
X112330001Y-129343641D01*
X111570001Y-129036359D02*
X111570001Y-129343641D01*
%TO.C,BRR6*%
X112330001Y-135916360D02*
X112330001Y-136223642D01*
X111570001Y-135916360D02*
X111570001Y-136223642D01*
%TO.C,BRR7*%
X111230001Y-136223641D02*
X111230001Y-135916359D01*
X110470001Y-136223641D02*
X110470001Y-135916359D01*
%TO.C,MC3*%
X93820000Y-125207836D02*
X93820000Y-124992164D01*
X93100000Y-125207836D02*
X93100000Y-124992164D01*
%TO.C,MC4*%
X101842164Y-126570000D02*
X102057836Y-126570000D01*
X101842164Y-125850000D02*
X102057836Y-125850000D01*
%TO.C,R3*%
X39213641Y-138285000D02*
X38906359Y-138285000D01*
X39213641Y-137525000D02*
X38906359Y-137525000D01*
%TO.C,BRR8*%
X106130001Y-135273641D02*
X106130001Y-134966359D01*
X105370001Y-135273641D02*
X105370001Y-134966359D01*
%TO.C,BS1*%
X120518427Y-132670660D02*
X118750660Y-134438427D01*
X120518427Y-132034264D02*
X120518427Y-132670660D01*
X120341650Y-130372563D02*
X118927437Y-128958350D01*
X118114264Y-134438427D02*
X118750660Y-134438427D01*
X117265736Y-128781573D02*
X116629340Y-128781573D01*
X116629340Y-128781573D02*
X114861573Y-130549340D01*
X116452563Y-134261650D02*
X115038350Y-132847437D01*
X114861573Y-131185736D02*
X114861573Y-130549340D01*
%TO.C,LMR3*%
X37546359Y-82797499D02*
X37853641Y-82797499D01*
X37546359Y-82037499D02*
X37853641Y-82037499D01*
%TO.C,BRQ1*%
X109652500Y-137470000D02*
X109172500Y-137470000D01*
X109412500Y-137140000D01*
X109652500Y-137470000D01*
G36*
X109652500Y-137470000D02*
G01*
X109172500Y-137470000D01*
X109412500Y-137140000D01*
X109652500Y-137470000D01*
G37*
X108250000Y-137190000D02*
X108900000Y-137190000D01*
X108250000Y-137190000D02*
X107600000Y-137190000D01*
X108250000Y-134070000D02*
X108900000Y-134070000D01*
X108250000Y-134070000D02*
X107600000Y-134070000D01*
D12*
%TO.C,TP1*%
X38040000Y-137905000D02*
G75*
G02*
X35640000Y-137905000I-1200000J0D01*
G01*
X35640000Y-137905000D02*
G75*
G02*
X38040000Y-137905000I1200000J0D01*
G01*
D15*
%TO.C,BRQ2*%
X107025001Y-130530000D02*
X106785001Y-130200000D01*
X107265001Y-130200000D01*
X107025001Y-130530000D01*
G36*
X107025001Y-130530000D02*
G01*
X106785001Y-130200000D01*
X107265001Y-130200000D01*
X107025001Y-130530000D01*
G37*
X108187501Y-133600000D02*
X108837501Y-133600000D01*
X108187501Y-133600000D02*
X107537501Y-133600000D01*
X108187501Y-130480000D02*
X108837501Y-130480000D01*
X108187501Y-130480000D02*
X107537501Y-130480000D01*
%TO.C,MC2*%
X92537836Y-133960000D02*
X92322164Y-133960000D01*
X92537836Y-133240000D02*
X92322164Y-133240000D01*
%TO.C,LM1*%
X36700000Y-87062500D02*
X36370000Y-87302500D01*
X36370000Y-86822500D01*
X36700000Y-87062500D01*
G36*
X36700000Y-87062500D02*
G01*
X36370000Y-87302500D01*
X36370000Y-86822500D01*
X36700000Y-87062500D01*
G37*
X39770000Y-85900000D02*
X39770000Y-86550000D01*
X39770000Y-85900000D02*
X39770000Y-85250000D01*
X36650000Y-85900000D02*
X36650000Y-86550000D01*
X36650000Y-85900000D02*
X36650000Y-85250000D01*
%TO.C,BRC1*%
X107161253Y-129690000D02*
X105738749Y-129690000D01*
X107161253Y-127870000D02*
X105738749Y-127870000D01*
%TO.C,BRC2*%
X105010001Y-137227836D02*
X105010001Y-137012164D01*
X104290001Y-137227836D02*
X104290001Y-137012164D01*
%TD*%
%LPC*%
D20*
%TO.C,USB1*%
X48930000Y-67850000D03*
D21*
X48930000Y-72030000D03*
D20*
X57570000Y-67850000D03*
D21*
X57570000Y-72030000D03*
D22*
X56500000Y-72945000D03*
X55700000Y-72945000D03*
D23*
X55000000Y-72945000D03*
X54000000Y-72945000D03*
X52500000Y-72945000D03*
X51500000Y-72945000D03*
D22*
X50800000Y-72945000D03*
X50000000Y-72945000D03*
X50000000Y-72945000D03*
X50800000Y-72945000D03*
D23*
X52000000Y-72945000D03*
X53000000Y-72945000D03*
X53500000Y-72945000D03*
X54500000Y-72945000D03*
D22*
X55700000Y-72945000D03*
X56500000Y-72945000D03*
D24*
X50360000Y-71500000D03*
X56140000Y-71500000D03*
%TD*%
D25*
%TO.C,LED8*%
X179675000Y-82255000D03*
X179675000Y-80755000D03*
X174475000Y-80755000D03*
X174475000Y-82255000D03*
%TD*%
D26*
%TO.C,USBR2*%
X55350000Y-78390000D03*
X55350000Y-79410000D03*
%TD*%
%TO.C,USBR1*%
X50750000Y-78390000D03*
X50750000Y-79410000D03*
%TD*%
D27*
%TO.C,USBD1*%
X54050000Y-77950000D03*
X54050000Y-79850000D03*
X52050000Y-79850000D03*
D28*
X52050000Y-78150000D03*
%TD*%
D29*
%TO.C,SD1*%
X71387500Y-69550000D03*
X71387500Y-71450000D03*
X69112500Y-71450000D03*
X69112500Y-70500000D03*
X69112500Y-69550000D03*
%TD*%
D30*
%TO.C,PWRL1*%
X74250000Y-69100000D03*
X74250000Y-71900000D03*
%TD*%
D31*
%TO.C,PWRF1*%
X63650000Y-69900000D03*
X60850000Y-69900000D03*
%TD*%
D32*
%TO.C,PWRC2*%
X77250000Y-71450000D03*
X77250000Y-69550000D03*
%TD*%
%TO.C,PWRC1*%
X67150000Y-71450000D03*
X67150000Y-69550000D03*
%TD*%
D33*
%TO.C,MPC3*%
X213650000Y-103880000D03*
X213650000Y-102920000D03*
%TD*%
%TO.C,MPC2*%
X137650000Y-103880000D03*
X137650000Y-102920000D03*
%TD*%
%TO.C,MPC1*%
X67900000Y-106880000D03*
X67900000Y-105920000D03*
%TD*%
D34*
%TO.C,MP3*%
X215625000Y-102750000D03*
X216275000Y-102750000D03*
X216925000Y-102750000D03*
X217575000Y-102750000D03*
X218225000Y-102750000D03*
X218875000Y-102750000D03*
X219525000Y-102750000D03*
X220175000Y-102750000D03*
X220825000Y-102750000D03*
X221475000Y-102750000D03*
X222125000Y-102750000D03*
X222775000Y-102750000D03*
X222775000Y-110050000D03*
X222125000Y-110050000D03*
X221475000Y-110050000D03*
X220825000Y-110050000D03*
X220175000Y-110050000D03*
X219525000Y-110050000D03*
X218875000Y-110050000D03*
X218225000Y-110050000D03*
X217575000Y-110050000D03*
X216925000Y-110050000D03*
X216275000Y-110050000D03*
X215625000Y-110050000D03*
%TD*%
%TO.C,MP2*%
X139625000Y-102750000D03*
X140275000Y-102750000D03*
X140925000Y-102750000D03*
X141575000Y-102750000D03*
X142225000Y-102750000D03*
X142875000Y-102750000D03*
X143525000Y-102750000D03*
X144175000Y-102750000D03*
X144825000Y-102750000D03*
X145475000Y-102750000D03*
X146125000Y-102750000D03*
X146775000Y-102750000D03*
X146775000Y-110050000D03*
X146125000Y-110050000D03*
X145475000Y-110050000D03*
X144825000Y-110050000D03*
X144175000Y-110050000D03*
X143525000Y-110050000D03*
X142875000Y-110050000D03*
X142225000Y-110050000D03*
X141575000Y-110050000D03*
X140925000Y-110050000D03*
X140275000Y-110050000D03*
X139625000Y-110050000D03*
%TD*%
%TO.C,MP1*%
X69875000Y-105750000D03*
X70525000Y-105750000D03*
X71175000Y-105750000D03*
X71825000Y-105750000D03*
X72475000Y-105750000D03*
X73125000Y-105750000D03*
X73775000Y-105750000D03*
X74425000Y-105750000D03*
X75075000Y-105750000D03*
X75725000Y-105750000D03*
X76375000Y-105750000D03*
X77025000Y-105750000D03*
X77025000Y-113050000D03*
X76375000Y-113050000D03*
X75725000Y-113050000D03*
X75075000Y-113050000D03*
X74425000Y-113050000D03*
X73775000Y-113050000D03*
X73125000Y-113050000D03*
X72475000Y-113050000D03*
X71825000Y-113050000D03*
X71175000Y-113050000D03*
X70525000Y-113050000D03*
X69875000Y-113050000D03*
%TD*%
D35*
%TO.C,MCU1*%
X93037500Y-132650000D03*
X93037500Y-132150000D03*
X93037500Y-131650000D03*
X93037500Y-131150000D03*
X93037500Y-130650000D03*
X93037500Y-130150000D03*
X93037500Y-129650000D03*
X93037500Y-129150000D03*
X93037500Y-128650000D03*
X93037500Y-128150000D03*
X93037500Y-127650000D03*
X93037500Y-127150000D03*
D36*
X94450000Y-125737500D03*
X94950000Y-125737500D03*
X95450000Y-125737500D03*
X95950000Y-125737500D03*
X96450000Y-125737500D03*
X96950000Y-125737500D03*
X97450000Y-125737500D03*
X97950000Y-125737500D03*
X98450000Y-125737500D03*
X98950000Y-125737500D03*
X99450000Y-125737500D03*
X99950000Y-125737500D03*
D35*
X101362500Y-127150000D03*
X101362500Y-127650000D03*
D37*
X99200000Y-127900000D03*
X95200000Y-127900000D03*
X97200000Y-129900000D03*
X99200000Y-131900000D03*
X95200000Y-131900000D03*
D35*
X101362500Y-128150000D03*
X101362500Y-128650000D03*
X101362500Y-129150000D03*
X101362500Y-129650000D03*
X101362500Y-130150000D03*
X101362500Y-130650000D03*
X101362500Y-131150000D03*
X101362500Y-131650000D03*
X101362500Y-132150000D03*
X101362500Y-132650000D03*
D36*
X99950000Y-134062500D03*
X99450000Y-134062500D03*
X98950000Y-134062500D03*
X98450000Y-134062500D03*
X97950000Y-134062500D03*
X97450000Y-134062500D03*
X96950000Y-134062500D03*
X96450000Y-134062500D03*
X95950000Y-134062500D03*
X95450000Y-134062500D03*
X94950000Y-134062500D03*
X94450000Y-134062500D03*
%TD*%
D38*
%TO.C,LEDC42*%
X246793750Y-139425000D03*
X246793750Y-140385000D03*
%TD*%
%TO.C,LEDC41*%
X225362500Y-139425000D03*
X225362500Y-140385000D03*
%TD*%
%TO.C,LEDC40*%
X203931250Y-139425000D03*
X203931250Y-140385000D03*
%TD*%
%TO.C,LEDC39*%
X170593750Y-139425000D03*
X170593750Y-140385000D03*
%TD*%
%TO.C,LEDC38*%
X122968750Y-139425000D03*
X122968750Y-140385000D03*
%TD*%
%TO.C,LEDC37*%
X77725000Y-139425000D03*
X77725000Y-140385000D03*
%TD*%
%TO.C,LEDC36*%
X58675000Y-139425000D03*
X58675000Y-140385000D03*
%TD*%
%TO.C,LEDC35*%
X39625000Y-139425000D03*
X39625000Y-140385000D03*
%TD*%
D33*
%TO.C,LEDC34*%
X250231250Y-118835000D03*
X250231250Y-117875000D03*
%TD*%
%TO.C,LEDC33*%
X224037500Y-118835000D03*
X224037500Y-117875000D03*
%TD*%
%TO.C,LEDC32*%
X204987500Y-118835000D03*
X204987500Y-117875000D03*
%TD*%
%TO.C,LEDC31*%
X185937500Y-118835000D03*
X185937500Y-117875000D03*
%TD*%
%TO.C,LEDC30*%
X166887500Y-118835000D03*
X166887500Y-117875000D03*
%TD*%
%TO.C,LEDC29*%
X147837500Y-118835000D03*
X147837500Y-117875000D03*
%TD*%
%TO.C,LEDC28*%
X128787500Y-118835000D03*
X128787500Y-117875000D03*
%TD*%
%TO.C,LEDC27*%
X109737500Y-118835000D03*
X109737500Y-117875000D03*
%TD*%
%TO.C,LEDC26*%
X88306250Y-118835000D03*
X88306250Y-117875000D03*
%TD*%
%TO.C,LEDC25*%
X66875000Y-118835000D03*
X66875000Y-117875000D03*
%TD*%
%TO.C,LEDC24*%
X47825000Y-118835000D03*
X47825000Y-117875000D03*
%TD*%
D38*
%TO.C,LEDC23*%
X246793750Y-101325000D03*
X246793750Y-102285000D03*
%TD*%
%TO.C,LEDC22*%
X225362500Y-101325000D03*
X225362500Y-102285000D03*
%TD*%
%TO.C,LEDC21*%
X206312500Y-101325000D03*
X206312500Y-102285000D03*
%TD*%
%TO.C,LEDC20*%
X187262500Y-101325000D03*
X187262500Y-102285000D03*
%TD*%
%TO.C,LEDC19*%
X168212499Y-101325000D03*
X168212499Y-102285000D03*
%TD*%
%TO.C,LEDC18*%
X149162500Y-101325000D03*
X149162500Y-102285000D03*
%TD*%
%TO.C,LEDC17*%
X130112500Y-101325000D03*
X130112500Y-102285000D03*
%TD*%
%TO.C,LEDC16*%
X111062500Y-101325000D03*
X111062500Y-102285000D03*
%TD*%
%TO.C,LEDC15*%
X92012500Y-101325000D03*
X92012500Y-102285000D03*
%TD*%
%TO.C,LEDC14*%
X72962500Y-101325000D03*
X72962500Y-102285000D03*
%TD*%
%TO.C,LEDC13*%
X46768750Y-101325000D03*
X46768750Y-102285000D03*
%TD*%
D33*
%TO.C,LEDC12*%
X257375000Y-80735000D03*
X257375000Y-79775000D03*
%TD*%
%TO.C,LEDC11*%
X238325000Y-80735000D03*
X238325000Y-79775000D03*
%TD*%
%TO.C,LEDC10*%
X219275000Y-80735000D03*
X219275000Y-79775000D03*
%TD*%
%TO.C,LEDC9*%
X200225000Y-80735000D03*
X200225000Y-79775000D03*
%TD*%
%TO.C,LEDC8*%
X181175000Y-80735000D03*
X181175000Y-79775000D03*
%TD*%
%TO.C,LEDC7*%
X162125000Y-80735000D03*
X162125000Y-79775000D03*
%TD*%
%TO.C,LEDC6*%
X143075000Y-80735000D03*
X143075000Y-79775000D03*
%TD*%
%TO.C,LEDC5*%
X124025000Y-80735000D03*
X124025000Y-79775000D03*
%TD*%
%TO.C,LEDC4*%
X104975000Y-80735000D03*
X104975000Y-79775000D03*
%TD*%
%TO.C,LEDC3*%
X85925000Y-80735000D03*
X85925000Y-79775000D03*
%TD*%
%TO.C,LEDC2*%
X66875000Y-80735000D03*
X66875000Y-79775000D03*
%TD*%
%TO.C,LEDC1*%
X47825000Y-80735000D03*
X47825000Y-79775000D03*
%TD*%
D39*
%TO.C,LED42*%
X248293750Y-137905000D03*
X248293750Y-139405000D03*
X253493750Y-139405000D03*
X253493750Y-137905000D03*
%TD*%
%TO.C,LED41*%
X226862500Y-137905000D03*
X226862500Y-139405000D03*
X232062500Y-139405000D03*
X232062500Y-137905000D03*
%TD*%
%TO.C,LED40*%
X205431250Y-137905000D03*
X205431250Y-139405000D03*
X210631250Y-139405000D03*
X210631250Y-137905000D03*
%TD*%
%TO.C,LED39*%
X172093750Y-137905000D03*
X172093750Y-139405000D03*
X177293750Y-139405000D03*
X177293750Y-137905000D03*
%TD*%
%TO.C,LED38*%
X124468750Y-137905000D03*
X124468750Y-139405000D03*
X129668750Y-139405000D03*
X129668750Y-137905000D03*
%TD*%
%TO.C,LED37*%
X79225000Y-137905000D03*
X79225000Y-139405000D03*
X84425000Y-139405000D03*
X84425000Y-137905000D03*
%TD*%
%TO.C,LED36*%
X60175000Y-137905000D03*
X60175000Y-139405000D03*
X65375000Y-139405000D03*
X65375000Y-137905000D03*
%TD*%
%TO.C,LED35*%
X41125000Y-137905000D03*
X41125000Y-139405000D03*
X46325000Y-139405000D03*
X46325000Y-137905000D03*
%TD*%
D25*
%TO.C,LED34*%
X248731250Y-120355000D03*
X248731250Y-118855000D03*
X243531250Y-118855000D03*
X243531250Y-120355000D03*
%TD*%
%TO.C,LED33*%
X222537500Y-120355000D03*
X222537500Y-118855000D03*
X217337500Y-118855000D03*
X217337500Y-120355000D03*
%TD*%
%TO.C,LED32*%
X203487500Y-120355000D03*
X203487500Y-118855000D03*
X198287500Y-118855000D03*
X198287500Y-120355000D03*
%TD*%
%TO.C,LED31*%
X184437500Y-120355000D03*
X184437500Y-118855000D03*
X179237500Y-118855000D03*
X179237500Y-120355000D03*
%TD*%
%TO.C,LED30*%
X165387500Y-120355000D03*
X165387500Y-118855000D03*
X160187500Y-118855000D03*
X160187500Y-120355000D03*
%TD*%
%TO.C,LED29*%
X146337500Y-120355000D03*
X146337500Y-118855000D03*
X141137500Y-118855000D03*
X141137500Y-120355000D03*
%TD*%
%TO.C,LED28*%
X127287500Y-120355000D03*
X127287500Y-118855000D03*
X122087500Y-118855000D03*
X122087500Y-120355000D03*
%TD*%
%TO.C,LED27*%
X108237500Y-120355000D03*
X108237500Y-118855000D03*
X103037500Y-118855000D03*
X103037500Y-120355000D03*
%TD*%
%TO.C,LED26*%
X86806250Y-120355000D03*
X86806250Y-118855000D03*
X81606250Y-118855000D03*
X81606250Y-120355000D03*
%TD*%
%TO.C,LED25*%
X65375000Y-120355000D03*
X65375000Y-118855000D03*
X60175000Y-118855000D03*
X60175000Y-120355000D03*
%TD*%
%TO.C,LED24*%
X46325000Y-120355000D03*
X46325000Y-118855000D03*
X41125000Y-118855000D03*
X41125000Y-120355000D03*
%TD*%
D39*
%TO.C,LED23*%
X248293750Y-99805000D03*
X248293750Y-101305000D03*
X253493750Y-101305000D03*
X253493750Y-99805000D03*
%TD*%
%TO.C,LED22*%
X226862500Y-99805000D03*
X226862500Y-101305000D03*
X232062500Y-101305000D03*
X232062500Y-99805000D03*
%TD*%
%TO.C,LED21*%
X207812500Y-99805000D03*
X207812500Y-101305000D03*
X213012500Y-101305000D03*
X213012500Y-99805000D03*
%TD*%
%TO.C,LED20*%
X188762500Y-99805000D03*
X188762500Y-101305000D03*
X193962500Y-101305000D03*
X193962500Y-99805000D03*
%TD*%
%TO.C,LED19*%
X169712500Y-99805000D03*
X169712500Y-101305000D03*
X174912500Y-101305000D03*
X174912500Y-99805000D03*
%TD*%
%TO.C,LED18*%
X150662500Y-99805000D03*
X150662500Y-101305000D03*
X155862500Y-101305000D03*
X155862500Y-99805000D03*
%TD*%
%TO.C,LED17*%
X131612500Y-99805000D03*
X131612500Y-101305000D03*
X136812500Y-101305000D03*
X136812500Y-99805000D03*
%TD*%
%TO.C,LED16*%
X112562500Y-99805000D03*
X112562500Y-101305000D03*
X117762500Y-101305000D03*
X117762500Y-99805000D03*
%TD*%
%TO.C,LED15*%
X93512500Y-99805000D03*
X93512500Y-101305000D03*
X98712500Y-101305000D03*
X98712500Y-99805000D03*
%TD*%
%TO.C,LED14*%
X74462500Y-99805000D03*
X74462500Y-101305000D03*
X79662500Y-101305000D03*
X79662500Y-99805000D03*
%TD*%
%TO.C,LED13*%
X48268750Y-99805000D03*
X48268750Y-101305000D03*
X53468750Y-101305000D03*
X53468750Y-99805000D03*
%TD*%
D25*
%TO.C,LED12*%
X255875000Y-82255000D03*
X255875000Y-80755000D03*
X250675000Y-80755000D03*
X250675000Y-82255000D03*
%TD*%
%TO.C,LED11*%
X236825000Y-82255000D03*
X236825000Y-80755000D03*
X231625000Y-80755000D03*
X231625000Y-82255000D03*
%TD*%
%TO.C,LED10*%
X217775000Y-82255000D03*
X217775000Y-80755000D03*
X212575000Y-80755000D03*
X212575000Y-82255000D03*
%TD*%
%TO.C,LED9*%
X198725000Y-82255000D03*
X198725000Y-80755000D03*
X193525000Y-80755000D03*
X193525000Y-82255000D03*
%TD*%
%TO.C,LED7*%
X160625000Y-82255000D03*
X160625000Y-80755000D03*
X155425000Y-80755000D03*
X155425000Y-82255000D03*
%TD*%
%TO.C,LED6*%
X141575000Y-82255000D03*
X141575000Y-80755000D03*
X136375000Y-80755000D03*
X136375000Y-82255000D03*
%TD*%
%TO.C,LED5*%
X122525000Y-82255000D03*
X122525000Y-80755000D03*
X117325000Y-80755000D03*
X117325000Y-82255000D03*
%TD*%
%TO.C,LED4*%
X103475000Y-82255000D03*
X103475000Y-80755000D03*
X98275000Y-80755000D03*
X98275000Y-82255000D03*
%TD*%
%TO.C,LED3*%
X84425000Y-82255000D03*
X84425000Y-80755000D03*
X79225000Y-80755000D03*
X79225000Y-82255000D03*
%TD*%
%TO.C,LED2*%
X65375000Y-82255000D03*
X65375000Y-80755000D03*
X60175000Y-80755000D03*
X60175000Y-82255000D03*
%TD*%
%TO.C,LED1*%
X46325000Y-82255000D03*
X46325000Y-80755000D03*
X41125000Y-80755000D03*
X41125000Y-82255000D03*
%TD*%
D26*
%TO.C,HER42*%
X248443750Y-132127500D03*
X248443750Y-133147500D03*
%TD*%
%TO.C,HER41*%
X227012500Y-132127500D03*
X227012500Y-133147500D03*
%TD*%
%TO.C,HER40*%
X205581250Y-132127500D03*
X205581250Y-133147500D03*
%TD*%
%TO.C,HER39*%
X172243750Y-132127500D03*
X172243750Y-133147500D03*
%TD*%
%TO.C,HER38*%
X124618750Y-132127500D03*
X124618750Y-133147500D03*
%TD*%
%TO.C,HER37*%
X79375000Y-132127500D03*
X79375000Y-133147500D03*
%TD*%
%TO.C,HER36*%
X60325000Y-132127500D03*
X60325000Y-133147500D03*
%TD*%
%TO.C,HER35*%
X41274999Y-132127500D03*
X41274999Y-133147500D03*
%TD*%
%TO.C,HER34*%
X243681250Y-113077500D03*
X243681250Y-114097500D03*
%TD*%
%TO.C,HER33*%
X217487500Y-113077500D03*
X217487500Y-114097500D03*
%TD*%
%TO.C,HER32*%
X198437500Y-113077500D03*
X198437500Y-114097500D03*
%TD*%
%TO.C,HER31*%
X179387500Y-113077500D03*
X179387500Y-114097500D03*
%TD*%
%TO.C,HER30*%
X160337500Y-113077500D03*
X160337500Y-114097500D03*
%TD*%
%TO.C,HER29*%
X141287500Y-113077500D03*
X141287500Y-114097500D03*
%TD*%
%TO.C,HER28*%
X122237500Y-113077500D03*
X122237500Y-114097500D03*
%TD*%
%TO.C,HER27*%
X103187500Y-113077500D03*
X103187500Y-114097500D03*
%TD*%
%TO.C,HER26*%
X81756250Y-113077500D03*
X81756250Y-114097500D03*
%TD*%
%TO.C,HER25*%
X60325000Y-113077500D03*
X60325000Y-114097500D03*
%TD*%
%TO.C,HER24*%
X41274999Y-113077500D03*
X41274999Y-114097500D03*
%TD*%
%TO.C,HER23*%
X248443750Y-94027500D03*
X248443750Y-95047500D03*
%TD*%
%TO.C,HER22*%
X227012500Y-94027500D03*
X227012500Y-95047500D03*
%TD*%
%TO.C,HER21*%
X207962500Y-94027500D03*
X207962500Y-95047500D03*
%TD*%
%TO.C,HER20*%
X188912500Y-94027500D03*
X188912500Y-95047500D03*
%TD*%
%TO.C,HER19*%
X169862500Y-94027500D03*
X169862500Y-95047500D03*
%TD*%
%TO.C,HER18*%
X150812500Y-94027500D03*
X150812500Y-95047500D03*
%TD*%
%TO.C,HER17*%
X131762500Y-94027500D03*
X131762500Y-95047500D03*
%TD*%
%TO.C,HER16*%
X112712500Y-94027500D03*
X112712500Y-95047500D03*
%TD*%
%TO.C,HER15*%
X93662500Y-94027500D03*
X93662500Y-95047500D03*
%TD*%
%TO.C,HER14*%
X74612500Y-94027500D03*
X74612500Y-95047500D03*
%TD*%
%TO.C,HER13*%
X48418750Y-94027500D03*
X48418750Y-95047500D03*
%TD*%
%TO.C,HER12*%
X250825000Y-74977500D03*
X250825000Y-75997500D03*
%TD*%
%TO.C,HER11*%
X231775000Y-74977500D03*
X231775000Y-75997500D03*
%TD*%
%TO.C,HER10*%
X212725000Y-74977500D03*
X212725000Y-75997500D03*
%TD*%
%TO.C,HER9*%
X193675000Y-74977500D03*
X193675000Y-75997500D03*
%TD*%
%TO.C,HER8*%
X174625000Y-74977500D03*
X174625000Y-75997500D03*
%TD*%
%TO.C,HER7*%
X155575000Y-74977500D03*
X155575000Y-75997500D03*
%TD*%
%TO.C,HER6*%
X136525000Y-74977500D03*
X136525000Y-75997500D03*
%TD*%
%TO.C,HER5*%
X117475000Y-74977500D03*
X117475000Y-75997500D03*
%TD*%
%TO.C,HER4*%
X98424999Y-74977500D03*
X98424999Y-75997500D03*
%TD*%
%TO.C,HER3*%
X79375000Y-74977500D03*
X79375000Y-75997500D03*
%TD*%
%TO.C,HER2*%
X60325000Y-74977500D03*
X60325000Y-75997500D03*
%TD*%
%TO.C,HER1*%
X41274999Y-74977500D03*
X41274999Y-75997500D03*
%TD*%
D33*
%TO.C,HECC42*%
X247443750Y-133117500D03*
X247443750Y-132157500D03*
%TD*%
%TO.C,HECC41*%
X226012500Y-133117500D03*
X226012500Y-132157500D03*
%TD*%
%TO.C,HECC40*%
X204581250Y-133117500D03*
X204581250Y-132157500D03*
%TD*%
%TO.C,HECC39*%
X171243750Y-133117500D03*
X171243750Y-132157500D03*
%TD*%
%TO.C,HECC38*%
X123618750Y-133117500D03*
X123618750Y-132157500D03*
%TD*%
%TO.C,HECC37*%
X78375000Y-133117500D03*
X78375000Y-132157500D03*
%TD*%
%TO.C,HECC36*%
X59325000Y-133117500D03*
X59325000Y-132157500D03*
%TD*%
%TO.C,HECC35*%
X40274999Y-133117500D03*
X40274999Y-132157500D03*
%TD*%
%TO.C,HECC34*%
X242681250Y-114067500D03*
X242681250Y-113107500D03*
%TD*%
%TO.C,HECC33*%
X216487500Y-114067500D03*
X216487500Y-113107500D03*
%TD*%
%TO.C,HECC32*%
X197437500Y-114067500D03*
X197437500Y-113107500D03*
%TD*%
%TO.C,HECC31*%
X178387500Y-114067500D03*
X178387500Y-113107500D03*
%TD*%
%TO.C,HECC30*%
X159337500Y-114067500D03*
X159337500Y-113107500D03*
%TD*%
%TO.C,HECC29*%
X140287500Y-114067500D03*
X140287500Y-113107500D03*
%TD*%
%TO.C,HECC28*%
X121237500Y-114067500D03*
X121237500Y-113107500D03*
%TD*%
%TO.C,HECC27*%
X102187500Y-114067500D03*
X102187500Y-113107500D03*
%TD*%
%TO.C,HECC26*%
X80756250Y-114067500D03*
X80756250Y-113107500D03*
%TD*%
%TO.C,HECC25*%
X59325000Y-114067500D03*
X59325000Y-113107500D03*
%TD*%
%TO.C,HECC24*%
X40274999Y-114067500D03*
X40274999Y-113107500D03*
%TD*%
%TO.C,HECC23*%
X247443750Y-95017500D03*
X247443750Y-94057500D03*
%TD*%
%TO.C,HECC22*%
X226012500Y-95017500D03*
X226012500Y-94057500D03*
%TD*%
%TO.C,HECC21*%
X206962500Y-95017500D03*
X206962500Y-94057500D03*
%TD*%
%TO.C,HECC20*%
X187912500Y-95017500D03*
X187912500Y-94057500D03*
%TD*%
%TO.C,HECC19*%
X168862500Y-95017500D03*
X168862500Y-94057500D03*
%TD*%
%TO.C,HECC18*%
X149812500Y-95017500D03*
X149812500Y-94057500D03*
%TD*%
%TO.C,HECC17*%
X130762500Y-95017500D03*
X130762500Y-94057500D03*
%TD*%
%TO.C,HECC16*%
X111712500Y-95017500D03*
X111712500Y-94057500D03*
%TD*%
%TO.C,HECC15*%
X92662500Y-95017500D03*
X92662500Y-94057500D03*
%TD*%
%TO.C,HECC14*%
X73612500Y-95017500D03*
X73612500Y-94057500D03*
%TD*%
%TO.C,HECC13*%
X47418750Y-95017500D03*
X47418750Y-94057500D03*
%TD*%
%TO.C,HECC12*%
X249825000Y-75967500D03*
X249825000Y-75007500D03*
%TD*%
%TO.C,HECC11*%
X230775000Y-75967500D03*
X230775000Y-75007500D03*
%TD*%
%TO.C,HECC10*%
X211725000Y-75967500D03*
X211725000Y-75007500D03*
%TD*%
%TO.C,HECC9*%
X192675000Y-75967500D03*
X192675000Y-75007500D03*
%TD*%
%TO.C,HECC8*%
X173625000Y-75967500D03*
X173625000Y-75007500D03*
%TD*%
%TO.C,HECC7*%
X154575000Y-75967500D03*
X154575000Y-75007500D03*
%TD*%
%TO.C,HECC6*%
X135525000Y-75967500D03*
X135525000Y-75007500D03*
%TD*%
%TO.C,HECC5*%
X116475000Y-75967500D03*
X116475000Y-75007500D03*
%TD*%
%TO.C,HECC4*%
X97424999Y-75967500D03*
X97424999Y-75007500D03*
%TD*%
%TO.C,HECC3*%
X78375000Y-75967500D03*
X78375000Y-75007500D03*
%TD*%
%TO.C,HECC2*%
X59325000Y-75967500D03*
X59325000Y-75007500D03*
%TD*%
%TO.C,HECC1*%
X40274999Y-75967500D03*
X40274999Y-75007500D03*
%TD*%
%TO.C,HEC42*%
X253343750Y-133117500D03*
X253343750Y-132157500D03*
%TD*%
%TO.C,HEC41*%
X231912500Y-133117500D03*
X231912500Y-132157500D03*
%TD*%
%TO.C,HEC40*%
X210481250Y-133117500D03*
X210481250Y-132157500D03*
%TD*%
%TO.C,HEC39*%
X177143750Y-133117500D03*
X177143750Y-132157500D03*
%TD*%
%TO.C,HEC38*%
X129518750Y-133117500D03*
X129518750Y-132157500D03*
%TD*%
%TO.C,HEC37*%
X84275000Y-133117500D03*
X84275000Y-132157500D03*
%TD*%
%TO.C,HEC36*%
X65225000Y-133117500D03*
X65225000Y-132157500D03*
%TD*%
%TO.C,HEC35*%
X46175000Y-133117500D03*
X46175000Y-132157500D03*
%TD*%
%TO.C,HEC34*%
X248581250Y-114067500D03*
X248581250Y-113107500D03*
%TD*%
%TO.C,HEC33*%
X222387500Y-114067500D03*
X222387500Y-113107500D03*
%TD*%
%TO.C,HEC32*%
X203337500Y-114067500D03*
X203337500Y-113107500D03*
%TD*%
%TO.C,HEC31*%
X184287500Y-114067500D03*
X184287500Y-113107500D03*
%TD*%
%TO.C,HEC30*%
X165237500Y-114067500D03*
X165237500Y-113107500D03*
%TD*%
%TO.C,HEC29*%
X146187500Y-114067500D03*
X146187500Y-113107500D03*
%TD*%
%TO.C,HEC28*%
X127137500Y-114067500D03*
X127137500Y-113107500D03*
%TD*%
%TO.C,HEC27*%
X108087500Y-114067500D03*
X108087500Y-113107500D03*
%TD*%
%TO.C,HEC26*%
X86656250Y-114067500D03*
X86656250Y-113107500D03*
%TD*%
%TO.C,HEC25*%
X65225000Y-114067500D03*
X65225000Y-113107500D03*
%TD*%
%TO.C,HEC24*%
X46175000Y-114067500D03*
X46175000Y-113107500D03*
%TD*%
%TO.C,HEC23*%
X253343750Y-95017500D03*
X253343750Y-94057500D03*
%TD*%
%TO.C,HEC22*%
X231912500Y-95017500D03*
X231912500Y-94057500D03*
%TD*%
%TO.C,HEC21*%
X212862500Y-95017500D03*
X212862500Y-94057500D03*
%TD*%
%TO.C,HEC20*%
X193812500Y-95017500D03*
X193812500Y-94057500D03*
%TD*%
%TO.C,HEC19*%
X174762500Y-95017500D03*
X174762500Y-94057500D03*
%TD*%
%TO.C,HEC18*%
X155712500Y-95017500D03*
X155712500Y-94057500D03*
%TD*%
%TO.C,HEC17*%
X136662500Y-95017500D03*
X136662500Y-94057500D03*
%TD*%
%TO.C,HEC16*%
X117612500Y-95017500D03*
X117612500Y-94057500D03*
%TD*%
%TO.C,HEC15*%
X98562500Y-95017500D03*
X98562500Y-94057500D03*
%TD*%
%TO.C,HEC14*%
X79512500Y-95017500D03*
X79512500Y-94057500D03*
%TD*%
%TO.C,HEC13*%
X53318750Y-95017500D03*
X53318750Y-94057500D03*
%TD*%
%TO.C,HEC12*%
X255725000Y-75967500D03*
X255725000Y-75007500D03*
%TD*%
%TO.C,HEC11*%
X236675000Y-75967500D03*
X236675000Y-75007500D03*
%TD*%
%TO.C,HEC10*%
X217625000Y-75967500D03*
X217625000Y-75007500D03*
%TD*%
%TO.C,HEC9*%
X198575000Y-75967500D03*
X198575000Y-75007500D03*
%TD*%
%TO.C,HEC8*%
X179525000Y-75967500D03*
X179525000Y-75007500D03*
%TD*%
%TO.C,HEC7*%
X160475000Y-75967500D03*
X160475000Y-75007500D03*
%TD*%
%TO.C,HEC6*%
X141425000Y-75967500D03*
X141425000Y-75007500D03*
%TD*%
%TO.C,HEC5*%
X122375000Y-75967500D03*
X122375000Y-75007500D03*
%TD*%
%TO.C,HEC4*%
X103325000Y-75967500D03*
X103325000Y-75007500D03*
%TD*%
%TO.C,HEC3*%
X84275000Y-75967500D03*
X84275000Y-75007500D03*
%TD*%
%TO.C,HEC2*%
X65225000Y-75967500D03*
X65225000Y-75007500D03*
%TD*%
%TO.C,HEC1*%
X46175000Y-75967500D03*
X46175000Y-75007500D03*
%TD*%
D40*
%TO.C,HE42*%
X250893750Y-134512500D03*
X249943750Y-132637500D03*
X251843750Y-132637500D03*
%TD*%
%TO.C,HE41*%
X229462500Y-134512500D03*
X228512500Y-132637500D03*
X230412500Y-132637500D03*
%TD*%
%TO.C,HE40*%
X208031250Y-134512500D03*
X207081250Y-132637500D03*
X208981250Y-132637500D03*
%TD*%
%TO.C,HE39*%
X174693750Y-134512500D03*
X173743750Y-132637500D03*
X175643750Y-132637500D03*
%TD*%
%TO.C,HE38*%
X127068750Y-134512500D03*
X126118750Y-132637500D03*
X128018750Y-132637500D03*
%TD*%
%TO.C,HE37*%
X81825000Y-134512500D03*
X80875000Y-132637500D03*
X82775000Y-132637500D03*
%TD*%
%TO.C,HE36*%
X62775000Y-134512500D03*
X61825000Y-132637500D03*
X63725000Y-132637500D03*
%TD*%
%TO.C,HE35*%
X43725000Y-134512500D03*
X42775000Y-132637500D03*
X44675000Y-132637500D03*
%TD*%
%TO.C,HE34*%
X246131250Y-115462500D03*
X245181250Y-113587500D03*
X247081250Y-113587500D03*
%TD*%
%TO.C,HE33*%
X219937500Y-115462500D03*
X218987500Y-113587500D03*
X220887500Y-113587500D03*
%TD*%
%TO.C,HE32*%
X200887500Y-115462500D03*
X199937500Y-113587500D03*
X201837500Y-113587500D03*
%TD*%
%TO.C,HE31*%
X181837500Y-115462500D03*
X180887500Y-113587500D03*
X182787500Y-113587500D03*
%TD*%
%TO.C,HE30*%
X162787500Y-115462500D03*
X161837500Y-113587500D03*
X163737500Y-113587500D03*
%TD*%
%TO.C,HE29*%
X143737500Y-115462500D03*
X142787500Y-113587500D03*
X144687500Y-113587500D03*
%TD*%
%TO.C,HE28*%
X124687500Y-115462500D03*
X123737500Y-113587500D03*
X125637500Y-113587500D03*
%TD*%
%TO.C,HE27*%
X105637500Y-115462500D03*
X104687500Y-113587500D03*
X106587500Y-113587500D03*
%TD*%
%TO.C,HE26*%
X84206250Y-115462500D03*
X83256250Y-113587500D03*
X85156250Y-113587500D03*
%TD*%
%TO.C,HE25*%
X62775000Y-115462500D03*
X61825000Y-113587500D03*
X63725000Y-113587500D03*
%TD*%
%TO.C,HE24*%
X43725000Y-115462500D03*
X42775000Y-113587500D03*
X44675000Y-113587500D03*
%TD*%
%TO.C,HE23*%
X250893750Y-96412500D03*
X249943750Y-94537500D03*
X251843750Y-94537500D03*
%TD*%
%TO.C,HE22*%
X229462500Y-96412500D03*
X228512500Y-94537500D03*
X230412500Y-94537500D03*
%TD*%
%TO.C,HE21*%
X210412500Y-96412500D03*
X209462500Y-94537500D03*
X211362500Y-94537500D03*
%TD*%
%TO.C,HE20*%
X191362500Y-96412500D03*
X190412500Y-94537500D03*
X192312500Y-94537500D03*
%TD*%
%TO.C,HE19*%
X172312500Y-96412500D03*
X171362500Y-94537500D03*
X173262500Y-94537500D03*
%TD*%
%TO.C,HE18*%
X153262500Y-96412500D03*
X152312500Y-94537500D03*
X154212500Y-94537500D03*
%TD*%
%TO.C,HE17*%
X134212500Y-96412500D03*
X133262500Y-94537500D03*
X135162500Y-94537500D03*
%TD*%
%TO.C,HE16*%
X115162500Y-96412500D03*
X114212500Y-94537500D03*
X116112500Y-94537500D03*
%TD*%
%TO.C,HE15*%
X96112500Y-96412500D03*
X95162500Y-94537500D03*
X97062500Y-94537500D03*
%TD*%
%TO.C,HE14*%
X77062500Y-96412500D03*
X76112500Y-94537500D03*
X78012500Y-94537500D03*
%TD*%
%TO.C,HE13*%
X50868750Y-96412500D03*
X49918750Y-94537500D03*
X51818750Y-94537500D03*
%TD*%
%TO.C,HE12*%
X253275000Y-77362500D03*
X252325000Y-75487500D03*
X254225000Y-75487500D03*
%TD*%
%TO.C,HE11*%
X234225000Y-77362500D03*
X233275000Y-75487500D03*
X235175000Y-75487500D03*
%TD*%
%TO.C,HE10*%
X215175000Y-77362500D03*
X214225000Y-75487500D03*
X216125000Y-75487500D03*
%TD*%
%TO.C,HE9*%
X196125000Y-77362500D03*
X195175000Y-75487500D03*
X197075000Y-75487500D03*
%TD*%
%TO.C,HE8*%
X177075000Y-77362500D03*
X176125000Y-75487500D03*
X178025000Y-75487500D03*
%TD*%
%TO.C,HE7*%
X158025000Y-77362500D03*
X157075000Y-75487500D03*
X158975000Y-75487500D03*
%TD*%
%TO.C,HE6*%
X138975000Y-77362500D03*
X138025000Y-75487500D03*
X139925000Y-75487500D03*
%TD*%
%TO.C,HE5*%
X119925000Y-77362500D03*
X118975000Y-75487500D03*
X120875000Y-75487500D03*
%TD*%
%TO.C,HE4*%
X100875000Y-77362500D03*
X99925000Y-75487500D03*
X101825000Y-75487500D03*
%TD*%
%TO.C,HE3*%
X81825000Y-77362500D03*
X80875000Y-75487500D03*
X82775000Y-75487500D03*
%TD*%
%TO.C,HE2*%
X62775000Y-77362500D03*
X61825000Y-75487500D03*
X63725000Y-75487500D03*
%TD*%
%TO.C,HE1*%
X43725000Y-77362500D03*
X42775000Y-75487500D03*
X44675000Y-75487500D03*
%TD*%
D41*
%TO.C,CR_R1*%
X93900000Y-136910000D03*
X93900000Y-135890000D03*
%TD*%
D33*
%TO.C,CR_C2*%
X92900000Y-136880000D03*
X92900000Y-135920000D03*
%TD*%
%TO.C,CR_C1*%
X92900000Y-138880000D03*
X92900000Y-137920000D03*
%TD*%
D42*
%TO.C,CR1*%
X89100000Y-137050000D03*
X91300000Y-137050000D03*
X91300000Y-138750000D03*
X89100000Y-138750000D03*
%TD*%
D33*
%TO.C,MC6*%
X101117500Y-136930000D03*
X101117500Y-135970000D03*
%TD*%
D43*
%TO.C,DESD1*%
X65630000Y-126375000D03*
X65130000Y-126375000D03*
D44*
X64630000Y-126137500D03*
X64630000Y-126325000D03*
D43*
X64130000Y-126375000D03*
X63630000Y-126375000D03*
X63630000Y-125500000D03*
X64130000Y-125500000D03*
D44*
X64630000Y-125550000D03*
X64630000Y-125687500D03*
D43*
X65130000Y-125500000D03*
X65630000Y-125500000D03*
%TD*%
D45*
%TO.C,MFB1*%
X101117500Y-134550000D03*
X103242500Y-134550000D03*
%TD*%
D26*
%TO.C,BRR3*%
X109350000Y-128680000D03*
X109350000Y-129700000D03*
%TD*%
D46*
%TO.C,BRR1*%
X110650001Y-127855000D03*
X110650001Y-129505000D03*
%TD*%
D47*
%TO.C,SWD1*%
X72960000Y-126750000D03*
X72960000Y-129290000D03*
X70420000Y-126750000D03*
D48*
X70420000Y-129290000D03*
D47*
X67880000Y-126750000D03*
D48*
X67880000Y-129290000D03*
%TD*%
D41*
%TO.C,BRR5*%
X105750000Y-137600000D03*
X105750000Y-136580000D03*
%TD*%
D33*
%TO.C,MC5*%
X100017499Y-136929998D03*
X100017499Y-135969998D03*
%TD*%
D26*
%TO.C,LMR1*%
X40440000Y-86380000D03*
X40440000Y-87400000D03*
%TD*%
D49*
%TO.C,MC1*%
X91950000Y-134600000D03*
X92910000Y-134600000D03*
%TD*%
D50*
%TO.C,BRD1*%
X111350001Y-133640000D03*
X111350001Y-131540000D03*
%TD*%
D51*
%TO.C,USBR3*%
X52700000Y-75550000D03*
X51680002Y-75550000D03*
%TD*%
D49*
%TO.C,MC7*%
X102282500Y-136050000D03*
X103242500Y-136050000D03*
%TD*%
D52*
%TO.C,LMR2*%
X37190001Y-83447500D03*
X38210001Y-83447500D03*
%TD*%
%TO.C,BRR4*%
X104730001Y-131090000D03*
X105750001Y-131090000D03*
%TD*%
D41*
%TO.C,BRR2*%
X111950001Y-129700000D03*
X111950001Y-128680000D03*
%TD*%
%TO.C,BRR6*%
X111950001Y-136580001D03*
X111950001Y-135560001D03*
%TD*%
D26*
%TO.C,BRR7*%
X110850001Y-135560000D03*
X110850001Y-136580000D03*
%TD*%
D38*
%TO.C,MC3*%
X93460000Y-124620000D03*
X93460000Y-125580000D03*
%TD*%
D53*
%TO.C,MC4*%
X102430000Y-126210000D03*
X101470000Y-126210000D03*
%TD*%
D52*
%TO.C,R3*%
X38550000Y-137905000D03*
X39570000Y-137905000D03*
%TD*%
D26*
%TO.C,BRR8*%
X105750001Y-134610000D03*
X105750001Y-135630000D03*
%TD*%
D54*
%TO.C,BS1*%
X114119111Y-132493883D03*
X118573883Y-128039111D03*
X116806117Y-135180889D03*
X121260889Y-130726117D03*
%TD*%
D51*
%TO.C,LMR3*%
X38210000Y-82417499D03*
X37190000Y-82417499D03*
%TD*%
D55*
%TO.C,BRQ1*%
X107312500Y-135630000D03*
X109187500Y-134680000D03*
X109187500Y-136580000D03*
%TD*%
D56*
%TO.C,TP1*%
X36840000Y-137905000D03*
%TD*%
D57*
%TO.C,BRQ2*%
X109125001Y-132040000D03*
X107250001Y-132990000D03*
X107250001Y-131090000D03*
%TD*%
D49*
%TO.C,MC2*%
X91950000Y-133600000D03*
X92910000Y-133600000D03*
%TD*%
D58*
%TO.C,LM1*%
X38210000Y-84962500D03*
X39160000Y-86837500D03*
X37260000Y-86837500D03*
%TD*%
D59*
%TO.C,BRC1*%
X104975001Y-128780000D03*
X107925001Y-128780000D03*
%TD*%
D38*
%TO.C,BRC2*%
X104650001Y-136640000D03*
X104650001Y-137600000D03*
%TD*%
%LPD*%
M02*
