M48
; DRILL file {KiCad 8.0.4} date 2024-09-01T23:08:26+0200
; FORMAT={-:-/ absolute / inch / decimal}
; #@! TF.CreationDate,2024-09-01T23:08:26+02:00
; #@! TF.GenerationSoftware,Kicad,Pcbnew,8.0.4
; #@! TF.FileFunction,Plated,1,4,PTH
FMAT,2
INCH
; #@! TA.AperFunction,Plated,PTH,ViaDrill
T1C0.0118
; #@! TA.AperFunction,Plated,PTH,ViaDrill
T2C0.0157
; #@! TA.AperFunction,Plated,PTH,ViaDrill
T3C0.0197
; #@! TA.AperFunction,Plated,PTH,ComponentDrill
T4C0.0236
; #@! TA.AperFunction,Plated,PTH,ComponentDrill
T5C0.0394
%
G90
G05
T1
X1.4299Y-3.2853
X1.5207Y-5.4892
X1.5207Y-5.527
X1.5797Y-3.2384
X1.5797Y-4.7384
X1.5856Y-2.9137
X1.5856Y-3.0302
X1.5856Y-4.4137
X1.5856Y-4.5302
X1.5856Y-5.1637
X1.5856Y-5.2802
X1.7215Y-3.1048
X1.7215Y-4.6048
X1.7215Y-5.3548
X1.8019Y-3.9892
X1.8019Y-4.027
X1.8179Y-3.0302
X1.8179Y-4.5302
X1.8179Y-5.2802
X1.8632Y-5.4293
X1.8669Y-3.6637
X1.8669Y-3.7802
X1.922Y-3.2378
X1.9222Y-3.1407
X1.9222Y-3.1785
X1.9222Y-4.6407
X1.9222Y-4.6785
X1.9587Y-2.939
X1.9724Y-3.0551
X1.9979Y-3.1614
X2.0027Y-3.8548
X2.0346Y-2.9744
X2.0491Y-3.0335
X2.0992Y-3.7802
X2.1275Y-3.0234
X2.1444Y-3.9293
X2.179Y-3.1616
X2.2441Y-3.2378
X2.2707Y-5.4892
X2.2707Y-5.527
X2.3297Y-3.2384
X2.3297Y-4.7384
X2.3356Y-2.9137
X2.3356Y-3.0302
X2.3356Y-4.4137
X2.3356Y-4.5302
X2.3356Y-5.1637
X2.3356Y-5.2802
X2.4715Y-3.1048
X2.4715Y-4.6048
X2.4715Y-5.3548
X2.5449Y-4.9028
X2.5449Y-5.0173
X2.5679Y-3.0302
X2.5679Y-4.5302
X2.5679Y-5.2802
X2.5823Y-2.7756
X2.6132Y-5.4293
X2.6722Y-3.1407
X2.6722Y-3.1785
X2.6722Y-4.6407
X2.6722Y-4.6785
X2.6732Y-4.2374
X2.6949Y-2.8996
X2.7205Y-2.8799
X2.7205Y-2.9173
X2.7461Y-2.8986
X2.753Y-4.2451
X2.7589Y-4.3789
X2.7732Y-4.9209
X2.7844Y-4.2352
X2.7904Y-4.3691
X2.802Y-4.8972
X2.8159Y-4.2451
X2.8219Y-4.3789
X2.8332Y-3.9892
X2.8332Y-4.027
X2.8474Y-4.2352
X2.8533Y-4.3691
X2.8543Y-4.7382
X2.8789Y-4.2451
X2.8848Y-4.3789
X2.8981Y-3.6637
X2.8981Y-3.7802
X2.9104Y-4.2352
X2.9163Y-4.3691
X2.9419Y-4.2451
X2.9478Y-4.3789
X2.9559Y-4.9902
X2.9734Y-4.2352
X2.9793Y-4.3691
X2.9815Y-4.0992
X2.9874Y-4.5075
X3.0069Y-4.2483
X3.0201Y-4.7382
X3.0207Y-5.4892
X3.0207Y-5.527
X3.0287Y-4.3495
X3.0335Y-4.2697
X3.034Y-3.8548
X3.0417Y-2.8626
X3.0778Y-4.4055
X3.0797Y-3.2384
X3.0856Y-2.9137
X3.0856Y-3.0302
X3.0856Y-4.9185
X3.0856Y-5.2802
X3.1304Y-3.7802
X3.1735Y-4.7384
X3.1757Y-3.9293
X3.1794Y-4.4137
X3.1794Y-4.5302
X3.2215Y-3.1048
X3.2215Y-5.3548
X3.2524Y-3.9862
X3.3152Y-4.6048
X3.3179Y-3.0302
X3.3179Y-5.2802
X3.3632Y-5.4293
X3.3717Y-3.928
X3.4117Y-4.5302
X3.4222Y-3.1407
X3.4222Y-3.1785
X3.4457Y-5.1047
X3.4693Y-5.0811
X3.4929Y-5.0575
X3.516Y-4.6407
X3.516Y-4.6785
X3.5165Y-5.0339
X3.5402Y-5.0102
X3.5638Y-4.9866
X3.5768Y-5.1303
X3.5832Y-3.9892
X3.5832Y-4.027
X3.6406Y-4.9063
X3.6481Y-3.6637
X3.6481Y-3.7802
X3.7114Y-5.157
X3.7343Y-4.7384
X3.737Y-5.3906
X3.784Y-3.8548
X3.798Y-5.4138
X3.8297Y-3.2384
X3.8356Y-2.9137
X3.8356Y-3.0302
X3.8626Y-4.7384
X3.8804Y-3.7802
X3.9257Y-3.9293
X3.939Y-5.1437
X3.9394Y-5.0846
X3.9715Y-3.1048
X4.0172Y-4.7384
X4.0231Y-4.4137
X4.0231Y-4.5302
X4.0269Y-5.3909
X4.0327Y-4.924
X4.0679Y-3.0302
X4.159Y-4.6048
X4.1722Y-3.1407
X4.1722Y-3.1785
X4.2554Y-4.5302
X4.3332Y-3.9892
X4.3332Y-4.027
X4.3569Y-5.0632
X4.3597Y-4.6407
X4.3597Y-4.6785
X4.3981Y-3.6637
X4.3981Y-3.7802
X4.534Y-3.8548
X4.5797Y-3.2384
X4.5856Y-2.9137
X4.5856Y-3.0302
X4.6304Y-3.7802
X4.6757Y-3.9293
X4.7215Y-3.1048
X4.7672Y-4.7384
X4.7731Y-4.4137
X4.7731Y-4.5302
X4.8019Y-5.4892
X4.8019Y-5.527
X4.8179Y-3.0302
X4.8669Y-5.1637
X4.8669Y-5.2802
X4.909Y-4.6048
X4.9222Y-3.1407
X4.9222Y-3.1785
X5.0027Y-5.3548
X5.0054Y-4.5302
X5.0832Y-3.9892
X5.0832Y-4.027
X5.0992Y-5.2802
X5.1097Y-4.6407
X5.1097Y-4.6785
X5.1444Y-5.4293
X5.1481Y-3.6637
X5.1481Y-3.7802
X5.284Y-3.8548
X5.3297Y-3.2384
X5.3356Y-2.9137
X5.3356Y-3.0302
X5.3804Y-3.7802
X5.4193Y-4.1193
X5.4257Y-3.9293
X5.4715Y-3.1048
X5.499Y-4.127
X5.5049Y-4.2608
X5.5172Y-4.7384
X5.5231Y-4.4137
X5.5231Y-4.5302
X5.5305Y-4.1171
X5.5364Y-4.251
X5.562Y-4.127
X5.5679Y-3.0302
X5.5679Y-4.2608
X5.5935Y-4.1171
X5.5994Y-4.251
X5.625Y-4.127
X5.6309Y-4.2608
X5.6565Y-4.1171
X5.659Y-4.6048
X5.6624Y-4.251
X5.6722Y-3.1407
X5.6722Y-3.1785
X5.688Y-4.127
X5.6939Y-4.2608
X5.7024Y-3.9791
X5.7195Y-4.1171
X5.7254Y-4.251
X5.7272Y-4.389
X5.7554Y-4.5302
X5.7744Y-4.1577
X5.8043Y-4.1823
X5.8238Y-4.2874
X5.8332Y-3.9892
X5.8332Y-4.027
X5.8597Y-4.6407
X5.8597Y-4.6785
X5.8981Y-3.6637
X5.8981Y-3.7802
X5.9287Y-4.3378
X6.034Y-3.8548
X6.0797Y-3.2384
X6.0856Y-2.9137
X6.0856Y-3.0302
X6.1304Y-3.7802
X6.1757Y-3.9293
X6.2215Y-3.1048
X6.2672Y-4.7384
X6.2731Y-4.4137
X6.2731Y-4.5302
X6.3179Y-3.0302
X6.409Y-4.6048
X6.4222Y-3.1407
X6.4222Y-3.1785
X6.5054Y-4.5302
X6.5832Y-3.9892
X6.5832Y-4.027
X6.6097Y-4.6407
X6.6097Y-4.6785
X6.6481Y-3.6637
X6.6481Y-3.7802
X6.6769Y-5.4892
X6.6769Y-5.527
X6.7419Y-5.1637
X6.7419Y-5.2802
X6.784Y-3.8548
X6.8297Y-3.2384
X6.8356Y-2.9137
X6.8356Y-3.0302
X6.8777Y-5.3548
X6.8804Y-3.7802
X6.9257Y-3.9293
X6.9715Y-3.1048
X6.9742Y-5.2802
X7.0172Y-4.7384
X7.0194Y-5.4293
X7.0231Y-4.4137
X7.0231Y-4.5302
X7.0679Y-3.0302
X7.159Y-4.6048
X7.1722Y-3.1407
X7.1722Y-3.1785
X7.2554Y-4.5302
X7.3332Y-3.9892
X7.3332Y-4.027
X7.3597Y-4.6407
X7.3597Y-4.6785
X7.3981Y-3.6637
X7.3981Y-3.7802
X7.534Y-3.8548
X7.5797Y-3.2384
X7.5856Y-2.9137
X7.5856Y-3.0302
X7.6304Y-3.7802
X7.6757Y-3.9293
X7.7215Y-3.1048
X7.7672Y-4.7384
X7.7731Y-4.4137
X7.7731Y-4.5302
X7.8179Y-3.0302
X7.909Y-4.6048
X7.9222Y-3.1407
X7.9222Y-3.1785
X7.9894Y-5.4892
X7.9894Y-5.527
X8.0054Y-4.5302
X8.0544Y-5.1637
X8.0544Y-5.2802
X8.0832Y-3.9892
X8.0832Y-4.027
X8.0858Y-4.7384
X8.1097Y-4.6407
X8.1097Y-4.6785
X8.1481Y-3.6637
X8.1481Y-3.7802
X8.1902Y-5.3548
X8.284Y-3.8548
X8.2867Y-5.2802
X8.3297Y-3.2384
X8.3319Y-5.4293
X8.3356Y-2.9137
X8.3356Y-3.0302
X8.3421Y-4.7384
X8.3804Y-3.7802
X8.4114Y-4.1193
X8.4257Y-3.9293
X8.4715Y-3.1048
X8.4911Y-4.127
X8.497Y-4.2608
X8.5172Y-4.7384
X8.5226Y-4.1171
X8.5231Y-4.4137
X8.5231Y-4.5302
X8.5285Y-4.251
X8.5541Y-4.127
X8.56Y-4.2608
X8.5679Y-3.0302
X8.5856Y-4.1171
X8.5915Y-4.251
X8.6171Y-4.127
X8.623Y-4.2608
X8.6486Y-4.1171
X8.6545Y-4.251
X8.659Y-4.6048
X8.6722Y-3.1407
X8.6722Y-3.1785
X8.6801Y-4.127
X8.686Y-4.2608
X8.6872Y-4.3886
X8.7116Y-4.1171
X8.7175Y-4.251
X8.7193Y-3.9748
X8.7272Y-4.1504
X8.7385Y-4.3993
X8.7419Y-4.1782
X8.7554Y-4.5302
X8.8159Y-4.2874
X8.8332Y-3.9892
X8.8332Y-4.027
X8.8332Y-5.4892
X8.8332Y-5.527
X8.8597Y-4.6407
X8.8597Y-4.6785
X8.8981Y-3.6637
X8.8981Y-3.7802
X8.8981Y-5.1637
X8.8981Y-5.2802
X9.034Y-3.8548
X9.034Y-5.3548
X9.0797Y-3.2384
X9.0856Y-2.9137
X9.0856Y-3.0302
X9.1304Y-3.7802
X9.1304Y-5.2802
X9.1757Y-3.9293
X9.1757Y-5.4293
X9.2215Y-3.1048
X9.3179Y-3.0302
X9.4222Y-3.1407
X9.4222Y-3.1785
X9.5485Y-4.7384
X9.5544Y-4.4137
X9.5544Y-4.5302
X9.6769Y-3.9892
X9.6769Y-4.027
X9.6769Y-5.4892
X9.6769Y-5.527
X9.6902Y-4.6048
X9.7419Y-3.6637
X9.7419Y-3.7802
X9.7419Y-5.1637
X9.7419Y-5.2802
X9.7867Y-4.5302
X9.8297Y-3.2384
X9.8356Y-2.9137
X9.8356Y-3.0302
X9.8777Y-3.8548
X9.8777Y-5.3548
X9.891Y-4.6407
X9.891Y-4.6785
X9.9715Y-3.1048
X9.9742Y-3.7802
X9.9742Y-5.2802
X10.0194Y-3.9293
X10.0194Y-5.4293
X10.0679Y-3.0302
X10.1722Y-3.1407
X10.1722Y-3.1785
T2
X3.5512Y-5.3512
X3.6969Y-5.4299
X4.1204Y-5.3441
X4.1232Y-5.1272
X4.2224Y-5.2689
X4.4082Y-5.1417
X4.6878Y-5.2331
T3
X1.8799Y-2.6713
X1.8799Y-2.8358
X2.313Y-2.6713
X2.313Y-2.8358
T4
X3.748Y-5.0354
X3.748Y-5.1929
X3.8268Y-5.1142
X3.9055Y-5.0354
X3.9055Y-5.1929
T5
X2.6724Y-4.9902
X2.6724Y-5.0902
X2.7724Y-4.9902
X2.7724Y-5.0902
X2.8724Y-4.9902
X2.8724Y-5.0902
T4
G00X1.9264Y-2.6831
M15
G01X1.9264Y-2.6594
M16
G05
G00X1.9264Y-2.8575
M15
G01X1.9264Y-2.8142
M16
G05
G00X2.2665Y-2.6831
M15
G01X2.2665Y-2.6594
M16
G05
G00X2.2665Y-2.8575
M15
G01X2.2665Y-2.8142
M16
G05
M30
