%TF.GenerationSoftware,KiCad,Pcbnew,8.0.4*%
%TF.CreationDate,2024-09-22T03:38:46+02:00*%
%TF.ProjectId,feb42-rounded,66656234-322d-4726-9f75-6e6465642e6b,rev?*%
%TF.SameCoordinates,Original*%
%TF.FileFunction,Legend,Top*%
%TF.FilePolarity,Positive*%
%FSLAX46Y46*%
G04 Gerber Fmt 4.6, Leading zero omitted, Abs format (unit mm)*
G04 Created by KiCad (PCBNEW 8.0.4) date 2024-09-22 03:38:46*
%MOMM*%
%LPD*%
G01*
G04 APERTURE LIST*
G04 Aperture macros list*
%AMRoundRect*
0 Rectangle with rounded corners*
0 $1 Rounding radius*
0 $2 $3 $4 $5 $6 $7 $8 $9 X,Y pos of 4 corners*
0 Add a 4 corners polygon primitive as box body*
4,1,4,$2,$3,$4,$5,$6,$7,$8,$9,$2,$3,0*
0 Add four circle primitives for the rounded corners*
1,1,$1+$1,$2,$3*
1,1,$1+$1,$4,$5*
1,1,$1+$1,$6,$7*
1,1,$1+$1,$8,$9*
0 Add four rect primitives between the rounded corners*
20,1,$1+$1,$2,$3,$4,$5,0*
20,1,$1+$1,$4,$5,$6,$7,0*
20,1,$1+$1,$6,$7,$8,$9,0*
20,1,$1+$1,$8,$9,$2,$3,0*%
G04 Aperture macros list end*
%ADD10C,0.300000*%
%ADD11C,0.200000*%
%ADD12C,0.250000*%
%ADD13C,0.120000*%
%ADD14C,0.100000*%
%ADD15C,0.150000*%
%ADD16C,0.000000*%
%ADD17C,0.700000*%
%ADD18C,0.500000*%
%ADD19RoundRect,0.135000X-0.185000X0.135000X-0.185000X-0.135000X0.185000X-0.135000X0.185000X0.135000X0*%
%ADD20RoundRect,0.135000X0.185000X-0.135000X0.185000X0.135000X-0.185000X0.135000X-0.185000X-0.135000X0*%
%ADD21RoundRect,0.140000X-0.170000X0.140000X-0.170000X-0.140000X0.170000X-0.140000X0.170000X0.140000X0*%
%ADD22RoundRect,0.140000X0.170000X-0.140000X0.170000X0.140000X-0.170000X0.140000X-0.170000X-0.140000X0*%
%ADD23RoundRect,0.200000X0.525000X0.200000X-0.525000X0.200000X-0.525000X-0.200000X0.525000X-0.200000X0*%
%ADD24RoundRect,0.200000X-0.525000X-0.200000X0.525000X-0.200000X0.525000X0.200000X-0.525000X0.200000X0*%
%ADD25RoundRect,0.135000X-0.035355X0.226274X-0.226274X0.035355X0.035355X-0.226274X0.226274X-0.035355X0*%
%ADD26RoundRect,0.150000X-0.150000X0.587500X-0.150000X-0.587500X0.150000X-0.587500X0.150000X0.587500X0*%
%ADD27RoundRect,0.250000X-0.689429X-0.229810X-0.229810X-0.689429X0.689429X0.229810X0.229810X0.689429X0*%
%ADD28RoundRect,0.250000X-0.475000X0.250000X-0.475000X-0.250000X0.475000X-0.250000X0.475000X0.250000X0*%
%ADD29C,0.650000*%
%ADD30RoundRect,0.150000X0.150000X0.575000X-0.150000X0.575000X-0.150000X-0.575000X0.150000X-0.575000X0*%
%ADD31RoundRect,0.075000X0.075000X0.650000X-0.075000X0.650000X-0.075000X-0.650000X0.075000X-0.650000X0*%
%ADD32O,1.000000X2.100000*%
%ADD33O,1.000000X1.600000*%
%ADD34RoundRect,0.112500X0.112500X-0.737500X0.112500X0.737500X-0.112500X0.737500X-0.112500X-0.737500X0*%
%ADD35O,1.700000X1.700000*%
%ADD36RoundRect,0.250000X0.600000X-0.600000X0.600000X0.600000X-0.600000X0.600000X-0.600000X-0.600000X0*%
%ADD37RoundRect,0.250000X1.075000X-0.375000X1.075000X0.375000X-1.075000X0.375000X-1.075000X-0.375000X0*%
%ADD38RoundRect,0.250000X-0.375000X-0.625000X0.375000X-0.625000X0.375000X0.625000X-0.375000X0.625000X0*%
%ADD39RoundRect,0.140000X0.140000X0.170000X-0.140000X0.170000X-0.140000X-0.170000X0.140000X-0.170000X0*%
%ADD40RoundRect,0.250000X-0.450000X-0.350000X0.450000X-0.350000X0.450000X0.350000X-0.450000X0.350000X0*%
%ADD41RoundRect,0.218750X0.381250X-0.218750X0.381250X0.218750X-0.381250X0.218750X-0.381250X-0.218750X0*%
%ADD42RoundRect,0.135000X0.135000X0.185000X-0.135000X0.185000X-0.135000X-0.185000X0.135000X-0.185000X0*%
%ADD43RoundRect,0.175000X-0.175000X-0.325000X0.175000X-0.325000X0.175000X0.325000X-0.175000X0.325000X0*%
%ADD44RoundRect,0.150000X-0.200000X-0.150000X0.200000X-0.150000X0.200000X0.150000X-0.200000X0.150000X0*%
%ADD45RoundRect,0.135000X-0.135000X-0.185000X0.135000X-0.185000X0.135000X0.185000X-0.135000X0.185000X0*%
%ADD46RoundRect,0.062500X0.062500X-0.375000X0.062500X0.375000X-0.062500X0.375000X-0.062500X-0.375000X0*%
%ADD47RoundRect,0.062500X0.375000X-0.062500X0.375000X0.062500X-0.375000X0.062500X-0.375000X-0.062500X0*%
%ADD48RoundRect,0.112500X-0.212132X0.053033X0.053033X-0.212132X0.212132X-0.053033X-0.053033X0.212132X0*%
%ADD49RoundRect,0.250000X0.600000X0.250000X-0.600000X0.250000X-0.600000X-0.250000X0.600000X-0.250000X0*%
%ADD50RoundRect,0.135000X0.226274X0.035355X0.035355X0.226274X-0.226274X-0.035355X-0.035355X-0.226274X0*%
%ADD51RoundRect,0.135000X-0.226274X-0.035355X-0.035355X-0.226274X0.226274X0.035355X0.035355X0.226274X0*%
%ADD52C,1.500000*%
%ADD53RoundRect,0.218750X-0.256250X0.218750X-0.256250X-0.218750X0.256250X-0.218750X0.256250X0.218750X0*%
%ADD54RoundRect,0.150000X0.150000X-0.587500X0.150000X0.587500X-0.150000X0.587500X-0.150000X-0.587500X0*%
%ADD55RoundRect,0.150000X-0.512500X-0.150000X0.512500X-0.150000X0.512500X0.150000X-0.512500X0.150000X0*%
G04 APERTURE END LIST*
D10*
X36840000Y-136705000D02*
X36325000Y-136130000D01*
X131775000Y-123275000D02*
X135000000Y-123275000D01*
X135000000Y-130275000D01*
X131775000Y-130275000D01*
X131775000Y-123275000D01*
X36325000Y-136130000D02*
X36325000Y-135325000D01*
X127068750Y-126775000D02*
X131750000Y-126775000D01*
D11*
X35899042Y-133053571D02*
X36327614Y-132753571D01*
X35899042Y-132539285D02*
X36799042Y-132539285D01*
X36799042Y-132539285D02*
X36799042Y-132882142D01*
X36799042Y-132882142D02*
X36756185Y-132967857D01*
X36756185Y-132967857D02*
X36713328Y-133010714D01*
X36713328Y-133010714D02*
X36627614Y-133053571D01*
X36627614Y-133053571D02*
X36499042Y-133053571D01*
X36499042Y-133053571D02*
X36413328Y-133010714D01*
X36413328Y-133010714D02*
X36370471Y-132967857D01*
X36370471Y-132967857D02*
X36327614Y-132882142D01*
X36327614Y-132882142D02*
X36327614Y-132539285D01*
X36756185Y-133910714D02*
X36799042Y-133825000D01*
X36799042Y-133825000D02*
X36799042Y-133696428D01*
X36799042Y-133696428D02*
X36756185Y-133567857D01*
X36756185Y-133567857D02*
X36670471Y-133482142D01*
X36670471Y-133482142D02*
X36584757Y-133439285D01*
X36584757Y-133439285D02*
X36413328Y-133396428D01*
X36413328Y-133396428D02*
X36284757Y-133396428D01*
X36284757Y-133396428D02*
X36113328Y-133439285D01*
X36113328Y-133439285D02*
X36027614Y-133482142D01*
X36027614Y-133482142D02*
X35941900Y-133567857D01*
X35941900Y-133567857D02*
X35899042Y-133696428D01*
X35899042Y-133696428D02*
X35899042Y-133782142D01*
X35899042Y-133782142D02*
X35941900Y-133910714D01*
X35941900Y-133910714D02*
X35984757Y-133953571D01*
X35984757Y-133953571D02*
X36284757Y-133953571D01*
X36284757Y-133953571D02*
X36284757Y-133782142D01*
X36370471Y-134639285D02*
X36327614Y-134767857D01*
X36327614Y-134767857D02*
X36284757Y-134810714D01*
X36284757Y-134810714D02*
X36199042Y-134853571D01*
X36199042Y-134853571D02*
X36070471Y-134853571D01*
X36070471Y-134853571D02*
X35984757Y-134810714D01*
X35984757Y-134810714D02*
X35941900Y-134767857D01*
X35941900Y-134767857D02*
X35899042Y-134682142D01*
X35899042Y-134682142D02*
X35899042Y-134339285D01*
X35899042Y-134339285D02*
X36799042Y-134339285D01*
X36799042Y-134339285D02*
X36799042Y-134639285D01*
X36799042Y-134639285D02*
X36756185Y-134725000D01*
X36756185Y-134725000D02*
X36713328Y-134767857D01*
X36713328Y-134767857D02*
X36627614Y-134810714D01*
X36627614Y-134810714D02*
X36541900Y-134810714D01*
X36541900Y-134810714D02*
X36456185Y-134767857D01*
X36456185Y-134767857D02*
X36413328Y-134725000D01*
X36413328Y-134725000D02*
X36370471Y-134639285D01*
X36370471Y-134639285D02*
X36370471Y-134339285D01*
D12*
X133370214Y-128810714D02*
X133441642Y-128596428D01*
X133441642Y-128596428D02*
X133513071Y-128524999D01*
X133513071Y-128524999D02*
X133655928Y-128453571D01*
X133655928Y-128453571D02*
X133870214Y-128453571D01*
X133870214Y-128453571D02*
X134013071Y-128524999D01*
X134013071Y-128524999D02*
X134084500Y-128596428D01*
X134084500Y-128596428D02*
X134155928Y-128739285D01*
X134155928Y-128739285D02*
X134155928Y-129310714D01*
X134155928Y-129310714D02*
X132655928Y-129310714D01*
X132655928Y-129310714D02*
X132655928Y-128810714D01*
X132655928Y-128810714D02*
X132727357Y-128667857D01*
X132727357Y-128667857D02*
X132798785Y-128596428D01*
X132798785Y-128596428D02*
X132941642Y-128524999D01*
X132941642Y-128524999D02*
X133084500Y-128524999D01*
X133084500Y-128524999D02*
X133227357Y-128596428D01*
X133227357Y-128596428D02*
X133298785Y-128667857D01*
X133298785Y-128667857D02*
X133370214Y-128810714D01*
X133370214Y-128810714D02*
X133370214Y-129310714D01*
X132655928Y-127524999D02*
X132655928Y-127239285D01*
X132655928Y-127239285D02*
X132727357Y-127096428D01*
X132727357Y-127096428D02*
X132870214Y-126953571D01*
X132870214Y-126953571D02*
X133155928Y-126882142D01*
X133155928Y-126882142D02*
X133655928Y-126882142D01*
X133655928Y-126882142D02*
X133941642Y-126953571D01*
X133941642Y-126953571D02*
X134084500Y-127096428D01*
X134084500Y-127096428D02*
X134155928Y-127239285D01*
X134155928Y-127239285D02*
X134155928Y-127524999D01*
X134155928Y-127524999D02*
X134084500Y-127667857D01*
X134084500Y-127667857D02*
X133941642Y-127810714D01*
X133941642Y-127810714D02*
X133655928Y-127882142D01*
X133655928Y-127882142D02*
X133155928Y-127882142D01*
X133155928Y-127882142D02*
X132870214Y-127810714D01*
X132870214Y-127810714D02*
X132727357Y-127667857D01*
X132727357Y-127667857D02*
X132655928Y-127524999D01*
X132655928Y-125953570D02*
X132655928Y-125667856D01*
X132655928Y-125667856D02*
X132727357Y-125524999D01*
X132727357Y-125524999D02*
X132870214Y-125382142D01*
X132870214Y-125382142D02*
X133155928Y-125310713D01*
X133155928Y-125310713D02*
X133655928Y-125310713D01*
X133655928Y-125310713D02*
X133941642Y-125382142D01*
X133941642Y-125382142D02*
X134084500Y-125524999D01*
X134084500Y-125524999D02*
X134155928Y-125667856D01*
X134155928Y-125667856D02*
X134155928Y-125953570D01*
X134155928Y-125953570D02*
X134084500Y-126096428D01*
X134084500Y-126096428D02*
X133941642Y-126239285D01*
X133941642Y-126239285D02*
X133655928Y-126310713D01*
X133655928Y-126310713D02*
X133155928Y-126310713D01*
X133155928Y-126310713D02*
X132870214Y-126239285D01*
X132870214Y-126239285D02*
X132727357Y-126096428D01*
X132727357Y-126096428D02*
X132655928Y-125953570D01*
X132655928Y-124882141D02*
X132655928Y-124024999D01*
X134155928Y-124453570D02*
X132655928Y-124453570D01*
X55632143Y-125614098D02*
X55632143Y-124871241D01*
X55632143Y-124871241D02*
X56089286Y-125271241D01*
X56089286Y-125271241D02*
X56089286Y-125099812D01*
X56089286Y-125099812D02*
X56146429Y-124985527D01*
X56146429Y-124985527D02*
X56203572Y-124928384D01*
X56203572Y-124928384D02*
X56317858Y-124871241D01*
X56317858Y-124871241D02*
X56603572Y-124871241D01*
X56603572Y-124871241D02*
X56717858Y-124928384D01*
X56717858Y-124928384D02*
X56775001Y-124985527D01*
X56775001Y-124985527D02*
X56832143Y-125099812D01*
X56832143Y-125099812D02*
X56832143Y-125442669D01*
X56832143Y-125442669D02*
X56775001Y-125556955D01*
X56775001Y-125556955D02*
X56717858Y-125614098D01*
X55632143Y-124528384D02*
X56832143Y-124128384D01*
X56832143Y-124128384D02*
X55632143Y-123728384D01*
X55632143Y-123442670D02*
X55632143Y-122699813D01*
X55632143Y-122699813D02*
X56089286Y-123099813D01*
X56089286Y-123099813D02*
X56089286Y-122928384D01*
X56089286Y-122928384D02*
X56146429Y-122814099D01*
X56146429Y-122814099D02*
X56203572Y-122756956D01*
X56203572Y-122756956D02*
X56317858Y-122699813D01*
X56317858Y-122699813D02*
X56603572Y-122699813D01*
X56603572Y-122699813D02*
X56717858Y-122756956D01*
X56717858Y-122756956D02*
X56775001Y-122814099D01*
X56775001Y-122814099D02*
X56832143Y-122928384D01*
X56832143Y-122928384D02*
X56832143Y-123271241D01*
X56832143Y-123271241D02*
X56775001Y-123385527D01*
X56775001Y-123385527D02*
X56717858Y-123442670D01*
X58172143Y-125271241D02*
X58172143Y-125042669D01*
X58172143Y-125042669D02*
X58229286Y-124928384D01*
X58229286Y-124928384D02*
X58343572Y-124814098D01*
X58343572Y-124814098D02*
X58572143Y-124756955D01*
X58572143Y-124756955D02*
X58972143Y-124756955D01*
X58972143Y-124756955D02*
X59200715Y-124814098D01*
X59200715Y-124814098D02*
X59315001Y-124928384D01*
X59315001Y-124928384D02*
X59372143Y-125042669D01*
X59372143Y-125042669D02*
X59372143Y-125271241D01*
X59372143Y-125271241D02*
X59315001Y-125385527D01*
X59315001Y-125385527D02*
X59200715Y-125499812D01*
X59200715Y-125499812D02*
X58972143Y-125556955D01*
X58972143Y-125556955D02*
X58572143Y-125556955D01*
X58572143Y-125556955D02*
X58343572Y-125499812D01*
X58343572Y-125499812D02*
X58229286Y-125385527D01*
X58229286Y-125385527D02*
X58172143Y-125271241D01*
X58172143Y-124242669D02*
X59143572Y-124242669D01*
X59143572Y-124242669D02*
X59257858Y-124185526D01*
X59257858Y-124185526D02*
X59315001Y-124128384D01*
X59315001Y-124128384D02*
X59372143Y-124014098D01*
X59372143Y-124014098D02*
X59372143Y-123785526D01*
X59372143Y-123785526D02*
X59315001Y-123671241D01*
X59315001Y-123671241D02*
X59257858Y-123614098D01*
X59257858Y-123614098D02*
X59143572Y-123556955D01*
X59143572Y-123556955D02*
X58172143Y-123556955D01*
X58172143Y-123156955D02*
X58172143Y-122471241D01*
X59372143Y-122814098D02*
X58172143Y-122814098D01*
X49212143Y-125499812D02*
X48012143Y-125499812D01*
X47955001Y-124071240D02*
X49497858Y-125099812D01*
X48012143Y-123442669D02*
X48012143Y-123214097D01*
X48012143Y-123214097D02*
X48069286Y-123099812D01*
X48069286Y-123099812D02*
X48183572Y-122985526D01*
X48183572Y-122985526D02*
X48412143Y-122928383D01*
X48412143Y-122928383D02*
X48812143Y-122928383D01*
X48812143Y-122928383D02*
X49040715Y-122985526D01*
X49040715Y-122985526D02*
X49155001Y-123099812D01*
X49155001Y-123099812D02*
X49212143Y-123214097D01*
X49212143Y-123214097D02*
X49212143Y-123442669D01*
X49212143Y-123442669D02*
X49155001Y-123556955D01*
X49155001Y-123556955D02*
X49040715Y-123671240D01*
X49040715Y-123671240D02*
X48812143Y-123728383D01*
X48812143Y-123728383D02*
X48412143Y-123728383D01*
X48412143Y-123728383D02*
X48183572Y-123671240D01*
X48183572Y-123671240D02*
X48069286Y-123556955D01*
X48069286Y-123556955D02*
X48012143Y-123442669D01*
X50609286Y-124871241D02*
X50552143Y-124985527D01*
X50552143Y-124985527D02*
X50552143Y-125156955D01*
X50552143Y-125156955D02*
X50609286Y-125328384D01*
X50609286Y-125328384D02*
X50723572Y-125442669D01*
X50723572Y-125442669D02*
X50837858Y-125499812D01*
X50837858Y-125499812D02*
X51066429Y-125556955D01*
X51066429Y-125556955D02*
X51237858Y-125556955D01*
X51237858Y-125556955D02*
X51466429Y-125499812D01*
X51466429Y-125499812D02*
X51580715Y-125442669D01*
X51580715Y-125442669D02*
X51695001Y-125328384D01*
X51695001Y-125328384D02*
X51752143Y-125156955D01*
X51752143Y-125156955D02*
X51752143Y-125042669D01*
X51752143Y-125042669D02*
X51695001Y-124871241D01*
X51695001Y-124871241D02*
X51637858Y-124814098D01*
X51637858Y-124814098D02*
X51237858Y-124814098D01*
X51237858Y-124814098D02*
X51237858Y-125042669D01*
X51752143Y-124299812D02*
X50552143Y-124299812D01*
X50552143Y-124299812D02*
X51752143Y-123614098D01*
X51752143Y-123614098D02*
X50552143Y-123614098D01*
X51752143Y-123042669D02*
X50552143Y-123042669D01*
X50552143Y-123042669D02*
X50552143Y-122756955D01*
X50552143Y-122756955D02*
X50609286Y-122585526D01*
X50609286Y-122585526D02*
X50723572Y-122471241D01*
X50723572Y-122471241D02*
X50837858Y-122414098D01*
X50837858Y-122414098D02*
X51066429Y-122356955D01*
X51066429Y-122356955D02*
X51237858Y-122356955D01*
X51237858Y-122356955D02*
X51466429Y-122414098D01*
X51466429Y-122414098D02*
X51580715Y-122471241D01*
X51580715Y-122471241D02*
X51695001Y-122585526D01*
X51695001Y-122585526D02*
X51752143Y-122756955D01*
X51752143Y-122756955D02*
X51752143Y-123042669D01*
X54177858Y-124814098D02*
X54235001Y-124871241D01*
X54235001Y-124871241D02*
X54292143Y-125042669D01*
X54292143Y-125042669D02*
X54292143Y-125156955D01*
X54292143Y-125156955D02*
X54235001Y-125328384D01*
X54235001Y-125328384D02*
X54120715Y-125442669D01*
X54120715Y-125442669D02*
X54006429Y-125499812D01*
X54006429Y-125499812D02*
X53777858Y-125556955D01*
X53777858Y-125556955D02*
X53606429Y-125556955D01*
X53606429Y-125556955D02*
X53377858Y-125499812D01*
X53377858Y-125499812D02*
X53263572Y-125442669D01*
X53263572Y-125442669D02*
X53149286Y-125328384D01*
X53149286Y-125328384D02*
X53092143Y-125156955D01*
X53092143Y-125156955D02*
X53092143Y-125042669D01*
X53092143Y-125042669D02*
X53149286Y-124871241D01*
X53149286Y-124871241D02*
X53206429Y-124814098D01*
X54292143Y-123728384D02*
X54292143Y-124299812D01*
X54292143Y-124299812D02*
X53092143Y-124299812D01*
X54292143Y-123328383D02*
X53092143Y-123328383D01*
X54292143Y-122642669D02*
X53606429Y-123156955D01*
X53092143Y-122642669D02*
X53777858Y-123328383D01*
D13*
%TO.C,R6*%
X109120000Y-138386360D02*
X109120000Y-138693642D01*
X109880000Y-138386360D02*
X109880000Y-138693642D01*
%TO.C,R2*%
X119910001Y-126216140D02*
X119910001Y-125908858D01*
X120670001Y-126216140D02*
X120670001Y-125908858D01*
%TO.C,HECC30*%
X158977500Y-113479664D02*
X158977500Y-113695336D01*
X159697500Y-113479664D02*
X159697500Y-113695336D01*
%TO.C,HER5*%
X117095000Y-75641141D02*
X117095000Y-75333859D01*
X117855000Y-75641141D02*
X117855000Y-75333859D01*
%TO.C,HECC39*%
X170883750Y-132529664D02*
X170883750Y-132745336D01*
X171603750Y-132529664D02*
X171603750Y-132745336D01*
%TO.C,LEDC10*%
X218915000Y-80147164D02*
X218915000Y-80362836D01*
X219635000Y-80147164D02*
X219635000Y-80362836D01*
%TO.C,LEDC20*%
X186902500Y-101912836D02*
X186902500Y-101697164D01*
X187622500Y-101912836D02*
X187622500Y-101697164D01*
%TO.C,HER9*%
X193295000Y-75641141D02*
X193295000Y-75333859D01*
X194055000Y-75641141D02*
X194055000Y-75333859D01*
%TO.C,HECC22*%
X225652500Y-94429664D02*
X225652500Y-94645336D01*
X226372500Y-94429664D02*
X226372500Y-94645336D01*
%TO.C,HEC3*%
X83915000Y-75379664D02*
X83915000Y-75595336D01*
X84635000Y-75379664D02*
X84635000Y-75595336D01*
D14*
%TO.C,LED14*%
X79694500Y-98777000D02*
X79094500Y-98777000D01*
X79094500Y-98177000D01*
X79694500Y-98777000D01*
G36*
X79694500Y-98777000D02*
G01*
X79094500Y-98777000D01*
X79094500Y-98177000D01*
X79694500Y-98777000D01*
G37*
%TO.C,LED41*%
X232094500Y-136877000D02*
X231494500Y-136877000D01*
X231494500Y-136277000D01*
X232094500Y-136877000D01*
G36*
X232094500Y-136877000D02*
G01*
X231494500Y-136877000D01*
X231494500Y-136277000D01*
X232094500Y-136877000D01*
G37*
D13*
%TO.C,HEC35*%
X45815000Y-132529664D02*
X45815000Y-132745336D01*
X46535000Y-132529664D02*
X46535000Y-132745336D01*
%TO.C,LEDC35*%
X39265000Y-140012836D02*
X39265000Y-139797164D01*
X39985000Y-140012836D02*
X39985000Y-139797164D01*
%TO.C,HER27*%
X102807500Y-113741141D02*
X102807500Y-113433859D01*
X103567500Y-113741141D02*
X103567500Y-113433859D01*
%TO.C,LEDC40*%
X203571250Y-140012836D02*
X203571250Y-139797164D01*
X204291250Y-140012836D02*
X204291250Y-139797164D01*
D14*
%TO.C,LED4*%
X98843000Y-83883000D02*
X98243000Y-83283000D01*
X98843000Y-83283000D01*
X98843000Y-83883000D01*
G36*
X98843000Y-83883000D02*
G01*
X98243000Y-83283000D01*
X98843000Y-83283000D01*
X98843000Y-83883000D01*
G37*
%TO.C,LED31*%
X179805500Y-121983000D02*
X179205500Y-121383000D01*
X179805500Y-121383000D01*
X179805500Y-121983000D01*
G36*
X179805500Y-121983000D02*
G01*
X179205500Y-121383000D01*
X179805500Y-121383000D01*
X179805500Y-121983000D01*
G37*
D13*
%TO.C,R8*%
X112777027Y-130810571D02*
X112559746Y-131027852D01*
X113314428Y-131347972D02*
X113097147Y-131565253D01*
%TO.C,HE27*%
X104077500Y-114525000D02*
X104077500Y-113875000D01*
X104077500Y-114525000D02*
X104077500Y-115175000D01*
X107197500Y-114525000D02*
X107197500Y-113875000D01*
X107197500Y-114525000D02*
X107197500Y-115175000D01*
X107477500Y-113602500D02*
X107147500Y-113362500D01*
X107477500Y-113122500D01*
X107477500Y-113602500D01*
G36*
X107477500Y-113602500D02*
G01*
X107147500Y-113362500D01*
X107477500Y-113122500D01*
X107477500Y-113602500D01*
G37*
%TO.C,HECC10*%
X211365000Y-75379664D02*
X211365000Y-75595336D01*
X212085000Y-75379664D02*
X212085000Y-75595336D01*
%TO.C,HE7*%
X156465000Y-76425000D02*
X156465000Y-75775000D01*
X156465000Y-76425000D02*
X156465000Y-77075000D01*
X159585000Y-76425000D02*
X159585000Y-75775000D01*
X159585000Y-76425000D02*
X159585000Y-77075000D01*
X159865000Y-75502500D02*
X159535000Y-75262500D01*
X159865000Y-75022500D01*
X159865000Y-75502500D01*
G36*
X159865000Y-75502500D02*
G01*
X159535000Y-75262500D01*
X159865000Y-75022500D01*
X159865000Y-75502500D01*
G37*
%TO.C,USBR1*%
X50570000Y-75241360D02*
X50570000Y-75548642D01*
X51330000Y-75241360D02*
X51330000Y-75548642D01*
%TO.C,HE26*%
X82646250Y-114525000D02*
X82646250Y-113875000D01*
X82646250Y-114525000D02*
X82646250Y-115175000D01*
X85766250Y-114525000D02*
X85766250Y-113875000D01*
X85766250Y-114525000D02*
X85766250Y-115175000D01*
X86046250Y-113602500D02*
X85716250Y-113362500D01*
X86046250Y-113122500D01*
X86046250Y-113602500D01*
G36*
X86046250Y-113602500D02*
G01*
X85716250Y-113362500D01*
X86046250Y-113122500D01*
X86046250Y-113602500D01*
G37*
%TO.C,LEDC15*%
X91652500Y-101912836D02*
X91652500Y-101697164D01*
X92372500Y-101912836D02*
X92372500Y-101697164D01*
%TO.C,HE40*%
X206471250Y-133575000D02*
X206471250Y-132925000D01*
X206471250Y-133575000D02*
X206471250Y-134225000D01*
X209591250Y-133575000D02*
X209591250Y-132925000D01*
X209591250Y-133575000D02*
X209591250Y-134225000D01*
X209871250Y-132652500D02*
X209541250Y-132412500D01*
X209871250Y-132172500D01*
X209871250Y-132652500D01*
G36*
X209871250Y-132652500D02*
G01*
X209541250Y-132412500D01*
X209871250Y-132172500D01*
X209871250Y-132652500D01*
G37*
%TO.C,HE29*%
X142177500Y-114525000D02*
X142177500Y-113875000D01*
X142177500Y-114525000D02*
X142177500Y-115175000D01*
X145297500Y-114525000D02*
X145297500Y-113875000D01*
X145297500Y-114525000D02*
X145297500Y-115175000D01*
X145577500Y-113602500D02*
X145247500Y-113362500D01*
X145577500Y-113122500D01*
X145577500Y-113602500D01*
G36*
X145577500Y-113602500D02*
G01*
X145247500Y-113362500D01*
X145577500Y-113122500D01*
X145577500Y-113602500D01*
G37*
%TO.C,HE42*%
X249333750Y-133575000D02*
X249333750Y-132925000D01*
X249333750Y-133575000D02*
X249333750Y-134225000D01*
X252453750Y-133575000D02*
X252453750Y-132925000D01*
X252453750Y-133575000D02*
X252453750Y-134225000D01*
X252733750Y-132652500D02*
X252403750Y-132412500D01*
X252733750Y-132172500D01*
X252733750Y-132652500D01*
G36*
X252733750Y-132652500D02*
G01*
X252403750Y-132412500D01*
X252733750Y-132172500D01*
X252733750Y-132652500D01*
G37*
%TO.C,HER19*%
X169482500Y-94691141D02*
X169482500Y-94383859D01*
X170242500Y-94691141D02*
X170242500Y-94383859D01*
%TO.C,HECC7*%
X154215000Y-75379664D02*
X154215000Y-75595336D01*
X154935000Y-75379664D02*
X154935000Y-75595336D01*
D14*
%TO.C,LED11*%
X232193000Y-83883000D02*
X231593000Y-83283000D01*
X232193000Y-83283000D01*
X232193000Y-83883000D01*
G36*
X232193000Y-83883000D02*
G01*
X231593000Y-83283000D01*
X232193000Y-83283000D01*
X232193000Y-83883000D01*
G37*
%TO.C,LED29*%
X141705500Y-121983000D02*
X141105500Y-121383000D01*
X141705500Y-121383000D01*
X141705500Y-121983000D01*
G36*
X141705500Y-121983000D02*
G01*
X141105500Y-121383000D01*
X141705500Y-121383000D01*
X141705500Y-121983000D01*
G37*
D13*
%TO.C,MC13*%
X98270000Y-136687164D02*
X98270000Y-136902836D01*
X98990000Y-136687164D02*
X98990000Y-136902836D01*
D14*
%TO.C,LED39*%
X177325750Y-136877000D02*
X176725750Y-136877000D01*
X176725750Y-136277000D01*
X177325750Y-136877000D01*
G36*
X177325750Y-136877000D02*
G01*
X176725750Y-136877000D01*
X176725750Y-136277000D01*
X177325750Y-136877000D01*
G37*
D13*
%TO.C,HEC42*%
X252983750Y-132529664D02*
X252983750Y-132745336D01*
X253703750Y-132529664D02*
X253703750Y-132745336D01*
D14*
%TO.C,LED22*%
X232094500Y-98777000D02*
X231494500Y-98777000D01*
X231494500Y-98177000D01*
X232094500Y-98777000D01*
G36*
X232094500Y-98777000D02*
G01*
X231494500Y-98777000D01*
X231494500Y-98177000D01*
X232094500Y-98777000D01*
G37*
D13*
%TO.C,LEDC28*%
X128427500Y-118247164D02*
X128427500Y-118462836D01*
X129147500Y-118247164D02*
X129147500Y-118462836D01*
%TO.C,HE18*%
X151702500Y-95475000D02*
X151702500Y-94825000D01*
X151702500Y-95475000D02*
X151702500Y-96125000D01*
X154822500Y-95475000D02*
X154822500Y-94825000D01*
X154822500Y-95475000D02*
X154822500Y-96125000D01*
X155102500Y-94552500D02*
X154772500Y-94312500D01*
X155102500Y-94072500D01*
X155102500Y-94552500D01*
G36*
X155102500Y-94552500D02*
G01*
X154772500Y-94312500D01*
X155102500Y-94072500D01*
X155102500Y-94552500D01*
G37*
%TO.C,LEDC5*%
X123665000Y-80147164D02*
X123665000Y-80362836D01*
X124385000Y-80147164D02*
X124385000Y-80362836D01*
%TO.C,HEC24*%
X45815000Y-113479664D02*
X45815000Y-113695336D01*
X46535000Y-113479664D02*
X46535000Y-113695336D01*
%TO.C,HEC14*%
X79152500Y-94429664D02*
X79152500Y-94645336D01*
X79872500Y-94429664D02*
X79872500Y-94645336D01*
%TO.C,HE34*%
X244571250Y-114525000D02*
X244571250Y-113875000D01*
X244571250Y-114525000D02*
X244571250Y-115175000D01*
X247691250Y-114525000D02*
X247691250Y-113875000D01*
X247691250Y-114525000D02*
X247691250Y-115175000D01*
X247971250Y-113602500D02*
X247641250Y-113362500D01*
X247971250Y-113122500D01*
X247971250Y-113602500D01*
G36*
X247971250Y-113602500D02*
G01*
X247641250Y-113362500D01*
X247971250Y-113122500D01*
X247971250Y-113602500D01*
G37*
%TO.C,MC8*%
X102815000Y-125837164D02*
X102815000Y-126052836D01*
X103535000Y-125837164D02*
X103535000Y-126052836D01*
%TO.C,BRC3*%
X107910619Y-130597553D02*
X108916481Y-131603415D01*
X109197553Y-129310619D02*
X110203415Y-130316481D01*
%TO.C,HER16*%
X112332500Y-94691141D02*
X112332500Y-94383859D01*
X113092500Y-94691141D02*
X113092500Y-94383859D01*
%TO.C,PWRC1*%
X66415000Y-70238748D02*
X66415000Y-70761252D01*
X67885000Y-70238748D02*
X67885000Y-70761252D01*
%TO.C,HECC31*%
X178027500Y-113479664D02*
X178027500Y-113695336D01*
X178747500Y-113479664D02*
X178747500Y-113695336D01*
%TO.C,USB1*%
X48550000Y-70800000D02*
X48550000Y-68800000D01*
X57950000Y-70800000D02*
X57950000Y-68800000D01*
%TO.C,LEDC14*%
X72602500Y-101912836D02*
X72602500Y-101697164D01*
X73322500Y-101912836D02*
X73322500Y-101697164D01*
D15*
%TO.C,MP1*%
X69125000Y-106525000D02*
X69350000Y-106525000D01*
X69125000Y-112275000D02*
X69125000Y-106525000D01*
X69125000Y-112275000D02*
X69350000Y-112275000D01*
X77775000Y-106525000D02*
X77550000Y-106525000D01*
X77775000Y-112275000D02*
X77550000Y-112275000D01*
X77775000Y-112275000D02*
X77775000Y-106525000D01*
D13*
X69375000Y-112775000D02*
X69045000Y-113015000D01*
X69045000Y-112535000D01*
X69375000Y-112775000D01*
G36*
X69375000Y-112775000D02*
G01*
X69045000Y-113015000D01*
X69045000Y-112535000D01*
X69375000Y-112775000D01*
G37*
%TO.C,R7*%
X112027495Y-130039824D02*
X111810214Y-130257105D01*
X112564896Y-130577225D02*
X112347615Y-130794506D01*
%TO.C,HER14*%
X74232500Y-94691141D02*
X74232500Y-94383859D01*
X74992500Y-94691141D02*
X74992500Y-94383859D01*
%TO.C,HER17*%
X131382500Y-94691141D02*
X131382500Y-94383859D01*
X132142500Y-94691141D02*
X132142500Y-94383859D01*
%TO.C,HEC29*%
X145827500Y-113479664D02*
X145827500Y-113695336D01*
X146547500Y-113479664D02*
X146547500Y-113695336D01*
%TO.C,HECC20*%
X187552500Y-94429664D02*
X187552500Y-94645336D01*
X188272500Y-94429664D02*
X188272500Y-94645336D01*
%TO.C,LEDC19*%
X167852499Y-101912836D02*
X167852499Y-101697164D01*
X168572499Y-101912836D02*
X168572499Y-101697164D01*
%TO.C,HEC21*%
X212502500Y-94429664D02*
X212502500Y-94645336D01*
X213222500Y-94429664D02*
X213222500Y-94645336D01*
%TO.C,HECC28*%
X120877500Y-113479664D02*
X120877500Y-113695336D01*
X121597500Y-113479664D02*
X121597500Y-113695336D01*
%TO.C,HEC20*%
X193452500Y-94429664D02*
X193452500Y-94645336D01*
X194172500Y-94429664D02*
X194172500Y-94645336D01*
%TO.C,CR_C4*%
X91165000Y-137817164D02*
X91165000Y-138032836D01*
X91885000Y-137817164D02*
X91885000Y-138032836D01*
D14*
%TO.C,LED3*%
X79793000Y-83883000D02*
X79193000Y-83283000D01*
X79793000Y-83283000D01*
X79793000Y-83883000D01*
G36*
X79793000Y-83883000D02*
G01*
X79193000Y-83283000D01*
X79793000Y-83283000D01*
X79793000Y-83883000D01*
G37*
D12*
%TO.C,J1*%
X47170001Y-129450000D02*
X47170001Y-127950000D01*
X47670001Y-127450000D02*
X59830001Y-127450000D01*
X47670001Y-129950000D02*
X59830001Y-129950000D01*
X48670001Y-127450000D02*
X48670001Y-126200000D01*
X50110001Y-129950000D02*
X50110001Y-121700000D01*
X52310001Y-129950000D02*
X52310001Y-121700000D01*
X53750001Y-127450000D02*
X53750001Y-126200000D01*
X56290001Y-127450000D02*
X56290001Y-126200000D01*
X56790001Y-126700000D02*
X55790001Y-126700000D01*
X58830001Y-127450000D02*
X58830001Y-126200000D01*
X60330001Y-129450000D02*
X60330001Y-127950000D01*
X47170001Y-127950000D02*
G75*
G02*
X47670001Y-127450000I500000J0D01*
G01*
X47670001Y-129950000D02*
G75*
G02*
X47170001Y-129450000I1J500001D01*
G01*
X59830001Y-127450000D02*
G75*
G02*
X60330001Y-127950000I0J-500000D01*
G01*
X60330001Y-129450000D02*
G75*
G02*
X59830001Y-129950000I-500001J1D01*
G01*
D13*
%TO.C,LEDC8*%
X180815000Y-80147164D02*
X180815000Y-80362836D01*
X181535000Y-80147164D02*
X181535000Y-80362836D01*
%TO.C,HER24*%
X40894999Y-113741141D02*
X40894999Y-113433859D01*
X41654999Y-113741141D02*
X41654999Y-113433859D01*
D14*
%TO.C,LED26*%
X82174250Y-121983000D02*
X81574250Y-121383000D01*
X82174250Y-121383000D01*
X82174250Y-121983000D01*
G36*
X82174250Y-121983000D02*
G01*
X81574250Y-121383000D01*
X82174250Y-121383000D01*
X82174250Y-121983000D01*
G37*
D13*
%TO.C,LMR1*%
X40060000Y-87043641D02*
X40060000Y-86736359D01*
X40820000Y-87043641D02*
X40820000Y-86736359D01*
%TO.C,PWRL1*%
X72890000Y-71102064D02*
X72890000Y-69897936D01*
X75610000Y-71102064D02*
X75610000Y-69897936D01*
%TO.C,HER10*%
X212345000Y-75641141D02*
X212345000Y-75333859D01*
X213105000Y-75641141D02*
X213105000Y-75333859D01*
%TO.C,LEDC25*%
X66515000Y-118247164D02*
X66515000Y-118462836D01*
X67235000Y-118247164D02*
X67235000Y-118462836D01*
%TO.C,HEC28*%
X126777500Y-113479664D02*
X126777500Y-113695336D01*
X127497500Y-113479664D02*
X127497500Y-113695336D01*
%TO.C,LEDC41*%
X225002500Y-140012836D02*
X225002500Y-139797164D01*
X225722500Y-140012836D02*
X225722500Y-139797164D01*
%TO.C,HE39*%
X173133750Y-133575000D02*
X173133750Y-132925000D01*
X173133750Y-133575000D02*
X173133750Y-134225000D01*
X176253750Y-133575000D02*
X176253750Y-132925000D01*
X176253750Y-133575000D02*
X176253750Y-134225000D01*
X176533750Y-132652500D02*
X176203750Y-132412500D01*
X176533750Y-132172500D01*
X176533750Y-132652500D01*
G36*
X176533750Y-132652500D02*
G01*
X176203750Y-132412500D01*
X176533750Y-132172500D01*
X176533750Y-132652500D01*
G37*
%TO.C,HEC22*%
X231552500Y-94429664D02*
X231552500Y-94645336D01*
X232272500Y-94429664D02*
X232272500Y-94645336D01*
%TO.C,PWRF1*%
X61647936Y-68990000D02*
X62852064Y-68990000D01*
X61647936Y-70810000D02*
X62852064Y-70810000D01*
D14*
%TO.C,LED27*%
X103605500Y-121983000D02*
X103005500Y-121383000D01*
X103605500Y-121383000D01*
X103605500Y-121983000D01*
G36*
X103605500Y-121983000D02*
G01*
X103005500Y-121383000D01*
X103605500Y-121383000D01*
X103605500Y-121983000D01*
G37*
D15*
%TO.C,MP2*%
X138875000Y-103525000D02*
X139100000Y-103525000D01*
X138875000Y-109275000D02*
X138875000Y-103525000D01*
X138875000Y-109275000D02*
X139100000Y-109275000D01*
X147525000Y-103525000D02*
X147300000Y-103525000D01*
X147525000Y-109275000D02*
X147300000Y-109275000D01*
X147525000Y-109275000D02*
X147525000Y-103525000D01*
D13*
X139125000Y-109775000D02*
X138795000Y-110015000D01*
X138795000Y-109535000D01*
X139125000Y-109775000D01*
G36*
X139125000Y-109775000D02*
G01*
X138795000Y-110015000D01*
X138795000Y-109535000D01*
X139125000Y-109775000D01*
G37*
%TO.C,HER31*%
X179007500Y-113741141D02*
X179007500Y-113433859D01*
X179767500Y-113741141D02*
X179767500Y-113433859D01*
D14*
%TO.C,LED33*%
X217905500Y-121983000D02*
X217305500Y-121383000D01*
X217905500Y-121383000D01*
X217905500Y-121983000D01*
G36*
X217905500Y-121983000D02*
G01*
X217305500Y-121383000D01*
X217905500Y-121383000D01*
X217905500Y-121983000D01*
G37*
D13*
%TO.C,HEC41*%
X231552500Y-132529664D02*
X231552500Y-132745336D01*
X232272500Y-132529664D02*
X232272500Y-132745336D01*
D14*
%TO.C,LED5*%
X117893000Y-83883000D02*
X117293000Y-83283000D01*
X117893000Y-83283000D01*
X117893000Y-83883000D01*
G36*
X117893000Y-83883000D02*
G01*
X117293000Y-83283000D01*
X117893000Y-83283000D01*
X117893000Y-83883000D01*
G37*
D13*
%TO.C,MC11*%
X92047836Y-132065000D02*
X91832164Y-132065000D01*
X92047836Y-132785000D02*
X91832164Y-132785000D01*
%TO.C,HE19*%
X170752500Y-95475000D02*
X170752500Y-94825000D01*
X170752500Y-95475000D02*
X170752500Y-96125000D01*
X173872500Y-95475000D02*
X173872500Y-94825000D01*
X173872500Y-95475000D02*
X173872500Y-96125000D01*
X174152500Y-94552500D02*
X173822500Y-94312500D01*
X174152500Y-94072500D01*
X174152500Y-94552500D01*
G36*
X174152500Y-94552500D02*
G01*
X173822500Y-94312500D01*
X174152500Y-94072500D01*
X174152500Y-94552500D01*
G37*
%TO.C,HECC17*%
X130402500Y-94429664D02*
X130402500Y-94645336D01*
X131122500Y-94429664D02*
X131122500Y-94645336D01*
%TO.C,HEC33*%
X222027500Y-113479664D02*
X222027500Y-113695336D01*
X222747500Y-113479664D02*
X222747500Y-113695336D01*
%TO.C,HECC37*%
X78015000Y-132529664D02*
X78015000Y-132745336D01*
X78735000Y-132529664D02*
X78735000Y-132745336D01*
%TO.C,HECC32*%
X197077500Y-113479664D02*
X197077500Y-113695336D01*
X197797500Y-113479664D02*
X197797500Y-113695336D01*
%TO.C,HEC19*%
X174402500Y-94429664D02*
X174402500Y-94645336D01*
X175122500Y-94429664D02*
X175122500Y-94645336D01*
%TO.C,HER37*%
X78995000Y-132791141D02*
X78995000Y-132483859D01*
X79755000Y-132791141D02*
X79755000Y-132483859D01*
%TO.C,HER21*%
X207582500Y-94691141D02*
X207582500Y-94383859D01*
X208342500Y-94691141D02*
X208342500Y-94383859D01*
%TO.C,MC14*%
X99290000Y-136687164D02*
X99290000Y-136902836D01*
X100010000Y-136687164D02*
X100010000Y-136902836D01*
%TO.C,HECC15*%
X92302500Y-94429664D02*
X92302500Y-94645336D01*
X93022500Y-94429664D02*
X93022500Y-94645336D01*
%TO.C,MPC3*%
X213290000Y-103292164D02*
X213290000Y-103507836D01*
X214010000Y-103292164D02*
X214010000Y-103507836D01*
D14*
%TO.C,CR2*%
X92350000Y-140053000D02*
X91750000Y-139453000D01*
X92350000Y-139453000D01*
X92350000Y-140053000D01*
G36*
X92350000Y-140053000D02*
G01*
X91750000Y-139453000D01*
X92350000Y-139453000D01*
X92350000Y-140053000D01*
G37*
%TO.C,LED37*%
X84457000Y-136877000D02*
X83857000Y-136877000D01*
X83857000Y-136277000D01*
X84457000Y-136877000D01*
G36*
X84457000Y-136877000D02*
G01*
X83857000Y-136877000D01*
X83857000Y-136277000D01*
X84457000Y-136877000D01*
G37*
D13*
%TO.C,HEC13*%
X52958750Y-94429664D02*
X52958750Y-94645336D01*
X53678750Y-94429664D02*
X53678750Y-94645336D01*
%TO.C,HEC27*%
X107727500Y-113479664D02*
X107727500Y-113695336D01*
X108447500Y-113479664D02*
X108447500Y-113695336D01*
D14*
%TO.C,LED20*%
X193994500Y-98777000D02*
X193394500Y-98777000D01*
X193394500Y-98177000D01*
X193994500Y-98777000D01*
G36*
X193994500Y-98777000D02*
G01*
X193394500Y-98777000D01*
X193394500Y-98177000D01*
X193994500Y-98777000D01*
G37*
D13*
%TO.C,HECC1*%
X39914999Y-75379664D02*
X39914999Y-75595336D01*
X40634999Y-75379664D02*
X40634999Y-75595336D01*
D16*
%TO.C,G\u002A\u002A\u002A*%
G36*
X154588076Y-129406976D02*
G01*
X154746041Y-129457468D01*
X154899351Y-129538969D01*
X155039205Y-129644957D01*
X155156801Y-129768914D01*
X155233505Y-129885078D01*
X155304159Y-130058246D01*
X155340118Y-130242187D01*
X155341382Y-130429843D01*
X155307954Y-130614154D01*
X155239834Y-130788064D01*
X155233342Y-130800460D01*
X155173943Y-130889993D01*
X155091270Y-130986204D01*
X154996706Y-131077712D01*
X154901631Y-131153135D01*
X154846460Y-131187342D01*
X154678912Y-131255672D01*
X154497183Y-131292207D01*
X154311485Y-131295681D01*
X154160860Y-131272358D01*
X153984529Y-131210270D01*
X153826647Y-131116162D01*
X153690682Y-130994108D01*
X153580107Y-130848182D01*
X153498392Y-130682455D01*
X153449008Y-130501002D01*
X153439119Y-130425317D01*
X153440485Y-130239936D01*
X153476714Y-130064587D01*
X153544196Y-129902469D01*
X153639319Y-129756784D01*
X153758472Y-129630733D01*
X153898042Y-129527516D01*
X154054419Y-129450336D01*
X154223991Y-129402392D01*
X154403146Y-129386885D01*
X154588076Y-129406976D01*
G37*
G36*
X151194181Y-129871006D02*
G01*
X151543111Y-129920641D01*
X151881778Y-130006256D01*
X152206552Y-130126630D01*
X152513800Y-130280542D01*
X152640077Y-130357021D01*
X152737134Y-130420811D01*
X152809281Y-130474997D01*
X152863011Y-130528123D01*
X152904818Y-130588732D01*
X152941196Y-130665368D01*
X152978637Y-130766574D01*
X153000510Y-130831230D01*
X153076032Y-131025215D01*
X153166556Y-131193161D01*
X153277586Y-131342078D01*
X153414625Y-131478977D01*
X153583175Y-131610869D01*
X153646872Y-131654637D01*
X153741657Y-131722767D01*
X153809809Y-131786448D01*
X153860304Y-131857323D01*
X153902119Y-131947034D01*
X153928554Y-132019958D01*
X154018451Y-132344044D01*
X154071230Y-132675293D01*
X154087373Y-133010222D01*
X154067362Y-133345346D01*
X154011676Y-133677181D01*
X153920799Y-134002245D01*
X153795210Y-134317054D01*
X153635391Y-134618123D01*
X153551477Y-134749614D01*
X153341544Y-135026846D01*
X153105612Y-135276216D01*
X152846321Y-135496455D01*
X152566305Y-135686291D01*
X152268205Y-135844453D01*
X151954656Y-135969670D01*
X151628296Y-136060670D01*
X151291763Y-136116182D01*
X150947695Y-136134936D01*
X150697667Y-136125034D01*
X150359948Y-136079338D01*
X150033163Y-135997777D01*
X149719656Y-135882405D01*
X149421777Y-135735279D01*
X149141870Y-135558453D01*
X148882283Y-135353984D01*
X148645362Y-135123927D01*
X148433455Y-134870338D01*
X148248907Y-134595272D01*
X148094066Y-134300785D01*
X147971278Y-133988933D01*
X147882891Y-133661771D01*
X147882293Y-133658925D01*
X147829144Y-133314582D01*
X147817132Y-133056589D01*
X149373232Y-133056589D01*
X149400087Y-133288395D01*
X149461028Y-133514637D01*
X149553817Y-133730035D01*
X149676215Y-133929306D01*
X149825985Y-134107171D01*
X149985497Y-134246963D01*
X150199984Y-134385143D01*
X150425477Y-134486733D01*
X150659733Y-134551140D01*
X150900509Y-134577769D01*
X151145563Y-134566025D01*
X151174126Y-134562157D01*
X151407879Y-134509133D01*
X151629407Y-134421121D01*
X151834904Y-134301271D01*
X152020560Y-134152733D01*
X152182568Y-133978655D01*
X152317120Y-133782188D01*
X152420407Y-133566480D01*
X152438705Y-133516325D01*
X152501181Y-133278654D01*
X152526358Y-133041798D01*
X152515940Y-132808957D01*
X152471630Y-132583332D01*
X152395134Y-132368121D01*
X152288155Y-132166525D01*
X152152399Y-131981744D01*
X151989569Y-131816978D01*
X151801370Y-131675426D01*
X151589506Y-131560289D01*
X151355682Y-131474766D01*
X151350538Y-131473308D01*
X151196618Y-131442382D01*
X151021990Y-131427749D01*
X150841465Y-131429409D01*
X150669855Y-131447362D01*
X150549461Y-131473308D01*
X150310736Y-131559765D01*
X150094041Y-131677116D01*
X149901505Y-131822895D01*
X149735257Y-131994637D01*
X149597425Y-132189875D01*
X149490140Y-132406146D01*
X149415530Y-132640982D01*
X149382700Y-132824502D01*
X149373232Y-133056589D01*
X147817132Y-133056589D01*
X147813024Y-132968352D01*
X147833930Y-132625241D01*
X147882387Y-132332481D01*
X147972762Y-132003851D01*
X148096522Y-131691802D01*
X148251287Y-131398103D01*
X148434674Y-131124524D01*
X148644304Y-130872835D01*
X148877795Y-130644806D01*
X149132766Y-130442206D01*
X149406836Y-130266805D01*
X149697624Y-130120372D01*
X150002749Y-130004678D01*
X150319830Y-129921492D01*
X150646486Y-129872584D01*
X150980335Y-129859723D01*
X151194181Y-129871006D01*
G37*
D14*
%TO.C,LED13*%
X53500750Y-98777000D02*
X52900750Y-98777000D01*
X52900750Y-98177000D01*
X53500750Y-98777000D01*
G36*
X53500750Y-98777000D02*
G01*
X52900750Y-98777000D01*
X52900750Y-98177000D01*
X53500750Y-98777000D01*
G37*
D13*
%TO.C,HE28*%
X123127500Y-114525000D02*
X123127500Y-113875000D01*
X123127500Y-114525000D02*
X123127500Y-115175000D01*
X126247500Y-114525000D02*
X126247500Y-113875000D01*
X126247500Y-114525000D02*
X126247500Y-115175000D01*
X126527500Y-113602500D02*
X126197500Y-113362500D01*
X126527500Y-113122500D01*
X126527500Y-113602500D01*
G36*
X126527500Y-113602500D02*
G01*
X126197500Y-113362500D01*
X126527500Y-113122500D01*
X126527500Y-113602500D01*
G37*
%TO.C,HEC2*%
X64865000Y-75379664D02*
X64865000Y-75595336D01*
X65585000Y-75379664D02*
X65585000Y-75595336D01*
D17*
%TO.C,Outline*%
X35665000Y-95315000D02*
X34915000Y-96065000D01*
X35675000Y-92825000D02*
X34925000Y-92075000D01*
X38165000Y-95315000D02*
X38915000Y-96065000D01*
X38175000Y-92825000D02*
X38925000Y-92075000D01*
X52515000Y-135690000D02*
X51765000Y-136440000D01*
X52525000Y-133200000D02*
X51775000Y-132450000D01*
X55015000Y-135690000D02*
X55765000Y-136440000D01*
X55025000Y-133200000D02*
X55775000Y-132450000D01*
X239465000Y-91415000D02*
X238715000Y-92165000D01*
X239475000Y-88925000D02*
X238725000Y-88175000D01*
X239665000Y-134765000D02*
X238915000Y-135515000D01*
X239675000Y-132275000D02*
X238925000Y-131525000D01*
X241965000Y-91415000D02*
X242715000Y-92165000D01*
X241975000Y-88925000D02*
X242725000Y-88175000D01*
X242165000Y-134765000D02*
X242915000Y-135515000D01*
X242175000Y-132275000D02*
X242925000Y-131525000D01*
D12*
X38925000Y-94075000D02*
G75*
G02*
X34925000Y-94075000I-2000000J0D01*
G01*
X34925000Y-94075000D02*
G75*
G02*
X38925000Y-94075000I2000000J0D01*
G01*
X55775000Y-134450000D02*
G75*
G02*
X51775000Y-134450000I-2000000J0D01*
G01*
X51775000Y-134450000D02*
G75*
G02*
X55775000Y-134450000I2000000J0D01*
G01*
X66275000Y-94675000D02*
G75*
G02*
X62275000Y-94675000I-2000000J0D01*
G01*
X62275000Y-94675000D02*
G75*
G02*
X66275000Y-94675000I2000000J0D01*
G01*
X234925000Y-113275000D02*
G75*
G02*
X230925000Y-113275000I-2000000J0D01*
G01*
X230925000Y-113275000D02*
G75*
G02*
X234925000Y-113275000I2000000J0D01*
G01*
X242725000Y-90175000D02*
G75*
G02*
X238725000Y-90175000I-2000000J0D01*
G01*
X238725000Y-90175000D02*
G75*
G02*
X242725000Y-90175000I2000000J0D01*
G01*
X242925000Y-133525000D02*
G75*
G02*
X238925000Y-133525000I-2000000J0D01*
G01*
X238925000Y-133525000D02*
G75*
G02*
X242925000Y-133525000I2000000J0D01*
G01*
D13*
%TO.C,HECC33*%
X216127500Y-113479664D02*
X216127500Y-113695336D01*
X216847500Y-113479664D02*
X216847500Y-113695336D01*
%TO.C,LEDC36*%
X58315000Y-140012836D02*
X58315000Y-139797164D01*
X59035000Y-140012836D02*
X59035000Y-139797164D01*
%TO.C,LEDC1*%
X47465000Y-80147164D02*
X47465000Y-80362836D01*
X48185000Y-80147164D02*
X48185000Y-80362836D01*
%TO.C,HE13*%
X49308750Y-95475000D02*
X49308750Y-94825000D01*
X49308750Y-95475000D02*
X49308750Y-96125000D01*
X52428750Y-95475000D02*
X52428750Y-94825000D01*
X52428750Y-95475000D02*
X52428750Y-96125000D01*
X52708750Y-94552500D02*
X52378750Y-94312500D01*
X52708750Y-94072500D01*
X52708750Y-94552500D01*
G36*
X52708750Y-94552500D02*
G01*
X52378750Y-94312500D01*
X52708750Y-94072500D01*
X52708750Y-94552500D01*
G37*
%TO.C,LEDC33*%
X223677500Y-118247164D02*
X223677500Y-118462836D01*
X224397500Y-118247164D02*
X224397500Y-118462836D01*
D14*
%TO.C,LED38*%
X129700750Y-136877000D02*
X129100750Y-136877000D01*
X129100750Y-136277000D01*
X129700750Y-136877000D01*
G36*
X129700750Y-136877000D02*
G01*
X129100750Y-136877000D01*
X129100750Y-136277000D01*
X129700750Y-136877000D01*
G37*
D13*
%TO.C,HE5*%
X118365000Y-76425000D02*
X118365000Y-75775000D01*
X118365000Y-76425000D02*
X118365000Y-77075000D01*
X121485000Y-76425000D02*
X121485000Y-75775000D01*
X121485000Y-76425000D02*
X121485000Y-77075000D01*
X121765000Y-75502500D02*
X121435000Y-75262500D01*
X121765000Y-75022500D01*
X121765000Y-75502500D01*
G36*
X121765000Y-75502500D02*
G01*
X121435000Y-75262500D01*
X121765000Y-75022500D01*
X121765000Y-75502500D01*
G37*
%TO.C,LEDC24*%
X47465000Y-118247164D02*
X47465000Y-118462836D01*
X48185000Y-118247164D02*
X48185000Y-118462836D01*
%TO.C,HER30*%
X159957500Y-113741141D02*
X159957500Y-113433859D01*
X160717500Y-113741141D02*
X160717500Y-113433859D01*
%TO.C,HE4*%
X99315000Y-76425000D02*
X99315000Y-75775000D01*
X99315000Y-76425000D02*
X99315000Y-77075000D01*
X102435000Y-76425000D02*
X102435000Y-75775000D01*
X102435000Y-76425000D02*
X102435000Y-77075000D01*
X102715000Y-75502500D02*
X102385000Y-75262500D01*
X102715000Y-75022500D01*
X102715000Y-75502500D01*
G36*
X102715000Y-75502500D02*
G01*
X102385000Y-75262500D01*
X102715000Y-75022500D01*
X102715000Y-75502500D01*
G37*
%TO.C,HE35*%
X42165000Y-133575000D02*
X42165000Y-132925000D01*
X42165000Y-133575000D02*
X42165000Y-134225000D01*
X45285000Y-133575000D02*
X45285000Y-132925000D01*
X45285000Y-133575000D02*
X45285000Y-134225000D01*
X45565000Y-132652500D02*
X45235000Y-132412500D01*
X45565000Y-132172500D01*
X45565000Y-132652500D01*
G36*
X45565000Y-132652500D02*
G01*
X45235000Y-132412500D01*
X45565000Y-132172500D01*
X45565000Y-132652500D01*
G37*
%TO.C,HER40*%
X205201250Y-132791141D02*
X205201250Y-132483859D01*
X205961250Y-132791141D02*
X205961250Y-132483859D01*
%TO.C,LEDC4*%
X104615000Y-80147164D02*
X104615000Y-80362836D01*
X105335000Y-80147164D02*
X105335000Y-80362836D01*
%TO.C,MFB2*%
X100545000Y-138034622D02*
X100545000Y-137235378D01*
X101665000Y-138034622D02*
X101665000Y-137235378D01*
%TO.C,HECC29*%
X139927500Y-113479664D02*
X139927500Y-113695336D01*
X140647500Y-113479664D02*
X140647500Y-113695336D01*
%TO.C,HE3*%
X80265000Y-76425000D02*
X80265000Y-75775000D01*
X80265000Y-76425000D02*
X80265000Y-77075000D01*
X83385000Y-76425000D02*
X83385000Y-75775000D01*
X83385000Y-76425000D02*
X83385000Y-77075000D01*
X83665000Y-75502500D02*
X83335000Y-75262500D01*
X83665000Y-75022500D01*
X83665000Y-75502500D01*
G36*
X83665000Y-75502500D02*
G01*
X83335000Y-75262500D01*
X83665000Y-75022500D01*
X83665000Y-75502500D01*
G37*
%TO.C,LMR2*%
X37853642Y-83067500D02*
X37546360Y-83067500D01*
X37853642Y-83827500D02*
X37546360Y-83827500D01*
%TO.C,HER15*%
X93282500Y-94691141D02*
X93282500Y-94383859D01*
X94042500Y-94691141D02*
X94042500Y-94383859D01*
%TO.C,HECC12*%
X249465000Y-75379664D02*
X249465000Y-75595336D01*
X250185000Y-75379664D02*
X250185000Y-75595336D01*
%TO.C,HE38*%
X125508750Y-133575000D02*
X125508750Y-132925000D01*
X125508750Y-133575000D02*
X125508750Y-134225000D01*
X128628750Y-133575000D02*
X128628750Y-132925000D01*
X128628750Y-133575000D02*
X128628750Y-134225000D01*
X128908750Y-132652500D02*
X128578750Y-132412500D01*
X128908750Y-132172500D01*
X128908750Y-132652500D01*
G36*
X128908750Y-132652500D02*
G01*
X128578750Y-132412500D01*
X128908750Y-132172500D01*
X128908750Y-132652500D01*
G37*
%TO.C,HEC30*%
X164877500Y-113479664D02*
X164877500Y-113695336D01*
X165597500Y-113479664D02*
X165597500Y-113695336D01*
%TO.C,HER28*%
X121857500Y-113741141D02*
X121857500Y-113433859D01*
X122617500Y-113741141D02*
X122617500Y-113433859D01*
%TO.C,HER32*%
X198057500Y-113741141D02*
X198057500Y-113433859D01*
X198817500Y-113741141D02*
X198817500Y-113433859D01*
%TO.C,HEC1*%
X45815000Y-75379664D02*
X45815000Y-75595336D01*
X46535000Y-75379664D02*
X46535000Y-75595336D01*
D14*
%TO.C,LED18*%
X155894500Y-98777000D02*
X155294500Y-98777000D01*
X155294500Y-98177000D01*
X155894500Y-98777000D01*
G36*
X155894500Y-98777000D02*
G01*
X155294500Y-98777000D01*
X155294500Y-98177000D01*
X155894500Y-98777000D01*
G37*
D13*
%TO.C,HER36*%
X59945000Y-132791141D02*
X59945000Y-132483859D01*
X60705000Y-132791141D02*
X60705000Y-132483859D01*
%TO.C,LEDC17*%
X129752500Y-101912836D02*
X129752500Y-101697164D01*
X130472500Y-101912836D02*
X130472500Y-101697164D01*
D14*
%TO.C,LED15*%
X98744500Y-98777000D02*
X98144500Y-98777000D01*
X98144500Y-98177000D01*
X98744500Y-98777000D01*
G36*
X98744500Y-98777000D02*
G01*
X98144500Y-98777000D01*
X98144500Y-98177000D01*
X98744500Y-98777000D01*
G37*
D13*
%TO.C,HECC6*%
X135165000Y-75379664D02*
X135165000Y-75595336D01*
X135885000Y-75379664D02*
X135885000Y-75595336D01*
%TO.C,HE30*%
X161227500Y-114525000D02*
X161227500Y-113875000D01*
X161227500Y-114525000D02*
X161227500Y-115175000D01*
X164347500Y-114525000D02*
X164347500Y-113875000D01*
X164347500Y-114525000D02*
X164347500Y-115175000D01*
X164627500Y-113602500D02*
X164297500Y-113362500D01*
X164627500Y-113122500D01*
X164627500Y-113602500D01*
G36*
X164627500Y-113602500D02*
G01*
X164297500Y-113362500D01*
X164627500Y-113122500D01*
X164627500Y-113602500D01*
G37*
%TO.C,HEC10*%
X217265000Y-75379664D02*
X217265000Y-75595336D01*
X217985000Y-75379664D02*
X217985000Y-75595336D01*
%TO.C,HE1*%
X42165000Y-76425000D02*
X42165000Y-75775000D01*
X42165000Y-76425000D02*
X42165000Y-77075000D01*
X45285000Y-76425000D02*
X45285000Y-75775000D01*
X45285000Y-76425000D02*
X45285000Y-77075000D01*
X45565000Y-75502500D02*
X45235000Y-75262500D01*
X45565000Y-75022500D01*
X45565000Y-75502500D01*
G36*
X45565000Y-75502500D02*
G01*
X45235000Y-75262500D01*
X45565000Y-75022500D01*
X45565000Y-75502500D01*
G37*
D15*
%TO.C,MP3*%
X214875000Y-103525000D02*
X215100000Y-103525000D01*
X214875000Y-109275000D02*
X214875000Y-103525000D01*
X214875000Y-109275000D02*
X215100000Y-109275000D01*
X223525000Y-103525000D02*
X223300000Y-103525000D01*
X223525000Y-109275000D02*
X223300000Y-109275000D01*
X223525000Y-109275000D02*
X223525000Y-103525000D01*
D13*
X215125000Y-109775000D02*
X214795000Y-110015000D01*
X214795000Y-109535000D01*
X215125000Y-109775000D01*
G36*
X215125000Y-109775000D02*
G01*
X214795000Y-110015000D01*
X214795000Y-109535000D01*
X215125000Y-109775000D01*
G37*
D16*
%TO.C,esd_logo*%
G36*
X53691993Y-83692059D02*
G01*
X53783024Y-83731838D01*
X53945883Y-83842923D01*
X54045561Y-83987539D01*
X54093964Y-84190550D01*
X54103782Y-84401731D01*
X54098000Y-84604032D01*
X54074811Y-84733201D01*
X54025451Y-84822477D01*
X53980279Y-84870110D01*
X53883795Y-84950973D01*
X53821266Y-84986089D01*
X53820195Y-84986135D01*
X53803138Y-84937010D01*
X53790324Y-84806548D01*
X53783947Y-84620112D01*
X53783614Y-84563055D01*
X53772236Y-84295186D01*
X53733365Y-84117540D01*
X53659890Y-84015587D01*
X53544700Y-83974790D01*
X53494585Y-83972269D01*
X53385948Y-83985184D01*
X53306808Y-84033191D01*
X53252740Y-84130187D01*
X53219317Y-84290065D01*
X53202114Y-84526722D01*
X53196707Y-84854053D01*
X53196639Y-84907754D01*
X53196639Y-85648071D01*
X53029576Y-85820435D01*
X52862514Y-85992800D01*
X52689767Y-85809635D01*
X52565513Y-85697929D01*
X52441419Y-85642209D01*
X52295856Y-85643141D01*
X52107192Y-85701393D01*
X51853797Y-85817631D01*
X51815924Y-85836557D01*
X51603712Y-85949432D01*
X51454138Y-86053939D01*
X51357047Y-86171341D01*
X51302281Y-86322905D01*
X51279684Y-86529894D01*
X51279099Y-86813573D01*
X51282741Y-86952863D01*
X51288430Y-87217223D01*
X51285129Y-87397340D01*
X51270177Y-87515504D01*
X51240912Y-87594008D01*
X51199550Y-87649824D01*
X51103199Y-87740058D01*
X51043888Y-87740535D01*
X51005565Y-87644445D01*
X50989712Y-87560819D01*
X50975407Y-87420773D01*
X50964084Y-87208523D01*
X50957296Y-86958581D01*
X50956050Y-86812047D01*
X50965068Y-86460641D01*
X51002059Y-86193542D01*
X51080641Y-85989304D01*
X51214431Y-85826480D01*
X51417047Y-85683624D01*
X51702108Y-85539291D01*
X51789279Y-85499826D01*
X52069202Y-85384881D01*
X52282970Y-85325012D01*
X52454425Y-85317940D01*
X52607413Y-85361382D01*
X52703046Y-85412440D01*
X52876471Y-85518179D01*
X52876471Y-84796708D01*
X52880501Y-84458666D01*
X52896244Y-84209200D01*
X52929177Y-84030346D01*
X52984778Y-83904141D01*
X53068524Y-83812620D01*
X53185894Y-83737819D01*
X53201913Y-83729416D01*
X53445937Y-83657418D01*
X53691993Y-83692059D01*
G37*
G36*
X55264358Y-84058379D02*
G01*
X55340890Y-84128922D01*
X55357773Y-84169293D01*
X55322757Y-84223374D01*
X55225739Y-84340588D01*
X55078763Y-84507212D01*
X54893875Y-84709525D01*
X54730777Y-84883608D01*
X54103782Y-85545935D01*
X54103782Y-85853009D01*
X54106694Y-86017964D01*
X54114238Y-86129428D01*
X54122264Y-86160084D01*
X54176919Y-86138133D01*
X54289280Y-86083703D01*
X54322369Y-86066878D01*
X54497735Y-86007534D01*
X54710566Y-85976272D01*
X54770798Y-85974472D01*
X55010035Y-86001597D01*
X55228067Y-86073177D01*
X55406859Y-86176712D01*
X55528373Y-86299701D01*
X55574571Y-86429644D01*
X55553175Y-86516695D01*
X55502183Y-86579117D01*
X55385453Y-86705067D01*
X55213661Y-86883573D01*
X54997481Y-87103657D01*
X54747587Y-87354344D01*
X54495496Y-87604139D01*
X54144069Y-87947839D01*
X53854902Y-88222457D01*
X53616101Y-88435662D01*
X53415774Y-88595127D01*
X53242028Y-88708521D01*
X53082968Y-88783515D01*
X52926703Y-88827779D01*
X52761338Y-88848984D01*
X52574981Y-88854801D01*
X52556303Y-88854832D01*
X52310233Y-88846205D01*
X52120594Y-88813444D01*
X51937991Y-88746226D01*
X51859655Y-88709247D01*
X51675717Y-88606792D01*
X51513546Y-88495902D01*
X51435423Y-88427631D01*
X51307628Y-88291599D01*
X50904759Y-88690551D01*
X50717612Y-88871336D01*
X50587163Y-88983904D01*
X50498170Y-89038870D01*
X50435395Y-89046851D01*
X50408508Y-89036218D01*
X50331133Y-88963669D01*
X50315126Y-88918662D01*
X50351919Y-88870732D01*
X50458078Y-88754060D01*
X50627279Y-88575138D01*
X50853194Y-88340459D01*
X51129498Y-88056516D01*
X51134487Y-88051428D01*
X51544470Y-88051428D01*
X51712634Y-88224930D01*
X51958493Y-88406113D01*
X52257938Y-88513899D01*
X52583830Y-88544703D01*
X52909035Y-88494939D01*
X53120460Y-88410913D01*
X53216329Y-88342964D01*
X53373386Y-88210430D01*
X53578514Y-88025330D01*
X53818597Y-87799685D01*
X54080516Y-87545517D01*
X54263866Y-87363061D01*
X54561949Y-87062659D01*
X54789879Y-86828766D01*
X54952776Y-86652240D01*
X55055765Y-86523939D01*
X55103967Y-86434722D01*
X55102506Y-86375447D01*
X55056505Y-86336973D01*
X54971087Y-86310156D01*
X54865935Y-86288663D01*
X54662880Y-86297459D01*
X54431208Y-86384456D01*
X54197685Y-86536628D01*
X54027271Y-86696816D01*
X53916341Y-86814486D01*
X53835513Y-86890819D01*
X53810433Y-86907143D01*
X53799297Y-86857505D01*
X53790419Y-86723473D01*
X53784897Y-86527369D01*
X53783614Y-86360666D01*
X53783614Y-85814188D01*
X52664042Y-86932808D01*
X51544470Y-88051428D01*
X51134487Y-88051428D01*
X51449864Y-87729802D01*
X51807967Y-87366808D01*
X52197479Y-86974027D01*
X52612075Y-86557953D01*
X52743035Y-86426923D01*
X53237777Y-85932773D01*
X53662878Y-85509470D01*
X54023721Y-85151960D01*
X54325687Y-84855186D01*
X54574159Y-84614092D01*
X54774517Y-84423624D01*
X54932145Y-84278724D01*
X55052423Y-84174338D01*
X55140735Y-84105409D01*
X55202461Y-84066882D01*
X55242984Y-84053701D01*
X55264358Y-84058379D01*
G37*
D14*
%TO.C,LED25*%
X60743000Y-121983000D02*
X60143000Y-121383000D01*
X60743000Y-121383000D01*
X60743000Y-121983000D01*
G36*
X60743000Y-121983000D02*
G01*
X60143000Y-121383000D01*
X60743000Y-121383000D01*
X60743000Y-121983000D01*
G37*
D13*
%TO.C,HE12*%
X251715000Y-76425000D02*
X251715000Y-75775000D01*
X251715000Y-76425000D02*
X251715000Y-77075000D01*
X254835000Y-76425000D02*
X254835000Y-75775000D01*
X254835000Y-76425000D02*
X254835000Y-77075000D01*
X255115000Y-75502500D02*
X254785000Y-75262500D01*
X255115000Y-75022500D01*
X255115000Y-75502500D01*
G36*
X255115000Y-75502500D02*
G01*
X254785000Y-75262500D01*
X255115000Y-75022500D01*
X255115000Y-75502500D01*
G37*
%TO.C,HE20*%
X189802500Y-95475000D02*
X189802500Y-94825000D01*
X189802500Y-95475000D02*
X189802500Y-96125000D01*
X192922500Y-95475000D02*
X192922500Y-94825000D01*
X192922500Y-95475000D02*
X192922500Y-96125000D01*
X193202500Y-94552500D02*
X192872500Y-94312500D01*
X193202500Y-94072500D01*
X193202500Y-94552500D01*
G36*
X193202500Y-94552500D02*
G01*
X192872500Y-94312500D01*
X193202500Y-94072500D01*
X193202500Y-94552500D01*
G37*
%TO.C,HEC16*%
X117252500Y-94429664D02*
X117252500Y-94645336D01*
X117972500Y-94429664D02*
X117972500Y-94645336D01*
%TO.C,LEDC38*%
X122608750Y-140012836D02*
X122608750Y-139797164D01*
X123328750Y-140012836D02*
X123328750Y-139797164D01*
%TO.C,HEC37*%
X83915000Y-132529664D02*
X83915000Y-132745336D01*
X84635000Y-132529664D02*
X84635000Y-132745336D01*
%TO.C,USBD1*%
X52400000Y-80460000D02*
X53700000Y-80460000D01*
X53700000Y-77340000D02*
X52430000Y-77340000D01*
X52050000Y-77390000D02*
X51810000Y-77060000D01*
X52290000Y-77060000D01*
X52050000Y-77390000D01*
G36*
X52050000Y-77390000D02*
G01*
X51810000Y-77060000D01*
X52290000Y-77060000D01*
X52050000Y-77390000D01*
G37*
%TO.C,HECC13*%
X47058750Y-94429664D02*
X47058750Y-94645336D01*
X47778750Y-94429664D02*
X47778750Y-94645336D01*
D14*
%TO.C,LED16*%
X117794500Y-98777000D02*
X117194500Y-98777000D01*
X117194500Y-98177000D01*
X117794500Y-98777000D01*
G36*
X117794500Y-98777000D02*
G01*
X117194500Y-98777000D01*
X117194500Y-98177000D01*
X117794500Y-98777000D01*
G37*
D13*
%TO.C,HEC4*%
X102965000Y-75379664D02*
X102965000Y-75595336D01*
X103685000Y-75379664D02*
X103685000Y-75595336D01*
%TO.C,HER41*%
X226632500Y-132791141D02*
X226632500Y-132483859D01*
X227392500Y-132791141D02*
X227392500Y-132483859D01*
%TO.C,HECC36*%
X58965000Y-132529664D02*
X58965000Y-132745336D01*
X59685000Y-132529664D02*
X59685000Y-132745336D01*
%TO.C,LEDC37*%
X77365000Y-140012836D02*
X77365000Y-139797164D01*
X78085000Y-140012836D02*
X78085000Y-139797164D01*
%TO.C,HER18*%
X150432500Y-94691141D02*
X150432500Y-94383859D01*
X151192500Y-94691141D02*
X151192500Y-94383859D01*
%TO.C,HER38*%
X124238750Y-132791141D02*
X124238750Y-132483859D01*
X124998750Y-132791141D02*
X124998750Y-132483859D01*
%TO.C,HECC42*%
X247083750Y-132529664D02*
X247083750Y-132745336D01*
X247803750Y-132529664D02*
X247803750Y-132745336D01*
%TO.C,HE9*%
X194565000Y-76425000D02*
X194565000Y-75775000D01*
X194565000Y-76425000D02*
X194565000Y-77075000D01*
X197685000Y-76425000D02*
X197685000Y-75775000D01*
X197685000Y-76425000D02*
X197685000Y-77075000D01*
X197965000Y-75502500D02*
X197635000Y-75262500D01*
X197965000Y-75022500D01*
X197965000Y-75502500D01*
G36*
X197965000Y-75502500D02*
G01*
X197635000Y-75262500D01*
X197965000Y-75022500D01*
X197965000Y-75502500D01*
G37*
%TO.C,HEC36*%
X64865000Y-132529664D02*
X64865000Y-132745336D01*
X65585000Y-132529664D02*
X65585000Y-132745336D01*
D14*
%TO.C,LED23*%
X253525750Y-98777000D02*
X252925750Y-98777000D01*
X252925750Y-98177000D01*
X253525750Y-98777000D01*
G36*
X253525750Y-98777000D02*
G01*
X252925750Y-98777000D01*
X252925750Y-98177000D01*
X253525750Y-98777000D01*
G37*
D13*
%TO.C,MC12*%
X92057836Y-133040000D02*
X91842164Y-133040000D01*
X92057836Y-133760000D02*
X91842164Y-133760000D01*
%TO.C,HE23*%
X249333750Y-95475000D02*
X249333750Y-94825000D01*
X249333750Y-95475000D02*
X249333750Y-96125000D01*
X252453750Y-95475000D02*
X252453750Y-94825000D01*
X252453750Y-95475000D02*
X252453750Y-96125000D01*
X252733750Y-94552500D02*
X252403750Y-94312500D01*
X252733750Y-94072500D01*
X252733750Y-94552500D01*
G36*
X252733750Y-94552500D02*
G01*
X252403750Y-94312500D01*
X252733750Y-94072500D01*
X252733750Y-94552500D01*
G37*
D14*
%TO.C,LED32*%
X198855500Y-121983000D02*
X198255500Y-121383000D01*
X198855500Y-121383000D01*
X198855500Y-121983000D01*
G36*
X198855500Y-121983000D02*
G01*
X198255500Y-121383000D01*
X198855500Y-121383000D01*
X198855500Y-121983000D01*
G37*
D13*
%TO.C,LEDC39*%
X170233750Y-140012836D02*
X170233750Y-139797164D01*
X170953750Y-140012836D02*
X170953750Y-139797164D01*
D14*
%TO.C,LED1*%
X41693000Y-83883000D02*
X41093000Y-83283000D01*
X41693000Y-83283000D01*
X41693000Y-83883000D01*
G36*
X41693000Y-83883000D02*
G01*
X41093000Y-83283000D01*
X41693000Y-83283000D01*
X41693000Y-83883000D01*
G37*
D13*
%TO.C,HE24*%
X42165000Y-114525000D02*
X42165000Y-113875000D01*
X42165000Y-114525000D02*
X42165000Y-115175000D01*
X45285000Y-114525000D02*
X45285000Y-113875000D01*
X45285000Y-114525000D02*
X45285000Y-115175000D01*
X45565000Y-113602500D02*
X45235000Y-113362500D01*
X45565000Y-113122500D01*
X45565000Y-113602500D01*
G36*
X45565000Y-113602500D02*
G01*
X45235000Y-113362500D01*
X45565000Y-113122500D01*
X45565000Y-113602500D01*
G37*
%TO.C,R9*%
X104726361Y-137489998D02*
X105033643Y-137489998D01*
X104726361Y-138249998D02*
X105033643Y-138249998D01*
D18*
%TO.C,Key39*%
X165193750Y-125575000D02*
G75*
G02*
X160193750Y-125575000I-2500000J0D01*
G01*
X160193750Y-125575000D02*
G75*
G02*
X165193750Y-125575000I2500000J0D01*
G01*
X164693750Y-140575000D02*
G75*
G02*
X160693750Y-140575000I-2000000J0D01*
G01*
X160693750Y-140575000D02*
G75*
G02*
X164693750Y-140575000I2000000J0D01*
G01*
X189193750Y-125575000D02*
G75*
G02*
X184193750Y-125575000I-2500000J0D01*
G01*
X184193750Y-125575000D02*
G75*
G02*
X189193750Y-125575000I2500000J0D01*
G01*
X188693750Y-140575000D02*
G75*
G02*
X184693750Y-140575000I-2000000J0D01*
G01*
X184693750Y-140575000D02*
G75*
G02*
X188693750Y-140575000I2000000J0D01*
G01*
D13*
%TO.C,HER39*%
X171863750Y-132791141D02*
X171863750Y-132483859D01*
X172623750Y-132791141D02*
X172623750Y-132483859D01*
%TO.C,HECC34*%
X242321250Y-113479664D02*
X242321250Y-113695336D01*
X243041250Y-113479664D02*
X243041250Y-113695336D01*
%TO.C,HE15*%
X94552500Y-95475000D02*
X94552500Y-94825000D01*
X94552500Y-95475000D02*
X94552500Y-96125000D01*
X97672500Y-95475000D02*
X97672500Y-94825000D01*
X97672500Y-95475000D02*
X97672500Y-96125000D01*
X97952500Y-94552500D02*
X97622500Y-94312500D01*
X97952500Y-94072500D01*
X97952500Y-94552500D01*
G36*
X97952500Y-94552500D02*
G01*
X97622500Y-94312500D01*
X97952500Y-94072500D01*
X97952500Y-94552500D01*
G37*
%TO.C,HEC26*%
X86296250Y-113479664D02*
X86296250Y-113695336D01*
X87016250Y-113479664D02*
X87016250Y-113695336D01*
D14*
%TO.C,LED28*%
X122655500Y-121983000D02*
X122055500Y-121383000D01*
X122655500Y-121383000D01*
X122655500Y-121983000D01*
G36*
X122655500Y-121983000D02*
G01*
X122055500Y-121383000D01*
X122655500Y-121383000D01*
X122655500Y-121983000D01*
G37*
D13*
%TO.C,HECC38*%
X123258750Y-132529664D02*
X123258750Y-132745336D01*
X123978750Y-132529664D02*
X123978750Y-132745336D01*
%TO.C,MC9*%
X101825000Y-125837164D02*
X101825000Y-126052836D01*
X102545000Y-125837164D02*
X102545000Y-126052836D01*
D14*
%TO.C,LED19*%
X174944500Y-98777000D02*
X174344500Y-98777000D01*
X174344500Y-98177000D01*
X174944500Y-98777000D01*
G36*
X174944500Y-98777000D02*
G01*
X174344500Y-98777000D01*
X174344500Y-98177000D01*
X174944500Y-98777000D01*
G37*
D13*
%TO.C,HE33*%
X218377500Y-114525000D02*
X218377500Y-113875000D01*
X218377500Y-114525000D02*
X218377500Y-115175000D01*
X221497500Y-114525000D02*
X221497500Y-113875000D01*
X221497500Y-114525000D02*
X221497500Y-115175000D01*
X221777500Y-113602500D02*
X221447500Y-113362500D01*
X221777500Y-113122500D01*
X221777500Y-113602500D01*
G36*
X221777500Y-113602500D02*
G01*
X221447500Y-113362500D01*
X221777500Y-113122500D01*
X221777500Y-113602500D01*
G37*
%TO.C,MC1*%
X108065000Y-138627837D02*
X108065000Y-138412165D01*
X108785000Y-138627837D02*
X108785000Y-138412165D01*
%TO.C,HER13*%
X48038750Y-94691141D02*
X48038750Y-94383859D01*
X48798750Y-94691141D02*
X48798750Y-94383859D01*
%TO.C,HECC21*%
X206602500Y-94429664D02*
X206602500Y-94645336D01*
X207322500Y-94429664D02*
X207322500Y-94645336D01*
%TO.C,LEDC26*%
X87946250Y-118247164D02*
X87946250Y-118462836D01*
X88666250Y-118247164D02*
X88666250Y-118462836D01*
%TO.C,HECC14*%
X73252500Y-94429664D02*
X73252500Y-94645336D01*
X73972500Y-94429664D02*
X73972500Y-94645336D01*
%TO.C,HE36*%
X61215000Y-133575000D02*
X61215000Y-132925000D01*
X61215000Y-133575000D02*
X61215000Y-134225000D01*
X64335000Y-133575000D02*
X64335000Y-132925000D01*
X64335000Y-133575000D02*
X64335000Y-134225000D01*
X64615000Y-132652500D02*
X64285000Y-132412500D01*
X64615000Y-132172500D01*
X64615000Y-132652500D01*
G36*
X64615000Y-132652500D02*
G01*
X64285000Y-132412500D01*
X64615000Y-132172500D01*
X64615000Y-132652500D01*
G37*
%TO.C,HEC23*%
X252983750Y-94429664D02*
X252983750Y-94645336D01*
X253703750Y-94429664D02*
X253703750Y-94645336D01*
%TO.C,HEC15*%
X98202500Y-94429664D02*
X98202500Y-94645336D01*
X98922500Y-94429664D02*
X98922500Y-94645336D01*
%TO.C,HEC32*%
X202977500Y-113479664D02*
X202977500Y-113695336D01*
X203697500Y-113479664D02*
X203697500Y-113695336D01*
%TO.C,HER25*%
X59945000Y-113741141D02*
X59945000Y-113433859D01*
X60705000Y-113741141D02*
X60705000Y-113433859D01*
%TO.C,U1*%
X93640000Y-125497500D02*
X94115000Y-125497500D01*
X93640000Y-125972500D02*
X93640000Y-125497500D01*
X93640000Y-132242500D02*
X93640000Y-132417500D01*
X94115000Y-132717500D02*
X93880000Y-132717500D01*
X100860000Y-125497500D02*
X100385000Y-125497500D01*
X100860000Y-125972500D02*
X100860000Y-125497500D01*
X100860000Y-132242500D02*
X100860000Y-132717500D01*
X100860000Y-132717500D02*
X100385000Y-132717500D01*
X93640000Y-132717500D02*
X93310000Y-132957500D01*
X93310000Y-132477500D01*
X93640000Y-132717500D01*
G36*
X93640000Y-132717500D02*
G01*
X93310000Y-132957500D01*
X93310000Y-132477500D01*
X93640000Y-132717500D01*
G37*
%TO.C,PWRC2*%
X76515000Y-70238748D02*
X76515000Y-70761252D01*
X77985000Y-70238748D02*
X77985000Y-70761252D01*
%TO.C,LEDC22*%
X225002500Y-101912836D02*
X225002500Y-101697164D01*
X225722500Y-101912836D02*
X225722500Y-101697164D01*
%TO.C,BRD2*%
X108893055Y-128345137D02*
X110773959Y-130226041D01*
X110095137Y-127143055D02*
X108893055Y-128345137D01*
X110095137Y-127143055D02*
X111976041Y-129023959D01*
%TO.C,HEC7*%
X160115000Y-75379664D02*
X160115000Y-75595336D01*
X160835000Y-75379664D02*
X160835000Y-75595336D01*
%TO.C,LEDC11*%
X237965000Y-80147164D02*
X237965000Y-80362836D01*
X238685000Y-80147164D02*
X238685000Y-80362836D01*
%TO.C,HER12*%
X250445000Y-75641141D02*
X250445000Y-75333859D01*
X251205000Y-75641141D02*
X251205000Y-75333859D01*
D14*
%TO.C,LED40*%
X210663250Y-136877000D02*
X210063250Y-136877000D01*
X210063250Y-136277000D01*
X210663250Y-136877000D01*
G36*
X210663250Y-136877000D02*
G01*
X210063250Y-136877000D01*
X210063250Y-136277000D01*
X210663250Y-136877000D01*
G37*
D13*
%TO.C,LEDC31*%
X185577500Y-118247164D02*
X185577500Y-118462836D01*
X186297500Y-118247164D02*
X186297500Y-118462836D01*
%TO.C,Q2*%
X107940000Y-135400000D02*
X107940000Y-134750000D01*
X107940000Y-135400000D02*
X107940000Y-136050000D01*
X111060000Y-135400000D02*
X111060000Y-134750000D01*
X111060000Y-135400000D02*
X111060000Y-136050000D01*
X111340000Y-134477500D02*
X111010000Y-134237500D01*
X111340000Y-133997500D01*
X111340000Y-134477500D01*
G36*
X111340000Y-134477500D02*
G01*
X111010000Y-134237500D01*
X111340000Y-133997500D01*
X111340000Y-134477500D01*
G37*
%TO.C,HER7*%
X155195000Y-75641141D02*
X155195000Y-75333859D01*
X155955000Y-75641141D02*
X155955000Y-75333859D01*
D14*
%TO.C,LED24*%
X41693000Y-121983000D02*
X41093000Y-121383000D01*
X41693000Y-121383000D01*
X41693000Y-121983000D01*
G36*
X41693000Y-121983000D02*
G01*
X41093000Y-121383000D01*
X41693000Y-121383000D01*
X41693000Y-121983000D01*
G37*
D13*
%TO.C,HER8*%
X174245000Y-75641141D02*
X174245000Y-75333859D01*
X175005000Y-75641141D02*
X175005000Y-75333859D01*
%TO.C,HEC40*%
X210121250Y-132529664D02*
X210121250Y-132745336D01*
X210841250Y-132529664D02*
X210841250Y-132745336D01*
D14*
%TO.C,LED34*%
X244099250Y-121983000D02*
X243499250Y-121383000D01*
X244099250Y-121383000D01*
X244099250Y-121983000D01*
G36*
X244099250Y-121983000D02*
G01*
X243499250Y-121383000D01*
X244099250Y-121383000D01*
X244099250Y-121983000D01*
G37*
D13*
%TO.C,LEDC13*%
X46408750Y-101912836D02*
X46408750Y-101697164D01*
X47128750Y-101912836D02*
X47128750Y-101697164D01*
D14*
%TO.C,LED8*%
X175043000Y-83883000D02*
X174443000Y-83283000D01*
X175043000Y-83283000D01*
X175043000Y-83883000D01*
G36*
X175043000Y-83883000D02*
G01*
X174443000Y-83283000D01*
X175043000Y-83283000D01*
X175043000Y-83883000D01*
G37*
D13*
%TO.C,LEDC9*%
X199865000Y-80147164D02*
X199865000Y-80362836D01*
X200585000Y-80147164D02*
X200585000Y-80362836D01*
%TO.C,HER1*%
X40894999Y-75641141D02*
X40894999Y-75333859D01*
X41654999Y-75641141D02*
X41654999Y-75333859D01*
%TO.C,HE8*%
X175515000Y-76425000D02*
X175515000Y-75775000D01*
X175515000Y-76425000D02*
X175515000Y-77075000D01*
X178635000Y-76425000D02*
X178635000Y-75775000D01*
X178635000Y-76425000D02*
X178635000Y-77075000D01*
X178915000Y-75502500D02*
X178585000Y-75262500D01*
X178915000Y-75022500D01*
X178915000Y-75502500D01*
G36*
X178915000Y-75502500D02*
G01*
X178585000Y-75262500D01*
X178915000Y-75022500D01*
X178915000Y-75502500D01*
G37*
%TO.C,R3*%
X39213641Y-137525000D02*
X38906359Y-137525000D01*
X39213641Y-138285000D02*
X38906359Y-138285000D01*
%TO.C,HE37*%
X80265000Y-133575000D02*
X80265000Y-132925000D01*
X80265000Y-133575000D02*
X80265000Y-134225000D01*
X83385000Y-133575000D02*
X83385000Y-132925000D01*
X83385000Y-133575000D02*
X83385000Y-134225000D01*
X83665000Y-132652500D02*
X83335000Y-132412500D01*
X83665000Y-132172500D01*
X83665000Y-132652500D01*
G36*
X83665000Y-132652500D02*
G01*
X83335000Y-132412500D01*
X83665000Y-132172500D01*
X83665000Y-132652500D01*
G37*
%TO.C,HE41*%
X227902500Y-133575000D02*
X227902500Y-132925000D01*
X227902500Y-133575000D02*
X227902500Y-134225000D01*
X231022500Y-133575000D02*
X231022500Y-132925000D01*
X231022500Y-133575000D02*
X231022500Y-134225000D01*
X231302500Y-132652500D02*
X230972500Y-132412500D01*
X231302500Y-132172500D01*
X231302500Y-132652500D01*
G36*
X231302500Y-132652500D02*
G01*
X230972500Y-132412500D01*
X231302500Y-132172500D01*
X231302500Y-132652500D01*
G37*
D14*
%TO.C,LED17*%
X136844500Y-98777000D02*
X136244500Y-98777000D01*
X136244500Y-98177000D01*
X136844500Y-98777000D01*
G36*
X136844500Y-98777000D02*
G01*
X136244500Y-98777000D01*
X136244500Y-98177000D01*
X136844500Y-98777000D01*
G37*
D13*
%TO.C,HECC24*%
X39914999Y-113479664D02*
X39914999Y-113695336D01*
X40634999Y-113479664D02*
X40634999Y-113695336D01*
%TO.C,HER23*%
X248063750Y-94691141D02*
X248063750Y-94383859D01*
X248823750Y-94691141D02*
X248823750Y-94383859D01*
%TO.C,HER3*%
X78995000Y-75641141D02*
X78995000Y-75333859D01*
X79755000Y-75641141D02*
X79755000Y-75333859D01*
%TO.C,HER4*%
X98044999Y-75641141D02*
X98044999Y-75333859D01*
X98804999Y-75641141D02*
X98804999Y-75333859D01*
%TO.C,HEC39*%
X176783750Y-132529664D02*
X176783750Y-132745336D01*
X177503750Y-132529664D02*
X177503750Y-132745336D01*
%TO.C,HER26*%
X81376250Y-113741141D02*
X81376250Y-113433859D01*
X82136250Y-113741141D02*
X82136250Y-113433859D01*
%TO.C,LEDC3*%
X85565000Y-80147164D02*
X85565000Y-80362836D01*
X86285000Y-80147164D02*
X86285000Y-80362836D01*
%TO.C,HEC11*%
X236315000Y-75379664D02*
X236315000Y-75595336D01*
X237035000Y-75379664D02*
X237035000Y-75595336D01*
%TO.C,HE16*%
X113602500Y-95475000D02*
X113602500Y-94825000D01*
X113602500Y-95475000D02*
X113602500Y-96125000D01*
X116722500Y-95475000D02*
X116722500Y-94825000D01*
X116722500Y-95475000D02*
X116722500Y-96125000D01*
X117002500Y-94552500D02*
X116672500Y-94312500D01*
X117002500Y-94072500D01*
X117002500Y-94552500D01*
G36*
X117002500Y-94552500D02*
G01*
X116672500Y-94312500D01*
X117002500Y-94072500D01*
X117002500Y-94552500D01*
G37*
D14*
%TO.C,LED10*%
X213143000Y-83883000D02*
X212543000Y-83283000D01*
X213143000Y-83283000D01*
X213143000Y-83883000D01*
G36*
X213143000Y-83883000D02*
G01*
X212543000Y-83283000D01*
X213143000Y-83283000D01*
X213143000Y-83883000D01*
G37*
D13*
%TO.C,HER6*%
X136145000Y-75641141D02*
X136145000Y-75333859D01*
X136905000Y-75641141D02*
X136905000Y-75333859D01*
D14*
%TO.C,LED12*%
X251243000Y-83883000D02*
X250643000Y-83283000D01*
X251243000Y-83283000D01*
X251243000Y-83883000D01*
G36*
X251243000Y-83883000D02*
G01*
X250643000Y-83283000D01*
X251243000Y-83283000D01*
X251243000Y-83883000D01*
G37*
D13*
%TO.C,BS1*%
X124318750Y-127775000D02*
X124318750Y-125775000D01*
X125368750Y-124475000D02*
X125818750Y-124025000D01*
X125368750Y-129075000D02*
X125818750Y-129525000D01*
X128318750Y-124025000D02*
X125818750Y-124025000D01*
X128318750Y-129525000D02*
X125818750Y-129525000D01*
X128768750Y-124475000D02*
X128318750Y-124025000D01*
X128768750Y-129075000D02*
X128318750Y-129525000D01*
X129818750Y-127775000D02*
X129818750Y-125775000D01*
%TO.C,R5*%
X106128633Y-132167253D02*
X105911352Y-131949972D01*
X106666034Y-131629852D02*
X106448753Y-131412571D01*
%TO.C,LEDC27*%
X109377500Y-118247164D02*
X109377500Y-118462836D01*
X110097500Y-118247164D02*
X110097500Y-118462836D01*
%TO.C,LEDC7*%
X161765000Y-80147164D02*
X161765000Y-80362836D01*
X162485000Y-80147164D02*
X162485000Y-80362836D01*
%TO.C,LMR3*%
X37853641Y-82037499D02*
X37546359Y-82037499D01*
X37853641Y-82797499D02*
X37546359Y-82797499D01*
%TO.C,HEC25*%
X64865000Y-113479664D02*
X64865000Y-113695336D01*
X65585000Y-113479664D02*
X65585000Y-113695336D01*
%TO.C,HEC6*%
X141065000Y-75379664D02*
X141065000Y-75595336D01*
X141785000Y-75379664D02*
X141785000Y-75595336D01*
%TO.C,BRR9*%
X106692706Y-131175692D02*
X106909987Y-131392973D01*
X107230107Y-130638291D02*
X107447388Y-130855572D01*
%TO.C,LEDC32*%
X204627500Y-118247164D02*
X204627500Y-118462836D01*
X205347500Y-118247164D02*
X205347500Y-118462836D01*
%TO.C,HEC31*%
X183927500Y-113479664D02*
X183927500Y-113695336D01*
X184647500Y-113479664D02*
X184647500Y-113695336D01*
%TO.C,HEC38*%
X129158750Y-132529664D02*
X129158750Y-132745336D01*
X129878750Y-132529664D02*
X129878750Y-132745336D01*
%TO.C,HER22*%
X226632500Y-94691141D02*
X226632500Y-94383859D01*
X227392500Y-94691141D02*
X227392500Y-94383859D01*
%TO.C,HECC18*%
X149452500Y-94429664D02*
X149452500Y-94645336D01*
X150172500Y-94429664D02*
X150172500Y-94645336D01*
%TO.C,HER33*%
X217107500Y-113741141D02*
X217107500Y-113433859D01*
X217867500Y-113741141D02*
X217867500Y-113433859D01*
%TO.C,HER2*%
X59945000Y-75641141D02*
X59945000Y-75333859D01*
X60705000Y-75641141D02*
X60705000Y-75333859D01*
%TO.C,LEDC21*%
X205952500Y-101912836D02*
X205952500Y-101697164D01*
X206672500Y-101912836D02*
X206672500Y-101697164D01*
%TO.C,HER42*%
X248063750Y-132791141D02*
X248063750Y-132483859D01*
X248823750Y-132791141D02*
X248823750Y-132483859D01*
%TO.C,LEDC18*%
X148802500Y-101912836D02*
X148802500Y-101697164D01*
X149522500Y-101912836D02*
X149522500Y-101697164D01*
D10*
%TO.C,TP1*%
X38040000Y-137905000D02*
G75*
G02*
X35640000Y-137905000I-1200000J0D01*
G01*
X35640000Y-137905000D02*
G75*
G02*
X38040000Y-137905000I1200000J0D01*
G01*
D13*
%TO.C,HE14*%
X75502500Y-95475000D02*
X75502500Y-94825000D01*
X75502500Y-95475000D02*
X75502500Y-96125000D01*
X78622500Y-95475000D02*
X78622500Y-94825000D01*
X78622500Y-95475000D02*
X78622500Y-96125000D01*
X78902500Y-94552500D02*
X78572500Y-94312500D01*
X78902500Y-94072500D01*
X78902500Y-94552500D01*
G36*
X78902500Y-94552500D02*
G01*
X78572500Y-94312500D01*
X78902500Y-94072500D01*
X78902500Y-94552500D01*
G37*
%TO.C,LEDC34*%
X249871250Y-118247164D02*
X249871250Y-118462836D01*
X250591250Y-118247164D02*
X250591250Y-118462836D01*
%TO.C,MPC1*%
X67540000Y-106292164D02*
X67540000Y-106507836D01*
X68260000Y-106292164D02*
X68260000Y-106507836D01*
%TO.C,HEC9*%
X198215000Y-75379664D02*
X198215000Y-75595336D01*
X198935000Y-75379664D02*
X198935000Y-75595336D01*
%TO.C,HE21*%
X208852500Y-95475000D02*
X208852500Y-94825000D01*
X208852500Y-95475000D02*
X208852500Y-96125000D01*
X211972500Y-95475000D02*
X211972500Y-94825000D01*
X211972500Y-95475000D02*
X211972500Y-96125000D01*
X212252500Y-94552500D02*
X211922500Y-94312500D01*
X212252500Y-94072500D01*
X212252500Y-94552500D01*
G36*
X212252500Y-94552500D02*
G01*
X211922500Y-94312500D01*
X212252500Y-94072500D01*
X212252500Y-94552500D01*
G37*
%TO.C,MPC2*%
X137290000Y-103292164D02*
X137290000Y-103507836D01*
X138010000Y-103292164D02*
X138010000Y-103507836D01*
%TO.C,HER11*%
X231395000Y-75641141D02*
X231395000Y-75333859D01*
X232155000Y-75641141D02*
X232155000Y-75333859D01*
%TO.C,HER35*%
X40894999Y-132791141D02*
X40894999Y-132483859D01*
X41654999Y-132791141D02*
X41654999Y-132483859D01*
D14*
%TO.C,LED6*%
X136943000Y-83883000D02*
X136343000Y-83283000D01*
X136943000Y-83283000D01*
X136943000Y-83883000D01*
G36*
X136943000Y-83883000D02*
G01*
X136343000Y-83283000D01*
X136943000Y-83283000D01*
X136943000Y-83883000D01*
G37*
D13*
%TO.C,LEDC30*%
X166527500Y-118247164D02*
X166527500Y-118462836D01*
X167247500Y-118247164D02*
X167247500Y-118462836D01*
D14*
%TO.C,LED9*%
X194093000Y-83883000D02*
X193493000Y-83283000D01*
X194093000Y-83283000D01*
X194093000Y-83883000D01*
G36*
X194093000Y-83883000D02*
G01*
X193493000Y-83283000D01*
X194093000Y-83283000D01*
X194093000Y-83883000D01*
G37*
D13*
%TO.C,LEDC23*%
X246433750Y-101912836D02*
X246433750Y-101697164D01*
X247153750Y-101912836D02*
X247153750Y-101697164D01*
%TO.C,HECC11*%
X230415000Y-75379664D02*
X230415000Y-75595336D01*
X231135000Y-75379664D02*
X231135000Y-75595336D01*
%TO.C,HEC18*%
X155352500Y-94429664D02*
X155352500Y-94645336D01*
X156072500Y-94429664D02*
X156072500Y-94645336D01*
%TO.C,D1*%
X120865000Y-125165000D02*
X120865000Y-127450000D01*
X122335000Y-125165000D02*
X120865000Y-125165000D01*
X122335000Y-127450000D02*
X122335000Y-125165000D01*
%TO.C,HE25*%
X61215000Y-114525000D02*
X61215000Y-113875000D01*
X61215000Y-114525000D02*
X61215000Y-115175000D01*
X64335000Y-114525000D02*
X64335000Y-113875000D01*
X64335000Y-114525000D02*
X64335000Y-115175000D01*
X64615000Y-113602500D02*
X64285000Y-113362500D01*
X64615000Y-113122500D01*
X64615000Y-113602500D01*
G36*
X64615000Y-113602500D02*
G01*
X64285000Y-113362500D01*
X64615000Y-113122500D01*
X64615000Y-113602500D01*
G37*
%TO.C,HECC35*%
X39914999Y-132529664D02*
X39914999Y-132745336D01*
X40634999Y-132529664D02*
X40634999Y-132745336D01*
%TO.C,MC15*%
X102220000Y-138567836D02*
X102220000Y-138352164D01*
X102940000Y-138567836D02*
X102940000Y-138352164D01*
%TO.C,LM1*%
X36650000Y-85900000D02*
X36650000Y-85250000D01*
X36650000Y-85900000D02*
X36650000Y-86550000D01*
X39770000Y-85900000D02*
X39770000Y-85250000D01*
X39770000Y-85900000D02*
X39770000Y-86550000D01*
X36700000Y-87062500D02*
X36370000Y-87302500D01*
X36370000Y-86822500D01*
X36700000Y-87062500D01*
G36*
X36700000Y-87062500D02*
G01*
X36370000Y-87302500D01*
X36370000Y-86822500D01*
X36700000Y-87062500D01*
G37*
%TO.C,LEDC42*%
X246433750Y-140012836D02*
X246433750Y-139797164D01*
X247153750Y-140012836D02*
X247153750Y-139797164D01*
D14*
%TO.C,LED21*%
X213044500Y-98777000D02*
X212444500Y-98777000D01*
X212444500Y-98177000D01*
X213044500Y-98777000D01*
G36*
X213044500Y-98777000D02*
G01*
X212444500Y-98777000D01*
X212444500Y-98177000D01*
X213044500Y-98777000D01*
G37*
D13*
%TO.C,HEC5*%
X122015000Y-75379664D02*
X122015000Y-75595336D01*
X122735000Y-75379664D02*
X122735000Y-75595336D01*
%TO.C,HE2*%
X61215000Y-76425000D02*
X61215000Y-75775000D01*
X61215000Y-76425000D02*
X61215000Y-77075000D01*
X64335000Y-76425000D02*
X64335000Y-75775000D01*
X64335000Y-76425000D02*
X64335000Y-77075000D01*
X64615000Y-75502500D02*
X64285000Y-75262500D01*
X64615000Y-75022500D01*
X64615000Y-75502500D01*
G36*
X64615000Y-75502500D02*
G01*
X64285000Y-75262500D01*
X64615000Y-75022500D01*
X64615000Y-75502500D01*
G37*
%TO.C,HE32*%
X199327500Y-114525000D02*
X199327500Y-113875000D01*
X199327500Y-114525000D02*
X199327500Y-115175000D01*
X202447500Y-114525000D02*
X202447500Y-113875000D01*
X202447500Y-114525000D02*
X202447500Y-115175000D01*
X202727500Y-113602500D02*
X202397500Y-113362500D01*
X202727500Y-113122500D01*
X202727500Y-113602500D01*
G36*
X202727500Y-113602500D02*
G01*
X202397500Y-113362500D01*
X202727500Y-113122500D01*
X202727500Y-113602500D01*
G37*
%TO.C,LEDC12*%
X257015000Y-80147164D02*
X257015000Y-80362836D01*
X257735000Y-80147164D02*
X257735000Y-80362836D01*
%TO.C,CR_C3*%
X96640000Y-138032836D02*
X96640000Y-137817164D01*
X97360000Y-138032836D02*
X97360000Y-137817164D01*
%TO.C,HE31*%
X180277500Y-114525000D02*
X180277500Y-113875000D01*
X180277500Y-114525000D02*
X180277500Y-115175000D01*
X183397500Y-114525000D02*
X183397500Y-113875000D01*
X183397500Y-114525000D02*
X183397500Y-115175000D01*
X183677500Y-113602500D02*
X183347500Y-113362500D01*
X183677500Y-113122500D01*
X183677500Y-113602500D01*
G36*
X183677500Y-113602500D02*
G01*
X183347500Y-113362500D01*
X183677500Y-113122500D01*
X183677500Y-113602500D01*
G37*
D14*
%TO.C,LED35*%
X46357000Y-136877000D02*
X45757000Y-136877000D01*
X45757000Y-136277000D01*
X46357000Y-136877000D01*
G36*
X46357000Y-136877000D02*
G01*
X45757000Y-136877000D01*
X45757000Y-136277000D01*
X46357000Y-136877000D01*
G37*
D13*
%TO.C,HECC25*%
X58965000Y-113479664D02*
X58965000Y-113695336D01*
X59685000Y-113479664D02*
X59685000Y-113695336D01*
%TO.C,HECC4*%
X97064999Y-75379664D02*
X97064999Y-75595336D01*
X97784999Y-75379664D02*
X97784999Y-75595336D01*
%TO.C,HE6*%
X137415000Y-76425000D02*
X137415000Y-75775000D01*
X137415000Y-76425000D02*
X137415000Y-77075000D01*
X140535000Y-76425000D02*
X140535000Y-75775000D01*
X140535000Y-76425000D02*
X140535000Y-77075000D01*
X140815000Y-75502500D02*
X140485000Y-75262500D01*
X140815000Y-75022500D01*
X140815000Y-75502500D01*
G36*
X140815000Y-75502500D02*
G01*
X140485000Y-75262500D01*
X140815000Y-75022500D01*
X140815000Y-75502500D01*
G37*
%TO.C,HEC8*%
X179165000Y-75379664D02*
X179165000Y-75595336D01*
X179885000Y-75379664D02*
X179885000Y-75595336D01*
D14*
%TO.C,LED36*%
X65407000Y-136877000D02*
X64807000Y-136877000D01*
X64807000Y-136277000D01*
X65407000Y-136877000D01*
G36*
X65407000Y-136877000D02*
G01*
X64807000Y-136877000D01*
X64807000Y-136277000D01*
X65407000Y-136877000D01*
G37*
D13*
%TO.C,HER20*%
X188532500Y-94691141D02*
X188532500Y-94383859D01*
X189292500Y-94691141D02*
X189292500Y-94383859D01*
%TO.C,HE17*%
X132652500Y-95475000D02*
X132652500Y-94825000D01*
X132652500Y-95475000D02*
X132652500Y-96125000D01*
X135772500Y-95475000D02*
X135772500Y-94825000D01*
X135772500Y-95475000D02*
X135772500Y-96125000D01*
X136052500Y-94552500D02*
X135722500Y-94312500D01*
X136052500Y-94072500D01*
X136052500Y-94552500D01*
G36*
X136052500Y-94552500D02*
G01*
X135722500Y-94312500D01*
X136052500Y-94072500D01*
X136052500Y-94552500D01*
G37*
%TO.C,HECC8*%
X173265000Y-75379664D02*
X173265000Y-75595336D01*
X173985000Y-75379664D02*
X173985000Y-75595336D01*
%TO.C,MC10*%
X92137836Y-125090000D02*
X91922164Y-125090000D01*
X92137836Y-125810000D02*
X91922164Y-125810000D01*
%TO.C,HEC12*%
X255365000Y-75379664D02*
X255365000Y-75595336D01*
X256085000Y-75379664D02*
X256085000Y-75595336D01*
%TO.C,LEDC29*%
X147477500Y-118247164D02*
X147477500Y-118462836D01*
X148197500Y-118247164D02*
X148197500Y-118462836D01*
%TO.C,R4*%
X104721359Y-138539998D02*
X105028641Y-138539998D01*
X104721359Y-139299998D02*
X105028641Y-139299998D01*
D14*
%TO.C,LED7*%
X155993000Y-83883000D02*
X155393000Y-83283000D01*
X155993000Y-83283000D01*
X155993000Y-83883000D01*
G36*
X155993000Y-83883000D02*
G01*
X155393000Y-83283000D01*
X155993000Y-83283000D01*
X155993000Y-83883000D01*
G37*
D13*
%TO.C,HECC23*%
X247083750Y-94429664D02*
X247083750Y-94645336D01*
X247803750Y-94429664D02*
X247803750Y-94645336D01*
%TO.C,HER29*%
X140907500Y-113741141D02*
X140907500Y-113433859D01*
X141667500Y-113741141D02*
X141667500Y-113433859D01*
%TO.C,HECC3*%
X78015000Y-75379664D02*
X78015000Y-75595336D01*
X78735000Y-75379664D02*
X78735000Y-75595336D01*
%TO.C,HEC34*%
X248221250Y-113479664D02*
X248221250Y-113695336D01*
X248941250Y-113479664D02*
X248941250Y-113695336D01*
%TO.C,HECC16*%
X111352500Y-94429664D02*
X111352500Y-94645336D01*
X112072500Y-94429664D02*
X112072500Y-94645336D01*
%TO.C,HECC19*%
X168502500Y-94429664D02*
X168502500Y-94645336D01*
X169222500Y-94429664D02*
X169222500Y-94645336D01*
D14*
%TO.C,LED42*%
X253525750Y-136877000D02*
X252925750Y-136877000D01*
X252925750Y-136277000D01*
X253525750Y-136877000D01*
G36*
X253525750Y-136877000D02*
G01*
X252925750Y-136877000D01*
X252925750Y-136277000D01*
X253525750Y-136877000D01*
G37*
D13*
%TO.C,HEC17*%
X136302500Y-94429664D02*
X136302500Y-94645336D01*
X137022500Y-94429664D02*
X137022500Y-94645336D01*
D14*
%TO.C,LED2*%
X60743000Y-83883000D02*
X60143000Y-83283000D01*
X60743000Y-83283000D01*
X60743000Y-83883000D01*
G36*
X60743000Y-83883000D02*
G01*
X60143000Y-83283000D01*
X60743000Y-83283000D01*
X60743000Y-83883000D01*
G37*
D13*
%TO.C,HECC40*%
X204221250Y-132529664D02*
X204221250Y-132745336D01*
X204941250Y-132529664D02*
X204941250Y-132745336D01*
%TO.C,LEDC2*%
X66515000Y-80147164D02*
X66515000Y-80362836D01*
X67235000Y-80147164D02*
X67235000Y-80362836D01*
D14*
%TO.C,LED30*%
X160755500Y-121983000D02*
X160155500Y-121383000D01*
X160755500Y-121383000D01*
X160755500Y-121983000D01*
G36*
X160755500Y-121983000D02*
G01*
X160155500Y-121383000D01*
X160755500Y-121383000D01*
X160755500Y-121983000D01*
G37*
D13*
%TO.C,HE10*%
X213615000Y-76425000D02*
X213615000Y-75775000D01*
X213615000Y-76425000D02*
X213615000Y-77075000D01*
X216735000Y-76425000D02*
X216735000Y-75775000D01*
X216735000Y-76425000D02*
X216735000Y-77075000D01*
X217015000Y-75502500D02*
X216685000Y-75262500D01*
X217015000Y-75022500D01*
X217015000Y-75502500D01*
G36*
X217015000Y-75502500D02*
G01*
X216685000Y-75262500D01*
X217015000Y-75022500D01*
X217015000Y-75502500D01*
G37*
%TO.C,Q1*%
X104415000Y-135400000D02*
X104415000Y-134750000D01*
X104415000Y-135400000D02*
X104415000Y-136050000D01*
X107535000Y-135400000D02*
X107535000Y-134750000D01*
X107535000Y-135400000D02*
X107535000Y-136050000D01*
X104465000Y-136562500D02*
X104135000Y-136802500D01*
X104135000Y-136322500D01*
X104465000Y-136562500D01*
G36*
X104465000Y-136562500D02*
G01*
X104135000Y-136802500D01*
X104135000Y-136322500D01*
X104465000Y-136562500D01*
G37*
%TO.C,HE22*%
X227902500Y-95475000D02*
X227902500Y-94825000D01*
X227902500Y-95475000D02*
X227902500Y-96125000D01*
X231022500Y-95475000D02*
X231022500Y-94825000D01*
X231022500Y-95475000D02*
X231022500Y-96125000D01*
X231302500Y-94552500D02*
X230972500Y-94312500D01*
X231302500Y-94072500D01*
X231302500Y-94552500D01*
G36*
X231302500Y-94552500D02*
G01*
X230972500Y-94312500D01*
X231302500Y-94072500D01*
X231302500Y-94552500D01*
G37*
%TO.C,LEDC6*%
X142715000Y-80147164D02*
X142715000Y-80362836D01*
X143435000Y-80147164D02*
X143435000Y-80362836D01*
%TO.C,HECC5*%
X116115000Y-75379664D02*
X116115000Y-75595336D01*
X116835000Y-75379664D02*
X116835000Y-75595336D01*
%TO.C,USBR2*%
X54695000Y-75246359D02*
X54695000Y-75553641D01*
X55455000Y-75246359D02*
X55455000Y-75553641D01*
%TO.C,SD1*%
X70250000Y-68940000D02*
X69450000Y-68940000D01*
X70250000Y-68940000D02*
X71050000Y-68940000D01*
X70250000Y-72060000D02*
X69450000Y-72060000D01*
X70250000Y-72060000D02*
X71050000Y-72060000D01*
X68950000Y-68990000D02*
X68710000Y-68660000D01*
X69190000Y-68660000D01*
X68950000Y-68990000D01*
G36*
X68950000Y-68990000D02*
G01*
X68710000Y-68660000D01*
X69190000Y-68660000D01*
X68950000Y-68990000D01*
G37*
%TO.C,HECC26*%
X80396250Y-113479664D02*
X80396250Y-113695336D01*
X81116250Y-113479664D02*
X81116250Y-113695336D01*
D18*
%TO.C,KEY38*%
X117568750Y-125575000D02*
G75*
G02*
X112568750Y-125575000I-2500000J0D01*
G01*
X112568750Y-125575000D02*
G75*
G02*
X117568750Y-125575000I2500000J0D01*
G01*
X117068750Y-140575000D02*
G75*
G02*
X113068750Y-140575000I-2000000J0D01*
G01*
X113068750Y-140575000D02*
G75*
G02*
X117068750Y-140575000I2000000J0D01*
G01*
X141568750Y-125575000D02*
G75*
G02*
X136568750Y-125575000I-2500000J0D01*
G01*
X136568750Y-125575000D02*
G75*
G02*
X141568750Y-125575000I2500000J0D01*
G01*
X141068750Y-140575000D02*
G75*
G02*
X137068750Y-140575000I-2000000J0D01*
G01*
X137068750Y-140575000D02*
G75*
G02*
X141068750Y-140575000I2000000J0D01*
G01*
D13*
%TO.C,HECC2*%
X58965000Y-75379664D02*
X58965000Y-75595336D01*
X59685000Y-75379664D02*
X59685000Y-75595336D01*
%TO.C,HECC27*%
X101827500Y-113479664D02*
X101827500Y-113695336D01*
X102547500Y-113479664D02*
X102547500Y-113695336D01*
%TO.C,HECC41*%
X225652500Y-132529664D02*
X225652500Y-132745336D01*
X226372500Y-132529664D02*
X226372500Y-132745336D01*
%TO.C,HE11*%
X232665000Y-76425000D02*
X232665000Y-75775000D01*
X232665000Y-76425000D02*
X232665000Y-77075000D01*
X235785000Y-76425000D02*
X235785000Y-75775000D01*
X235785000Y-76425000D02*
X235785000Y-77075000D01*
X236065000Y-75502500D02*
X235735000Y-75262500D01*
X236065000Y-75022500D01*
X236065000Y-75502500D01*
G36*
X236065000Y-75502500D02*
G01*
X235735000Y-75262500D01*
X236065000Y-75022500D01*
X236065000Y-75502500D01*
G37*
%TO.C,LEDC16*%
X110702500Y-101912836D02*
X110702500Y-101697164D01*
X111422500Y-101912836D02*
X111422500Y-101697164D01*
%TO.C,HER34*%
X243301250Y-113741141D02*
X243301250Y-113433859D01*
X244061250Y-113741141D02*
X244061250Y-113433859D01*
%TO.C,HECC9*%
X192315000Y-75379664D02*
X192315000Y-75595336D01*
X193035000Y-75379664D02*
X193035000Y-75595336D01*
%TD*%
%LPC*%
D19*
%TO.C,R6*%
X109500000Y-138030001D03*
X109500000Y-139050001D03*
%TD*%
D20*
%TO.C,R2*%
X120290001Y-126572499D03*
X120290001Y-125552499D03*
%TD*%
D21*
%TO.C,HECC30*%
X159337500Y-113107500D03*
X159337500Y-114067500D03*
%TD*%
D20*
%TO.C,HER5*%
X117475000Y-75997500D03*
X117475000Y-74977500D03*
%TD*%
D21*
%TO.C,HECC39*%
X171243750Y-132157500D03*
X171243750Y-133117500D03*
%TD*%
%TO.C,LEDC10*%
X219275000Y-79775000D03*
X219275000Y-80735000D03*
%TD*%
D22*
%TO.C,LEDC20*%
X187262500Y-102285000D03*
X187262500Y-101325000D03*
%TD*%
D20*
%TO.C,HER9*%
X193675000Y-75997500D03*
X193675000Y-74977500D03*
%TD*%
D21*
%TO.C,HECC22*%
X226012500Y-94057500D03*
X226012500Y-95017500D03*
%TD*%
%TO.C,HEC3*%
X84275000Y-75007500D03*
X84275000Y-75967500D03*
%TD*%
D23*
%TO.C,LED14*%
X79662500Y-99805000D03*
X79662500Y-101305000D03*
X74462500Y-101305000D03*
X74462500Y-99805000D03*
%TD*%
%TO.C,LED41*%
X232062500Y-137905000D03*
X232062500Y-139405000D03*
X226862500Y-139405000D03*
X226862500Y-137905000D03*
%TD*%
D21*
%TO.C,HEC35*%
X46175000Y-132157500D03*
X46175000Y-133117500D03*
%TD*%
D22*
%TO.C,LEDC35*%
X39625000Y-140385000D03*
X39625000Y-139425000D03*
%TD*%
D20*
%TO.C,HER27*%
X103187500Y-114097500D03*
X103187500Y-113077500D03*
%TD*%
D22*
%TO.C,LEDC40*%
X203931250Y-140385000D03*
X203931250Y-139425000D03*
%TD*%
D24*
%TO.C,LED4*%
X98275000Y-82255000D03*
X98275000Y-80755000D03*
X103475000Y-80755000D03*
X103475000Y-82255000D03*
%TD*%
%TO.C,LED31*%
X179237500Y-120355000D03*
X179237500Y-118855000D03*
X184437500Y-118855000D03*
X184437500Y-120355000D03*
%TD*%
D25*
%TO.C,R8*%
X113297711Y-130827288D03*
X112576463Y-131548536D03*
%TD*%
D26*
%TO.C,HE27*%
X106587500Y-113587500D03*
X104687500Y-113587500D03*
X105637500Y-115462500D03*
%TD*%
D21*
%TO.C,HECC10*%
X211725000Y-75007500D03*
X211725000Y-75967500D03*
%TD*%
D26*
%TO.C,HE7*%
X158975000Y-75487500D03*
X157075000Y-75487500D03*
X158025000Y-77362500D03*
%TD*%
D19*
%TO.C,USBR1*%
X50950000Y-74885001D03*
X50950000Y-75905001D03*
%TD*%
D26*
%TO.C,HE26*%
X85156250Y-113587500D03*
X83256250Y-113587500D03*
X84206250Y-115462500D03*
%TD*%
D22*
%TO.C,LEDC15*%
X92012500Y-102285000D03*
X92012500Y-101325000D03*
%TD*%
D26*
%TO.C,HE40*%
X208981250Y-132637500D03*
X207081250Y-132637500D03*
X208031250Y-134512500D03*
%TD*%
%TO.C,HE29*%
X144687500Y-113587500D03*
X142787500Y-113587500D03*
X143737500Y-115462500D03*
%TD*%
%TO.C,HE42*%
X251843750Y-132637500D03*
X249943750Y-132637500D03*
X250893750Y-134512500D03*
%TD*%
D20*
%TO.C,HER19*%
X169862500Y-95047500D03*
X169862500Y-94027500D03*
%TD*%
D21*
%TO.C,HECC7*%
X154575000Y-75007500D03*
X154575000Y-75967500D03*
%TD*%
D24*
%TO.C,LED11*%
X231625000Y-82255000D03*
X231625000Y-80755000D03*
X236825000Y-80755000D03*
X236825000Y-82255000D03*
%TD*%
%TO.C,LED29*%
X141137500Y-120355000D03*
X141137500Y-118855000D03*
X146337500Y-118855000D03*
X146337500Y-120355000D03*
%TD*%
D21*
%TO.C,MC13*%
X98630000Y-136315000D03*
X98630000Y-137275000D03*
%TD*%
D23*
%TO.C,LED39*%
X177293750Y-137905000D03*
X177293750Y-139405000D03*
X172093750Y-139405000D03*
X172093750Y-137905000D03*
%TD*%
D21*
%TO.C,HEC42*%
X253343750Y-132157500D03*
X253343750Y-133117500D03*
%TD*%
D23*
%TO.C,LED22*%
X232062500Y-99805000D03*
X232062500Y-101305000D03*
X226862500Y-101305000D03*
X226862500Y-99805000D03*
%TD*%
D21*
%TO.C,LEDC28*%
X128787500Y-117875000D03*
X128787500Y-118835000D03*
%TD*%
D26*
%TO.C,HE18*%
X154212500Y-94537500D03*
X152312500Y-94537500D03*
X153262500Y-96412500D03*
%TD*%
D21*
%TO.C,LEDC5*%
X124025000Y-79775000D03*
X124025000Y-80735000D03*
%TD*%
%TO.C,HEC24*%
X46175000Y-113107500D03*
X46175000Y-114067500D03*
%TD*%
%TO.C,HEC14*%
X79512500Y-94057500D03*
X79512500Y-95017500D03*
%TD*%
D26*
%TO.C,HE34*%
X247081250Y-113587500D03*
X245181250Y-113587500D03*
X246131250Y-115462500D03*
%TD*%
D21*
%TO.C,MC8*%
X103175000Y-125465000D03*
X103175000Y-126425000D03*
%TD*%
D27*
%TO.C,BRC3*%
X108014034Y-129414034D03*
X110100000Y-131500000D03*
%TD*%
D20*
%TO.C,HER16*%
X112712500Y-95047500D03*
X112712500Y-94027500D03*
%TD*%
D28*
%TO.C,PWRC1*%
X67150000Y-69550000D03*
X67150000Y-71450000D03*
%TD*%
D21*
%TO.C,HECC31*%
X178387500Y-113107500D03*
X178387500Y-114067500D03*
%TD*%
D29*
%TO.C,USB1*%
X56140000Y-71500000D03*
X50360000Y-71500000D03*
D30*
X56500000Y-72945000D03*
X55700000Y-72945000D03*
D31*
X54500000Y-72945000D03*
X53500000Y-72945000D03*
X53000000Y-72945000D03*
X52000000Y-72945000D03*
D30*
X50800000Y-72945000D03*
X50000000Y-72945000D03*
X50000000Y-72945000D03*
X50800000Y-72945000D03*
D31*
X51500000Y-72945000D03*
X52500000Y-72945000D03*
X54000000Y-72945000D03*
X55000000Y-72945000D03*
D30*
X55700000Y-72945000D03*
X56500000Y-72945000D03*
D32*
X57570000Y-72030000D03*
D33*
X57570000Y-67850000D03*
D32*
X48930000Y-72030000D03*
D33*
X48930000Y-67850000D03*
%TD*%
D22*
%TO.C,LEDC14*%
X72962500Y-102285000D03*
X72962500Y-101325000D03*
%TD*%
D34*
%TO.C,MP1*%
X69875000Y-113050000D03*
X70525000Y-113050000D03*
X71175000Y-113050000D03*
X71825000Y-113050000D03*
X72475000Y-113050000D03*
X73125000Y-113050000D03*
X73775000Y-113050000D03*
X74425000Y-113050000D03*
X75075000Y-113050000D03*
X75725000Y-113050000D03*
X76375000Y-113050000D03*
X77025000Y-113050000D03*
X77025000Y-105750000D03*
X76375000Y-105750000D03*
X75725000Y-105750000D03*
X75075000Y-105750000D03*
X74425000Y-105750000D03*
X73775000Y-105750000D03*
X73125000Y-105750000D03*
X72475000Y-105750000D03*
X71825000Y-105750000D03*
X71175000Y-105750000D03*
X70525000Y-105750000D03*
X69875000Y-105750000D03*
%TD*%
D25*
%TO.C,R7*%
X112548179Y-130056541D03*
X111826931Y-130777789D03*
%TD*%
D20*
%TO.C,HER14*%
X74612500Y-95047500D03*
X74612500Y-94027500D03*
%TD*%
%TO.C,HER17*%
X131762500Y-95047500D03*
X131762500Y-94027500D03*
%TD*%
D21*
%TO.C,HEC29*%
X146187500Y-113107500D03*
X146187500Y-114067500D03*
%TD*%
%TO.C,HECC20*%
X187912500Y-94057500D03*
X187912500Y-95017500D03*
%TD*%
D22*
%TO.C,LEDC19*%
X168212499Y-102285000D03*
X168212499Y-101325000D03*
%TD*%
D21*
%TO.C,HEC21*%
X212862500Y-94057500D03*
X212862500Y-95017500D03*
%TD*%
%TO.C,HECC28*%
X121237500Y-113107500D03*
X121237500Y-114067500D03*
%TD*%
%TO.C,HEC20*%
X193812500Y-94057500D03*
X193812500Y-95017500D03*
%TD*%
%TO.C,CR_C4*%
X91525000Y-137445000D03*
X91525000Y-138405000D03*
%TD*%
D24*
%TO.C,LED3*%
X79225000Y-82255000D03*
X79225000Y-80755000D03*
X84425000Y-80755000D03*
X84425000Y-82255000D03*
%TD*%
D35*
%TO.C,J1*%
X48670001Y-128700000D03*
D36*
X51210001Y-128700000D03*
D35*
X53750001Y-128700000D03*
X56290001Y-128700000D03*
X58830001Y-128700000D03*
%TD*%
D21*
%TO.C,LEDC8*%
X181175000Y-79775000D03*
X181175000Y-80735000D03*
%TD*%
D20*
%TO.C,HER24*%
X41274999Y-114097500D03*
X41274999Y-113077500D03*
%TD*%
D24*
%TO.C,LED26*%
X81606250Y-120355000D03*
X81606250Y-118855000D03*
X86806250Y-118855000D03*
X86806250Y-120355000D03*
%TD*%
D20*
%TO.C,LMR1*%
X40440000Y-87400000D03*
X40440000Y-86380000D03*
%TD*%
D37*
%TO.C,PWRL1*%
X74250000Y-71900000D03*
X74250000Y-69100000D03*
%TD*%
D20*
%TO.C,HER10*%
X212725000Y-75997500D03*
X212725000Y-74977500D03*
%TD*%
D21*
%TO.C,LEDC25*%
X66875000Y-117875000D03*
X66875000Y-118835000D03*
%TD*%
%TO.C,HEC28*%
X127137500Y-113107500D03*
X127137500Y-114067500D03*
%TD*%
D22*
%TO.C,LEDC41*%
X225362500Y-140385000D03*
X225362500Y-139425000D03*
%TD*%
D26*
%TO.C,HE39*%
X175643750Y-132637500D03*
X173743750Y-132637500D03*
X174693750Y-134512500D03*
%TD*%
D21*
%TO.C,HEC22*%
X231912500Y-94057500D03*
X231912500Y-95017500D03*
%TD*%
D38*
%TO.C,PWRF1*%
X60850000Y-69900000D03*
X63650000Y-69900000D03*
%TD*%
D24*
%TO.C,LED27*%
X103037500Y-120355000D03*
X103037500Y-118855000D03*
X108237500Y-118855000D03*
X108237500Y-120355000D03*
%TD*%
D34*
%TO.C,MP2*%
X139625000Y-110050000D03*
X140275000Y-110050000D03*
X140925000Y-110050000D03*
X141575000Y-110050000D03*
X142225000Y-110050000D03*
X142875000Y-110050000D03*
X143525000Y-110050000D03*
X144175000Y-110050000D03*
X144825000Y-110050000D03*
X145475000Y-110050000D03*
X146125000Y-110050000D03*
X146775000Y-110050000D03*
X146775000Y-102750000D03*
X146125000Y-102750000D03*
X145475000Y-102750000D03*
X144825000Y-102750000D03*
X144175000Y-102750000D03*
X143525000Y-102750000D03*
X142875000Y-102750000D03*
X142225000Y-102750000D03*
X141575000Y-102750000D03*
X140925000Y-102750000D03*
X140275000Y-102750000D03*
X139625000Y-102750000D03*
%TD*%
D20*
%TO.C,HER31*%
X179387500Y-114097500D03*
X179387500Y-113077500D03*
%TD*%
D24*
%TO.C,LED33*%
X217337500Y-120355000D03*
X217337500Y-118855000D03*
X222537500Y-118855000D03*
X222537500Y-120355000D03*
%TD*%
D21*
%TO.C,HEC41*%
X231912500Y-132157500D03*
X231912500Y-133117500D03*
%TD*%
D24*
%TO.C,LED5*%
X117325000Y-82255000D03*
X117325000Y-80755000D03*
X122525000Y-80755000D03*
X122525000Y-82255000D03*
%TD*%
D39*
%TO.C,MC11*%
X92420000Y-132425000D03*
X91460000Y-132425000D03*
%TD*%
D26*
%TO.C,HE19*%
X173262500Y-94537500D03*
X171362500Y-94537500D03*
X172312500Y-96412500D03*
%TD*%
D21*
%TO.C,HECC17*%
X130762500Y-94057500D03*
X130762500Y-95017500D03*
%TD*%
%TO.C,HEC33*%
X222387500Y-113107500D03*
X222387500Y-114067500D03*
%TD*%
%TO.C,HECC37*%
X78375000Y-132157500D03*
X78375000Y-133117500D03*
%TD*%
%TO.C,HECC32*%
X197437500Y-113107500D03*
X197437500Y-114067500D03*
%TD*%
%TO.C,HEC19*%
X174762500Y-94057500D03*
X174762500Y-95017500D03*
%TD*%
D20*
%TO.C,HER37*%
X79375000Y-133147500D03*
X79375000Y-132127500D03*
%TD*%
%TO.C,HER21*%
X207962500Y-95047500D03*
X207962500Y-94027500D03*
%TD*%
D21*
%TO.C,MC14*%
X99650000Y-136315000D03*
X99650000Y-137275000D03*
%TD*%
%TO.C,HECC15*%
X92662500Y-94057500D03*
X92662500Y-95017500D03*
%TD*%
%TO.C,MPC3*%
X213650000Y-102920000D03*
X213650000Y-103880000D03*
%TD*%
D40*
%TO.C,CR2*%
X93125000Y-138775000D03*
X95325000Y-138775000D03*
X95325000Y-137075000D03*
X93125000Y-137075000D03*
%TD*%
D23*
%TO.C,LED37*%
X84425000Y-137905000D03*
X84425000Y-139405000D03*
X79225000Y-139405000D03*
X79225000Y-137905000D03*
%TD*%
D21*
%TO.C,HEC13*%
X53318750Y-94057500D03*
X53318750Y-95017500D03*
%TD*%
%TO.C,HEC27*%
X108087500Y-113107500D03*
X108087500Y-114067500D03*
%TD*%
D23*
%TO.C,LED20*%
X193962500Y-99805000D03*
X193962500Y-101305000D03*
X188762500Y-101305000D03*
X188762500Y-99805000D03*
%TD*%
D21*
%TO.C,HECC1*%
X40274999Y-75007500D03*
X40274999Y-75967500D03*
%TD*%
D23*
%TO.C,LED13*%
X53468750Y-99805000D03*
X53468750Y-101305000D03*
X48268750Y-101305000D03*
X48268750Y-99805000D03*
%TD*%
D26*
%TO.C,HE28*%
X125637500Y-113587500D03*
X123737500Y-113587500D03*
X124687500Y-115462500D03*
%TD*%
D21*
%TO.C,HEC2*%
X65225000Y-75007500D03*
X65225000Y-75967500D03*
%TD*%
%TO.C,HECC33*%
X216487500Y-113107500D03*
X216487500Y-114067500D03*
%TD*%
D22*
%TO.C,LEDC36*%
X58675000Y-140385000D03*
X58675000Y-139425000D03*
%TD*%
D21*
%TO.C,LEDC1*%
X47825000Y-79775000D03*
X47825000Y-80735000D03*
%TD*%
D26*
%TO.C,HE13*%
X51818750Y-94537500D03*
X49918750Y-94537500D03*
X50868750Y-96412500D03*
%TD*%
D21*
%TO.C,LEDC33*%
X224037500Y-117875000D03*
X224037500Y-118835000D03*
%TD*%
D23*
%TO.C,LED38*%
X129668750Y-137905000D03*
X129668750Y-139405000D03*
X124468750Y-139405000D03*
X124468750Y-137905000D03*
%TD*%
D26*
%TO.C,HE5*%
X120875000Y-75487500D03*
X118975000Y-75487500D03*
X119925000Y-77362500D03*
%TD*%
D21*
%TO.C,LEDC24*%
X47825000Y-117875000D03*
X47825000Y-118835000D03*
%TD*%
D20*
%TO.C,HER30*%
X160337500Y-114097500D03*
X160337500Y-113077500D03*
%TD*%
D26*
%TO.C,HE4*%
X101825000Y-75487500D03*
X99925000Y-75487500D03*
X100875000Y-77362500D03*
%TD*%
%TO.C,HE35*%
X44675000Y-132637500D03*
X42775000Y-132637500D03*
X43725000Y-134512500D03*
%TD*%
D20*
%TO.C,HER40*%
X205581250Y-133147500D03*
X205581250Y-132127500D03*
%TD*%
D21*
%TO.C,LEDC4*%
X104975000Y-79775000D03*
X104975000Y-80735000D03*
%TD*%
D41*
%TO.C,MFB2*%
X101105000Y-138697500D03*
X101105000Y-136572500D03*
%TD*%
D21*
%TO.C,HECC29*%
X140287500Y-113107500D03*
X140287500Y-114067500D03*
%TD*%
D26*
%TO.C,HE3*%
X82775000Y-75487500D03*
X80875000Y-75487500D03*
X81825000Y-77362500D03*
%TD*%
D42*
%TO.C,LMR2*%
X38210001Y-83447500D03*
X37190001Y-83447500D03*
%TD*%
D20*
%TO.C,HER15*%
X93662500Y-95047500D03*
X93662500Y-94027500D03*
%TD*%
D21*
%TO.C,HECC12*%
X249825000Y-75007500D03*
X249825000Y-75967500D03*
%TD*%
D26*
%TO.C,HE38*%
X128018750Y-132637500D03*
X126118750Y-132637500D03*
X127068750Y-134512500D03*
%TD*%
D21*
%TO.C,HEC30*%
X165237500Y-113107500D03*
X165237500Y-114067500D03*
%TD*%
D20*
%TO.C,HER28*%
X122237500Y-114097500D03*
X122237500Y-113077500D03*
%TD*%
%TO.C,HER32*%
X198437500Y-114097500D03*
X198437500Y-113077500D03*
%TD*%
D21*
%TO.C,HEC1*%
X46175000Y-75007500D03*
X46175000Y-75967500D03*
%TD*%
D23*
%TO.C,LED18*%
X155862500Y-99805000D03*
X155862500Y-101305000D03*
X150662500Y-101305000D03*
X150662500Y-99805000D03*
%TD*%
D20*
%TO.C,HER36*%
X60325000Y-133147500D03*
X60325000Y-132127500D03*
%TD*%
D22*
%TO.C,LEDC17*%
X130112500Y-102285000D03*
X130112500Y-101325000D03*
%TD*%
D23*
%TO.C,LED15*%
X98712500Y-99805000D03*
X98712500Y-101305000D03*
X93512500Y-101305000D03*
X93512500Y-99805000D03*
%TD*%
D21*
%TO.C,HECC6*%
X135525000Y-75007500D03*
X135525000Y-75967500D03*
%TD*%
D26*
%TO.C,HE30*%
X163737500Y-113587500D03*
X161837500Y-113587500D03*
X162787500Y-115462500D03*
%TD*%
D21*
%TO.C,HEC10*%
X217625000Y-75007500D03*
X217625000Y-75967500D03*
%TD*%
D26*
%TO.C,HE1*%
X44675000Y-75487500D03*
X42775000Y-75487500D03*
X43725000Y-77362500D03*
%TD*%
D34*
%TO.C,MP3*%
X215625000Y-110050000D03*
X216275000Y-110050000D03*
X216925000Y-110050000D03*
X217575000Y-110050000D03*
X218225000Y-110050000D03*
X218875000Y-110050000D03*
X219525000Y-110050000D03*
X220175000Y-110050000D03*
X220825000Y-110050000D03*
X221475000Y-110050000D03*
X222125000Y-110050000D03*
X222775000Y-110050000D03*
X222775000Y-102750000D03*
X222125000Y-102750000D03*
X221475000Y-102750000D03*
X220825000Y-102750000D03*
X220175000Y-102750000D03*
X219525000Y-102750000D03*
X218875000Y-102750000D03*
X218225000Y-102750000D03*
X217575000Y-102750000D03*
X216925000Y-102750000D03*
X216275000Y-102750000D03*
X215625000Y-102750000D03*
%TD*%
D24*
%TO.C,LED25*%
X60175000Y-120355000D03*
X60175000Y-118855000D03*
X65375000Y-118855000D03*
X65375000Y-120355000D03*
%TD*%
D26*
%TO.C,HE12*%
X254225000Y-75487500D03*
X252325000Y-75487500D03*
X253275000Y-77362500D03*
%TD*%
%TO.C,HE20*%
X192312500Y-94537500D03*
X190412500Y-94537500D03*
X191362500Y-96412500D03*
%TD*%
D21*
%TO.C,HEC16*%
X117612500Y-94057500D03*
X117612500Y-95017500D03*
%TD*%
D22*
%TO.C,LEDC38*%
X122968750Y-140385000D03*
X122968750Y-139425000D03*
%TD*%
D21*
%TO.C,HEC37*%
X84275000Y-132157500D03*
X84275000Y-133117500D03*
%TD*%
D43*
%TO.C,USBD1*%
X52050000Y-78150000D03*
D44*
X52050000Y-79850000D03*
X54050000Y-79850000D03*
X54050000Y-77950000D03*
%TD*%
D21*
%TO.C,HECC13*%
X47418750Y-94057500D03*
X47418750Y-95017500D03*
%TD*%
D23*
%TO.C,LED16*%
X117762500Y-99805000D03*
X117762500Y-101305000D03*
X112562500Y-101305000D03*
X112562500Y-99805000D03*
%TD*%
D21*
%TO.C,HEC4*%
X103325000Y-75007500D03*
X103325000Y-75967500D03*
%TD*%
D20*
%TO.C,HER41*%
X227012500Y-133147500D03*
X227012500Y-132127500D03*
%TD*%
D21*
%TO.C,HECC36*%
X59325000Y-132157500D03*
X59325000Y-133117500D03*
%TD*%
D22*
%TO.C,LEDC37*%
X77725000Y-140385000D03*
X77725000Y-139425000D03*
%TD*%
D20*
%TO.C,HER18*%
X150812500Y-95047500D03*
X150812500Y-94027500D03*
%TD*%
%TO.C,HER38*%
X124618750Y-133147500D03*
X124618750Y-132127500D03*
%TD*%
D21*
%TO.C,HECC42*%
X247443750Y-132157500D03*
X247443750Y-133117500D03*
%TD*%
D26*
%TO.C,HE9*%
X197075000Y-75487500D03*
X195175000Y-75487500D03*
X196125000Y-77362500D03*
%TD*%
D21*
%TO.C,HEC36*%
X65225000Y-132157500D03*
X65225000Y-133117500D03*
%TD*%
D23*
%TO.C,LED23*%
X253493750Y-99805000D03*
X253493750Y-101305000D03*
X248293750Y-101305000D03*
X248293750Y-99805000D03*
%TD*%
D39*
%TO.C,MC12*%
X92430000Y-133400000D03*
X91470000Y-133400000D03*
%TD*%
D26*
%TO.C,HE23*%
X251843750Y-94537500D03*
X249943750Y-94537500D03*
X250893750Y-96412500D03*
%TD*%
D24*
%TO.C,LED32*%
X198287500Y-120355000D03*
X198287500Y-118855000D03*
X203487500Y-118855000D03*
X203487500Y-120355000D03*
%TD*%
D22*
%TO.C,LEDC39*%
X170593750Y-140385000D03*
X170593750Y-139425000D03*
%TD*%
D24*
%TO.C,LED1*%
X41125000Y-82255000D03*
X41125000Y-80755000D03*
X46325000Y-80755000D03*
X46325000Y-82255000D03*
%TD*%
D26*
%TO.C,HE24*%
X44675000Y-113587500D03*
X42775000Y-113587500D03*
X43725000Y-115462500D03*
%TD*%
D45*
%TO.C,R9*%
X104370002Y-137869998D03*
X105390002Y-137869998D03*
%TD*%
D20*
%TO.C,HER39*%
X172243750Y-133147500D03*
X172243750Y-132127500D03*
%TD*%
D21*
%TO.C,HECC34*%
X242681250Y-113107500D03*
X242681250Y-114067500D03*
%TD*%
D26*
%TO.C,HE15*%
X97062500Y-94537500D03*
X95162500Y-94537500D03*
X96112500Y-96412500D03*
%TD*%
D21*
%TO.C,HEC26*%
X86656250Y-113107500D03*
X86656250Y-114067500D03*
%TD*%
D24*
%TO.C,LED28*%
X122087500Y-120355000D03*
X122087500Y-118855000D03*
X127287500Y-118855000D03*
X127287500Y-120355000D03*
%TD*%
D21*
%TO.C,HECC38*%
X123618750Y-132157500D03*
X123618750Y-133117500D03*
%TD*%
%TO.C,MC9*%
X102185000Y-125465000D03*
X102185000Y-126425000D03*
%TD*%
D23*
%TO.C,LED19*%
X174912500Y-99805000D03*
X174912500Y-101305000D03*
X169712500Y-101305000D03*
X169712500Y-99805000D03*
%TD*%
D26*
%TO.C,HE33*%
X220887500Y-113587500D03*
X218987500Y-113587500D03*
X219937500Y-115462500D03*
%TD*%
D22*
%TO.C,MC1*%
X108425000Y-139000001D03*
X108425000Y-138040001D03*
%TD*%
D20*
%TO.C,HER13*%
X48418750Y-95047500D03*
X48418750Y-94027500D03*
%TD*%
D21*
%TO.C,HECC21*%
X206962500Y-94057500D03*
X206962500Y-95017500D03*
%TD*%
%TO.C,LEDC26*%
X88306250Y-117875000D03*
X88306250Y-118835000D03*
%TD*%
%TO.C,HECC14*%
X73612500Y-94057500D03*
X73612500Y-95017500D03*
%TD*%
D26*
%TO.C,HE36*%
X63725000Y-132637500D03*
X61825000Y-132637500D03*
X62775000Y-134512500D03*
%TD*%
D21*
%TO.C,HEC23*%
X253343750Y-94057500D03*
X253343750Y-95017500D03*
%TD*%
%TO.C,HEC15*%
X98562500Y-94057500D03*
X98562500Y-95017500D03*
%TD*%
%TO.C,HEC32*%
X203337500Y-113107500D03*
X203337500Y-114067500D03*
%TD*%
D20*
%TO.C,HER25*%
X60325000Y-114097500D03*
X60325000Y-113077500D03*
%TD*%
D46*
%TO.C,U1*%
X94500000Y-132545000D03*
X95000000Y-132545000D03*
X95500000Y-132545000D03*
X96000000Y-132545000D03*
X96500000Y-132545000D03*
X97000000Y-132545000D03*
X97500000Y-132545000D03*
X98000000Y-132545000D03*
X98500000Y-132545000D03*
X99000000Y-132545000D03*
X99500000Y-132545000D03*
X100000000Y-132545000D03*
D47*
X100687500Y-131857500D03*
X100687500Y-131357500D03*
X100687500Y-130857500D03*
X100687500Y-130357500D03*
X100687500Y-129857500D03*
X100687500Y-129357500D03*
X100687500Y-128857500D03*
X100687500Y-128357500D03*
X100687500Y-127857500D03*
X100687500Y-127357500D03*
X100687500Y-126857500D03*
X100687500Y-126357500D03*
D46*
X100000000Y-125670000D03*
X99500000Y-125670000D03*
X99000000Y-125670000D03*
X98500000Y-125670000D03*
X98000000Y-125670000D03*
X97500000Y-125670000D03*
X97000000Y-125670000D03*
X96500000Y-125670000D03*
X96000000Y-125670000D03*
X95500000Y-125670000D03*
X95000000Y-125670000D03*
X94500000Y-125670000D03*
D47*
X93812500Y-126357500D03*
X93812500Y-126857500D03*
X93812500Y-127357500D03*
X93812500Y-127857500D03*
X93812500Y-128357500D03*
X93812500Y-128857500D03*
X93812500Y-129357500D03*
X93812500Y-129857500D03*
X93812500Y-130357500D03*
X93812500Y-130857500D03*
X93812500Y-131357500D03*
X93812500Y-131857500D03*
%TD*%
D28*
%TO.C,PWRC2*%
X77250000Y-69550000D03*
X77250000Y-71450000D03*
%TD*%
D22*
%TO.C,LEDC22*%
X225362500Y-102285000D03*
X225362500Y-101325000D03*
%TD*%
D48*
%TO.C,BRD2*%
X109890076Y-128140076D03*
X111375000Y-129625000D03*
%TD*%
D21*
%TO.C,HEC7*%
X160475000Y-75007500D03*
X160475000Y-75967500D03*
%TD*%
%TO.C,LEDC11*%
X238325000Y-79775000D03*
X238325000Y-80735000D03*
%TD*%
D20*
%TO.C,HER12*%
X250825000Y-75997500D03*
X250825000Y-74977500D03*
%TD*%
D23*
%TO.C,LED40*%
X210631250Y-137905000D03*
X210631250Y-139405000D03*
X205431250Y-139405000D03*
X205431250Y-137905000D03*
%TD*%
D21*
%TO.C,LEDC31*%
X185937500Y-117875000D03*
X185937500Y-118835000D03*
%TD*%
D26*
%TO.C,Q2*%
X110450000Y-134462500D03*
X108550000Y-134462500D03*
X109500000Y-136337500D03*
%TD*%
D20*
%TO.C,HER7*%
X155575000Y-75997500D03*
X155575000Y-74977500D03*
%TD*%
D24*
%TO.C,LED24*%
X41125000Y-120355000D03*
X41125000Y-118855000D03*
X46325000Y-118855000D03*
X46325000Y-120355000D03*
%TD*%
D20*
%TO.C,HER8*%
X174625000Y-75997500D03*
X174625000Y-74977500D03*
%TD*%
D21*
%TO.C,HEC40*%
X210481250Y-132157500D03*
X210481250Y-133117500D03*
%TD*%
D24*
%TO.C,LED34*%
X243531250Y-120355000D03*
X243531250Y-118855000D03*
X248731250Y-118855000D03*
X248731250Y-120355000D03*
%TD*%
D22*
%TO.C,LEDC13*%
X46768750Y-102285000D03*
X46768750Y-101325000D03*
%TD*%
D24*
%TO.C,LED8*%
X174475000Y-82255000D03*
X174475000Y-80755000D03*
X179675000Y-80755000D03*
X179675000Y-82255000D03*
%TD*%
D21*
%TO.C,LEDC9*%
X200225000Y-79775000D03*
X200225000Y-80735000D03*
%TD*%
D20*
%TO.C,HER1*%
X41274999Y-75997500D03*
X41274999Y-74977500D03*
%TD*%
D26*
%TO.C,HE8*%
X178025000Y-75487500D03*
X176125000Y-75487500D03*
X177075000Y-77362500D03*
%TD*%
D42*
%TO.C,R3*%
X39570000Y-137905000D03*
X38550000Y-137905000D03*
%TD*%
D26*
%TO.C,HE37*%
X82775000Y-132637500D03*
X80875000Y-132637500D03*
X81825000Y-134512500D03*
%TD*%
%TO.C,HE41*%
X230412500Y-132637500D03*
X228512500Y-132637500D03*
X229462500Y-134512500D03*
%TD*%
D23*
%TO.C,LED17*%
X136812500Y-99805000D03*
X136812500Y-101305000D03*
X131612500Y-101305000D03*
X131612500Y-99805000D03*
%TD*%
D21*
%TO.C,HECC24*%
X40274999Y-113107500D03*
X40274999Y-114067500D03*
%TD*%
D20*
%TO.C,HER23*%
X248443750Y-95047500D03*
X248443750Y-94027500D03*
%TD*%
%TO.C,HER3*%
X79375000Y-75997500D03*
X79375000Y-74977500D03*
%TD*%
%TO.C,HER4*%
X98424999Y-75997500D03*
X98424999Y-74977500D03*
%TD*%
D21*
%TO.C,HEC39*%
X177143750Y-132157500D03*
X177143750Y-133117500D03*
%TD*%
D20*
%TO.C,HER26*%
X81756250Y-114097500D03*
X81756250Y-113077500D03*
%TD*%
D21*
%TO.C,LEDC3*%
X85925000Y-79775000D03*
X85925000Y-80735000D03*
%TD*%
%TO.C,HEC11*%
X236675000Y-75007500D03*
X236675000Y-75967500D03*
%TD*%
D26*
%TO.C,HE16*%
X116112500Y-94537500D03*
X114212500Y-94537500D03*
X115162500Y-96412500D03*
%TD*%
D24*
%TO.C,LED10*%
X212575000Y-82255000D03*
X212575000Y-80755000D03*
X217775000Y-80755000D03*
X217775000Y-82255000D03*
%TD*%
D20*
%TO.C,HER6*%
X136525000Y-75997500D03*
X136525000Y-74977500D03*
%TD*%
D24*
%TO.C,LED12*%
X250675000Y-82255000D03*
X250675000Y-80755000D03*
X255875000Y-80755000D03*
X255875000Y-82255000D03*
%TD*%
D49*
%TO.C,BS1*%
X130218750Y-128675000D03*
X123918750Y-128675000D03*
X130218750Y-124875000D03*
X123918750Y-124875000D03*
%TD*%
D50*
%TO.C,R5*%
X106649317Y-132150536D03*
X105928069Y-131429288D03*
%TD*%
D21*
%TO.C,LEDC27*%
X109737500Y-117875000D03*
X109737500Y-118835000D03*
%TD*%
%TO.C,LEDC7*%
X162125000Y-79775000D03*
X162125000Y-80735000D03*
%TD*%
D42*
%TO.C,LMR3*%
X38210000Y-82417499D03*
X37190000Y-82417499D03*
%TD*%
D21*
%TO.C,HEC25*%
X65225000Y-113107500D03*
X65225000Y-114067500D03*
%TD*%
%TO.C,HEC6*%
X141425000Y-75007500D03*
X141425000Y-75967500D03*
%TD*%
D51*
%TO.C,BRR9*%
X106709423Y-130655008D03*
X107430671Y-131376256D03*
%TD*%
D21*
%TO.C,LEDC32*%
X204987500Y-117875000D03*
X204987500Y-118835000D03*
%TD*%
%TO.C,HEC31*%
X184287500Y-113107500D03*
X184287500Y-114067500D03*
%TD*%
%TO.C,HEC38*%
X129518750Y-132157500D03*
X129518750Y-133117500D03*
%TD*%
D20*
%TO.C,HER22*%
X227012500Y-95047500D03*
X227012500Y-94027500D03*
%TD*%
D21*
%TO.C,HECC18*%
X149812500Y-94057500D03*
X149812500Y-95017500D03*
%TD*%
D20*
%TO.C,HER33*%
X217487500Y-114097500D03*
X217487500Y-113077500D03*
%TD*%
%TO.C,HER2*%
X60325000Y-75997500D03*
X60325000Y-74977500D03*
%TD*%
D22*
%TO.C,LEDC21*%
X206312500Y-102285000D03*
X206312500Y-101325000D03*
%TD*%
D20*
%TO.C,HER42*%
X248443750Y-133147500D03*
X248443750Y-132127500D03*
%TD*%
D22*
%TO.C,LEDC18*%
X149162500Y-102285000D03*
X149162500Y-101325000D03*
%TD*%
D52*
%TO.C,TP1*%
X36840000Y-137905000D03*
%TD*%
D26*
%TO.C,HE14*%
X78012500Y-94537500D03*
X76112500Y-94537500D03*
X77062500Y-96412500D03*
%TD*%
D21*
%TO.C,LEDC34*%
X250231250Y-117875000D03*
X250231250Y-118835000D03*
%TD*%
%TO.C,MPC1*%
X67900000Y-105920000D03*
X67900000Y-106880000D03*
%TD*%
%TO.C,HEC9*%
X198575000Y-75007500D03*
X198575000Y-75967500D03*
%TD*%
D26*
%TO.C,HE21*%
X211362500Y-94537500D03*
X209462500Y-94537500D03*
X210412500Y-96412500D03*
%TD*%
D21*
%TO.C,MPC2*%
X137650000Y-102920000D03*
X137650000Y-103880000D03*
%TD*%
D20*
%TO.C,HER11*%
X231775000Y-75997500D03*
X231775000Y-74977500D03*
%TD*%
%TO.C,HER35*%
X41274999Y-133147500D03*
X41274999Y-132127500D03*
%TD*%
D24*
%TO.C,LED6*%
X136375000Y-82255000D03*
X136375000Y-80755000D03*
X141575000Y-80755000D03*
X141575000Y-82255000D03*
%TD*%
D21*
%TO.C,LEDC30*%
X166887500Y-117875000D03*
X166887500Y-118835000D03*
%TD*%
D24*
%TO.C,LED9*%
X193525000Y-82255000D03*
X193525000Y-80755000D03*
X198725000Y-80755000D03*
X198725000Y-82255000D03*
%TD*%
D22*
%TO.C,LEDC23*%
X246793750Y-102285000D03*
X246793750Y-101325000D03*
%TD*%
D21*
%TO.C,HECC11*%
X230775000Y-75007500D03*
X230775000Y-75967500D03*
%TD*%
%TO.C,HEC18*%
X155712500Y-94057500D03*
X155712500Y-95017500D03*
%TD*%
D53*
%TO.C,D1*%
X121600000Y-125862500D03*
X121600000Y-127437500D03*
%TD*%
D26*
%TO.C,HE25*%
X63725000Y-113587500D03*
X61825000Y-113587500D03*
X62775000Y-115462500D03*
%TD*%
D21*
%TO.C,HECC35*%
X40274999Y-132157500D03*
X40274999Y-133117500D03*
%TD*%
D22*
%TO.C,MC15*%
X102580000Y-138940000D03*
X102580000Y-137980000D03*
%TD*%
D54*
%TO.C,LM1*%
X37260000Y-86837500D03*
X39160000Y-86837500D03*
X38210000Y-84962500D03*
%TD*%
D22*
%TO.C,LEDC42*%
X246793750Y-140385000D03*
X246793750Y-139425000D03*
%TD*%
D23*
%TO.C,LED21*%
X213012500Y-99805000D03*
X213012500Y-101305000D03*
X207812500Y-101305000D03*
X207812500Y-99805000D03*
%TD*%
D21*
%TO.C,HEC5*%
X122375000Y-75007500D03*
X122375000Y-75967500D03*
%TD*%
D26*
%TO.C,HE2*%
X63725000Y-75487500D03*
X61825000Y-75487500D03*
X62775000Y-77362500D03*
%TD*%
%TO.C,HE32*%
X201837500Y-113587500D03*
X199937500Y-113587500D03*
X200887500Y-115462500D03*
%TD*%
D21*
%TO.C,LEDC12*%
X257375000Y-79775000D03*
X257375000Y-80735000D03*
%TD*%
D22*
%TO.C,CR_C3*%
X97000000Y-138405000D03*
X97000000Y-137445000D03*
%TD*%
D26*
%TO.C,HE31*%
X182787500Y-113587500D03*
X180887500Y-113587500D03*
X181837500Y-115462500D03*
%TD*%
D23*
%TO.C,LED35*%
X46325000Y-137905000D03*
X46325000Y-139405000D03*
X41125000Y-139405000D03*
X41125000Y-137905000D03*
%TD*%
D21*
%TO.C,HECC25*%
X59325000Y-113107500D03*
X59325000Y-114067500D03*
%TD*%
%TO.C,HECC4*%
X97424999Y-75007500D03*
X97424999Y-75967500D03*
%TD*%
D26*
%TO.C,HE6*%
X139925000Y-75487500D03*
X138025000Y-75487500D03*
X138975000Y-77362500D03*
%TD*%
D21*
%TO.C,HEC8*%
X179525000Y-75007500D03*
X179525000Y-75967500D03*
%TD*%
D23*
%TO.C,LED36*%
X65375000Y-137905000D03*
X65375000Y-139405000D03*
X60175000Y-139405000D03*
X60175000Y-137905000D03*
%TD*%
D20*
%TO.C,HER20*%
X188912500Y-95047500D03*
X188912500Y-94027500D03*
%TD*%
D26*
%TO.C,HE17*%
X135162500Y-94537500D03*
X133262500Y-94537500D03*
X134212500Y-96412500D03*
%TD*%
D21*
%TO.C,HECC8*%
X173625000Y-75007500D03*
X173625000Y-75967500D03*
%TD*%
D39*
%TO.C,MC10*%
X92510000Y-125450000D03*
X91550000Y-125450000D03*
%TD*%
D21*
%TO.C,HEC12*%
X255725000Y-75007500D03*
X255725000Y-75967500D03*
%TD*%
%TO.C,LEDC29*%
X147837500Y-117875000D03*
X147837500Y-118835000D03*
%TD*%
D45*
%TO.C,R4*%
X104365000Y-138919998D03*
X105385000Y-138919998D03*
%TD*%
D24*
%TO.C,LED7*%
X155425000Y-82255000D03*
X155425000Y-80755000D03*
X160625000Y-80755000D03*
X160625000Y-82255000D03*
%TD*%
D21*
%TO.C,HECC23*%
X247443750Y-94057500D03*
X247443750Y-95017500D03*
%TD*%
D20*
%TO.C,HER29*%
X141287500Y-114097500D03*
X141287500Y-113077500D03*
%TD*%
D21*
%TO.C,HECC3*%
X78375000Y-75007500D03*
X78375000Y-75967500D03*
%TD*%
%TO.C,HEC34*%
X248581250Y-113107500D03*
X248581250Y-114067500D03*
%TD*%
%TO.C,HECC16*%
X111712500Y-94057500D03*
X111712500Y-95017500D03*
%TD*%
%TO.C,HECC19*%
X168862500Y-94057500D03*
X168862500Y-95017500D03*
%TD*%
D23*
%TO.C,LED42*%
X253493750Y-137905000D03*
X253493750Y-139405000D03*
X248293750Y-139405000D03*
X248293750Y-137905000D03*
%TD*%
D21*
%TO.C,HEC17*%
X136662500Y-94057500D03*
X136662500Y-95017500D03*
%TD*%
D24*
%TO.C,LED2*%
X60175000Y-82255000D03*
X60175000Y-80755000D03*
X65375000Y-80755000D03*
X65375000Y-82255000D03*
%TD*%
D21*
%TO.C,HECC40*%
X204581250Y-132157500D03*
X204581250Y-133117500D03*
%TD*%
%TO.C,LEDC2*%
X66875000Y-79775000D03*
X66875000Y-80735000D03*
%TD*%
D24*
%TO.C,LED30*%
X160187500Y-120355000D03*
X160187500Y-118855000D03*
X165387500Y-118855000D03*
X165387500Y-120355000D03*
%TD*%
D26*
%TO.C,HE10*%
X216125000Y-75487500D03*
X214225000Y-75487500D03*
X215175000Y-77362500D03*
%TD*%
D54*
%TO.C,Q1*%
X105025000Y-136337500D03*
X106925000Y-136337500D03*
X105975000Y-134462500D03*
%TD*%
D26*
%TO.C,HE22*%
X230412500Y-94537500D03*
X228512500Y-94537500D03*
X229462500Y-96412500D03*
%TD*%
D21*
%TO.C,LEDC6*%
X143075000Y-79775000D03*
X143075000Y-80735000D03*
%TD*%
%TO.C,HECC5*%
X116475000Y-75007500D03*
X116475000Y-75967500D03*
%TD*%
D19*
%TO.C,USBR2*%
X55075000Y-74890000D03*
X55075000Y-75910000D03*
%TD*%
D55*
%TO.C,SD1*%
X69112500Y-69550000D03*
X69112500Y-70500000D03*
X69112500Y-71450000D03*
X71387500Y-71450000D03*
X71387500Y-69550000D03*
%TD*%
D21*
%TO.C,HECC26*%
X80756250Y-113107500D03*
X80756250Y-114067500D03*
%TD*%
%TO.C,HECC2*%
X59325000Y-75007500D03*
X59325000Y-75967500D03*
%TD*%
%TO.C,HECC27*%
X102187500Y-113107500D03*
X102187500Y-114067500D03*
%TD*%
%TO.C,HECC41*%
X226012500Y-132157500D03*
X226012500Y-133117500D03*
%TD*%
D26*
%TO.C,HE11*%
X235175000Y-75487500D03*
X233275000Y-75487500D03*
X234225000Y-77362500D03*
%TD*%
D22*
%TO.C,LEDC16*%
X111062500Y-102285000D03*
X111062500Y-101325000D03*
%TD*%
D20*
%TO.C,HER34*%
X243681250Y-114097500D03*
X243681250Y-113077500D03*
%TD*%
D21*
%TO.C,HECC9*%
X192675000Y-75007500D03*
X192675000Y-75967500D03*
%TD*%
%LPD*%
M02*
